<svg id="SvgjsSvg1049" xmlns="http://www.w3.org/2000/svg" version="1.1" xmlns:xlink="http://www.w3.org/1999/xlink" xmlns:svgjs="http://svgjs.com/svgjs" width="96" height="87" viewBox="0 0 96 87"><title>Fill 1</title><desc>Created with Avocode.</desc><defs id="SvgjsDefs1050"></defs><path id="SvgjsPath1051" d="M160 8435L256 8435L256 8384L160 8384ZM163 8387L253 8387L253 8432L163 8432Z " fill="#ffffff" fill-opacity="1" transform="matrix(1,0,0,1,-160,-8384)"></path><path id="SvgjsPath1052" d="M160 8444L256 8444L256 8441L160 8441Z " fill="#ffffff" fill-opacity="1" transform="matrix(1,0,0,1,-160,-8384)"></path><path id="SvgjsPath1053" d="M160 8453L256 8453L256 8450L160 8450Z " fill="#ffffff" fill-opacity="1" transform="matrix(1,0,0,1,-160,-8384)"></path><path id="SvgjsPath1054" d="M160 8462L256 8462L256 8459L160 8459Z " fill="#ffffff" fill-opacity="1" transform="matrix(1,0,0,1,-160,-8384)"></path><path id="SvgjsPath1055" d="M160 8471L256 8471L256 8468L160 8468Z " fill="#ffffff" fill-opacity="1" transform="matrix(1,0,0,1,-160,-8384)"></path><path id="SvgjsPath1056" d="M238.57 8396L178.43 8396C177.98000000000002 8399 175 8401.98 171 8402.43L171 8417.57C175 8418.02 177.98 8421 178.43 8425L238.57 8425C239.01999999999998 8421 242 8418.02 245 8417.57L245 8402.43C242 8401.98 239.02 8399 238.57 8396Z " fill-opacity="0" fill="#ffffff" stroke-dasharray="0" stroke-linejoin="miter" stroke-linecap="butt" stroke-opacity="1" stroke="#ffffff" stroke-miterlimit="50" stroke-width="3" transform="matrix(1,0,0,1,-160,-8384)"></path></svg>