<svg id="SvgjsSvg1057" xmlns="http://www.w3.org/2000/svg" version="1.1" xmlns:xlink="http://www.w3.org/1999/xlink" xmlns:svgjs="http://svgjs.com/svgjs" width="96.50900358851209" height="96" viewBox="0 0 96.50900358851209 96"><title>Stroke 1</title><desc>Created with Avocode.</desc><defs id="SvgjsDefs1058"></defs><path id="SvgjsPath1059" d="M546 8443L546 8393L613 8393Z " fill-opacity="0" fill="#ffffff" stroke-dasharray="0" stroke-linejoin="miter" stroke-linecap="butt" stroke-opacity="1" stroke="#ffffff" stroke-miterlimit="50" stroke-width="3" transform="matrix(1,0,0,1,-542.9909964114879,-8380.5)"></path><path id="SvgjsPath1060" d="M545 8405C564.33 8405 580 8420.67 580 8440C580 8459.33 564.33 8475 545 8475 " fill-opacity="0" fill="#ffffff" stroke-dasharray="0" stroke-linejoin="miter" stroke-linecap="butt" stroke-opacity="1" stroke="#ffffff" stroke-miterlimit="50" stroke-width="3" transform="matrix(1,0,0,1,-542.9909964114879,-8380.5)"></path><path id="SvgjsPath1061" d="M638 8475C618.67 8475 603 8459.33 603 8440C603 8420.77 618.51 8405.17 637.69 8405 " fill-opacity="0" fill="#ffffff" stroke-dasharray="0" stroke-linejoin="miter" stroke-linecap="butt" stroke-opacity="1" stroke="#ffffff" stroke-miterlimit="50" stroke-width="3" transform="matrix(1,0,0,1,-542.9909964114879,-8380.5)"></path><path id="SvgjsPath1062" d="M636 8382C636 8386.37 636.6 8390.61 637.73 8394.62 " fill-opacity="0" fill="#ffffff" stroke-dasharray="0" stroke-linejoin="miter" stroke-linecap="butt" stroke-opacity="1" stroke="#ffffff" stroke-miterlimit="50" stroke-width="3" transform="matrix(1,0,0,1,-542.9909964114879,-8380.5)"></path><path id="SvgjsPath1063" d="M637 8442C633.94 8432.58 611.31 8386.63 614.27 8387.08L636.09 8383 " fill-opacity="0" fill="#ffffff" stroke-dasharray="0" stroke-linejoin="miter" stroke-linecap="butt" stroke-opacity="1" stroke="#ffffff" stroke-miterlimit="50" stroke-width="3" transform="matrix(1,0,0,1,-542.9909964114879,-8380.5)"></path></svg>