<svg id="SvgjsSvg1064" xmlns="http://www.w3.org/2000/svg" version="1.1" xmlns:xlink="http://www.w3.org/1999/xlink" xmlns:svgjs="http://svgjs.com/svgjs" width="96" height="96" viewBox="0 0 96 96"><title>Fill 1</title><desc>Created with Avocode.</desc><defs id="SvgjsDefs1065"></defs><path id="SvgjsPath1066" d="M928 8428C928 8454.51 949.49 8476 976 8476C1002.51 8476 1024 8454.51 1024 8428C1024 8401.49 1002.51 8380 976 8380C949.49 8380 928 8401.49 928 8428ZM1021 8428C1021 8452.81 1000.81 8473 976 8473C951.19 8473 931 8452.81 931 8428C931 8403.19 951.19 8383 976 8383C1000.81 8383 1021 8403.19 1021 8428Z " fill="#ffffff" fill-opacity="1" transform="matrix(1,0,0,1,-928,-8380)"></path><path id="SvgjsPath1067" d="M951 8428C951 8441.81 962.19 8453 976 8453C989.81 8453 1001 8441.81 1001 8428C1001 8414.19 989.81 8403 976 8403C962.19 8403 951 8414.19 951 8428ZM998 8428C998 8440.13 988.13 8450 976 8450C963.87 8450 954 8440.13 954 8428C954 8415.87 963.87 8406 976 8406C988.13 8406 998 8415.87 998 8428Z " fill="#ffffff" fill-opacity="1" transform="matrix(1,0,0,1,-928,-8380)"></path><path id="SvgjsPath1068" d="M949 8391L956.94 8398.94L964.8900000000001 8406.890000000001 " fill-opacity="0" fill="#ffffff" stroke-dasharray="0" stroke-linejoin="miter" stroke-linecap="butt" stroke-opacity="1" stroke="#ffffff" stroke-miterlimit="50" stroke-width="3" transform="matrix(1,0,0,1,-928,-8380)"></path><path id="SvgjsPath1069" d="M954.89 8416.89L946.9499999999999 8408.949999999999L938.9999999999999 8400.999999999998 " fill-opacity="0" fill="#ffffff" stroke-dasharray="0" stroke-linejoin="miter" stroke-linecap="butt" stroke-opacity="1" stroke="#ffffff" stroke-miterlimit="50" stroke-width="3" transform="matrix(1,0,0,1,-928,-8380)"></path><path id="SvgjsPath1070" d="M1002.89 8391L994.9499999999999 8398.94L986.9999999999999 8406.890000000001 " fill-opacity="0" fill="#ffffff" stroke-dasharray="0" stroke-linejoin="miter" stroke-linecap="butt" stroke-opacity="1" stroke="#ffffff" stroke-miterlimit="50" stroke-width="3" transform="matrix(1,0,0,1,-928,-8380)"></path><path id="SvgjsPath1071" d="M997 8416.89L1004.94 8408.949999999999L1012.8900000000001 8400.999999999998 " fill-opacity="0" fill="#ffffff" stroke-dasharray="0" stroke-linejoin="miter" stroke-linecap="butt" stroke-opacity="1" stroke="#ffffff" stroke-miterlimit="50" stroke-width="3" transform="matrix(1,0,0,1,-928,-8380)"></path><path id="SvgjsPath1072" d="M949 8464.89L956.94 8456.949999999999L964.8900000000001 8448.999999999998 " fill-opacity="0" fill="#ffffff" stroke-dasharray="0" stroke-linejoin="miter" stroke-linecap="butt" stroke-opacity="1" stroke="#ffffff" stroke-miterlimit="50" stroke-width="3" transform="matrix(1,0,0,1,-928,-8380)"></path><path id="SvgjsPath1073" d="M954.89 8439L946.9499999999999 8446.94L938.9999999999999 8454.890000000001 " fill-opacity="0" fill="#ffffff" stroke-dasharray="0" stroke-linejoin="miter" stroke-linecap="butt" stroke-opacity="1" stroke="#ffffff" stroke-miterlimit="50" stroke-width="3" transform="matrix(1,0,0,1,-928,-8380)"></path><path id="SvgjsPath1074" d="M1002.89 8464.89L994.9499999999999 8456.949999999999L986.9999999999999 8448.999999999998 " fill-opacity="0" fill="#ffffff" stroke-dasharray="0" stroke-linejoin="miter" stroke-linecap="butt" stroke-opacity="1" stroke="#ffffff" stroke-miterlimit="50" stroke-width="3" transform="matrix(1,0,0,1,-928,-8380)"></path><path id="SvgjsPath1075" d="M997 8439L1004.94 8446.94L1012.8900000000001 8454.890000000001 " fill-opacity="0" fill="#ffffff" stroke-dasharray="0" stroke-linejoin="miter" stroke-linecap="butt" stroke-opacity="1" stroke="#ffffff" stroke-miterlimit="50" stroke-width="3" transform="matrix(1,0,0,1,-928,-8380)"></path></svg>