<svg xmlns="http://www.w3.org/2000/svg" width="96" height="96" viewBox="0 0 96 96"><path fill="#011689" d="M0 48a48 48 0 1 0 96 0 48 48 0 0 0-96 0zm93 0c0 24.81-20.19 45-45 45S3 72.81 3 48 23.19 3 48 3s45 20.19 45 45z"/><path fill="#011689" d="M23 48a25 25 0 1 0 50 0 25 25 0 0 0-50 0zm47 0c0 12.13-9.87 22-22 22s-22-9.87-22-22 9.87-22 22-22 22 9.87 22 22z"/><path fill="none" stroke="#011689" stroke-miterlimit="50" stroke-width="3" d="M21 11l7.94 7.94 7.95 7.95M26.89 36.89l-7.94-7.94L11 21M74.89 11l-7.94 7.94L59 26.89M69 36.89l7.94-7.94L84.89 21M21 84.89l7.94-7.94L36.89 69M26.89 59l-7.94 7.94L11 74.89M74.89 84.89l-7.94-7.94L59 69M69 59l7.94 7.94 7.95 7.95"/></svg>