<?xml version="1.0" standalone="no"?>
<!DOCTYPE svg PUBLIC "-//W3C//DTD SVG 1.1//EN" "http://www.w3.org/Graphics/SVG/1.1/DTD/svg11.dtd" >
<svg xmlns="http://www.w3.org/2000/svg" xmlns:xlink="http://www.w3.org/1999/xlink" version="1.1">
<metadata></metadata>
<defs>
<font id="pragmatica_slabserifbook" horiz-adv-x="1228" >
<font-face units-per-em="2048" ascent="1638" descent="-410" />
<missing-glyph horiz-adv-x="477" />
<glyph unicode="&#xfb01;" horiz-adv-x="1132" d="M31 913v127h192v142q0 260 275 260l133 -8v-127q-29 2 -127 2q-100 0 -101 -144v-125h502v-913h146v-127h-451v127h125v786h-322v-786h125v-127h-450v127h145v786h-192zM725 1245v189h180v-189h-180z" />
<glyph unicode="&#xfb02;" horiz-adv-x="1132" d="M31 913v127h192v142q0 260 275 260l133 -8h274v-1307h146v-127h-451v127h125v786h-322v-786h125v-127h-450v127h145v786h-192zM403 1040h322v267l-221 2q-100 0 -101 -144v-125z" />
<glyph horiz-adv-x="0" />
<glyph horiz-adv-x="682" />
<glyph unicode=" "  horiz-adv-x="477" />
<glyph unicode="&#x09;" horiz-adv-x="477" />
<glyph unicode="&#xa0;" horiz-adv-x="477" />
<glyph unicode="!" horiz-adv-x="636" d="M217 0v223h203v-223h-203zM217 883v551h203v-551l-51 -471h-101z" />
<glyph unicode="&#x22;" horiz-adv-x="860" d="M102 1434h271l-82 -394h-107zM487 1434h271l-82 -394h-107z" />
<glyph unicode="#" horiz-adv-x="1187" d="M-20 387l24 127h281l63 414h-285l25 127h281l57 366h125l-57 -366h307l57 366h125l-57 -366h282l-24 -127h-279l-63 -414h282l-24 -127h-279l-55 -367h-125l55 367h-307l-55 -367h-125l55 367h-284zM410 514h307l63 414h-307z" />
<glyph unicode="$" horiz-adv-x="1187" d="M59 0v481h183q0 -193 108 -295q80 -76 193 -82v558q-436 98 -437 415q0 219 160 322q115 74 277 74v118h121v-118q61 0 137 -35q90 -43 131 -109v105h147v-410h-176q0 145 -67 229q-66 82 -172 84v-520q453 -80 452 -424q0 -233 -174 -346q-119 -76 -278 -84v-153h-121 v153q-233 10 -332 193v-156h-152zM285 1083q0 -199 258 -247v501q-92 0 -162 -49q-96 -70 -96 -205zM664 104q123 -4 200 91q70 84 70 198q0 223 -270 250v-539z" />
<glyph unicode="%" horiz-adv-x="1865" d="M109 1051q0 222 127 331q90 78 208 78q119 0 209 -78q127 -109 127 -331q0 -150 -65 -260q-90 -150 -271 -150q-180 0 -270 150q-66 111 -65 260zM240 1051q-1 -109 34 -187q53 -115 170 -114q117 0 170 114q35 78 35 187q0 160 -71 239q-55 61 -134 62q-78 0 -133 -62 q-72 -80 -71 -239zM414 0l929 1434h119l-930 -1434h-118zM1085 393q0 223 127 332q90 78 209 78t209 -78q127 -109 127 -332q0 -150 -65 -260q-90 -150 -271 -149q-180 0 -270 149q-66 111 -66 260zM1217 393q-1 -108 34 -186q53 -115 170 -115t170 115q35 78 35 186 q0 160 -72 240q-55 61 -133 61t-133 -61q-72 -80 -71 -240z" />
<glyph unicode="&#x26;" horiz-adv-x="1398" d="M147 383q0 311 347 467q-135 158 -136 319q0 137 99 226q94 82 235 82q147 0 236 -95q78 -86 78 -206q0 -125 -91 -232q-74 -88 -178 -135l314 -393q33 55 53 178h-117v154h410v-154h-131q-39 -190 -113 -303l109 -129h178v-162h-256l-142 168q-139 -211 -444 -211 q-225 0 -348 139q-102 117 -103 287zM338 385q0 -106 65 -182q80 -92 220 -92q223 0 325 174l-360 448q-250 -100 -250 -348zM526 1169q0 -100 123 -251q193 115 193 258q0 63 -39 106q-43 47 -113 47q-63 0 -108 -39q-55 -45 -56 -121z" />
<glyph unicode="'" horiz-adv-x="475" d="M102 1434h271l-82 -394h-107z" />
<glyph unicode="(" horiz-adv-x="747" d="M145 528q0 399 297 906h136q-250 -483 -250 -906q0 -442 250 -905h-136q-297 506 -297 905z" />
<glyph unicode=")" horiz-adv-x="747" d="M170 -377q250 483 250 905q0 424 -250 906h135q297 -473 297 -906q0 -432 -297 -905h-135z" />
<glyph unicode="*" horiz-adv-x="952" d="M135 1190l33 96l258 -82v271h102v-271l256 82l33 -96l-254 -82l160 -221l-84 -62l-162 222l-164 -222l-82 62l160 221z" />
<glyph unicode="+" d="M102 664v127h449v448h127v-448h448v-127h-448v-449h-127v449h-449z" />
<glyph unicode="," horiz-adv-x="636" d="M217 0v223h203v-286q0 -199 -203 -240v113q43 4 74 43q29 37 28 84v63h-102z" />
<glyph unicode="-" horiz-adv-x="759" d="M102 471v162h555v-162h-555z" />
<glyph unicode="." horiz-adv-x="636" d="M217 0v223h203v-223h-203z" />
<glyph unicode="/" horiz-adv-x="860" d="M0 -379l731 1813h129l-731 -1813h-129z" />
<glyph unicode="0" horiz-adv-x="1187" d="M92 717q0 471 211 655q119 104 291 105q172 0 291 -105q211 -184 211 -655t-211 -656q-119 -104 -291 -104t-291 104q-211 184 -211 656zM283 717q0 -598 311 -598q162 0 242 176q70 156 69 422q0 598 -311 598q-162 0 -242 -176q-70 -156 -69 -422z" />
<glyph unicode="1" horiz-adv-x="1187" d="M307 0v162h246v1110h-246v162h438v-1272h246v-162h-684z" />
<glyph unicode="2" horiz-adv-x="1187" d="M104 0q0 233 140 391q88 100 346 262q147 94 192 140q102 104 103 247q0 131 -80 205q-78 70 -211 70q-137 0 -217 -78t-80 -207v-53h-188v43q0 160 81 276q125 180 410 181q221 0 348 -115q127 -117 127 -320q0 -188 -102 -305q-76 -84 -355 -262q-264 -166 -301 -313 h603v297h161v-459h-977z" />
<glyph unicode="3" horiz-adv-x="1187" d="M82 436h184l6 -47q43 -279 299 -278q322 0 322 303q0 119 -70 188q-70 70 -192 70h-144v155h52q313 0 313 248t-281 248q-274 0 -274 -326h-178q0 479 463 480q260 0 381 -154q80 -104 79 -240q0 -117 -67 -202q-68 -84 -174 -115v-4q117 -16 196 -107q86 -102 86 -256 q0 -205 -143 -325q-137 -117 -356 -117q-276 0 -404 168q-92 121 -98 311z" />
<glyph unicode="4" horiz-adv-x="1187" d="M47 332v162l674 940h194v-940h226v-162h-226v-170h144v-162h-479v162h143v170h-676zM231 494h492v688z" />
<glyph unicode="5" horiz-adv-x="1187" d="M94 367h189q29 -256 290 -256q334 0 334 354q0 176 -98 264q-84 74 -217 74q-201 0 -277 -125h-180l101 756h794v-363h-162v201h-491l-58 -424q123 109 324 108q201 0 326 -131q129 -133 129 -358t-127 -363q-139 -147 -393 -147q-246 0 -373 143q-94 104 -111 267z" />
<glyph unicode="6" horiz-adv-x="1187" d="M90 698q0 778 541 779q383 0 444 -359h-172q-49 205 -274 205q-348 0 -348 -530h4q111 152 350 151q203 0 330 -127q133 -133 133 -354q0 -227 -129 -365q-135 -141 -365 -141q-254 0 -377 156q-137 176 -137 585zM293 459q0 -146 78 -242q86 -106 241 -106 q147 0 228 110q68 94 67 244q0 139 -73 227q-80 98 -226 99q-150 0 -233 -93q-82 -88 -82 -239z" />
<glyph unicode="7" horiz-adv-x="1187" d="M90 1004v430h1026v-131q-248 -272 -397 -644q-100 -244 -139 -497h149v-162h-510v162h162q51 254 147 481q156 362 400 629h-676v-268h-162z" />
<glyph unicode="8" horiz-adv-x="1187" d="M111 406q0 129 69 231q72 109 191 139q-97 35 -152 125q-55 84 -55 191q0 145 86 247q113 137 344 138q231 0 344 -138q86 -102 86 -247q0 -106 -53 -191q-57 -90 -154 -125q119 -31 193 -139q68 -102 67 -231q0 -197 -116 -316q-129 -133 -367 -133t-367 133 q-117 119 -116 316zM295 416q0 -150 96 -234q84 -72 203 -71q117 -1 201 71q98 84 98 234q0 111 -59 184q-80 96 -240 96t-238 -96q-61 -74 -61 -184zM340 1085q0 -242 254 -241q254 -1 254 241q0 86 -43 148q-66 90 -211 90t-211 -90q-43 -61 -43 -148z" />
<glyph unicode="9" horiz-adv-x="1187" d="M90 971q0 227 129 364q133 141 363 142q231 0 350 -125q164 -176 164 -617q0 -778 -541 -778q-383 0 -444 358h172q49 -205 274 -204q348 0 348 530h-4q-111 -152 -350 -152q-201 0 -328 127q-133 133 -133 355zM274 969q0 -141 76 -230q80 -96 228 -96q150 0 235 92 q80 88 80 240q0 146 -78 242q-86 106 -242 106q-147 0 -229 -109q-70 -96 -70 -245z" />
<glyph unicode=":" horiz-adv-x="636" d="M217 0v223h203v-223h-203zM217 817v223h203v-223h-203z" />
<glyph unicode=";" horiz-adv-x="636" d="M217 0v223h203v-286q0 -199 -203 -240v113q43 4 74 43q29 37 28 84v63h-102zM217 817v223h203v-223h-203z" />
<glyph unicode="&#x3c;" d="M78 651v99l1014 583l61 -110l-920 -523l920 -522l-61 -110z" />
<glyph unicode="=" d="M102 438v127h1024v-127h-1024zM102 848v127h1024v-127h-1024z" />
<glyph unicode="&#x3e;" d="M76 178l919 522l-919 523l61 110l1014 -583v-99l-1014 -583z" />
<glyph unicode="?" horiz-adv-x="1122" d="M127 1001q-20 467 461 467q205 0 323 -96q121 -98 121 -274q0 -188 -211 -367q-174 -141 -174 -272v-43h-149q-23 197 92 311q29 33 86 82q61 55 86 78q92 96 92 203q0 86 -55 149q-72 82 -213 82q-291 0 -281 -320h-178zM469 0v223h203v-223h-203z" />
<glyph unicode="@" horiz-adv-x="1767" d="M123 719q0 332 221 549q217 209 539 209q369 0 575 -217q186 -197 187 -500q0 -176 -97 -309q-106 -150 -276 -150q-139 0 -182 98q-49 -111 -250 -110q-166 0 -260 110q-94 106 -95 293q0 174 90 285q94 119 250 119q168 0 242 -113h6v84h156v-516q0 -119 78 -119 q102 0 159 109q49 92 50 219q0 283 -185 446q-174 156 -448 156q-283 0 -463 -195q-168 -184 -168 -448q0 -313 205 -492q176 -154 426 -153q176 0 321 94l60 -109q-174 -102 -381 -102q-328 0 -537 197q-223 207 -223 565zM657 690q0 -268 203 -268q199 0 199 268 q0 271 -197 271q-104 0 -157 -82q-47 -72 -48 -189z" />
<glyph unicode="A" horiz-adv-x="1445" d="M0 0v162h143l420 1110h-160v162h426l482 -1272h135v-162h-481v162h133l-76 209h-606l-76 -209h131v-162h-471zM469 532h500l-250 709z" />
<glyph unicode="B" horiz-adv-x="1456" d="M113 0v162h143v1110h-143v162h772q428 0 428 -365q0 -115 -70 -203t-170 -104v-6q301 -51 301 -357q0 -399 -512 -399h-749zM449 162h399q330 0 330 254q0 248 -330 248h-399v-502zM449 825h387q280 0 280 222q0 225 -274 225h-393v-447z" />
<glyph unicode="C" horiz-adv-x="1458" d="M92 692q0 487 279 678q156 106 370 107q293 0 443 -191v148h151v-430h-161q-10 113 -91 194q-113 117 -329 117q-457 0 -457 -615q0 -256 129 -415q133 -166 356 -166q170 0 285 102q113 98 121 254h192q-27 -205 -139 -336q-160 -182 -467 -182q-319 0 -500 197 q-182 195 -182 538z" />
<glyph unicode="D" horiz-adv-x="1548" d="M113 0v162h143v1110h-143v162h659q238 0 404 -99q290 -173 290 -611q0 -456 -290 -624q-172 -100 -476 -100h-587zM449 162h258q555 0 555 555q0 293 -158 438q-131 117 -342 117h-313v-1110z" />
<glyph unicode="E" horiz-adv-x="1361" d="M113 0v162h143v1110h-143v162h1165v-430h-162v268h-667v-451h571v-162h-571v-497h690v289h161v-451h-1187z" />
<glyph unicode="F" horiz-adv-x="1259" d="M113 0v162h143v1110h-143v162h1106v-430h-162v268h-608v-467h499v-162h-499v-481h143v-162h-479z" />
<glyph unicode="G" horiz-adv-x="1611" d="M92 731q0 358 187 555q182 190 505 191q291 0 428 -191v148h150v-430h-162q-10 119 -98 204q-113 106 -314 107q-293 0 -415 -238q-76 -147 -76 -352q0 -188 74 -342q123 -264 415 -264q236 0 351 168q84 125 84 299h-402v162h731v-162h-153v-586h-150v231h-4 q-131 -274 -477 -274q-289 0 -465 172q-209 201 -209 602z" />
<glyph unicode="H" horiz-adv-x="1632" d="M113 0v162h143v1110h-143v162h479v-162h-143v-436h735v436h-144v162h480v-162h-144v-1110h144v-162h-480v162h144v512h-735v-512h143v-162h-479z" />
<glyph unicode="I" horiz-adv-x="704" d="M113 0v162h143v1110h-143v162h479v-162h-143v-1110h143v-162h-479z" />
<glyph unicode="J" horiz-adv-x="1132" d="M47 401v74h193q0 -180 51 -264q59 -92 196 -92q141 0 197 100q41 80 41 258v795h-154v162h490v-162h-143v-776q0 -285 -99 -410q-100 -129 -334 -129q-438 0 -438 444z" />
<glyph unicode="K" horiz-adv-x="1341" d="M113 0v162h143v1110h-143v162h479v-162h-143v-1110h143v-162h-479zM510 737l446 535h-106v162h444v-162h-118l-439 -524l467 -586h127v-162h-469v162h107z" />
<glyph unicode="L" d="M113 0v162h143v1110h-143v162h479v-162h-143v-1110h577v319h162v-481h-1075z" />
<glyph unicode="M" horiz-adv-x="2027" d="M113 0v162h143v1110h-143v162h438l469 -1190l469 1190h426v-162h-143v-1110h143v-162h-479v162h143v993l4 55h-6l-485 -1210h-156l-487 1210h-5l5 -55v-993h143v-162h-479z" />
<glyph unicode="N" horiz-adv-x="1671" d="M113 0v162h143v1110h-143v162h356l754 -1147v985h-144v162h480v-162h-144v-1272h-211l-755 1147v-985h143v-162h-479z" />
<glyph unicode="O" horiz-adv-x="1552" d="M92 717q0 366 193 567q182 193 491 193q281 0 461 -162q223 -199 223 -598q0 -475 -309 -662q-164 -98 -375 -98q-213 0 -377 98q-307 186 -307 662zM297 717q0 -235 86 -385q121 -213 393 -213q162 0 277 82q202 144 202 512q0 272 -116 430q-125 172 -363 172 q-283 0 -403 -240q-76 -152 -76 -358z" />
<glyph unicode="P" horiz-adv-x="1382" d="M113 0v162h143v1110h-143v162h690q233 0 373 -101q149 -108 149 -312t-133 -323q-141 -127 -410 -127h-333v-409h143v-162h-479zM449 733h325q354 0 354 285q0 254 -354 254h-325v-539z" />
<glyph unicode="Q" horiz-adv-x="1552" d="M92 717q0 272 121 471q178 289 563 289q309 0 492 -193q192 -200 192 -563q0 -373 -207 -594l162 -178l-106 -101l-170 191q-133 -82 -363 -82q-373 0 -551 264q-133 199 -133 496zM297 717q0 -229 86 -381q121 -217 393 -217q150 0 238 57l-160 178l111 97l161 -183 q129 168 129 449q0 348 -184 500q-121 98 -295 98q-178 0 -297 -98q-182 -152 -182 -500z" />
<glyph unicode="R" horiz-adv-x="1497" d="M113 0v162h143v1110h-143v162h747q190 0 316 -68q192 -99 192 -336q0 -121 -72 -227q-78 -115 -213 -166l152 -475h180v-162h-311l-217 608h-438v-446h143v-162h-479zM449 770h411q104 0 187 47q116 65 116 209q0 246 -332 246h-382v-502z" />
<glyph unicode="S" horiz-adv-x="1343" d="M123 0v481h162q4 -143 112 -248q116 -114 294 -114h3q178 0 273 82q80 72 80 184q0 190 -289 252q-344 76 -430 121q-186 94 -187 313q0 199 138 305q133 100 372 101q256 0 385 -172v129h148v-410h-162q-8 129 -125 213q-109 78 -244 78q-147 0 -227 -64 q-80 -63 -80 -176q0 -117 109 -172q61 -31 250 -67q256 -49 368 -119q178 -111 178 -328q0 -264 -213 -369q-127 -63 -303 -63q-340 0 -461 190v-147h-151z" />
<glyph unicode="T" horiz-adv-x="1306" d="M20 922v512h1266v-512h-162v350h-374v-1110h143v-162h-479v162h143v1110h-375v-350h-162z" />
<glyph unicode="U" horiz-adv-x="1581" d="M82 1272v162h479v-162h-143v-692q0 -197 51 -297q84 -164 322 -164q207 0 292 117q80 109 80 344v692h-143v162h479v-162h-143v-717q0 -598 -565 -598q-348 0 -480 207q-86 135 -86 391v717h-143z" />
<glyph unicode="V" horiz-adv-x="1400" d="M0 1272v162h479v-162h-129l361 -1073l360 1073h-127v162h457v-162h-127l-453 -1272h-229l-455 1272h-137z" />
<glyph unicode="W" horiz-adv-x="2025" d="M0 1272v162h475v-162h-123l260 -1043l297 1205h221l297 -1205l259 1043h-121v162h460v-162h-124l-338 -1272h-246l-297 1206l-297 -1206h-246l-338 1272h-139z" />
<glyph unicode="X" horiz-adv-x="1376" d="M10 0v162h133l420 571l-395 539h-127v162h473v-162h-113l285 -402l283 402h-113v162h475v-162h-129l-393 -539l428 -571h129v-162h-479v162h110l-311 434l-303 -434h106v-162h-479z" />
<glyph unicode="Y" horiz-adv-x="1298" d="M0 1272v162h485v-162h-127l304 -502l299 502h-113v162h450v-162h-122l-428 -674v-436h143v-162h-479v162h143v436l-428 674h-127z" />
<glyph unicode="Z" horiz-adv-x="1257" d="M72 0v176l848 1096h-650v-268h-161v430h1036v-154l-838 -1118h717v319h162v-481h-1114z" />
<glyph unicode="[" horiz-adv-x="757" d="M217 -379v1813h432v-127h-252v-1559h252v-127h-432z" />
<glyph unicode="\" horiz-adv-x="860" d="M0 1434h129l731 -1813h-129z" />
<glyph unicode="]" horiz-adv-x="757" d="M109 -252h249v1559h-249v127h432v-1813h-432v127z" />
<glyph unicode="^" horiz-adv-x="905" d="M115 987l245 447h185l246 -447h-144l-194 359l-195 -359h-143z" />
<glyph unicode="_" horiz-adv-x="1017" d="M0 -219h1018v-160h-1018v160z" />
<glyph unicode="`" horiz-adv-x="638" d="M86 1434h217l143 -271h-163z" />
<glyph unicode="a" horiz-adv-x="1165" d="M174 489q115 86 412 113q131 8 159 25q43 25 43 118q0 209 -233 209q-270 0 -270 -212v-9h-172q0 137 84 228q112 120 354 120h4q414 0 414 -340v-10v-604h131v-127h-301v147q-102 -188 -357 -188q-366 0 -366 311q0 147 98 219zM262 279q0 -90 57 -142q53 -51 144 -51 q127 0 215 82q111 100 110 291v73q-29 -23 -229 -51q-168 -29 -209 -47q-88 -43 -88 -155z" />
<glyph unicode="b" horiz-adv-x="1300" d="M82 0v127h135v1180h-135v127h315v-529q82 176 342 176q289 0 406 -231q67 -133 67 -322v-6q0 -305 -165 -450q-127 -113 -312 -113q-219 0 -344 184h-6v-143h-303zM385 526q0 -227 98 -342q82 -98 213 -98q143 0 228 96q98 113 98 340q0 219 -94 334q-82 98 -221 98 q-141 0 -226 -100q-96 -113 -96 -328z" />
<glyph unicode="c" horiz-adv-x="1130" d="M88 528q0 225 96 367q125 186 396 186q211 0 303 -135h6v94h127v-327h-137q-41 241 -293 241h-2q-305 0 -305 -426q0 -193 75 -309q84 -133 246 -133q137 0 213 100q57 76 64 185h172q-12 -145 -93 -252q-119 -160 -360 -160q-174 0 -293 76q-215 139 -215 493z" />
<glyph unicode="d" horiz-adv-x="1296" d="M88 522q0 221 84 363q118 196 382 196h3q238 0 342 -176v402h-135v127h315v-1307h135v-127h-303v143h-6q-94 -184 -344 -184q-223 0 -350 156q-123 152 -123 407zM279 518q0 -255 120 -360q80 -72 201 -72q131 0 215 100q96 115 96 340q0 213 -96 328q-86 100 -225 100 t-219 -102q-92 -113 -92 -334z" />
<glyph unicode="e" horiz-adv-x="1167" d="M88 516q0 201 74 336q123 229 434 229q457 0 481 -551l2 -51h-800q0 -154 75 -264q90 -129 254 -129q246 0 289 215h172q-61 -342 -455 -342q-330 0 -456 244q-70 131 -70 313zM279 606h610q-14 348 -289 348q-178 0 -262 -125q-59 -90 -59 -223z" />
<glyph unicode="f" horiz-adv-x="641" d="M31 913v127h172v142q0 260 274 260q84 0 154 -10v-127q-39 4 -148 4q-100 0 -100 -144v-125h186v-127h-186v-786h145v-127h-471v127h146v786h-172z" />
<glyph unicode="g" horiz-adv-x="1284" d="M88 528q0 553 451 553q260 0 360 -184h6v143h297v-127h-129v-886q0 -256 -196 -361q-115 -61 -271 -61q-381 0 -446 278h172q41 -149 271 -149h3q180 0 250 141q37 76 37 182v113q-131 -211 -336 -211q-201 0 -326 135q-143 152 -143 434zM279 535q0 -272 129 -381 q78 -68 190 -68q96 0 178 74q129 115 129 372q0 201 -82 310q-83 112 -238 112h-3q-303 0 -303 -419z" />
<glyph unicode="h" horiz-adv-x="1310" d="M82 0v127h135v1180h-135v127h315v-539q137 186 357 186q340 0 340 -389v-565h135v-127h-451v127h135v510q0 143 -24 205q-47 112 -190 112h-3q-111 0 -186 -63q-113 -98 -113 -324v-440h135v-127h-450z" />
<glyph unicode="i" horiz-adv-x="614" d="M82 0v127h135v786h-135v127h315v-913h135v-127h-450zM217 1245v189h180v-189h-180z" />
<glyph unicode="j" horiz-adv-x="536" d="M31 -252q137 25 162 49q20 23 20 129v987h-135v127h315v-1136q0 -147 -51 -215q-57 -76 -195 -76q-18 0 -116 8v127zM213 1245v189h180v-189h-180z" />
<glyph unicode="k" horiz-adv-x="1112" d="M82 0v127h135v1180h-135v127h315v-1307h135v-127h-450zM449 545l311 368h-101v127h406v-127h-119l-311 -362l340 -424h137v-127h-238z" />
<glyph unicode="l" horiz-adv-x="614" d="M82 0v127h135v1180h-135v127h315v-1307h135v-127h-450z" />
<glyph unicode="m" horiz-adv-x="1925" d="M82 0v127h135v786h-135v127h315v-149q86 190 320 190q242 0 297 -223q102 223 360 223q334 0 334 -409v-545h135v-127h-444v127h129v532q0 295 -201 295q-274 0 -274 -333v-494h129v-127h-439v127h129v530q0 297 -200 297q-115 0 -193 -90q-82 -94 -82 -243v-494h129 v-127h-444z" />
<glyph unicode="n" horiz-adv-x="1312" d="M82 0v127h135v786h-135v127h315v-145q127 186 357 186q342 0 342 -389v-565h135v-127h-451v127h135v510q0 137 -26 201q-47 116 -191 116h-2q-111 0 -186 -63q-113 -98 -113 -324v-440h135v-127h-450z" />
<glyph unicode="o" horiz-adv-x="1200" d="M88 520q0 235 115 385q135 176 397 176t397 -176q115 -150 115 -385q0 -236 -115 -385q-135 -176 -397 -176t-397 176q-115 150 -115 385zM279 522q-1 -436 321 -436t322 436t-322 436t-321 -436z" />
<glyph unicode="p" horiz-adv-x="1292" d="M82 -252h135v1165h-135v127h303v-143h6q123 184 344 184q205 0 330 -135q139 -147 139 -426q0 -283 -143 -432q-125 -129 -322 -129q-244 0 -342 191v-402h135v-127h-450v127zM385 516q0 -219 109 -336q90 -94 213 -94q127 0 208 92q98 115 99 342q0 205 -82 320 q-83 114 -233 114h-3q-111 0 -190 -71q-121 -111 -121 -367z" />
<glyph unicode="q" horiz-adv-x="1294" d="M88 520q0 242 117 395q127 166 356 166q223 0 342 -184h6v143h303v-127h-135v-1165h135v-127h-450v127h135v399q-98 -188 -342 -188q-262 0 -381 207q-86 145 -86 354zM279 520q0 -229 100 -342q82 -92 211 -92q123 0 211 94q108 114 108 332q0 240 -102 352 q-80 90 -207 90q-141 0 -225 -98q-96 -113 -96 -336z" />
<glyph unicode="r" horiz-adv-x="825" d="M82 0v127h135v786h-135v127h315v-200h4q35 111 136 176q92 59 208 63l54 2v-127q-190 -8 -285 -88q-102 -88 -115 -276q-2 -18 -2 -55v-408h135v-127h-450z" />
<glyph unicode="s" horiz-adv-x="1073" d="M117 0v358h127q12 -123 96 -198q82 -74 201 -74q243 0 243 181q0 67 -30 102q-47 53 -183 86l-110 24q-158 35 -228 88q-96 72 -96 215q0 154 117 234q97 65 253 65h5q197 0 281 -123h6v82h121v-286h-127q-8 61 -56 116q-74 84 -202 84q-211 0 -211 -163q0 -96 86 -140 q35 -18 196 -53q186 -43 262 -96q102 -74 103 -215q0 -328 -402 -328q-225 0 -319 143h-6v-102h-127z" />
<glyph unicode="t" horiz-adv-x="655" d="M27 913v127h186v312h180v-312h221v-127h-221v-661q0 -78 13 -100q20 -43 96 -43q49 0 112 18v-127q-96 -41 -188 -41q-141 0 -186 88q-27 49 -27 168v698h-186z" />
<glyph unicode="u" horiz-adv-x="1312" d="M82 913v127h315v-637q0 -182 62 -256q49 -61 157 -61q299 0 299 387v440h-135v127h316v-913h135v-127h-316v147h-4q-109 -188 -352 -188q-342 0 -342 391v563h-135z" />
<glyph unicode="v" horiz-adv-x="1107" d="M-20 913v127h440v-127h-117l256 -733l252 733h-129v127h446v-127h-129l-340 -913h-208l-342 913h-129z" />
<glyph unicode="w" horiz-adv-x="1638" d="M-20 913v127h432v-127h-123l221 -706l217 833h176l217 -833l221 706h-120v127h438v-127h-133l-301 -913h-193l-217 834l-217 -834h-192l-302 913h-124z" />
<glyph unicode="x" horiz-adv-x="1103" d="M10 0v127h129l312 416l-289 370h-109v127h424v-127h-115l191 -262l186 262h-106v127h416v-127h-113l-281 -370l322 -416h117v-127h-435v127h113l-219 305l-217 -305h113v-127h-439z" />
<glyph unicode="y" horiz-adv-x="1142" d="M-20 913v127h473v-127h-127l284 -714l234 714h-131v127h450v-127h-141l-483 -1292h-287v127h178l88 252l-401 913h-137z" />
<glyph unicode="z" horiz-adv-x="962" d="M53 0v127l623 786h-453v-200h-127v327h778v-127l-604 -786h512v231h127v-358h-856z" />
<glyph unicode="{" horiz-adv-x="749" d="M154 459v135q182 16 182 276q0 37 -4 111t-4 109q0 326 319 344v-109q-143 -31 -143 -195q0 -53 6 -108q6 -57 6 -117q0 -268 -237 -377v-4q238 -109 237 -377q0 -57 -6 -116q-6 -55 -6 -109q0 -164 143 -194v-109q-319 18 -319 344q0 35 4 109t4 110q0 248 -182 277z " />
<glyph unicode="|" horiz-adv-x="978" d="M426 -459v2157h127v-2157h-127z" />
<glyph unicode="}" horiz-adv-x="749" d="M102 -272q143 31 144 194q0 53 -6 109q-6 59 -7 116q0 268 238 377v4q-238 109 -238 377q0 59 7 117q6 55 6 108q0 164 -144 195v109q319 -18 320 -344q0 -35 -4 -109t-4 -111q0 -260 182 -276v-135q-182 -29 -182 -277q0 -37 4 -110q4 -74 4 -109q0 -326 -320 -344v109z " />
<glyph unicode="~" d="M102 623q98 262 273 262q94 0 178 -47l211 -113q27 -27 106 -27q111 0 177 166l79 -33q-90 -262 -272 -262q-94 0 -178 47l-211 113q-57 27 -109 27q-117 0 -174 -166z" />
<glyph horiz-adv-x="1257" d="M72 0v176l848 1096h-650v-268h-161v430h1036v-154l-838 -1118h717v319h162v-481h-1114zM223 1843h193l209 -215l209 215h192l-256 -287h-291z" />
<glyph horiz-adv-x="962" d="M53 0v127l623 786h-453v-200h-127v327h778v-127l-604 -786h512v231h127v-358h-856zM125 1434h181l198 -203l199 203h180l-244 -271h-270z" />
<glyph unicode="&#xa1;" horiz-adv-x="636" d="M217 158l51 471h101l51 -471v-551h-203v551zM217 817v223h203v-223h-203z" />
<glyph unicode="&#xa2;" horiz-adv-x="1187" d="M123 528q0 518 440 551v138h121v-140q158 -23 234 -131h6v94h127v-327h-138q-41 213 -229 235v-858q113 14 174 109q47 74 53 172h172q-12 -137 -82 -238q-104 -156 -317 -172v-149h-121v151q-440 47 -440 565zM313 528q0 -385 250 -436v858q-250 -37 -250 -422z" />
<glyph unicode="&#xa3;" horiz-adv-x="1187" d="M84 623v125h149q-78 162 -77 286q0 270 209 381q115 61 247 62q242 0 342 -160v117h152v-449h-182v68q0 119 -82 204q-84 86 -207 86q-137 0 -215 -92q-76 -88 -76 -229q0 -88 96 -274h289v-125h-240q18 -55 19 -127q0 -174 -133 -295l4 -13q53 23 149 23q57 0 177 -43 q119 -45 159 -45q98 0 174 94l90 -123q-137 -137 -270 -137q-78 0 -223 53q-143 53 -199 53q-117 0 -221 -77l-92 133q207 145 207 342q0 51 -33 162h-213z" />
<glyph unicode="&#xa4;" horiz-adv-x="1187" d="M-115 109l228 227q-106 154 -107 340q0 195 107 340l-228 229l135 135l226 -229q152 117 348 117q209 0 348 -117l227 229l136 -135l-228 -229q109 -147 109 -340q0 -184 -109 -340l228 -227l-136 -136l-227 228q-150 -115 -348 -115q-211 0 -348 115l-226 -228zM158 676 q0 -180 127 -309q129 -129 309 -129q182 0 311 131q129 129 129 307q0 180 -131 309q-129 131 -309 131q-178 0 -307 -131q-129 -129 -129 -309z" />
<glyph unicode="&#xa5;" horiz-adv-x="1187" d="M-45 1272v162h485v-162h-127l293 -522l289 522h-113v162h451v-162h-123l-414 -666h254v-110h-258v-86h258v-111h-258v-137h144v-162h-480v162h144v137h-254v111h254v86h-254v110h248l-412 666h-127z" />
<glyph unicode="&#xa6;" horiz-adv-x="978" d="M426 422h127v-881h-127v881zM426 817v881h127v-881h-127z" />
<glyph unicode="&#xa7;" horiz-adv-x="1185" d="M131 643q0 266 244 326q-109 82 -109 239q0 115 82 189q90 80 248 80t227 -107v64h148v-301h-166q-6 209 -211 208q-154 0 -154 -137q0 -100 97 -160q18 -10 213 -94q305 -129 305 -389q0 -250 -250 -325q125 -61 125 -228q0 -184 -152 -258q-88 -45 -207 -45 q-172 0 -231 98v-55h-147v318h172q-6 -84 45 -150q59 -76 159 -76q188 0 189 156q0 92 -88 147q-27 18 -205 93q-334 137 -334 407zM303 653q0 -133 105 -211q49 -39 272 -135q201 55 201 262q0 106 -78 174q-80 70 -303 150q-197 -55 -197 -240z" />
<glyph unicode="&#xa8;" horiz-adv-x="790" d="M102 1245v189h181v-189h-181zM508 1245v189h180v-189h-180z" />
<glyph unicode="&#xa9;" horiz-adv-x="1679" d="M123 717q0 297 209 506q209 211 508 211t510 -211q207 -209 206 -506q0 -297 -206 -506q-211 -211 -510 -211t-508 211q-209 209 -209 506zM258 717q0 -254 168 -430q170 -178 414 -178t413 178q168 176 168 430t-168 430q-170 178 -413 178q-244 0 -414 -178 q-168 -176 -168 -430zM508 719q0 209 113 309q86 76 215 76q127 0 188 -98v77h98v-223h-127q-18 141 -155 141q-193 0 -193 -282q0 -90 37 -160q53 -104 166 -104q139 0 158 153h135q-45 -256 -295 -256q-186 0 -275 131q-66 96 -65 236z" />
<glyph unicode="&#xaa;" horiz-adv-x="753" d="M76 653v76h612v-76h-612zM92 991q0 115 117 162q53 20 190 35q76 6 93 14q29 16 28 72q0 127 -139 127q-158 0 -164 -133h-102q0 209 266 209q244 0 244 -211v-363h65v-80h-170v90q-72 -111 -207 -110q-221 0 -221 188zM205 995q0 -117 121 -116q184 0 192 215l2 53 q-10 -10 -137 -31q-100 -16 -125 -29q-53 -27 -53 -92z" />
<glyph unicode="&#xab;" horiz-adv-x="946" d="M127 473v168l305 268v-168l-217 -184l217 -184v-168zM487 473v168l306 268v-168l-218 -184l218 -184v-168z" />
<glyph unicode="&#xac;" d="M102 664v127h1024v-414h-127v287h-897z" />
<glyph unicode="&#xad;" horiz-adv-x="759" d="M102 471v162h555v-162h-555z" />
<glyph unicode="&#xae;" horiz-adv-x="1327" d="M123 893q0 225 158 383t383 158t383 -158t157 -383q0 -225 -157 -383q-158 -158 -383 -158t-383 158t-158 383zM252 891q0 -172 119 -293q119 -123 291 -123q170 0 290 123q121 123 121 293q0 172 -121 295q-121 125 -290 125q-170 0 -291 -125q-119 -123 -119 -295z M416 655v76h59v348h-59v76h309q66 0 113 -35q55 -39 55 -114q0 -47 -33 -91q-37 -45 -90 -55l78 -129h65v-76h-147l-100 197h-86v-121h49v-76h-213zM580 930h94q100 0 100 74q0 76 -110 75h-84v-149z" />
<glyph unicode="&#xaf;" horiz-adv-x="851" d="M102 1255v123h648v-123h-648z" />
<glyph unicode="&#xb0;" horiz-adv-x="544" d="M76 1239q0 82 57 139t139 58q82 0 140 -58q57 -57 57 -139t-57 -139t-140 -58q-82 0 -139 58q-57 57 -57 139zM170 1239q0 -41 31 -72t71 -30q41 0 72 30q31 31 31 72t-31 72t-72 30q-41 0 -71 -30q-31 -31 -31 -72z" />
<glyph unicode="&#xb1;" d="M102 164v127h1024v-127h-1024zM102 797v127h449v407h127v-407h448v-127h-448v-367h-127v367h-449z" />
<glyph unicode="&#xb2;" horiz-adv-x="737" d="M76 573q4 141 80 234q53 61 206 158q180 109 181 233q0 164 -172 164q-178 0 -178 -170v-33h-115v27q0 86 43 155q76 119 252 119q133 0 209 -65q80 -70 80 -197q0 -123 -91 -209q-39 -37 -190 -131q-160 -100 -176 -186h375v180h98v-279h-602z" />
<glyph unicode="&#xb3;" horiz-adv-x="737" d="M70 836h110q0 -104 70 -154q51 -37 115 -37q188 0 188 176q0 152 -152 152h-88v98h35q184 0 184 148q0 143 -165 143q-158 0 -168 -191h-107q0 289 279 289q125 0 198 -63q74 -63 74 -174q0 -145 -141 -191v-6q166 -27 166 -213q0 -123 -80 -195q-82 -72 -217 -71 q-285 0 -301 289z" />
<glyph unicode="&#xb4;" horiz-adv-x="638" d="M193 1163l143 271h217l-197 -271h-163z" />
<glyph unicode="&#xb5;" horiz-adv-x="1312" d="M82 913v127h315v-555q0 -399 246 -399q193 0 250 197q23 76 22 252v378h-135v127h316v-913h135v-127h-316v147h-4q-39 -100 -141 -151q-74 -37 -135 -37q-158 0 -238 131v-469h-180v1292h-135z" />
<glyph unicode="&#xb6;" horiz-adv-x="1005" d="M82 1096q0 141 98 239q100 98 240 99h600v-109h-152v-1704h-127v1704h-194v-1704h-127v1137q-143 4 -240 98q-98 96 -98 240z" />
<glyph unicode="&#xb7;" horiz-adv-x="512" d="M156 436v226h202v-226h-202z" />
<glyph unicode="&#xb8;" horiz-adv-x="610" d="M88 -475l35 115q45 -16 127 -17q129 0 129 76t-121 76h-90l31 106h65q272 0 273 -180q0 -72 -50 -123q-68 -70 -213 -70q-76 0 -186 17z" />
<glyph unicode="&#xb9;" horiz-adv-x="737" d="M160 573v99h170v663h-170v99h284v-762h170v-99h-454z" />
<glyph unicode="&#xba;" horiz-adv-x="788" d="M88 653v76h612v-76h-612zM88 1141q1 135 62 223q80 113 243 113q166 0 246 -113q61 -88 61 -223t-61 -223q-80 -115 -246 -115q-164 0 -243 115q-61 88 -62 223zM203 1141q0 -262 190 -262q193 0 193 262q0 260 -193 260q-190 0 -190 -260z" />
<glyph unicode="&#xbb;" horiz-adv-x="946" d="M154 205v168l217 184l-217 184v168l305 -268v-168zM514 205v168l217 184l-217 184v168l305 -268v-168z" />
<glyph unicode="&#xbc;" horiz-adv-x="1705" d="M160 573v99h170v663h-170v99h284v-762h170v-99h-454zM369 0l929 1434h119l-930 -1434h-118zM958 199v98l404 563h117v-563h135v-98h-135v-101h108v-98h-332v98h109v101h-406zM1069 297h295v412z" />
<glyph unicode="&#xbd;" horiz-adv-x="1761" d="M160 573v99h170v663h-170v99h284v-762h170v-99h-454zM369 0l929 1434h119l-930 -1434h-118zM1081 0q4 141 80 233q53 61 207 158q180 109 180 234q0 164 -172 163q-178 0 -178 -170v-32h-115v26q0 86 43 156q76 119 252 119q133 0 209 -66q80 -70 80 -196 q0 -123 -90 -209q-39 -37 -191 -131q-160 -101 -176 -187h375v181h98v-279h-602z" />
<glyph unicode="&#xbe;" horiz-adv-x="1738" d="M70 836h110q0 -104 70 -154q51 -37 115 -37q188 0 188 176q0 152 -152 152h-88v98h35q184 0 184 148q0 143 -165 143q-158 0 -168 -191h-107q0 289 279 289q125 0 198 -63q74 -63 74 -174q0 -145 -141 -191v-6q166 -27 166 -213q0 -123 -80 -195q-82 -72 -217 -71 q-285 0 -301 289zM397 0l930 1434h119l-930 -1434h-119zM991 199v98l404 563h116v-563h136v-98h-136v-101h109v-98h-332v98h109v101h-406zM1102 297h295v412z" />
<glyph unicode="&#xbf;" horiz-adv-x="1122" d="M109 -57q0 188 210 366q174 141 175 273v43h149q23 -197 -92 -312q-29 -33 -86 -82q-63 -55 -86 -77q-92 -96 -92 -203q0 -86 55 -150q72 -82 213 -82q291 0 281 320h178q20 -467 -461 -467q-205 0 -324 96q-121 98 -120 275zM469 817v223h203v-223h-203z" />
<glyph unicode="&#xc0;" horiz-adv-x="1445" d="M0 0v162h143l420 1110h-160v162h426l482 -1272h135v-162h-481v162h133l-76 209h-606l-76 -209h131v-162h-471zM440 1843h230l153 -287h-172zM469 532h500l-250 709z" />
<glyph unicode="&#xc1;" horiz-adv-x="1445" d="M0 0v162h143l420 1110h-160v162h426l482 -1272h135v-162h-481v162h133l-76 209h-606l-76 -209h131v-162h-471zM469 532h500l-250 709zM610 1556l152 287h229l-209 -287h-172z" />
<glyph unicode="&#xc2;" horiz-adv-x="1445" d="M0 0v162h143l420 1110h-160v162h426l482 -1272h135v-162h-481v162h133l-76 209h-606l-76 -209h131v-162h-471zM285 1556l256 287h290l256 -287h-192l-209 216l-209 -216h-192zM469 532h500l-250 709z" />
<glyph unicode="&#xc3;" horiz-adv-x="1445" d="M0 0v162h143l420 1110h-160v162h426l482 -1272h135v-162h-481v162h133l-76 209h-606l-76 -209h131v-162h-471zM258 1579q12 94 80 158q72 72 176 71q84 0 184 -55q98 -57 154 -57q100 0 123 96h133q-14 -98 -72 -160q-70 -76 -180 -76q-61 0 -174 58q-111 55 -168 55 q-98 0 -121 -90h-135zM469 532h500l-250 709z" />
<glyph unicode="&#xc4;" horiz-adv-x="1445" d="M0 0v162h143l420 1110h-160v162h426l482 -1272h135v-162h-481v162h133l-76 209h-606l-76 -209h131v-162h-471zM360 1581v162h193v-162h-193zM469 532h500l-250 709zM803 1581v162h192v-162h-192z" />
<glyph unicode="&#xc5;" horiz-adv-x="1445" d="M0 0v162h143l420 1110h-160v162h426l482 -1272h135v-162h-481v162h133l-76 209h-606l-76 -209h131v-162h-471zM469 532h500l-250 709zM489 1696q1 86 58 143t143 57t144 -57q57 -57 57 -143t-57 -144q-57 -57 -144 -57q-86 0 -143 57t-58 144zM575 1696q0 -47 33 -82 q35 -33 82 -33t82 33q33 35 33 82t-33 82q-35 33 -82 32q-47 0 -82 -32q-33 -35 -33 -82z" />
<glyph unicode="&#xc6;" horiz-adv-x="2117" d="M0 0v162h150l618 1110h-135v162h1401v-430h-162v268h-668v-451h572v-162h-572v-497h690v289h162v-451h-1188v162h144v209h-541l-115 -209h123v-162h-479zM557 532h455v740h-56z" />
<glyph unicode="&#xc7;" horiz-adv-x="1458" d="M92 692q0 487 279 678q156 106 370 107q293 0 443 -191v148h151v-430h-161q-10 113 -91 194q-113 117 -329 117q-457 0 -457 -615q0 -256 129 -415q133 -166 356 -166q170 0 285 102q113 98 121 254h192q-27 -205 -139 -336q-160 -182 -467 -182q-319 0 -500 197 q-182 195 -182 538zM479 -508l39 125q45 -16 137 -16q141 0 142 82q0 82 -133 81h-97l33 117h72q297 0 297 -198q0 -78 -54 -132q-74 -76 -231 -75q-86 0 -205 16z" />
<glyph unicode="&#xc8;" horiz-adv-x="1361" d="M113 0v162h143v1110h-143v162h1165v-430h-162v268h-667v-451h571v-162h-571v-497h690v289h161v-451h-1187zM463 1843h229l154 -287h-172z" />
<glyph unicode="&#xc9;" horiz-adv-x="1361" d="M113 0v162h143v1110h-143v162h1165v-430h-162v268h-667v-451h571v-162h-571v-497h690v289h161v-451h-1187zM584 1556l151 287h230l-209 -287h-172z" />
<glyph unicode="&#xca;" horiz-adv-x="1361" d="M113 0v162h143v1110h-143v162h1165v-430h-162v268h-667v-451h571v-162h-571v-497h690v289h161v-451h-1187zM315 1556l256 287h291l256 -287h-192l-209 216l-209 -216h-193z" />
<glyph unicode="&#xcb;" horiz-adv-x="1361" d="M113 0v162h143v1110h-143v162h1165v-430h-162v268h-667v-451h571v-162h-571v-497h690v289h161v-451h-1187zM391 1581v162h193v-162h-193zM834 1581v162h192v-162h-192z" />
<glyph unicode="&#xcc;" horiz-adv-x="704" d="M72 1843h229l154 -287h-172zM113 0v162h143v1110h-143v162h479v-162h-143v-1110h143v-162h-479z" />
<glyph unicode="&#xcd;" horiz-adv-x="704" d="M113 0v162h143v1110h-143v162h479v-162h-143v-1110h143v-162h-479zM258 1556l152 287h229l-209 -287h-172z" />
<glyph unicode="&#xce;" horiz-adv-x="704" d="M-47 1556l256 287h291l256 -287h-193l-209 216l-209 -216h-192zM113 0v162h143v1110h-143v162h479v-162h-143v-1110h143v-162h-479z" />
<glyph unicode="&#xcf;" horiz-adv-x="704" d="M37 1581v162h192v-162h-192zM113 0v162h143v1110h-143v162h479v-162h-143v-1110h143v-162h-479zM479 1581v162h193v-162h-193z" />
<glyph unicode="&#xd0;" horiz-adv-x="1548" d="M63 688v127h193v457h-143v162h659q238 0 404 -99q291 -174 290 -614q0 -453 -290 -621q-172 -100 -476 -100h-587v162h143v526h-193zM449 162h258q555 0 555 555q0 293 -158 438q-131 117 -342 117h-313v-457h405v-127h-405v-526z" />
<glyph unicode="&#xd1;" horiz-adv-x="1671" d="M113 0v162h143v1110h-143v162h356l754 -1147v985h-144v162h480v-162h-144v-1272h-211l-755 1147v-985h143v-162h-479zM403 1579q12 94 80 158q72 72 176 71q84 0 185 -55q98 -57 153 -57q100 0 123 96h133q-14 -98 -71 -160q-70 -76 -181 -76q-61 0 -174 58 q-111 55 -168 55q-98 0 -120 -90h-136z" />
<glyph unicode="&#xd2;" horiz-adv-x="1552" d="M92 717q0 366 193 567q182 193 491 193q281 0 461 -162q223 -199 223 -598q0 -475 -309 -662q-164 -98 -375 -98q-213 0 -377 98q-307 186 -307 662zM297 717q0 -235 86 -385q121 -213 393 -213q162 0 277 82q203 145 202 516q0 268 -116 426q-125 172 -363 172 q-283 0 -403 -240q-76 -152 -76 -358zM516 1843h229l154 -287h-172z" />
<glyph unicode="&#xd3;" horiz-adv-x="1552" d="M92 717q0 366 193 567q182 193 491 193q281 0 461 -162q223 -199 223 -598q0 -475 -309 -662q-164 -98 -375 -98q-213 0 -377 98q-307 186 -307 662zM297 717q0 -235 86 -385q121 -213 393 -213q162 0 277 82q203 145 202 516q0 268 -116 426q-125 172 -363 172 q-283 0 -403 -240q-76 -152 -76 -358zM659 1556l152 287h229l-209 -287h-172z" />
<glyph unicode="&#xd4;" horiz-adv-x="1552" d="M92 717q0 366 193 567q182 193 491 193q281 0 461 -162q223 -199 223 -598q0 -475 -309 -662q-164 -98 -375 -98q-213 0 -377 98q-307 186 -307 662zM297 717q0 -235 86 -385q121 -213 393 -213q162 0 277 82q203 145 202 516q0 268 -116 426q-125 172 -363 172 q-283 0 -403 -240q-76 -152 -76 -358zM375 1556l256 287h291l256 -287h-193l-209 216l-209 -216h-192z" />
<glyph unicode="&#xd5;" horiz-adv-x="1552" d="M92 717q0 366 193 567q182 193 491 193q281 0 461 -162q223 -199 223 -598q0 -475 -309 -662q-164 -98 -375 -98q-213 0 -377 98q-307 186 -307 662zM297 717q0 -235 86 -385q121 -213 393 -213q162 0 277 82q203 145 202 516q0 268 -116 426q-125 172 -363 172 q-283 0 -403 -240q-76 -152 -76 -358zM350 1579q12 94 80 158q72 72 176 71q84 0 185 -55q98 -57 153 -57q100 0 123 96h133q-14 -98 -72 -160q-70 -76 -180 -76q-61 0 -174 58q-111 55 -168 55q-98 0 -121 -90h-135z" />
<glyph unicode="&#xd6;" horiz-adv-x="1552" d="M92 717q0 366 193 567q182 193 491 193q281 0 461 -162q223 -199 223 -598q0 -475 -309 -662q-164 -98 -375 -98q-213 0 -377 98q-307 186 -307 662zM297 717q0 -235 86 -385q121 -213 393 -213q162 0 277 82q203 145 202 516q0 268 -116 426q-125 172 -363 172 q-283 0 -403 -240q-76 -152 -76 -358zM459 1581v162h192v-162h-192zM901 1581v162h193v-162h-193z" />
<glyph unicode="&#xd7;" d="M133 324l391 391l-391 391l90 90l391 -391l392 391l90 -90l-391 -391l391 -391l-90 -91l-392 392l-391 -392z" />
<glyph unicode="&#xd8;" horiz-adv-x="1552" d="M45 -53l203 241q-156 182 -156 529q0 367 193 567q182 193 491 193q285 0 432 -140l166 199l101 -70l-181 -215q166 -205 166 -534q0 -475 -309 -662q-164 -98 -375 -98q-289 0 -446 145l-193 -231zM297 717q0 -233 80 -375l715 856q-117 117 -316 117q-178 0 -297 -98 q-182 -152 -182 -500zM449 244q113 -125 327 -125q162 0 277 82q203 145 202 516q0 217 -90 381z" />
<glyph unicode="&#xd9;" horiz-adv-x="1581" d="M82 1272v162h479v-162h-143v-692q0 -197 51 -297q84 -164 322 -164q207 0 292 117q80 109 80 344v692h-143v162h479v-162h-143v-717q0 -598 -565 -598q-348 0 -480 207q-86 135 -86 391v717h-143zM524 1843h230l153 -287h-172z" />
<glyph unicode="&#xda;" horiz-adv-x="1581" d="M82 1272v162h479v-162h-143v-692q0 -197 51 -297q84 -164 322 -164q207 0 292 117q80 109 80 344v692h-143v162h479v-162h-143v-717q0 -598 -565 -598q-348 0 -480 207q-86 135 -86 391v717h-143zM694 1556l152 287h229l-209 -287h-172z" />
<glyph unicode="&#xdb;" horiz-adv-x="1581" d="M82 1272v162h479v-162h-143v-692q0 -197 51 -297q84 -164 322 -164q207 0 292 117q80 109 80 344v692h-143v162h479v-162h-143v-717q0 -598 -565 -598q-348 0 -480 207q-86 135 -86 391v717h-143zM389 1556l256 287h291l256 -287h-193l-208 216l-209 -216h-193z" />
<glyph unicode="&#xdc;" horiz-adv-x="1581" d="M82 1272v162h479v-162h-143v-692q0 -197 51 -297q84 -164 322 -164q207 0 292 117q80 109 80 344v692h-143v162h479v-162h-143v-717q0 -598 -565 -598q-348 0 -480 207q-86 135 -86 391v717h-143zM473 1581v162h193v-162h-193zM915 1581v162h193v-162h-193z" />
<glyph unicode="&#xdd;" horiz-adv-x="1298" d="M0 1272v162h485v-162h-127l304 -502l299 502h-113v162h450v-162h-122l-428 -674v-436h143v-162h-479v162h143v436l-428 674h-127zM573 1556l152 287h229l-209 -287h-172z" />
<glyph unicode="&#xde;" horiz-adv-x="1390" d="M113 0v162h143v1110h-143v162h479v-162h-143v-115h354q233 0 373 -100q150 -109 149 -316q0 -201 -133 -319q-141 -127 -410 -127h-333v-133h143v-162h-479zM449 457h325q354 0 354 284q0 254 -354 254h-325v-538z" />
<glyph unicode="&#xdf;" d="M82 0v127h133v805q0 233 64 346q98 172 370 172q188 0 293 -100q94 -92 94 -248q0 -100 -53 -180q-53 -82 -137 -103v-6q131 -25 211 -125q84 -106 84 -266q0 -270 -195 -377q-106 -59 -246 -59q-72 0 -153 14v133q49 -18 121 -18q92 0 163 45q123 78 123 266 q0 307 -356 307h-51v125l63 -2q246 0 246 234q0 233 -209 233q-125 0 -178 -59q-74 -82 -74 -306v-958h-313z" />
<glyph unicode="&#xe0;" horiz-adv-x="1165" d="M76 272q0 145 98 217q115 86 412 113q131 8 159 25q43 25 43 118q0 209 -233 209q-276 0 -270 -221h-172q0 137 84 228q113 121 358 120q420 0 414 -350v-604h131v-127h-301v147q-102 -188 -357 -188q-367 0 -366 313zM262 279q0 -90 57 -142q53 -51 144 -51 q127 0 215 82q111 100 110 291v73q-29 -23 -229 -51q-168 -29 -209 -47q-88 -43 -88 -155zM332 1434h217l143 -271h-163z" />
<glyph unicode="&#xe1;" horiz-adv-x="1165" d="M76 272q0 145 98 217q115 86 412 113q131 8 159 25q43 25 43 118q0 209 -233 209q-276 0 -270 -221h-172q0 137 84 228q113 121 358 120q420 0 414 -350v-604h131v-127h-301v147q-102 -188 -357 -188q-367 0 -366 313zM262 279q0 -90 57 -142q53 -51 144 -51 q127 0 215 82q111 100 110 291v73q-29 -23 -229 -51q-168 -29 -209 -47q-88 -43 -88 -155zM438 1163l144 271h217l-197 -271h-164z" />
<glyph unicode="&#xe2;" horiz-adv-x="1165" d="M76 272q0 145 98 217q115 86 412 113q131 8 159 25q43 25 43 118q0 209 -233 209q-276 0 -270 -221h-172q0 137 84 228q113 121 358 120q420 0 414 -350v-604h131v-127h-301v147q-102 -188 -357 -188q-367 0 -366 313zM165 1163l244 271h270l244 -271h-180l-199 203 l-198 -203h-181zM262 279q0 -90 57 -142q53 -51 144 -51q127 0 215 82q111 100 110 291v73q-29 -23 -229 -51q-168 -29 -209 -47q-88 -43 -88 -155z" />
<glyph unicode="&#xe3;" horiz-adv-x="1165" d="M76 272q0 145 98 217q115 86 412 113q131 8 159 25q43 25 43 118q0 209 -233 209q-276 0 -270 -221h-172q0 137 84 228q113 121 358 120q420 0 414 -350v-604h131v-127h-301v147q-102 -188 -357 -188q-367 0 -366 313zM166 1245q14 86 72 144q63 61 155 61q74 0 152 -45 q98 -57 151 -57q84 0 109 86h119q-41 -209 -228 -209q-66 0 -168 53q-94 49 -137 49q-96 0 -104 -82h-121zM262 279q0 -90 57 -142q53 -51 144 -51q127 0 215 82q111 100 110 291v73q-29 -23 -229 -51q-168 -29 -209 -47q-88 -43 -88 -155z" />
<glyph unicode="&#xe4;" horiz-adv-x="1165" d="M76 272q0 145 98 217q115 86 412 113q131 8 159 25q43 25 43 118q0 209 -233 209q-276 0 -270 -221h-172q0 137 84 228q113 121 358 120q420 0 414 -350v-604h131v-127h-301v147q-102 -188 -357 -188q-367 0 -366 313zM262 279q0 -90 57 -142q53 -51 144 -51 q127 0 215 82q111 100 110 291v73q-29 -23 -229 -51q-168 -29 -209 -47q-88 -43 -88 -155zM272 1245v189h181v-189h-181zM678 1245v189h180v-189h-180z" />
<glyph unicode="&#xe5;" horiz-adv-x="1165" d="M76 272q0 145 98 217q115 86 412 113q131 8 159 25q43 25 43 118q0 209 -233 209q-276 0 -270 -221h-172q0 137 84 228q113 121 358 120q420 0 414 -350v-604h131v-127h-301v147q-102 -188 -357 -188q-367 0 -366 313zM262 279q0 -90 57 -142q53 -51 144 -51 q127 0 215 82q111 100 110 291v73q-29 -23 -229 -51q-168 -29 -209 -47q-88 -43 -88 -155zM354 1317q1 80 56 135t135 55t135 -55t55 -135t-55 -135t-135 -56q-80 0 -135 56q-55 55 -56 135zM438 1317q0 -45 31 -76t76 -31t76 31t30 76q0 45 -30 76q-31 31 -76 30 q-45 0 -76 -30q-31 -31 -31 -76z" />
<glyph unicode="&#xe6;" horiz-adv-x="1871" d="M76 272q0 143 98 217q121 90 418 113q133 8 162 25q45 25 45 118q0 209 -234 209q-276 0 -270 -221h-172q-4 150 100 244q119 104 340 104q287 0 357 -176q113 176 374 176q489 0 490 -551v-51h-805q0 -150 68 -256q88 -137 260 -137q225 0 286 215h172 q-61 -342 -446 -342q-315 0 -436 225q-129 -225 -406 -225q-401 0 -401 313zM262 279q0 -78 47 -129q57 -63 164 -64q180 0 264 133q61 96 62 225v88q-33 -25 -234 -51q-170 -29 -211 -47q-92 -43 -92 -155zM979 606h618q6 133 -53 228q-78 121 -244 120q-158 0 -243 -106 q-78 -96 -78 -242z" />
<glyph unicode="&#xe7;" horiz-adv-x="1130" d="M88 528q0 225 96 367q125 186 396 186q211 0 303 -135h6v94h127v-327h-137q-41 242 -295 241q-305 0 -305 -426q0 -193 75 -309q84 -133 246 -133q137 0 213 100q57 76 64 185h172q-12 -145 -93 -252q-119 -160 -360 -160q-174 0 -293 76q-215 139 -215 493zM344 -475 l35 115q45 -16 127 -17q129 0 129 76t-121 76h-90l31 106h65q272 0 273 -180q0 -72 -50 -123q-68 -70 -213 -70q-76 0 -186 17z" />
<glyph unicode="&#xe8;" horiz-adv-x="1167" d="M88 516q0 201 74 336q123 229 434 229q457 0 481 -551l2 -51h-800q0 -154 75 -264q90 -129 254 -129q246 0 289 215h172q-61 -342 -455 -342q-330 0 -456 244q-70 131 -70 313zM279 606h610q-14 348 -289 348q-178 0 -262 -125q-59 -90 -59 -223zM350 1434h217l143 -271 h-163z" />
<glyph unicode="&#xe9;" horiz-adv-x="1167" d="M88 516q0 201 74 336q123 229 434 229q457 0 481 -551l2 -51h-800q0 -154 75 -264q90 -129 254 -129q246 0 289 215h172q-61 -342 -455 -342q-330 0 -456 244q-70 131 -70 313zM279 606h610q-14 348 -289 348q-178 0 -262 -125q-59 -90 -59 -223zM457 1163l143 271h217 l-196 -271h-164z" />
<glyph unicode="&#xea;" horiz-adv-x="1167" d="M88 516q0 201 74 336q123 229 434 229q457 0 481 -551l2 -51h-800q0 -154 75 -264q90 -129 254 -129q246 0 289 215h172q-61 -342 -455 -342q-330 0 -456 244q-70 131 -70 313zM204 1163l244 271h270l244 -271h-180l-199 203l-198 -203h-181zM279 606h610 q-14 348 -289 348q-178 0 -262 -125q-59 -90 -59 -223z" />
<glyph unicode="&#xeb;" horiz-adv-x="1167" d="M88 516q0 201 74 336q123 229 434 229q457 0 481 -551l2 -51h-800q0 -154 75 -264q90 -129 254 -129q246 0 289 215h172q-61 -342 -455 -342q-330 0 -456 244q-70 131 -70 313zM279 606h610q-14 348 -289 348q-178 0 -262 -125q-59 -90 -59 -223zM291 1245v189h180v-189 h-180zM696 1245v189h181v-189h-181z" />
<glyph unicode="&#xec;" horiz-adv-x="614" d="M8 1434h217l143 -271h-163zM82 0v127h135v786h-135v127h315v-913h135v-127h-450z" />
<glyph unicode="&#xed;" horiz-adv-x="614" d="M82 0v127h135v786h-135v127h315v-913h135v-127h-450zM176 1163l143 271h218l-197 -271h-164z" />
<glyph unicode="&#xee;" horiz-adv-x="614" d="M-105 1163l244 271h270l244 -271h-180l-199 203l-198 -203h-181zM82 0v127h135v786h-135v127h315v-913h135v-127h-450z" />
<glyph unicode="&#xef;" horiz-adv-x="614" d="M-33 1245v189h180v-189h-180zM82 0v127h135v786h-135v127h315v-913h135v-127h-450zM373 1245v189h180v-189h-180z" />
<glyph unicode="&#xf0;" horiz-adv-x="1212" d="M88 483q0 244 115 391q129 166 383 166q297 0 403 -235h6q-35 299 -350 448l-283 -180l-47 74l236 147q-96 45 -260 80l28 127q195 -33 367 -110l174 104l45 -70l-129 -77q205 -121 289 -293q72 -152 72 -393q0 -406 -193 -580q-135 -123 -356 -123q-229 0 -365 139 q-135 141 -135 385zM279 471q0 -385 325 -385q330 0 330 420q0 144 -49 244q-80 164 -281 163q-326 0 -325 -442z" />
<glyph unicode="&#xf1;" horiz-adv-x="1312" d="M82 0v127h135v786h-135v127h315v-145q127 186 357 186q342 0 342 -389v-565h135v-127h-451v127h135v510q0 137 -26 201q-47 117 -193 116q-111 0 -186 -63q-113 -98 -113 -324v-440h135v-127h-450zM276 1245q14 86 72 144q63 61 156 61q74 0 151 -45q98 -57 152 -57 q84 0 108 86h119q-41 -209 -227 -209q-66 0 -168 53q-94 49 -137 49q-96 0 -105 -82h-121z" />
<glyph unicode="&#xf2;" horiz-adv-x="1200" d="M88 520q0 235 115 385q135 176 397 176t397 -176q115 -150 115 -385q0 -236 -115 -385q-135 -176 -397 -176t-397 176q-115 150 -115 385zM279 522q-1 -436 321 -436t322 436t-322 436t-321 -436zM367 1434h217l143 -271h-163z" />
<glyph unicode="&#xf3;" horiz-adv-x="1200" d="M88 520q0 235 115 385q135 176 397 176t397 -176q115 -150 115 -385q0 -236 -115 -385q-135 -176 -397 -176t-397 176q-115 150 -115 385zM279 522q-1 -436 321 -436t322 436t-322 436t-321 -436zM473 1163l143 271h218l-197 -271h-164z" />
<glyph unicode="&#xf4;" horiz-adv-x="1200" d="M88 520q0 235 115 385q135 176 397 176t397 -176q115 -150 115 -385q0 -236 -115 -385q-135 -176 -397 -176t-397 176q-115 150 -115 385zM221 1163l244 271h270l244 -271h-180l-199 203l-198 -203h-181zM279 522q-1 -436 321 -436t322 436t-322 436t-321 -436z" />
<glyph unicode="&#xf5;" horiz-adv-x="1200" d="M88 520q0 235 115 385q135 176 397 176t397 -176q115 -150 115 -385q0 -236 -115 -385q-135 -176 -397 -176t-397 176q-115 150 -115 385zM221 1245q14 86 72 144q63 61 156 61q74 0 151 -45q98 -57 152 -57q84 0 108 86h119q-41 -209 -227 -209q-66 0 -168 53 q-94 49 -138 49q-96 0 -104 -82h-121zM279 522q-1 -436 321 -436t322 436t-322 436t-321 -436z" />
<glyph unicode="&#xf6;" horiz-adv-x="1200" d="M88 520q0 235 115 385q135 176 397 176t397 -176q115 -150 115 -385q0 -236 -115 -385q-135 -176 -397 -176t-397 176q-115 150 -115 385zM279 522q-1 -436 321 -436t322 436t-322 436t-321 -436zM307 1245v189h181v-189h-181zM713 1245v189h180v-189h-180z" />
<glyph unicode="&#xf7;" d="M102 664v127h1024v-127h-1024zM492 371q-1 47 28 82q33 41 94 41t95 -41q29 -35 28 -82q0 -47 -28 -82q-33 -41 -95 -41q-61 0 -94 41q-29 35 -28 82zM492 1083q-1 47 28 82q33 41 94 41t95 -41q29 -35 28 -82q0 -47 -28 -82q-33 -41 -95 -40q-61 0 -94 40q-29 35 -28 82 z" />
<glyph unicode="&#xf8;" horiz-adv-x="1200" d="M88 0l115 135q-115 156 -115 387q0 254 123 400q135 160 387 159q207 0 320 -96l112 133l90 -78l-119 -141q106 -168 107 -377q0 -225 -102 -372q-133 -190 -408 -191q-199 0 -309 92l-109 -129zM279 522q0 -166 40 -248l498 592q-78 88 -219 88q-319 0 -319 -432z M387 170q86 -84 211 -84q319 0 320 436q0 164 -35 238z" />
<glyph unicode="&#xf9;" horiz-adv-x="1312" d="M82 913v127h315v-637q0 -182 62 -256q49 -61 157 -61q299 0 299 387v440h-135v127h316v-913h135v-127h-316v147h-4q-109 -188 -352 -188q-342 0 -342 391v563h-135zM422 1434h217l143 -271h-163z" />
<glyph unicode="&#xfa;" horiz-adv-x="1312" d="M82 913v127h315v-637q0 -182 62 -256q49 -61 157 -61q299 0 299 387v440h-135v127h316v-913h135v-127h-316v147h-4q-109 -188 -352 -188q-342 0 -342 391v563h-135zM528 1163l144 271h217l-197 -271h-164z" />
<glyph unicode="&#xfb;" horiz-adv-x="1312" d="M82 913v127h315v-637q0 -182 62 -256q49 -61 157 -61q299 0 299 387v440h-135v127h316v-913h135v-127h-316v147h-4q-109 -188 -352 -188q-342 0 -342 391v563h-135zM256 1163l244 271h270l244 -271h-180l-199 203l-198 -203h-181z" />
<glyph unicode="&#xfc;" horiz-adv-x="1312" d="M82 913v127h315v-637q0 -182 62 -256q49 -61 157 -61q299 0 299 387v440h-135v127h316v-913h135v-127h-316v147h-4q-109 -188 -352 -188q-342 0 -342 391v563h-135zM342 1245v189h180v-189h-180zM748 1245v189h180v-189h-180z" />
<glyph unicode="&#xfd;" horiz-adv-x="1142" d="M-20 913v127h473v-127h-127l284 -714l234 714h-131v127h450v-127h-141l-483 -1292h-287v127h178l88 252l-401 913h-137zM472 1163l143 271h217l-197 -271h-163z" />
<glyph unicode="&#xfe;" horiz-adv-x="1292" d="M82 -252h135v1559h-135v127h315v-537q100 184 338 184q225 0 352 -159q117 -150 117 -402q0 -283 -143 -432q-125 -129 -322 -129q-244 0 -342 191v-402h135v-127h-450v127zM385 516q0 -219 109 -336q90 -94 213 -94q127 0 208 92q98 115 99 342q0 205 -82 320 q-84 115 -236 114q-111 0 -190 -71q-121 -111 -121 -367z" />
<glyph unicode="&#xff;" horiz-adv-x="1142" d="M-20 913v127h473v-127h-127l284 -714l234 714h-131v127h450v-127h-141l-483 -1292h-287v127h178l88 252l-401 913h-137zM293 1245v189h180v-189h-180zM698 1245v189h181v-189h-181z" />
<glyph unicode="&#x100;" horiz-adv-x="1445" d="M0 0v162h143l420 1110h-160v162h426l482 -1272h135v-162h-481v162h133l-76 209h-606l-76 -209h131v-162h-471zM340 1581v123h647v-123h-647zM469 532h500l-250 709z" />
<glyph unicode="&#x101;" horiz-adv-x="1165" d="M76 272q0 145 98 217q115 86 412 113q131 8 159 25q43 25 43 118q0 209 -233 209q-276 0 -270 -221h-172q0 137 84 228q113 121 358 120q420 0 414 -350v-604h131v-127h-301v147q-102 -188 -357 -188q-367 0 -366 313zM242 1255v123h647v-123h-647zM262 279 q0 -90 57 -142q53 -51 144 -51q127 0 215 82q111 100 110 291v73q-29 -23 -229 -51q-168 -29 -209 -47q-88 -43 -88 -155z" />
<glyph unicode="&#x102;" horiz-adv-x="1445" d="M0 0v162h143l420 1110h-160v162h426l482 -1272h135v-162h-481v162h133l-76 209h-606l-76 -209h131v-162h-471zM295 1843h176q27 -160 207 -160t207 160h176q-43 -287 -383 -287t-383 287zM469 532h500l-250 709z" />
<glyph unicode="&#x103;" horiz-adv-x="1165" d="M76 272q0 145 98 217q115 86 412 113q131 8 159 25q43 25 43 118q0 209 -233 209q-276 0 -270 -221h-172q0 137 84 228q113 121 358 120q420 0 414 -350v-604h131v-127h-301v147q-102 -188 -357 -188q-367 0 -366 313zM188 1434h160q23 -158 197 -158q173 0 196 158h160 q-49 -274 -356 -275q-307 0 -357 275zM262 279q0 -90 57 -142q53 -51 144 -51q127 0 215 82q111 100 110 291v73q-29 -23 -229 -51q-168 -29 -209 -47q-88 -43 -88 -155z" />
<glyph unicode="&#x104;" horiz-adv-x="1445" d="M0 0v162h143l420 1110h-160v162h426l482 -1272h135v-162h-64q-131 -78 -131 -211q0 -121 95 -121q90 0 90 107h151q-6 -94 -65 -158q-70 -76 -187 -76q-119 0 -192 56q-76 57 -76 153q0 141 141 250h-243v162h133l-76 209h-606l-76 -209h131v-162h-471zM469 532h500 l-250 709z" />
<glyph unicode="&#x105;" horiz-adv-x="1165" d="M76 272q0 145 98 217q115 86 412 113q131 8 159 25q43 25 43 118q0 209 -233 209q-276 0 -270 -221h-172q0 137 84 228q113 121 358 120q420 0 414 -350v-604h131v-127h-31q-127 -76 -127 -203q0 -115 92 -114q86 0 86 100h146q-6 -88 -64 -152q-68 -72 -178 -71 q-115 0 -184 53q-74 55 -74 147q0 129 135 240h-102v147q-102 -188 -357 -188q-367 0 -366 313zM262 279q0 -90 57 -142q53 -51 144 -51q127 0 215 82q111 100 110 291v73q-29 -23 -229 -51q-168 -29 -209 -47q-88 -43 -88 -155z" />
<glyph unicode="&#x106;" horiz-adv-x="1458" d="M92 692q0 487 279 678q156 106 370 107q293 0 443 -191v148h151v-430h-161q-10 113 -91 194q-113 117 -329 117q-457 0 -457 -615q0 -256 129 -415q133 -166 356 -166q170 0 285 102q113 98 121 254h192q-27 -205 -139 -336q-160 -182 -467 -182q-319 0 -500 197 q-182 195 -182 538zM645 1556l152 287h229l-209 -287h-172z" />
<glyph unicode="&#x107;" horiz-adv-x="1130" d="M88 528q0 225 96 367q125 186 396 186q211 0 303 -135h6v94h127v-327h-137q-41 242 -295 241q-305 0 -305 -426q0 -193 75 -309q84 -133 246 -133q137 0 213 100q57 76 64 185h172q-12 -145 -93 -252q-119 -160 -360 -160q-174 0 -293 76q-215 139 -215 493zM455 1163 l143 271h217l-197 -271h-163z" />
<glyph unicode="&#x108;" horiz-adv-x="1458" d="M92 692q0 487 279 678q156 106 370 107q293 0 443 -191v148h151v-430h-161q-10 113 -91 194q-113 117 -329 117q-457 0 -457 -615q0 -256 129 -415q133 -166 356 -166q170 0 285 102q113 98 121 254h192q-27 -205 -139 -336q-160 -182 -467 -182q-319 0 -500 197 q-182 195 -182 538zM362 1556l256 287h291l256 -287h-192l-209 216l-209 -216h-193z" />
<glyph unicode="&#x109;" horiz-adv-x="1130" d="M88 528q0 225 96 367q125 186 396 186q211 0 303 -135h6v94h127v-327h-137q-41 242 -295 241q-305 0 -305 -426q0 -193 75 -309q84 -133 246 -133q137 0 213 100q57 76 64 185h172q-12 -145 -93 -252q-119 -160 -360 -160q-174 0 -293 76q-215 139 -215 493zM182 1163 l244 271h270l244 -271h-180l-199 203l-198 -203h-181z" />
<glyph unicode="&#x10a;" horiz-adv-x="1458" d="M92 692q0 487 279 678q156 106 370 107q293 0 443 -191v148h151v-430h-161q-10 113 -91 194q-113 117 -329 117q-457 0 -457 -615q0 -256 129 -415q133 -166 356 -166q170 0 285 102q113 98 121 254h192q-27 -205 -139 -336q-160 -182 -467 -182q-319 0 -500 197 q-182 195 -182 538zM670 1581v162h192v-162h-192z" />
<glyph unicode="&#x10b;" horiz-adv-x="1130" d="M88 528q0 225 96 367q125 186 396 186q211 0 303 -135h6v94h127v-327h-137q-41 242 -295 241q-305 0 -305 -426q0 -193 75 -309q84 -133 246 -133q137 0 213 100q57 76 64 185h172q-12 -145 -93 -252q-119 -160 -360 -160q-174 0 -293 76q-215 139 -215 493zM471 1245 v189h189v-189h-189z" />
<glyph unicode="&#x10c;" horiz-adv-x="1458" d="M92 692q0 487 279 678q156 106 370 107q293 0 443 -191v148h151v-430h-161q-10 113 -91 194q-113 117 -329 117q-457 0 -457 -615q0 -256 129 -415q133 -166 356 -166q170 0 285 102q113 98 121 254h192q-27 -205 -139 -336q-160 -182 -467 -182q-319 0 -500 197 q-182 195 -182 538zM365 1843h192l209 -215l209 215h192l-256 -287h-290z" />
<glyph unicode="&#x10d;" horiz-adv-x="1130" d="M88 528q0 225 96 367q125 186 396 186q211 0 303 -135h6v94h127v-327h-137q-41 242 -295 241q-305 0 -305 -426q0 -193 75 -309q84 -133 246 -133q137 0 213 100q57 76 64 185h172q-12 -145 -93 -252q-119 -160 -360 -160q-174 0 -293 76q-215 139 -215 493zM202 1434 h181l198 -203l199 203h180l-244 -271h-270z" />
<glyph unicode="&#x10e;" horiz-adv-x="1548" d="M113 0v162h143v1110h-143v162h659q238 0 404 -99q291 -174 290 -614q0 -453 -290 -621q-172 -100 -476 -100h-587zM313 1843h193l209 -215l209 215h192l-256 -287h-291zM449 162h258q555 0 555 555q0 293 -158 438q-131 117 -342 117h-313v-1110z" />
<glyph unicode="&#x10f;" horiz-adv-x="1441" d="M88 522q0 221 84 363q119 197 385 196q238 0 342 -176v402h-135v127h315v-1307h135v-127h-303v143h-6q-94 -184 -344 -184q-223 0 -350 156q-123 152 -123 407zM279 522q-1 -258 120 -364q80 -72 201 -72q131 0 215 100q96 115 96 340q0 213 -96 328q-86 100 -225 100 t-219 -102q-92 -113 -92 -330zM1239 907v113q43 4 74 43q29 37 28 84v63h-102v224h203v-287q0 -199 -203 -240z" />
<glyph unicode="&#x110;" horiz-adv-x="1548" d="M63 688v127h193v457h-143v162h659q238 0 404 -99q291 -174 290 -614q0 -453 -290 -621q-172 -100 -476 -100h-587v162h143v526h-193zM449 162h258q555 0 555 555q0 293 -158 438q-131 117 -342 117h-313v-457h405v-127h-405v-526z" />
<glyph unicode="&#x111;" horiz-adv-x="1290" d="M88 522q0 221 84 363q119 197 385 196q238 0 342 -176v230h-385v110h385v62h-135v127h315v-189h166v-110h-166v-1008h135v-127h-303v143h-6q-94 -184 -344 -184q-223 0 -350 156q-123 152 -123 407zM279 522q-1 -258 120 -364q80 -72 201 -72q131 0 215 100 q96 115 96 340q0 213 -96 328q-86 100 -225 100t-219 -102q-92 -113 -92 -330z" />
<glyph unicode="&#x112;" horiz-adv-x="1361" d="M113 0v162h143v1110h-143v162h1165v-430h-162v268h-667v-451h571v-162h-571v-497h690v289h161v-451h-1187zM385 1581v123h647v-123h-647z" />
<glyph unicode="&#x113;" horiz-adv-x="1167" d="M88 516q0 201 74 336q123 229 434 229q457 0 481 -551l2 -51h-800q0 -154 75 -264q90 -129 254 -129q246 0 289 215h172q-61 -342 -455 -342q-330 0 -456 244q-70 131 -70 313zM260 1255v123h647v-123h-647zM279 606h610q-14 348 -289 348q-178 0 -262 -125 q-59 -90 -59 -223z" />
<glyph unicode="&#x116;" horiz-adv-x="1361" d="M113 0v162h143v1110h-143v162h1165v-430h-162v268h-667v-451h571v-162h-571v-497h690v289h161v-451h-1187zM612 1581v162h193v-162h-193z" />
<glyph unicode="&#x117;" horiz-adv-x="1167" d="M88 516q0 201 74 336q123 229 434 229q457 0 481 -551l2 -51h-800q0 -154 75 -264q90 -129 254 -129q246 0 289 215h172q-61 -342 -455 -342q-330 0 -456 244q-70 131 -70 313zM279 606h610q-14 348 -289 348q-178 0 -262 -125q-59 -90 -59 -223zM489 1245v189h189v-189 h-189z" />
<glyph unicode="&#x118;" horiz-adv-x="1361" d="M113 0v162h143v1110h-143v162h1165v-430h-162v268h-667v-451h571v-162h-571v-497h690v289h161v-451h-102q-131 -78 -131 -211q0 -121 94 -121q90 0 90 107h152q-6 -94 -66 -158q-70 -76 -186 -76q-119 0 -193 56q-76 57 -75 153q0 141 141 250h-911z" />
<glyph unicode="&#x119;" horiz-adv-x="1167" d="M88 516q0 201 74 336q123 229 434 229q457 0 481 -551l2 -51h-800q0 -154 75 -264q90 -129 254 -129q246 0 289 215h172q-47 -233 -254 -309q-113 -74 -113 -195q0 -115 93 -114q86 0 86 100h145q-6 -88 -63 -152q-68 -72 -179 -71q-115 0 -184 53q-74 55 -74 147 q0 109 90 199h-2q-330 0 -456 244q-70 131 -70 313zM279 606h610q-14 348 -289 348q-178 0 -262 -125q-59 -90 -59 -223z" />
<glyph unicode="&#x11a;" horiz-adv-x="1361" d="M113 0v162h143v1110h-143v162h1165v-430h-162v268h-667v-451h571v-162h-571v-497h690v289h161v-451h-1187zM307 1843h193l209 -215l209 215h192l-256 -287h-291z" />
<glyph unicode="&#x11b;" horiz-adv-x="1167" d="M88 516q0 201 74 336q123 229 434 229q457 0 481 -551l2 -51h-800q0 -154 75 -264q90 -129 254 -129q246 0 289 215h172q-61 -342 -455 -342q-330 0 -456 244q-70 131 -70 313zM204 1434h181l198 -203l199 203h180l-244 -271h-270zM279 606h610q-14 348 -289 348 q-178 0 -262 -125q-59 -90 -59 -223z" />
<glyph unicode="&#x11c;" horiz-adv-x="1611" d="M92 731q0 358 187 555q182 190 505 191q291 0 428 -191v148h150v-430h-162q-10 119 -98 204q-113 106 -314 107q-293 0 -415 -238q-76 -147 -76 -352q0 -188 74 -342q123 -264 415 -264q236 0 351 168q84 125 84 299h-402v162h731v-162h-153v-586h-150v231h-4 q-131 -274 -477 -274q-289 0 -465 172q-209 201 -209 602zM356 1556l256 287h291l256 -287h-192l-209 216l-209 -216h-193z" />
<glyph unicode="&#x11d;" horiz-adv-x="1284" d="M88 528q0 553 451 553q260 0 360 -184h6v143h297v-127h-129v-886q0 -256 -196 -361q-115 -61 -271 -61q-381 0 -446 278h172q41 -150 274 -149q180 0 250 141q37 76 37 182v113q-131 -211 -336 -211q-201 0 -326 135q-143 152 -143 434zM227 1163l244 271h270l244 -271 h-180l-199 203l-198 -203h-181zM279 535q0 -272 129 -381q78 -68 190 -68q96 0 178 74q129 115 129 372q0 201 -82 310q-84 113 -241 112q-303 0 -303 -419z" />
<glyph unicode="&#x11e;" horiz-adv-x="1611" d="M92 731q0 358 187 555q182 190 505 191q291 0 428 -191v148h150v-430h-162q-10 119 -98 204q-113 106 -314 107q-293 0 -415 -238q-76 -147 -76 -352q0 -188 74 -342q123 -264 415 -264q236 0 351 168q84 125 84 299h-402v162h731v-162h-153v-586h-150v231h-4 q-131 -274 -477 -274q-289 0 -465 172q-209 201 -209 602zM377 1843h176q27 -160 207 -160t207 160h176q-43 -287 -383 -287t-383 287z" />
<glyph unicode="&#x11f;" horiz-adv-x="1284" d="M88 528q0 553 451 553q260 0 360 -184h6v143h297v-127h-129v-886q0 -256 -196 -361q-115 -61 -271 -61q-381 0 -446 278h172q41 -150 274 -149q180 0 250 141q37 76 37 182v113q-131 -211 -336 -211q-201 0 -326 135q-143 152 -143 434zM209 1434h160q23 -158 197 -158 q173 0 196 158h160q-49 -274 -356 -275q-307 0 -357 275zM279 535q0 -272 129 -381q78 -68 190 -68q96 0 178 74q129 115 129 372q0 201 -82 310q-84 113 -241 112q-303 0 -303 -419z" />
<glyph unicode="&#x120;" horiz-adv-x="1611" d="M92 731q0 358 187 555q182 190 505 191q291 0 428 -191v148h150v-430h-162q-10 119 -98 204q-113 106 -314 107q-293 0 -415 -238q-76 -147 -76 -352q0 -188 74 -342q123 -264 415 -264q236 0 351 168q84 125 84 299h-402v162h731v-162h-153v-586h-150v231h-4 q-131 -274 -477 -274q-289 0 -465 172q-209 201 -209 602zM705 1581v162h192v-162h-192z" />
<glyph unicode="&#x121;" horiz-adv-x="1284" d="M88 528q0 553 451 553q260 0 360 -184h6v143h297v-127h-129v-886q0 -256 -196 -361q-115 -61 -271 -61q-381 0 -446 278h172q41 -150 274 -149q180 0 250 141q37 76 37 182v113q-131 -211 -336 -211q-201 0 -326 135q-143 152 -143 434zM279 535q0 -272 129 -381 q78 -68 190 -68q96 0 178 74q129 115 129 372q0 201 -82 310q-84 113 -241 112q-303 0 -303 -419zM501 1245v189h189v-189h-189z" />
<glyph unicode="&#x122;" horiz-adv-x="1611" d="M92 731q0 358 187 555q182 190 505 191q291 0 428 -191v148h150v-430h-162q-10 119 -98 204q-113 106 -314 107q-293 0 -415 -238q-76 -147 -76 -352q0 -188 74 -342q123 -264 415 -264q236 0 351 168q84 125 84 299h-402v162h731v-162h-153v-586h-150v231h-4 q-131 -274 -477 -274q-289 0 -465 172q-209 201 -209 602zM647 -123h219v-223q0 -176 -219 -219v121q111 14 111 98v24h-111v199z" />
<glyph unicode="&#x123;" horiz-adv-x="1284" d="M88 528q0 553 451 553q260 0 360 -184h6v143h297v-127h-129v-886q0 -256 -196 -361q-115 -61 -271 -61q-381 0 -446 278h172q41 -150 274 -149q180 0 250 141q37 76 37 182v113q-131 -211 -336 -211q-201 0 -326 135q-143 152 -143 434zM279 535q0 -272 129 -381 q78 -68 190 -68q96 0 178 74q129 115 129 372q0 201 -82 310q-84 113 -241 112q-303 0 -303 -419zM500 1227v207q0 160 202 202v-112q-102 -10 -102 -90v-23h102v-184h-202z" />
<glyph unicode="&#x124;" horiz-adv-x="1632" d="M113 0v162h143v1110h-143v162h479v-162h-143v-436h735v436h-144v162h480v-162h-144v-1110h144v-162h-480v162h144v512h-735v-512h143v-162h-479zM408 1556l256 287h290l256 -287h-192l-209 216l-209 -216h-192z" />
<glyph unicode="&#x125;" horiz-adv-x="1310" d="M-105 1597l244 271h270l244 -271h-180l-199 203l-198 -203h-181zM82 0v127h135v1180h-135v127h315v-539q137 186 357 186q340 0 340 -389v-565h135v-127h-451v127h135v510q0 143 -24 205q-47 113 -193 112q-111 0 -186 -63q-113 -98 -113 -324v-440h135v-127h-450z" />
<glyph unicode="&#x126;" horiz-adv-x="1632" d="M113 0v162h143v846h-141v127h141v137h-143v162h479v-162h-143v-137h735v137h-144v162h480v-162h-144v-137h144v-127h-144v-846h144v-162h-480v162h144v512h-735v-512h143v-162h-479zM449 836h735v172h-735v-172z" />
<glyph unicode="&#x127;" horiz-adv-x="1257" d="M0 1114v111h164v82h-135v127h315v-209h430v-111h-430v-260q137 186 356 186q340 0 340 -389v-524h136v-127h-451v127h135v469q0 143 -24 205q-47 113 -193 112q-111 0 -186 -63q-113 -98 -113 -324v-399h135v-127h-450v127h135v987h-164z" />
<glyph unicode="&#x12a;" horiz-adv-x="704" d="M31 1581v123h647v-123h-647zM113 0v162h143v1110h-143v162h479v-162h-143v-1110h143v-162h-479z" />
<glyph unicode="&#x12b;" horiz-adv-x="614" d="M-49 1255v123h647v-123h-647zM82 0v127h135v786h-135v127h315v-913h135v-127h-450z" />
<glyph unicode="&#x12e;" horiz-adv-x="704" d="M113 0v162h143v1110h-143v162h479v-162h-143v-1110h143v-162h-86q-131 -78 -131 -211q0 -121 94 -121q90 0 90 107h152q-6 -94 -66 -158q-70 -76 -186 -76q-119 0 -193 56q-76 57 -76 153q0 141 142 250h-219z" />
<glyph unicode="&#x12f;" horiz-adv-x="614" d="M82 0v127h135v786h-135v127h315v-913h135v-127h-141q-127 -76 -127 -203q0 -115 92 -114q86 0 86 100h146q-6 -88 -64 -152q-68 -72 -178 -71q-115 0 -184 53q-74 55 -74 147q0 129 135 240h-141zM217 1245v189h180v-189h-180z" />
<glyph unicode="&#x130;" horiz-adv-x="704" d="M113 0v162h143v1110h-143v162h479v-162h-143v-1110h143v-162h-479zM256 1581v162h193v-162h-193z" />
<glyph unicode="&#x131;" horiz-adv-x="614" d="M82 0v127h135v786h-135v127h315v-913h135v-127h-450z" />
<glyph unicode="&#x134;" horiz-adv-x="1132" d="M47 401v74h193q0 -180 51 -264q59 -92 196 -92q141 0 197 100q41 80 41 258v795h-154v162h490v-162h-143v-776q0 -285 -99 -410q-100 -129 -334 -129q-438 0 -438 444zM418 1556l256 287h291l256 -287h-193l-209 216l-209 -216h-192z" />
<glyph unicode="&#x135;" horiz-adv-x="536" d="M-123 1163l244 271h270l244 -271h-180l-199 203l-199 -203h-180zM31 -252q137 25 162 49q20 23 20 129v987h-135v127h315v-1136q0 -147 -51 -215q-57 -76 -195 -76q-18 0 -116 8v127z" />
<glyph unicode="&#x136;" horiz-adv-x="1341" d="M113 0v162h143v1110h-143v162h479v-162h-143v-1110h143v-162h-479zM510 737l446 535h-106v162h444v-162h-118l-439 -524l467 -586h127v-162h-469v162h107zM612 -123h219v-223q0 -176 -219 -219v121q111 14 111 98v24h-111v199z" />
<glyph unicode="&#x137;" horiz-adv-x="1112" d="M82 0v127h135v1180h-135v127h315v-1307h135v-127h-450zM449 545l311 368h-101v127h406v-127h-119l-311 -362l340 -424h137v-127h-238zM475 -123h203v-207q0 -160 -203 -202v112q102 10 103 90v23h-103v184z" />
<glyph unicode="&#x139;" d="M113 0v162h143v1110h-143v162h479v-162h-143v-1110h577v319h162v-481h-1075zM281 1556l151 287h230l-209 -287h-172z" />
<glyph unicode="&#x13a;" horiz-adv-x="614" d="M82 0v127h135v1180h-135v127h315v-1307h135v-127h-450zM222 1538l143 271h217l-197 -271h-163z" />
<glyph unicode="&#x13b;" d="M113 0v162h143v1110h-143v162h479v-162h-143v-1110h577v319h162v-481h-1075zM569 -123h219v-223q0 -176 -219 -219v121q111 14 111 98v24h-111v199z" />
<glyph unicode="&#x13c;" horiz-adv-x="614" d="M82 0v127h135v1180h-135v127h315v-1307h135v-127h-450zM207 -123h203v-207q0 -160 -203 -202v112q102 10 102 90v23h-102v184z" />
<glyph unicode="&#x13d;" d="M113 0v162h143v1110h-143v162h479v-162h-143v-1110h577v319h162v-481h-1075zM731 907v113q43 4 74 43q29 37 29 84v63h-103v224h203v-287q0 -199 -203 -240z" />
<glyph unicode="&#x13e;" horiz-adv-x="759" d="M82 0v127h135v1180h-135v127h315v-1307h135v-127h-450zM557 907v113q43 4 74 43q29 37 28 84v63h-102v224h203v-287q0 -199 -203 -240z" />
<glyph unicode="&#x13f;" d="M113 0v162h143v1110h-143v162h479v-162h-143v-1110h577v319h162v-481h-1075zM823 662v225h203v-225h-203z" />
<glyph unicode="&#x140;" horiz-adv-x="735" d="M82 0v127h135v1180h-135v127h315v-1307h135v-127h-450zM563 557v225h203v-225h-203z" />
<glyph unicode="&#x141;" d="M61 242v172l195 182v676h-143v162h479v-162h-143v-494l372 352v-172l-372 -352v-444h577v319h162v-481h-1075v162h143v262z" />
<glyph unicode="&#x142;" horiz-adv-x="614" d="M-35 467v143l252 166v531h-135v127h315v-539l252 168v-143l-252 -168v-625h135v-127h-450v127h135v506z" />
<glyph unicode="&#x143;" horiz-adv-x="1671" d="M113 0v162h143v1110h-143v162h356l754 -1147v985h-144v162h480v-162h-144v-1272h-211l-755 1147v-985h143v-162h-479zM702 1556l152 287h229l-209 -287h-172z" />
<glyph unicode="&#x144;" horiz-adv-x="1312" d="M82 0v127h135v786h-135v127h315v-145q127 186 357 186q342 0 342 -389v-565h135v-127h-451v127h135v510q0 137 -26 201q-47 117 -193 116q-111 0 -186 -63q-113 -98 -113 -324v-440h135v-127h-450zM529 1163l143 271h217l-197 -271h-163z" />
<glyph unicode="&#x145;" horiz-adv-x="1671" d="M113 0v162h143v1110h-143v162h356l754 -1147v985h-144v162h480v-162h-144v-1272h-211l-755 1147v-985h143v-162h-479zM729 -123h219v-223q0 -176 -219 -219v121q111 14 111 98v24h-111v199z" />
<glyph unicode="&#x146;" horiz-adv-x="1312" d="M82 0v127h135v786h-135v127h315v-145q127 186 357 186q342 0 342 -389v-565h135v-127h-451v127h135v510q0 137 -26 201q-47 117 -193 116q-111 0 -186 -63q-113 -98 -113 -324v-440h135v-127h-450zM485 -123h203v-207q0 -160 -203 -202v112q102 10 103 90v23h-103v184z " />
<glyph unicode="&#x147;" horiz-adv-x="1671" d="M113 0v162h143v1110h-143v162h356l754 -1147v985h-144v162h480v-162h-144v-1272h-211l-755 1147v-985h143v-162h-479zM438 1843h193l209 -215l209 215h192l-256 -287h-291z" />
<glyph unicode="&#x148;" horiz-adv-x="1312" d="M82 0v127h135v786h-135v127h315v-145q127 186 357 186q342 0 342 -389v-565h135v-127h-451v127h135v510q0 137 -26 201q-47 117 -193 116q-111 0 -186 -63q-113 -98 -113 -324v-440h135v-127h-450zM276 1434h181l198 -203l199 203h180l-244 -271h-270z" />
<glyph unicode="&#x14c;" horiz-adv-x="1552" d="M92 717q0 366 193 567q182 193 491 193q281 0 461 -162q223 -199 223 -598q0 -475 -309 -662q-164 -98 -375 -98q-213 0 -377 98q-307 186 -307 662zM297 717q0 -235 86 -385q121 -213 393 -213q162 0 277 82q203 145 202 516q0 268 -116 426q-125 172 -363 172 q-283 0 -403 -240q-76 -152 -76 -358zM453 1581v123h647v-123h-647z" />
<glyph unicode="&#x14d;" horiz-adv-x="1200" d="M88 520q0 235 115 385q135 176 397 176t397 -176q115 -150 115 -385q0 -236 -115 -385q-135 -176 -397 -176t-397 176q-115 150 -115 385zM276 1255v123h648v-123h-648zM279 522q-1 -436 321 -436t322 436t-322 436t-321 -436z" />
<glyph unicode="&#x150;" horiz-adv-x="1552" d="M92 717q0 366 193 567q182 193 491 193q281 0 461 -162q223 -199 223 -598q0 -475 -309 -662q-164 -98 -375 -98q-213 0 -377 98q-307 186 -307 662zM297 717q0 -235 86 -385q121 -213 393 -213q162 0 277 82q203 145 202 516q0 268 -116 426q-125 172 -363 172 q-283 0 -403 -240q-76 -152 -76 -358zM520 1556l144 287h217l-197 -287h-164zM834 1556l143 287h217l-197 -287h-163z" />
<glyph unicode="&#x151;" horiz-adv-x="1200" d="M88 520q0 235 115 385q135 176 397 176t397 -176q115 -150 115 -385q0 -236 -115 -385q-135 -176 -397 -176t-397 176q-115 150 -115 385zM279 522q-1 -436 321 -436t322 436t-322 436t-321 -436zM344 1163l144 271h217l-197 -271h-164zM658 1163l143 271h217l-196 -271 h-164z" />
<glyph unicode="&#x152;" horiz-adv-x="2238" d="M92 717q0 367 193 567q182 193 491 193q215 0 357 -43h1021v-430h-161v268h-668v-451h571v-162h-571v-497h690v289h162v-451h-1044q-135 -43 -357 -43q-213 0 -377 98q-307 186 -307 662zM297 717q0 -236 86 -385q121 -213 393 -213q230 -1 357 69v1057q-141 70 -357 70 q-283 0 -403 -240q-76 -152 -76 -358z" />
<glyph unicode="&#x153;" horiz-adv-x="1990" d="M88 524q0 203 82 340q127 217 436 217q283 0 402 -204q133 205 407 204q487 0 488 -549v-51h-805q0 -158 73 -266q88 -129 254 -129q242 0 295 217h172q-82 -344 -460 -344q-305 0 -424 213q-113 -213 -410 -213q-252 0 -387 164q-123 150 -123 401zM279 524 q0 -268 131 -374q76 -63 188 -64q182 0 264 160q55 111 56 278q0 164 -56 275q-82 156 -264 155q-111 0 -188 -61q-131 -104 -131 -369zM1098 608h614q-20 182 -80 260q-68 86 -213 86q-305 0 -321 -346z" />
<glyph unicode="&#x154;" horiz-adv-x="1497" d="M113 0v162h143v1110h-143v162h747q190 0 316 -68q193 -100 192 -338q0 -119 -72 -225q-78 -115 -213 -166l152 -475h180v-162h-311l-217 608h-438v-446h143v-162h-479zM449 770h411q104 0 187 47q117 66 116 211q0 244 -332 244h-382v-502zM641 1556l152 287h229 l-209 -287h-172z" />
<glyph unicode="&#x155;" horiz-adv-x="825" d="M82 0v127h135v786h-135v127h315v-200h4q35 111 136 176q92 59 208 63l54 2v-127q-190 -8 -285 -88q-102 -88 -115 -276q-2 -18 -2 -55v-408h135v-127h-450zM361 1163l143 271h217l-197 -271h-163z" />
<glyph unicode="&#x156;" horiz-adv-x="1497" d="M113 0v162h143v1110h-143v162h747q190 0 316 -68q193 -100 192 -338q0 -119 -72 -225q-78 -115 -213 -166l152 -475h180v-162h-311l-217 608h-438v-446h143v-162h-479zM449 770h411q104 0 187 47q117 66 116 211q0 244 -332 244h-382v-502zM670 -123h219v-223 q0 -176 -219 -219v121q111 14 110 98v24h-110v199z" />
<glyph unicode="&#x157;" horiz-adv-x="825" d="M82 0v127h135v786h-135v127h315v-200h4q35 111 136 176q92 59 208 63l54 2v-127q-190 -8 -285 -88q-102 -88 -115 -276q-2 -18 -2 -55v-408h135v-127h-450zM205 -123h203v-207q0 -160 -203 -202v112q102 10 102 90v23h-102v184z" />
<glyph unicode="&#x158;" horiz-adv-x="1497" d="M113 0v162h143v1110h-143v162h747q190 0 316 -68q193 -100 192 -338q0 -119 -72 -225q-78 -115 -213 -166l152 -475h180v-162h-311l-217 608h-438v-446h143v-162h-479zM377 1843h192l209 -215l209 215h193l-256 -287h-291zM449 770h411q104 0 187 47q117 66 116 211 q0 244 -332 244h-382v-502z" />
<glyph unicode="&#x159;" horiz-adv-x="825" d="M71 1434h181l198 -203l199 203h180l-244 -271h-270zM82 0v127h135v786h-135v127h315v-200h4q35 111 136 176q92 59 208 63l54 2v-127q-190 -8 -285 -88q-102 -88 -115 -276q-2 -18 -2 -55v-408h135v-127h-450z" />
<glyph unicode="&#x15a;" horiz-adv-x="1343" d="M123 0v481h162q4 -143 112 -248q117 -115 297 -114q178 0 273 82q80 72 80 184q0 190 -289 252q-344 76 -430 121q-186 94 -187 313q0 199 138 305q133 100 372 101q256 0 385 -172v129h148v-410h-162q-8 129 -125 213q-109 78 -244 78q-147 0 -227 -64q-80 -63 -80 -176 q0 -117 109 -172q61 -31 250 -67q256 -49 368 -119q178 -111 178 -328q0 -264 -213 -369q-127 -63 -303 -63q-340 0 -461 190v-147h-151zM555 1556l152 287h229l-209 -287h-172z" />
<glyph unicode="&#x15b;" horiz-adv-x="1073" d="M117 0v358h127q12 -123 96 -198q82 -74 201 -74q244 0 243 182q0 66 -30 101q-47 53 -183 86l-110 24q-158 35 -228 88q-96 72 -96 215q0 154 117 234q98 66 258 65q197 0 281 -123h6v82h121v-286h-127q-8 61 -56 116q-74 84 -202 84q-211 0 -211 -163q0 -96 86 -140 q35 -18 196 -53q186 -43 262 -96q102 -74 103 -215q0 -328 -402 -328q-225 0 -319 143h-6v-102h-127zM412 1163l143 271h217l-197 -271h-163z" />
<glyph unicode="&#x15c;" horiz-adv-x="1343" d="M123 0v481h162q4 -143 112 -248q117 -115 297 -114q178 0 273 82q80 72 80 184q0 190 -289 252q-344 76 -430 121q-186 94 -187 313q0 199 138 305q133 100 372 101q256 0 385 -172v129h148v-410h-162q-8 129 -125 213q-109 78 -244 78q-147 0 -227 -64q-80 -63 -80 -176 q0 -117 109 -172q61 -31 250 -67q256 -49 368 -119q178 -111 178 -328q0 -264 -213 -369q-127 -63 -303 -63q-340 0 -461 190v-147h-151zM270 1556l256 287h291l256 -287h-192l-209 216l-209 -216h-193z" />
<glyph unicode="&#x15d;" horiz-adv-x="1073" d="M117 0v358h127q12 -123 96 -198q82 -74 201 -74q244 0 243 182q0 66 -30 101q-47 53 -183 86l-110 24q-158 35 -228 88q-96 72 -96 215q0 154 117 234q98 66 258 65q197 0 281 -123h6v82h121v-286h-127q-8 61 -56 116q-74 84 -202 84q-211 0 -211 -163q0 -96 86 -140 q35 -18 196 -53q186 -43 262 -96q102 -74 103 -215q0 -328 -402 -328q-225 0 -319 143h-6v-102h-127zM129 1163l244 271h270l244 -271h-180l-199 203l-198 -203h-181z" />
<glyph unicode="&#x15e;" horiz-adv-x="1343" d="M123 0v481h162q4 -143 112 -248q117 -115 297 -114q178 0 273 82q80 72 80 184q0 190 -289 252q-344 76 -430 121q-186 94 -187 313q0 199 138 305q133 100 372 101q256 0 385 -172v129h148v-410h-162q-8 129 -125 213q-109 78 -244 78q-147 0 -227 -64q-80 -63 -80 -176 q0 -117 109 -172q61 -31 250 -67q256 -49 368 -119q178 -111 178 -328q0 -264 -213 -369q-127 -63 -303 -63q-340 0 -461 190v-147h-151zM455 -475l35 115q45 -16 127 -17q129 0 129 76t-121 76h-90l31 106h65q272 0 273 -180q0 -72 -50 -123q-68 -70 -213 -70 q-76 0 -186 17z" />
<glyph unicode="&#x15f;" horiz-adv-x="1073" d="M117 0v358h127q12 -123 96 -198q82 -74 201 -74q244 0 243 182q0 66 -30 101q-47 53 -183 86l-110 24q-158 35 -228 88q-96 72 -96 215q0 154 117 234q98 66 258 65q197 0 281 -123h6v82h121v-286h-127q-8 61 -56 116q-74 84 -202 84q-211 0 -211 -163q0 -96 86 -140 q35 -18 196 -53q186 -43 262 -96q102 -74 103 -215q0 -328 -402 -328q-225 0 -319 143h-6v-102h-127zM291 -475l35 115q45 -16 127 -17q129 0 129 76t-121 76h-90l30 106h66q272 0 272 -180q0 -72 -49 -123q-68 -70 -213 -70q-76 0 -186 17z" />
<glyph unicode="&#x160;" horiz-adv-x="1343" d="M123 0v481h162q4 -143 112 -248q117 -115 297 -114q178 0 273 82q80 72 80 184q0 190 -289 252q-344 76 -430 121q-186 94 -187 313q0 199 138 305q133 100 372 101q256 0 385 -172v129h148v-410h-162q-8 129 -125 213q-109 78 -244 78q-147 0 -227 -64q-80 -63 -80 -176 q0 -117 109 -172q61 -31 250 -67q256 -49 368 -119q178 -111 178 -328q0 -264 -213 -369q-127 -63 -303 -63q-340 0 -461 190v-147h-151zM270 1843h193l209 -215l209 215h192l-256 -287h-291z" />
<glyph unicode="&#x161;" horiz-adv-x="1073" d="M117 0v358h127q12 -123 96 -198q82 -74 201 -74q244 0 243 182q0 66 -30 101q-47 53 -183 86l-110 24q-158 35 -228 88q-96 72 -96 215q0 154 117 234q98 66 258 65q197 0 281 -123h6v82h121v-286h-127q-8 61 -56 116q-74 84 -202 84q-211 0 -211 -163q0 -96 86 -140 q35 -18 196 -53q186 -43 262 -96q102 -74 103 -215q0 -328 -402 -328q-225 0 -319 143h-6v-102h-127zM129 1434h181l198 -203l199 203h180l-244 -271h-270z" />
<glyph unicode="&#x162;" horiz-adv-x="1306" d="M20 922v512h1266v-512h-162v350h-374v-1110h143v-162h-479v162h143v1110h-375v-350h-162zM436 -508l39 125q45 -16 137 -16q141 0 142 82q0 82 -133 81h-97l33 117h72q297 0 297 -198q0 -78 -54 -132q-74 -76 -231 -75q-86 0 -205 16z" />
<glyph unicode="&#x163;" horiz-adv-x="655" d="M27 913v127h186v312h180v-312h221v-127h-221v-661q0 -78 13 -100q20 -43 96 -43q49 0 112 18v-127q-96 -41 -188 -41q-141 0 -186 88q-27 49 -27 168v698h-186zM170 -475l35 115q45 -16 127 -17q129 0 129 76t-121 76h-90l31 106h65q272 0 273 -180q0 -72 -50 -123 q-68 -70 -213 -70q-76 0 -186 17z" />
<glyph unicode="&#x164;" horiz-adv-x="1306" d="M20 922v512h1266v-512h-162v350h-374v-1110h143v-162h-479v162h143v1110h-375v-350h-162zM250 1843h192l209 -215l209 215h193l-256 -287h-291z" />
<glyph unicode="&#x165;" horiz-adv-x="890" d="M27 913v127h186v312h180v-312h221v-127h-221v-661q0 -78 13 -100q20 -43 96 -43q49 0 112 18v-127q-96 -41 -188 -41q-141 0 -186 88q-27 49 -27 168v698h-186zM688 907v113q43 4 74 43q29 37 29 84v63h-103v224h203v-287q0 -199 -203 -240z" />
<glyph unicode="&#x16a;" horiz-adv-x="1581" d="M82 1272v162h479v-162h-143v-692q0 -197 51 -297q84 -164 322 -164q207 0 292 117q80 109 80 344v692h-143v162h479v-162h-143v-717q0 -598 -565 -598q-348 0 -480 207q-86 135 -86 391v717h-143zM467 1581v123h647v-123h-647z" />
<glyph unicode="&#x16b;" horiz-adv-x="1312" d="M82 913v127h315v-637q0 -182 62 -256q49 -61 157 -61q299 0 299 387v440h-135v127h316v-913h135v-127h-316v147h-4q-109 -188 -352 -188q-342 0 -342 391v563h-135zM311 1255v123h647v-123h-647z" />
<glyph unicode="&#x16c;" horiz-adv-x="1581" d="M82 1272v162h479v-162h-143v-692q0 -197 51 -297q84 -164 322 -164q207 0 292 117q80 109 80 344v692h-143v162h479v-162h-143v-717q0 -598 -565 -598q-348 0 -480 207q-86 135 -86 391v717h-143zM408 1843h176q27 -160 207 -160t206 160h177q-43 -287 -383 -287 t-383 287z" />
<glyph unicode="&#x16d;" horiz-adv-x="1312" d="M82 913v127h315v-637q0 -182 62 -256q49 -61 157 -61q299 0 299 387v440h-135v127h316v-913h135v-127h-316v147h-4q-109 -188 -352 -188q-342 0 -342 391v563h-135zM278 1434h160q23 -158 197 -158q173 0 196 158h160q-49 -274 -356 -275q-307 0 -357 275z" />
<glyph unicode="&#x16e;" horiz-adv-x="1581" d="M82 1272v162h479v-162h-143v-692q0 -197 51 -297q84 -164 322 -164q207 0 292 117q80 109 80 344v692h-143v162h479v-162h-143v-717q0 -598 -565 -598q-348 0 -480 207q-86 135 -86 391v717h-143zM590 1696q0 86 57 143t144 57q86 0 143 -57t57 -143t-57 -144 q-57 -57 -143 -57t-144 57q-57 57 -57 144zM676 1696q0 -47 33 -82q35 -33 82 -33t81 33q33 35 33 82t-33 82q-35 33 -81 32q-47 0 -82 -32q-33 -35 -33 -82z" />
<glyph unicode="&#x16f;" horiz-adv-x="1312" d="M82 913v127h315v-637q0 -182 62 -256q49 -61 157 -61q299 0 299 387v440h-135v127h316v-913h135v-127h-316v147h-4q-109 -188 -352 -188q-342 0 -342 391v563h-135zM465 1317q1 80 56 135t135 55t135 -55t55 -135t-55 -135t-135 -56q-80 0 -135 56q-55 55 -56 135z M549 1317q0 -45 31 -76t76 -31t76 31t30 76q0 45 -30 76q-31 31 -76 30q-45 0 -76 -30q-31 -31 -31 -76z" />
<glyph unicode="&#x170;" horiz-adv-x="1581" d="M82 1272v162h479v-162h-143v-692q0 -197 51 -297q84 -164 322 -164q207 0 292 117q80 109 80 344v692h-143v162h479v-162h-143v-717q0 -598 -565 -598q-348 0 -480 207q-86 135 -86 391v717h-143zM514 1556l143 287h217l-196 -287h-164zM827 1556l144 287h217l-197 -287 h-164z" />
<glyph unicode="&#x171;" horiz-adv-x="1312" d="M82 913v127h315v-637q0 -182 62 -256q49 -61 157 -61q299 0 299 387v440h-135v127h316v-913h135v-127h-316v147h-4q-109 -188 -352 -188q-342 0 -342 391v563h-135zM381 1163l144 271h217l-197 -271h-164zM695 1163l143 271h217l-196 -271h-164z" />
<glyph unicode="&#x172;" horiz-adv-x="1581" d="M82 1272v162h479v-162h-143v-692q0 -197 51 -297q84 -164 322 -164q207 0 292 117q80 109 80 344v692h-143v162h479v-162h-143v-717q0 -573 -525 -598q-76 -76 -75 -168q0 -121 94 -121q90 0 90 107h152q-6 -94 -66 -158q-70 -76 -186 -76q-119 0 -193 56q-76 57 -76 153 q0 115 101 215q-272 33 -377 230q-70 129 -70 360v717h-143z" />
<glyph unicode="&#x173;" horiz-adv-x="1312" d="M82 913v127h315v-637q0 -182 62 -256q49 -61 157 -61q299 0 299 387v440h-135v127h316v-913h135v-127h-86q-127 -76 -127 -203q0 -115 92 -114q86 0 86 100h145q-6 -88 -63 -152q-68 -72 -178 -71q-115 0 -185 53q-74 55 -73 147q0 129 135 240h-62v147h-4 q-109 -188 -352 -188q-342 0 -342 391v563h-135z" />
<glyph unicode="&#x178;" horiz-adv-x="1298" d="M0 1272v162h485v-162h-127l304 -502l299 502h-113v162h450v-162h-122l-428 -674v-436h143v-162h-479v162h143v436l-428 674h-127zM332 1581v162h192v-162h-192zM774 1581v162h193v-162h-193z" />
<glyph unicode="&#x179;" horiz-adv-x="1257" d="M72 0v176l848 1096h-650v-268h-161v430h1036v-154l-838 -1118h717v319h162v-481h-1114zM487 1556l152 287h229l-209 -287h-172z" />
<glyph unicode="&#x17a;" horiz-adv-x="962" d="M53 0v127l623 786h-453v-200h-127v327h778v-127l-604 -786h512v231h127v-358h-856zM369 1163l143 271h217l-197 -271h-163z" />
<glyph unicode="&#x17b;" horiz-adv-x="1257" d="M72 0v176l848 1096h-650v-268h-161v430h1036v-154l-838 -1118h717v319h162v-481h-1114zM528 1581v162h193v-162h-193z" />
<glyph unicode="&#x17c;" horiz-adv-x="962" d="M53 0v127l623 786h-453v-200h-127v327h778v-127l-604 -786h512v231h127v-358h-856zM389 1245v189h189v-189h-189z" />
<glyph unicode="&#x18f;" horiz-adv-x="1554" d="M102 739h1164q-6 328 -187 473q-125 102 -309 103q-182 -1 -311 -103q-115 -92 -133 -208h-162v430h153v-168q147 211 474 211q309 0 489 -193q190 -201 190 -567q0 -475 -309 -662q-164 -98 -375 -98q-373 0 -553 272q-139 211 -131 510zM311 569q16 -164 111 -284 q129 -166 364 -166q213 0 344 141q115 125 130 309h-949z" />
<glyph unicode="&#x192;" horiz-adv-x="1187" d="M70 -379l28 133q6 -2 29 -2q86 0 125 37t59 133l209 991h-190l26 127h191l31 142q55 252 331 252q72 0 127 -15l-24 -123q-51 10 -127 11q-102 0 -129 -142l-27 -125h223l-26 -127h-224l-210 -1003q-35 -139 -72 -193q-76 -104 -238 -104q-55 0 -112 8z" />
<glyph unicode="&#x1dd;" horiz-adv-x="1159" d="M90 561h801q0 145 -64 252q-84 141 -252 141q-137 0 -221 -69q-78 -63 -92 -172h-137v327h131v-98h6q119 139 316 139q503 0 503 -557q0 -352 -225 -489q-121 -76 -283 -76q-496 0 -483 602zM279 434q6 -215 131 -299q70 -49 159 -49q305 0 322 348h-612z" />
<glyph unicode="&#x218;" horiz-adv-x="1343" d="M123 0v481h162q4 -143 112 -248q117 -115 297 -114q178 0 273 82q80 72 80 184q0 190 -289 252q-344 76 -430 121q-186 94 -187 313q0 199 138 305q133 100 372 101q256 0 385 -172v129h148v-410h-162q-8 129 -125 213q-109 78 -244 78q-147 0 -227 -64q-80 -63 -80 -176 q0 -117 109 -172q61 -31 250 -67q256 -49 368 -119q178 -111 178 -328q0 -264 -213 -369q-127 -63 -303 -63q-340 0 -461 190v-147h-151zM582 -123h219v-223q0 -176 -219 -219v121q111 14 110 98v24h-110v199z" />
<glyph unicode="&#x219;" horiz-adv-x="1073" d="M117 0v358h127q12 -123 96 -198q82 -74 201 -74q244 0 243 182q0 66 -30 101q-47 53 -183 86l-110 24q-158 35 -228 88q-96 72 -96 215q0 154 117 234q98 66 258 65q197 0 281 -123h6v82h121v-286h-127q-8 61 -56 116q-74 84 -202 84q-211 0 -211 -163q0 -96 86 -140 q35 -18 196 -53q186 -43 262 -96q102 -74 103 -215q0 -328 -402 -328q-225 0 -319 143h-6v-102h-127zM428 -123h203v-207q0 -160 -203 -202v112q102 10 102 90v23h-102v184z" />
<glyph unicode="&#x21a;" horiz-adv-x="1306" d="M20 922v512h1266v-512h-162v350h-374v-1110h143v-162h-479v162h143v1110h-375v-350h-162zM543 -123h219v-223q0 -176 -219 -219v121q111 14 110 98v24h-110v199z" />
<glyph unicode="&#x21b;" horiz-adv-x="655" d="M27 913v127h186v312h180v-312h221v-127h-221v-661q0 -78 13 -100q20 -43 96 -43q49 0 112 18v-127q-96 -41 -188 -41q-141 0 -186 88q-27 49 -27 168v698h-186zM315 -123h203v-207q0 -160 -203 -202v112q102 10 103 90v23h-103v184z" />
<glyph unicode="&#x2c6;" horiz-adv-x="962" d="M102 1163l244 271h270l244 -271h-180l-199 203l-198 -203h-181z" />
<glyph unicode="&#x2c7;" horiz-adv-x="962" d="M102 1434h181l198 -203l199 203h180l-244 -271h-270z" />
<glyph unicode="&#x2d8;" horiz-adv-x="909" d="M98 1434h160q23 -158 197 -158q173 0 196 158h160q-49 -274 -356 -275q-307 0 -357 275z" />
<glyph unicode="&#x2d9;" horiz-adv-x="393" d="M102 1245v189h189v-189h-189z" />
<glyph unicode="&#x2da;" horiz-adv-x="581" d="M100 1317q1 80 56 135t135 55t135 -55t55 -135t-55 -135t-135 -56q-80 0 -135 56q-55 55 -56 135zM184 1317q0 -45 31 -76t76 -31t76 31t30 76q0 45 -30 76q-31 31 -76 30q-45 0 -76 -30q-31 -31 -31 -76z" />
<glyph unicode="&#x2db;" horiz-adv-x="716" d="M117 -240q0 129 135 240h168q-127 -76 -127 -203q0 -115 92 -114q86 0 86 100h145q-6 -88 -63 -152q-68 -72 -178 -71q-115 0 -185 53q-74 55 -73 147z" />
<glyph unicode="&#x2dc;" horiz-adv-x="962" d="M102 1245q14 86 72 144q63 61 156 61q74 0 151 -45q98 -57 152 -57q84 0 108 86h119q-41 -209 -227 -209q-66 0 -168 53q-94 49 -137 49q-96 0 -105 -82h-121z" />
<glyph unicode="&#x2dd;" horiz-adv-x="878" d="M102 1163l144 271h217l-197 -271h-164zM416 1163l143 271h217l-196 -271h-164z" />
<glyph unicode="&#x3a9;" horiz-adv-x="1581" d="M61 0v317h162v-155h277v78q-176 45 -281 194q-109 158 -108 391q0 281 163 455q184 197 527 197q342 0 526 -197q164 -174 164 -455q0 -233 -109 -391q-104 -150 -280 -194v-78h256v155h162v-317h-580v342q346 70 346 483q0 238 -139 369q-129 121 -346 121t-346 -121 q-139 -131 -140 -369q0 -414 347 -483v-342h-601z" />
<glyph unicode="&#x3c0;" horiz-adv-x="1271" d="M72 872v127q74 41 194 41h924v-127h-135v-913h-181v913h-438v-913h-315v127h135v786h-27q-94 0 -157 -41z" />
<glyph unicode="&#x1e9e;" horiz-adv-x="1439" d="M113 0v162h143v717q0 598 543 598q334 0 432 -250l-354 -408q481 0 481 -411q0 -199 -137 -318q-135 -117 -342 -117q-152 0 -228 27v162q76 -27 211 -27q113 0 191 53q109 72 108 226q0 264 -373 264h-106v160l332 389q-84 88 -223 88q-223 0 -299 -164 q-43 -94 -43 -297v-854h-336z" />
<glyph unicode="&#x2000;" horiz-adv-x="948" />
<glyph unicode="&#x2001;" horiz-adv-x="1896" />
<glyph unicode="&#x2002;" horiz-adv-x="948" />
<glyph unicode="&#x2003;" horiz-adv-x="1896" />
<glyph unicode="&#x2004;" horiz-adv-x="632" />
<glyph unicode="&#x2005;" horiz-adv-x="474" />
<glyph unicode="&#x2006;" horiz-adv-x="316" />
<glyph unicode="&#x2007;" horiz-adv-x="316" />
<glyph unicode="&#x2008;" horiz-adv-x="237" />
<glyph unicode="&#x2009;" horiz-adv-x="379" />
<glyph unicode="&#x200a;" horiz-adv-x="105" />
<glyph unicode="&#x2010;" horiz-adv-x="759" d="M102 471v162h555v-162h-555z" />
<glyph unicode="&#x2011;" horiz-adv-x="759" d="M102 471v162h555v-162h-555z" />
<glyph unicode="&#x2012;" d="M102 657v162h1024v-162h-1024z" />
<glyph unicode="&#x2013;" d="M102 471v162h1024v-162h-1024z" />
<glyph unicode="&#x2014;" horiz-adv-x="2015" d="M102 471v162h1811v-162h-1811z" />
<glyph unicode="&#x2015;" horiz-adv-x="2015" d="M102 471v162h1811v-162h-1811z" />
<glyph unicode="&#x2018;" horiz-adv-x="636" d="M217 946v287q0 199 203 240v-113q-43 -4 -72 -41q-31 -39 -31 -86v-64h103v-223h-203z" />
<glyph unicode="&#x2019;" horiz-adv-x="636" d="M217 907v113q43 4 74 43q29 37 28 84v63h-102v224h203v-287q0 -199 -203 -240z" />
<glyph unicode="&#x201a;" horiz-adv-x="636" d="M217 0v223h203v-286q0 -199 -203 -240v113q43 4 74 43q29 37 28 84v63h-102z" />
<glyph unicode="&#x201c;" horiz-adv-x="864" d="M162 946v289q0 197 203 240v-111q-102 -31 -103 -129v-66h103v-223h-203zM500 946v289q0 197 202 240v-111q-102 -31 -102 -129v-66h102v-223h-202z" />
<glyph unicode="&#x201d;" horiz-adv-x="864" d="M162 905v111q102 31 102 129v65h-102v224h203v-289q0 -197 -203 -240zM500 905v111q102 31 102 129v65h-102v224h202v-289q0 -197 -202 -240z" />
<glyph unicode="&#x201e;" horiz-adv-x="864" d="M162 0v223h203v-286q0 -182 -203 -240v113q102 18 102 127v63h-102zM500 0v223h202v-286q0 -186 -202 -240v113q102 18 102 127v63h-102z" />
<glyph unicode="&#x2020;" horiz-adv-x="1024" d="M31 766v410h121v-136h278v273h-135v121h434v-121h-135v-273h278v136h121v-410h-121v135h-278v-1280h-164v1280h-278v-135h-121z" />
<glyph unicode="&#x2021;" horiz-adv-x="1024" d="M31 221v393h121v-106h278v393h-278v-119h-121v394h121v-136h278v273h-135v121h434v-121h-135v-273h278v136h121v-394h-121v119h-278v-393h278v106h121v-393h-121v148h-278v-625h135v-123h-434v123h135v625h-278v-148h-121z" />
<glyph unicode="&#x2022;" d="M410 717q0 86 59 145t145 60q86 0 146 -60q59 -59 59 -145t-59 -146q-59 -59 -146 -59q-88 0 -145 59q-59 57 -59 146z" />
<glyph unicode="&#x2026;" horiz-adv-x="1906" d="M217 0v223h203v-223h-203zM852 0v223h203v-223h-203zM1487 0v223h203v-223h-203z" />
<glyph unicode="&#x202f;" horiz-adv-x="379" />
<glyph unicode="&#x2030;" horiz-adv-x="2658" d="M109 1051q0 222 127 331q90 78 208 78q119 0 209 -78q127 -109 127 -331q0 -150 -65 -260q-90 -150 -271 -150q-180 0 -270 150q-66 111 -65 260zM240 1051q-1 -109 34 -187q53 -115 170 -114q117 0 170 114q35 78 35 187q0 160 -71 239q-55 61 -134 62q-78 0 -133 -62 q-72 -80 -71 -239zM414 0l929 1434h119l-930 -1434h-118zM1085 393q1 139 60 248q86 162 276 162q156 0 246 -109q90 -111 90 -301q0 -223 -125 -332q-90 -78 -211 -77q-125 0 -217 86q-119 111 -119 323zM1217 393q-1 -153 69 -233q55 -68 135 -68q84 0 140 68 q66 80 65 233q0 129 -47 209q-53 92 -158 92q-121 0 -172 -123q-33 -78 -32 -178zM1878 393q0 151 66 260q88 150 270 150q156 0 246 -109q90 -111 90 -301q0 -223 -125 -332q-90 -78 -211 -77q-119 0 -209 77q-127 109 -127 332zM2009 393q0 -159 72 -239q55 -61 133 -62 q78 0 133 62q72 80 72 239q0 121 -43 203q-55 98 -162 98q-117 0 -170 -116q-35 -78 -35 -185z" />
<glyph unicode="&#x2039;" horiz-adv-x="585" d="M127 473v168l305 268v-168l-217 -184l217 -184v-168z" />
<glyph unicode="&#x203a;" horiz-adv-x="585" d="M154 205v168l217 184l-217 184v168l305 -268v-168z" />
<glyph unicode="&#x2044;" horiz-adv-x="204" d="M-422 0l930 1434h119l-930 -1434h-119z" />
<glyph unicode="&#x205f;" horiz-adv-x="474" />
<glyph unicode="&#x20ac;" horiz-adv-x="1187" d="M0 508l49 115h90q-2 14 -2 36v39q0 31 4 109h-141l49 115h103q18 248 174 411q137 143 368 144q82 0 164 -41q94 -45 133 -121v119h152v-430h-162q-6 111 -59 194q-76 117 -222 117q-147 0 -239 -94q-100 -106 -111 -299h565l-49 -115h-526q-4 -70 -4 -102v-41 q0 -27 2 -41h450l-49 -115h-389q6 -160 88 -266q96 -123 264 -123q223 0 297 217h172q-18 -131 -122 -248q-117 -131 -355 -131q-266 0 -407 168q-117 137 -140 383h-147z" />
<glyph unicode="&#x20b4;" horiz-adv-x="1187" d="M37 559v121h1093v-121h-780q-109 -84 -108 -215q0 -240 323 -240q145 0 246 82q123 98 123 295h182v-481h-151v156q-53 -96 -185 -150q-117 -49 -248 -49q-170 0 -288 61q-184 96 -185 320q0 121 70 221h-92zM37 780v121h741q113 76 113 207q0 236 -289 235 q-170 0 -254 -94q-76 -84 -76 -225h-176v410h148v-111q113 154 368 154q457 0 457 -369q0 -127 -65 -207h126v-121h-1093z" />
<glyph unicode="&#x20b6;" horiz-adv-x="1187" d="M92 0v162h144v174h-144v137h144v109h-144v149h144v541h-144v162h619q233 0 372 -101q150 -109 150 -315q0 -199 -133 -313q-141 -125 -410 -125h-262v-107h360v-137h-360v-174h143v-162h-479zM428 733h254q354 0 354 285q0 254 -354 254h-254v-539z" />
<glyph unicode="&#x20ce;" horiz-adv-x="1187" d="M92 0v162h144v174h-144v137h144v109h-144v149h144v541h-144v162h619q233 0 372 -101q150 -109 150 -315q0 -199 -133 -313q-141 -125 -410 -125h-262v-107h360v-137h-360v-174h143v-162h-479zM428 733h254q354 0 354 285q0 254 -354 254h-254v-539z" />
<glyph unicode="&#x20cd;" horiz-adv-x="1187" d="M92 0v162h144v174h-144v137h144v109h-144v149h144v541h-144v162h619q233 0 372 -101q150 -109 150 -315q0 -199 -133 -313q-141 -125 -410 -125h-262v-107h360v-137h-360v-174h143v-162h-479zM428 733h254q354 0 354 285q0 254 -354 254h-254v-539z" />
<glyph unicode="&#x20cc;" horiz-adv-x="1187" d="M92 0v162h144v174h-144v137h144v109h-144v149h144v541h-144v162h619q233 0 372 -101q150 -109 150 -315q0 -199 -133 -313q-141 -125 -410 -125h-262v-107h360v-137h-360v-174h143v-162h-479zM428 733h254q354 0 354 285q0 254 -354 254h-254v-539z" />
<glyph unicode="&#x20cb;" horiz-adv-x="1187" d="M92 0v162h144v174h-144v137h144v109h-144v149h144v541h-144v162h619q233 0 372 -101q150 -109 150 -315q0 -199 -133 -313q-141 -125 -410 -125h-262v-107h360v-137h-360v-174h143v-162h-479zM428 733h254q354 0 354 285q0 254 -354 254h-254v-539z" />
<glyph unicode="&#x20ca;" horiz-adv-x="1187" d="M92 0v162h144v174h-144v137h144v109h-144v149h144v541h-144v162h619q233 0 372 -101q150 -109 150 -315q0 -199 -133 -313q-141 -125 -410 -125h-262v-107h360v-137h-360v-174h143v-162h-479zM428 733h254q354 0 354 285q0 254 -354 254h-254v-539z" />
<glyph unicode="&#x20c9;" horiz-adv-x="1187" d="M92 0v162h144v174h-144v137h144v109h-144v149h144v541h-144v162h619q233 0 372 -101q150 -109 150 -315q0 -199 -133 -313q-141 -125 -410 -125h-262v-107h360v-137h-360v-174h143v-162h-479zM428 733h254q354 0 354 285q0 254 -354 254h-254v-539z" />
<glyph unicode="&#x20c8;" horiz-adv-x="1187" d="M92 0v162h144v174h-144v137h144v109h-144v149h144v541h-144v162h619q233 0 372 -101q150 -109 150 -315q0 -199 -133 -313q-141 -125 -410 -125h-262v-107h360v-137h-360v-174h143v-162h-479zM428 733h254q354 0 354 285q0 254 -354 254h-254v-539z" />
<glyph unicode="&#x20c7;" horiz-adv-x="1187" d="M92 0v162h144v174h-144v137h144v109h-144v149h144v541h-144v162h619q233 0 372 -101q150 -109 150 -315q0 -199 -133 -313q-141 -125 -410 -125h-262v-107h360v-137h-360v-174h143v-162h-479zM428 733h254q354 0 354 285q0 254 -354 254h-254v-539z" />
<glyph unicode="&#x20c6;" horiz-adv-x="1187" d="M92 0v162h144v174h-144v137h144v109h-144v149h144v541h-144v162h619q233 0 372 -101q150 -109 150 -315q0 -199 -133 -313q-141 -125 -410 -125h-262v-107h360v-137h-360v-174h143v-162h-479zM428 733h254q354 0 354 285q0 254 -354 254h-254v-539z" />
<glyph unicode="&#x20c5;" horiz-adv-x="1187" d="M92 0v162h144v174h-144v137h144v109h-144v149h144v541h-144v162h619q233 0 372 -101q150 -109 150 -315q0 -199 -133 -313q-141 -125 -410 -125h-262v-107h360v-137h-360v-174h143v-162h-479zM428 733h254q354 0 354 285q0 254 -354 254h-254v-539z" />
<glyph unicode="&#x20c4;" horiz-adv-x="1187" d="M92 0v162h144v174h-144v137h144v109h-144v149h144v541h-144v162h619q233 0 372 -101q150 -109 150 -315q0 -199 -133 -313q-141 -125 -410 -125h-262v-107h360v-137h-360v-174h143v-162h-479zM428 733h254q354 0 354 285q0 254 -354 254h-254v-539z" />
<glyph unicode="&#x20c3;" horiz-adv-x="1187" d="M92 0v162h144v174h-144v137h144v109h-144v149h144v541h-144v162h619q233 0 372 -101q150 -109 150 -315q0 -199 -133 -313q-141 -125 -410 -125h-262v-107h360v-137h-360v-174h143v-162h-479zM428 733h254q354 0 354 285q0 254 -354 254h-254v-539z" />
<glyph unicode="&#x20c2;" horiz-adv-x="1187" d="M92 0v162h144v174h-144v137h144v109h-144v149h144v541h-144v162h619q233 0 372 -101q150 -109 150 -315q0 -199 -133 -313q-141 -125 -410 -125h-262v-107h360v-137h-360v-174h143v-162h-479zM428 733h254q354 0 354 285q0 254 -354 254h-254v-539z" />
<glyph unicode="&#x20c1;" horiz-adv-x="1187" d="M92 0v162h144v174h-144v137h144v109h-144v149h144v541h-144v162h619q233 0 372 -101q150 -109 150 -315q0 -199 -133 -313q-141 -125 -410 -125h-262v-107h360v-137h-360v-174h143v-162h-479zM428 733h254q354 0 354 285q0 254 -354 254h-254v-539z" />
<glyph unicode="&#x20c0;" horiz-adv-x="1187" d="M92 0v162h144v174h-144v137h144v109h-144v149h144v541h-144v162h619q233 0 372 -101q150 -109 150 -315q0 -199 -133 -313q-141 -125 -410 -125h-262v-107h360v-137h-360v-174h143v-162h-479zM428 733h254q354 0 354 285q0 254 -354 254h-254v-539z" />
<glyph unicode="&#x20bf;" horiz-adv-x="1187" d="M92 0v162h144v174h-144v137h144v109h-144v149h144v541h-144v162h619q233 0 372 -101q150 -109 150 -315q0 -199 -133 -313q-141 -125 -410 -125h-262v-107h360v-137h-360v-174h143v-162h-479zM428 733h254q354 0 354 285q0 254 -354 254h-254v-539z" />
<glyph unicode="&#x20be;" horiz-adv-x="1187" d="M92 0v162h144v174h-144v137h144v109h-144v149h144v541h-144v162h619q233 0 372 -101q150 -109 150 -315q0 -199 -133 -313q-141 -125 -410 -125h-262v-107h360v-137h-360v-174h143v-162h-479zM428 733h254q354 0 354 285q0 254 -354 254h-254v-539z" />
<glyph unicode="&#x20bd;" horiz-adv-x="1187" d="M92 0v162h144v174h-144v137h144v109h-144v149h144v541h-144v162h619q233 0 372 -101q150 -109 150 -315q0 -199 -133 -313q-141 -125 -410 -125h-262v-107h360v-137h-360v-174h143v-162h-479zM428 733h254q354 0 354 285q0 254 -354 254h-254v-539z" />
<glyph unicode="&#x20bc;" horiz-adv-x="1187" d="M92 0v162h144v174h-144v137h144v109h-144v149h144v541h-144v162h619q233 0 372 -101q150 -109 150 -315q0 -199 -133 -313q-141 -125 -410 -125h-262v-107h360v-137h-360v-174h143v-162h-479zM428 733h254q354 0 354 285q0 254 -354 254h-254v-539z" />
<glyph unicode="&#x20bb;" horiz-adv-x="1187" d="M92 0v162h144v174h-144v137h144v109h-144v149h144v541h-144v162h619q233 0 372 -101q150 -109 150 -315q0 -199 -133 -313q-141 -125 -410 -125h-262v-107h360v-137h-360v-174h143v-162h-479zM428 733h254q354 0 354 285q0 254 -354 254h-254v-539z" />
<glyph unicode="&#x20ba;" horiz-adv-x="1187" d="M92 0v162h144v174h-144v137h144v109h-144v149h144v541h-144v162h619q233 0 372 -101q150 -109 150 -315q0 -199 -133 -313q-141 -125 -410 -125h-262v-107h360v-137h-360v-174h143v-162h-479zM428 733h254q354 0 354 285q0 254 -354 254h-254v-539z" />
<glyph unicode="&#x20b9;" horiz-adv-x="1187" d="M92 0v162h144v174h-144v137h144v109h-144v149h144v541h-144v162h619q233 0 372 -101q150 -109 150 -315q0 -199 -133 -313q-141 -125 -410 -125h-262v-107h360v-137h-360v-174h143v-162h-479zM428 733h254q354 0 354 285q0 254 -354 254h-254v-539z" />
<glyph unicode="&#x20b7;" horiz-adv-x="1187" d="M92 0v162h144v174h-144v137h144v109h-144v149h144v541h-144v162h619q233 0 372 -101q150 -109 150 -315q0 -199 -133 -313q-141 -125 -410 -125h-262v-107h360v-137h-360v-174h143v-162h-479zM428 733h254q354 0 354 285q0 254 -354 254h-254v-539z" />
<glyph unicode="&#x20b8;" horiz-adv-x="1187" d="M-18 686v492h1224v-492h-162v330h-354v-854h144v-162h-480v162h144v854h-355v-330h-161zM-18 1292v140h1222v-140h-1222z" />
<glyph unicode="&#x2122;" horiz-adv-x="2117" d="M113 1116v318h714v-318h-112v205h-168v-492h119v-112h-392v112h119v492h-168v-205h-112zM930 717v112h119v492h-119v113h323l193 -494l18 -72h9l16 72l192 494h324v-113h-119v-492h119v-112h-350v112h78v345l8 92h-10l-211 -549h-107l-209 549h-10l8 -92v-345h78v-112 h-350z" />
<glyph unicode="&#x2202;" horiz-adv-x="1218" d="M88 371q0 274 158 465q172 205 459 204q270 0 339 -213h7q8 268 -156 400q-113 88 -389 143l26 131q657 -68 658 -577q0 -326 -107 -572q-168 -393 -561 -393q-268 0 -372 174q-61 100 -62 238zM281 367q0 -281 254 -281q208 0 325 195q90 154 90 344q0 289 -256 288 q-209 0 -323 -196q-90 -154 -90 -350z" />
<glyph unicode="&#x220f;" horiz-adv-x="1617" d="M113 -217h143v1489h-143v162h1392v-162h-143v-1489h143v-162h-479v162h143v1489h-720v-1489h143v-162h-479v162z" />
<glyph unicode="&#x2211;" horiz-adv-x="1234" d="M113 -238l503 779l-471 747v146h996v-430h-162v268h-590l451 -731l-486 -758h658v289h162v-451h-1061v141z" />
<glyph unicode="&#x221a;" horiz-adv-x="1368" d="M131 897v127h354l250 -874l236 1548h344v-127h-242l-278 -1776h-80l-332 1102h-252z" />
<glyph unicode="&#x221e;" horiz-adv-x="2043" d="M123 721q0 168 106 270q111 109 303 109q262 0 490 -291q227 291 487 291q190 0 303 -109q106 -102 107 -270q0 -170 -111 -277q-111 -106 -276 -106q-279 0 -510 293q-231 -293 -512 -293q-166 0 -277 106t-110 277zM256 721q0 -117 78 -186q78 -70 213 -70 q190 0 395 256q-204 252 -407 252q-123 0 -197 -64q-82 -68 -82 -188zM1100 721q205 -256 395 -256q135 0 213 70t78 186q0 121 -80 188q-76 63 -199 64q-203 0 -407 -252z" />
<glyph unicode="&#x222b;" horiz-adv-x="655" d="M-336 -201l39 119q68 -41 133 -41q90 0 135 55q41 51 60 172l176 1057q29 172 86 252q72 104 215 105q104 0 207 -48l-43 -108q-57 43 -127 43q-109 0 -156 -70q-33 -49 -53 -174l-172 -1034q-27 -180 -86 -264q-74 -100 -215 -101q-109 0 -199 37z" />
<glyph unicode="&#x2248;" d="M102 418q98 262 273 262q94 0 178 -47l211 -113q27 -27 106 -26q111 0 177 165l79 -32q-90 -262 -272 -262q-94 0 -178 47l-211 112q-57 27 -109 27q-117 0 -174 -166zM102 827q98 262 273 263q94 0 178 -48l211 -112q27 -27 106 -27q111 0 177 166l79 -33 q-90 -262 -272 -262q-94 0 -178 47l-211 113q-57 27 -109 27q-117 0 -174 -166z" />
<glyph unicode="&#x2260;" d="M102 438v127h357l164 283h-521v127h594l144 248l108 -64l-106 -184h284v-127h-356l-164 -283h520v-127h-594l-143 -248l-108 64l106 184h-285z" />
<glyph unicode="&#x2264;" d="M78 465l61 110l1014 -583l-61 -111zM78 793v98l1014 584l61 -111l-920 -522l920 -523l-61 -110z" />
<glyph unicode="&#x2265;" d="M76 -8l1014 583l61 -110l-1014 -584zM76 319l919 523l-919 522l61 111l1014 -584v-98l-1014 -584z" />
<glyph unicode="&#x25ca;" horiz-adv-x="860" d="M102 717l328 717l328 -717l-328 -717zM229 717l201 -438l201 438l-201 438z" />
<glyph unicode="&#x25fc;" horiz-adv-x="1044" d="M0 0v1044h1044v-1044h-1044z" />
</font>
</defs>
</svg>
