<svg xmlns="http://www.w3.org/2000/svg" width="599.36" height="406" viewBox="0 0 599.36 406"><path fill="none" stroke="#fff" stroke-miterlimit="50" stroke-width="3" d="M39.36 115c0-7.15 5.63-13 12.5-13 6.88 0 12.5 5.85 12.5 13M64.36 115c0 7.15 5.63 13 12.5 13 6.88 0 12.5-5.85 12.5-13M89.36 115c0-7.11 5.57-12.94 12.4-13h50.1-50M2.36 102c6.88 0 12.5 5.85 12.5 13M14.36 115c0 7.15 5.63 13 12.5 13 6.88 0 12.5-5.85 12.5-13M39.36 140c0-7.15 5.63-13 12.5-13 6.88 0 12.5 5.85 12.5 13M64.36 140c0 7.15 5.63 13 12.5 13 6.88 0 12.5-5.85 12.5-13M89.36 140c0-7.15 5.63-13 12.5-13M2.36 127c6.88 0 12.5 5.85 12.5 13M14.36 140c0 7.15 5.63 13 12.5 13 6.88 0 12.5-5.85 12.5-13M39.36 165c0-7.15 5.63-13 12.5-13 6.88 0 12.5 5.85 12.5 13M64.36 165c0 7.15 5.63 13 12.5 13 6.88 0 12.5-5.85 12.5-13M89.36 165c0-7.15 5.63-13 12.5-13M2.36 152c6.88 0 12.5 5.85 12.5 13M14.36 165c0 7.15 5.63 13 12.5 13 6.88 0 12.5-5.85 12.5-13M39.36 190c0-7.15 5.63-13 12.5-13 6.88 0 12.5 5.85 12.5 13M64.36 190c0 7.15 5.63 13 12.5 13 6.88 0 12.5-5.85 12.5-13M89.36 190c0-7.15 5.63-13 12.5-13M2.36 177c6.88 0 12.5 5.85 12.5 13M14.36 190c0 7.15 5.63 13 12.5 13 6.88 0 12.5-5.85 12.5-13M26.36 305v-65c0-14.3 11.7-26 26-26s26 11.7 26 26v65"/><path fill="#fff" d="M50.36 213h3v-13h-3zM27.36 242h50v-3h-50zM15.36 254h74v-3h-74zM6.36 267h20v-3h-20zM78.36 267h86v-3h-86zM100.36 279h40v-3h-40zM100.36 292h40v-3h-40zM38.36 305h3v-51h-3zM63.36 305h3v-51h-3zM112.36 127h3v-10h-3zM125.36 127h3v-10h-3zM137.36 127h3v-10h-3zM112.36 52h3V42h-3zM125.36 52h3V42h-3zM137.36 52h3V42h-3zM174.36 39h3V29h-3zM187.36 39h3V29h-3zM162.36 102h3V92h-3zM174.36 102h3V92h-3zM211.36 84h3V74h-3zM211.36 104h3V91h-3zM137.36 176h3v-10h-3zM149.36 176h3v-10h-3zM211.36 176h3v-10h-3zM211.36 151h3v-10h-3zM187.36 151h3v-10h-3zM174.36 201h3v-10h-3zM174.36 217h16v-3h-16zM174.36 229h16v-3h-16zM174.36 242h16v-3h-16z"/><path fill="#fff" d="M162.36 305h3V191h-3zM174.36 254h16v-3h-16zM187.36 267h15v-3h-15zM174.36 305h3v-51h-3z"/><path fill="#fff" d="M187.36 305h3v-51h-3zM162.36 60h3V1h-3zM165.36 4h37V1h-37zM174.36 154h3v-25h-3zM125.36 154h49v-3h-49zM125.36 204h3v-50h-3zM149.36 151h3V27h-3zM199.36 104h3V67h-3z"/><path fill="none" stroke="#fff" stroke-miterlimit="50" stroke-width="3" d="M101.36 29l25-13 25 13"/><path fill="#fff" d="M27.36 291h50v-3h-50z"/><path fill="none" stroke="#fff" stroke-miterlimit="50" stroke-width="3" d="M102.36 28s-18.13 25-40.5 25-40.5-25-40.5-25S39.49 3 61.86 3s40.5 25 40.5 25zM102.36 78s-18.13 25-40.5 25-40.5-25-40.5-25 18.13-25 40.5-25 40.5 25 40.5 25z"/><path fill="#fff" d="M62.36 103h3V4h-3z"/><path fill="none" stroke="#fff" stroke-miterlimit="50" stroke-width="3" d="M102.36 28s-18.13 25-40.5 25C41.6 53 24.82 32.49 21.83 28.62L1.36 2M2.36 103l19.29-25.39C24.05 74.45 41.14 53 61.85 53c22.38 0 40.5 25 40.5 25"/></svg>