<svg id="SvgjsSvg1000" xmlns="http://www.w3.org/2000/svg" version="1.1" xmlns:xlink="http://www.w3.org/1999/xlink" xmlns:svgjs="http://svgjs.com/svgjs" width="63" height="63.79537453474131" viewBox="0 0 63 63.79537453474131"><title>Stroke 1</title><desc>Created with Avocode.</desc><defs id="SvgjsDefs1001"></defs><path id="SvgjsPath1007" d="M864 1686.94C864 1699.65 857.28 1706 849 1706C840.72 1706 834 1700.3 834 1687.6C834 1674.8999999999999 849 1660 849 1660C849 1660 864 1674.24 864 1686.94Z " fill-opacity="0" fill="#ffffff" stroke-dasharray="0" stroke-linejoin="miter" stroke-linecap="butt" stroke-opacity="1" stroke="#011689" stroke-miterlimit="50" stroke-width="3" transform="matrix(1,0,0,1,-832.5,-1658.2046254652587)"></path><path id="SvgjsPath1008" d="M847 1722L850 1722L850 1707L847 1707Z " fill="#011689" fill-opacity="1" transform="matrix(1,0,0,1,-832.5,-1658.2046254652587)"></path><path id="SvgjsPath1009" d="M894 1686.94C894 1699.65 887.28 1706 879 1706C870.72 1706 864 1700.3 864 1687.6C864 1674.8999999999999 879 1660 879 1660C879 1660 894 1674.24 894 1686.94Z " fill-opacity="0" fill="#ffffff" stroke-dasharray="0" stroke-linejoin="miter" stroke-linecap="butt" stroke-opacity="1" stroke="#011689" stroke-miterlimit="50" stroke-width="3" transform="matrix(1,0,0,1,-832.5,-1658.2046254652587)"></path><path id="SvgjsPath1010" d="M877 1722L880 1722L880 1707L877 1707Z " fill="#011689" fill-opacity="1" transform="matrix(1,0,0,1,-832.5,-1658.2046254652587)"></path></svg>