<svg id="SvgjsSvg1014" xmlns="http://www.w3.org/2000/svg" version="1.1" xmlns:xlink="http://www.w3.org/1999/xlink" xmlns:svgjs="http://svgjs.com/svgjs" width="40" height="62" viewBox="0 0 40 62"><title>Fill 1</title><desc>Created with Avocode.</desc><defs id="SvgjsDefs1015"></defs><path id="SvgjsPath1016" d="M832 3562L872 3562L872 3559L832 3559Z " fill="#011689" fill-opacity="1" transform="matrix(1,0,0,1,-832,-3559)"></path><path id="SvgjsPath1017" d="M866 3576L869 3576L869 3561L866 3561Z " fill="#011689" fill-opacity="1" transform="matrix(1,0,0,1,-832,-3559)"></path><path id="SvgjsPath1018" d="M836 3576L839 3576L839 3561L836 3561Z " fill="#011689" fill-opacity="1" transform="matrix(1,0,0,1,-832,-3559)"></path><path id="SvgjsPath1019" d="M852.5 3591.5C851.23 3591.5 847.2 3590.58 843.64 3588.46C838.64 3585.5 836 3581.19 836 3576L839 3576C839 3586.47 852.37 3588.5 852.5 3588.5C852.63 3588.5 866 3586.47 866 3576L869 3576C869 3581.19 866.36 3585.5 861.37 3588.46C857.8 3590.58 853.77 3591.5 852.5 3591.5Z " fill="#011689" fill-opacity="1" transform="matrix(1,0,0,1,-832,-3559)"></path><path id="SvgjsPath1020" d="M832 3621L872 3621L872 3618L832 3618Z " fill="#011689" fill-opacity="1" transform="matrix(1,0,0,1,-832,-3559)"></path><path id="SvgjsPath1021" d="M866 3620L869 3620L869 3605L866 3605Z " fill="#011689" fill-opacity="1" transform="matrix(1,0,0,1,-832,-3559)"></path><path id="SvgjsPath1022" d="M836 3620L839 3620L839 3605L836 3605Z " fill="#011689" fill-opacity="1" transform="matrix(1,0,0,1,-832,-3559)"></path><path id="SvgjsPath1023" d="M869 3604.5L866 3604.5C866 3594.03 852.63 3592 852.5 3592C852.37 3592 839 3594.03 839 3604.5L836 3604.5C836 3599.31 838.64 3595 843.64 3592.04C847.1999999999999 3589.92 851.23 3589 852.5 3589C853.77 3589 857.8 3589.92 861.37 3592.04C866.36 3595 869 3599.31 869 3604.5 " fill="#011689" fill-opacity="1" transform="matrix(1,0,0,1,-832,-3559)"></path></svg>