<svg id="SvgjsSvg1021" xmlns="http://www.w3.org/2000/svg" version="1.1" xmlns:xlink="http://www.w3.org/1999/xlink" xmlns:svgjs="http://svgjs.com/svgjs" width="78" height="96" viewBox="0 0 78 96"><title>Fill 1</title><desc>Created with Avocode.</desc><defs id="SvgjsDefs1022"></defs><path id="SvgjsPath1023" d="M160 6027L160 6123L238 6123L238 6048L221 6027ZM163 6030L219.57 6030L235 6049.06L235 6120L163 6120Z " fill="#001689" fill-opacity="1" transform="matrix(1,0,0,1,-160,-6027)"></path><path id="SvgjsPath1024" d="M175 6066L223 6066L223 6063L175 6063Z " fill="#001689" fill-opacity="1" transform="matrix(1,0,0,1,-160,-6027)"></path><path id="SvgjsPath1025" d="M175 6081L223 6081L223 6078L175 6078Z " fill="#001689" fill-opacity="1" transform="matrix(1,0,0,1,-160,-6027)"></path><path id="SvgjsPath1026" d="M175 6096L199 6096L199 6093L175 6093Z " fill="#001689" fill-opacity="1" transform="matrix(1,0,0,1,-160,-6027)"></path></svg>