<svg id="SvgjsSvg1027" xmlns="http://www.w3.org/2000/svg" version="1.1" xmlns:xlink="http://www.w3.org/1999/xlink" xmlns:svgjs="http://svgjs.com/svgjs" width="63" height="95" viewBox="0 0 63 95"><title>Fill 1</title><desc>Created with Avocode.</desc><defs id="SvgjsDefs1028"></defs><path id="SvgjsPath1029" d="M597 6098C597 6091.19 593.8 6085.71 587.11 6081.73C581.79 6078.5599999999995 576.4 6077.5 575.38 6077.5C574.35 6077.5 568.65 6078.56 563.33 6081.73C556.64 6085.709999999999 553 6091.19 553 6098L553 6120L597 6120ZM587.17 6068.27C593.86 6064.290000000001 597 6058.81 597 6052L597 6031L553 6031L553 6052C553 6058.81 556.58 6064.29 563.27 6068.27C568.59 6071.4400000000005 574.35 6072.5 575.38 6072.5C576.4 6072.5 581.85 6071.44 587.17 6068.27ZM600 6052C600 6067.31 584.97 6073.36 578.07 6075C584.97 6076.64 600 6082.69 600 6098L600 6120L607 6120L607 6123L544 6123L544 6120L550 6120L550 6098C550 6082.69 565.03 6076.64 571.93 6075C565.03 6073.36 550 6067.31 550 6052L550 6031L544 6031L544 6028L607 6028L607 6031L600 6031Z " fill="#001689" fill-opacity="1" transform="matrix(1,0,0,1,-544,-6028)"></path></svg>