<svg xmlns="http://www.w3.org/2000/svg" width="63" height="95" viewBox="0 0 63 95"><path fill="#fff" d="M43.17 40.27C49.86 36.29 53 30.81 53 24V3H9v21c0 6.81 3.58 12.29 10.27 16.27 5.32 3.17 11.08 4.23 12.11 4.23 1.02 0 6.47-1.06 11.79-4.23zM53 70c0-6.81-3.2-12.29-9.89-16.27-5.32-3.17-10.71-4.23-11.73-4.23-1.03 0-6.73 1.06-12.05 4.23C12.64 57.71 9 63.19 9 70v22h44zm3-46c0 15.31-15.03 21.36-21.93 23C40.97 48.64 56 54.69 56 70v22h7v3H0v-3h6V70c0-15.31 15.03-21.36 21.93-23C21.03 45.36 6 39.31 6 24V3H0V0h63v3h-7z"/></svg>