<svg id="SvgjsSvg1030" xmlns="http://www.w3.org/2000/svg" version="1.1" xmlns:xlink="http://www.w3.org/1999/xlink" xmlns:svgjs="http://svgjs.com/svgjs" width="96" height="94" viewBox="0 0 96 94"><title>Fill 1</title><desc>Created with Avocode.</desc><defs id="SvgjsDefs1031"></defs><path id="SvgjsPath1032" d="M931 6078L931 6087C931 6105.2 945.8 6120 964 6120C982.2 6120 997 6105.2 997 6087L997 6078ZM928 6087L928 6075L1000 6075L1000 6087C1000 6106.85 983.85 6123 964 6123C944.15 6123 928 6106.85 928 6087Z " fill="#001689" fill-opacity="1" transform="matrix(1,0,0,1,-928,-6029)"></path><path id="SvgjsPath1033" d="M1011 6100L998 6100L998 6097L1011 6097C1013.54 6097 1015.92 6096.01 1017.72 6094.22C1019.51 6092.42 1020.5 6090.04 1020.5 6087.5C1020.5 6084.96 1019.51 6082.58 1017.72 6080.78C1015.9200000000001 6078.99 1013.5400000000001 6078 1011 6078L999 6078L999 6075L1011 6075C1014.34 6075 1017.48 6076.3 1019.84 6078.66C1022.2 6081.0199999999995 1023.5 6084.16 1023.5 6087.5C1023.5 6090.84 1022.2 6093.98 1019.84 6096.34C1017.48 6098.7 1014.34 6100 1011 6100 " fill="#001689" fill-opacity="1" transform="matrix(1,0,0,1,-928,-6029)"></path><path id="SvgjsPath1034" d="M942.5 6055C935.06 6055 929 6049.17 929 6042C929 6034.83 935.06 6029 942.5 6029L942.5 6032C936.71 6032 932 6036.49 932 6042C932 6047.51 936.71 6052 942.5 6052Z " fill="#001689" fill-opacity="1" transform="matrix(1,0,0,1,-928,-6029)"></path><path id="SvgjsPath1035" d="M943 6078L943 6075C948.79 6075 953.5 6070.51 953.5 6065C953.5 6059.49 948.79 6055 943 6055L943 6052C950.44 6052 956.5 6057.83 956.5 6065C956.5 6072.17 950.44 6078 943 6078 " fill="#001689" fill-opacity="1" transform="matrix(1,0,0,1,-928,-6029)"></path><path id="SvgjsPath1036" d="M964.5 6055C957.06 6055 951 6049.17 951 6042C951 6034.83 957.06 6029 964.5 6029L964.5 6032C958.71 6032 954 6036.49 954 6042C954 6047.51 958.71 6052 964.5 6052Z " fill="#001689" fill-opacity="1" transform="matrix(1,0,0,1,-928,-6029)"></path><path id="SvgjsPath1037" d="M965 6078L965 6075C970.79 6075 975.5 6070.51 975.5 6065C975.5 6059.49 970.79 6055 965 6055L965 6052C972.44 6052 978.5 6057.83 978.5 6065C978.5 6072.17 972.44 6078 965 6078 " fill="#001689" fill-opacity="1" transform="matrix(1,0,0,1,-928,-6029)"></path><path id="SvgjsPath1038" d="M986.5 6055C979.06 6055 973 6049.17 973 6042C973 6034.83 979.06 6029 986.5 6029L986.5 6032C980.71 6032 976 6036.49 976 6042C976 6047.51 980.71 6052 986.5 6052Z " fill="#001689" fill-opacity="1" transform="matrix(1,0,0,1,-928,-6029)"></path><path id="SvgjsPath1039" d="M987 6078L987 6075C992.79 6075 997.5 6070.51 997.5 6065C997.5 6059.49 992.79 6055 987 6055L987 6052C994.44 6052 1000.5 6057.83 1000.5 6065C1000.5 6072.17 994.44 6078 987 6078 " fill="#001689" fill-opacity="1" transform="matrix(1,0,0,1,-928,-6029)"></path></svg>