<svg id="SvgjsSvg1011" xmlns="http://www.w3.org/2000/svg" version="1.1" xmlns:xlink="http://www.w3.org/1999/xlink" xmlns:svgjs="http://svgjs.com/svgjs" width="26" height="17" viewBox="0 0 26 17"><title>Fill 1</title><desc>Created with Avocode.</desc><defs id="SvgjsDefs1012"></defs><path id="SvgjsPath1013" d="M1045.11 9197.98L1045.11 9195.039999999999L1043.07 9195.039999999999L1043.07 9197.98L1040.1299999999999 9197.98L1040.1299999999999 9200.08L1043.07 9200.08L1043.07 9203.11L1045.11 9203.11L1045.11 9200.08L1047.9699999999998 9200.08L1047.9699999999998 9197.98ZM1038.17 9197.81C1038.72 9201.88 1037.0600000000002 9207.98 1030.25 9207.98C1025.69 9207.98 1022 9204.18 1022 9199.49C1022 9194.8 1025.69 9191 1030.25 9191C1032.39 9191 1034.33 9191.84 1035.8 9193.21C1034.07 9194.89 1034.1299999999999 9194.99 1033.45 9195.689999999999C1032.6000000000001 9194.97 1031.68 9194.449999999999 1030.25 9194.449999999999C1027.54 9194.449999999999 1025.43 9196.71 1025.43 9199.49C1025.43 9202.28 1027.54 9204.539999999999 1030.25 9204.539999999999C1032.92 9204.539999999999 1034.01 9203.349999999999 1034.71 9201.169999999998C1033.42 9201.169999999998 1030.25 9201.169999999998 1030.25 9201.169999999998L1030.25 9197.809999999998Z " fill="#ffffff" fill-opacity="1" transform="matrix(1,0,0,1,-1022,-9191)"></path></svg>