<svg id="SvgjsSvg1079" xmlns="http://www.w3.org/2000/svg" version="1.1" xmlns:xlink="http://www.w3.org/1999/xlink" xmlns:svgjs="http://svgjs.com/svgjs" width="11" height="19" viewBox="0 0 11 19"><title>Fill 1</title><desc>Created with Avocode.</desc><defs id="SvgjsDefs1080"></defs><path id="SvgjsPath1081" d="M266.24 9053.61C266.91 9053.19 267.11 9052.300000000001 266.69 9051.630000000001C266.27 9050.960000000001 265.39 9050.76 264.73 9051.18C264.73 9051.18 264.73 9051.18 264.72 9051.18C262.73 9052.44 260.17 9052.44 258.18 9051.18C257.52 9050.76 256.64 9050.960000000001 256.22 9051.630000000001C255.80000000000004 9052.300000000001 256 9053.19 256.67 9053.61C257.53000000000003 9054.16 258.49 9054.560000000001 259.49 9054.79L256.77 9057.52C256.21 9058.08 256.21 9058.99 256.77 9059.550000000001C257.33 9060.11 258.22999999999996 9060.11 258.78 9059.550000000001L261.45 9056.86L264.12 9059.550000000001C264.68 9060.11 265.58 9060.11 266.13 9059.550000000001L266.14 9059.550000000001C266.69 9058.990000000002 266.69 9058.090000000002 266.14 9057.53C266.14 9057.53 266.14 9057.53 266.14 9057.52L263.41999999999996 9054.79C264.41999999999996 9054.560000000001 265.36999999999995 9054.160000000002 266.23999999999995 9053.61ZM266.31 9045.9C266.31 9043.199999999999 264.13 9041 261.45 9041C258.77 9041 256.59 9043.2 256.59 9045.9C256.59 9048.6 258.77 9050.789999999999 261.45 9050.789999999999C264.13 9050.789999999999 266.31 9048.599999999999 266.31 9045.9ZM263.47 9045.9C263.47 9047.01 262.56 9047.92 261.45000000000005 9047.92C260.34000000000003 9047.92 259.44000000000005 9047.01 259.44000000000005 9045.9C259.44000000000005 9044.779999999999 260.34000000000003 9043.869999999999 261.45000000000005 9043.869999999999C262.56000000000006 9043.869999999999 263.47 9044.779999999999 263.47 9045.9Z " fill="#ffffff" fill-opacity="1" transform="matrix(1,0,0,1,-256,-9041)"></path></svg>