<svg id="SvgjsSvg1008" xmlns="http://www.w3.org/2000/svg" version="1.1" xmlns:xlink="http://www.w3.org/1999/xlink" xmlns:svgjs="http://svgjs.com/svgjs" width="21" height="17" viewBox="0 0 21 17"><title>Fill 1</title><desc>Created with Avocode.</desc><defs id="SvgjsDefs1009"></defs><path id="SvgjsPath1010" d="M989.42 9191.31C988.5899999999999 9191.81 987.67 9192.16 986.68 9192.359999999999C985.9 9191.519999999999 984.78 9190.999999999998 983.54 9190.999999999998C981.16 9190.999999999998 979.23 9192.919999999998 979.23 9195.289999999999C979.23 9195.63 979.27 9195.96 979.34 9196.269999999999C975.76 9196.089999999998 972.59 9194.38 970.46 9191.789999999999C970.09 9192.419999999998 969.88 9193.16 969.88 9193.939999999999C969.88 9195.429999999998 970.64 9196.749999999998 971.8 9197.519999999999C971.0899999999999 9197.489999999998 970.43 9197.3 969.8499999999999 9196.979999999998L969.8499999999999 9197.029999999997C969.8499999999999 9199.109999999997 971.3299999999999 9200.839999999997 973.3 9201.239999999996C972.9399999999999 9201.339999999997 972.56 9201.389999999996 972.17 9201.389999999996C971.89 9201.389999999996 971.62 9201.359999999995 971.3499999999999 9201.309999999996C971.8999999999999 9203.019999999995 973.4899999999999 9204.259999999997 975.3799999999999 9204.289999999995C973.8999999999999 9205.449999999995 972.0499999999998 9206.129999999996 970.0299999999999 9206.129999999996C969.6799999999998 9206.129999999996 969.3399999999998 9206.109999999995 968.9999999999999 9206.069999999996C970.9099999999999 9207.289999999995 973.1699999999998 9207.999999999996 975.5999999999999 9207.999999999996C983.5299999999999 9207.999999999996 987.8599999999999 9201.459999999995 987.8599999999999 9195.789999999997L987.8499999999999 9195.229999999998C988.6899999999999 9194.629999999997 989.42 9193.869999999997 989.9999999999999 9193.009999999998C989.2299999999999 9193.349999999999 988.3999999999999 9193.579999999998 987.5299999999999 9193.689999999999C988.4199999999998 9193.159999999998 989.0999999999999 9192.31 989.4199999999998 9191.31 " fill="#ffffff" fill-opacity="1" transform="matrix(1,0,0,1,-969,-9191)"></path></svg>