<svg id="SvgjsSvg1076" xmlns="http://www.w3.org/2000/svg" version="1.1" xmlns:xlink="http://www.w3.org/1999/xlink" xmlns:svgjs="http://svgjs.com/svgjs" width="23" height="13" viewBox="0 0 23 13"><title>Fill 1</title><desc>Created with Avocode.</desc><defs id="SvgjsDefs1077"></defs><path id="SvgjsPath1078" d="M178.37 9050.35C178.37 9050.35 181.28 9046.24 181.57 9044.890000000001C181.67 9044.410000000002 181.45 9044.130000000001 180.95 9044.130000000001L178.42999999999998 9044.130000000001C177.84999999999997 9044.130000000001 177.62999999999997 9044.390000000001 177.45999999999998 9044.750000000002C177.45999999999998 9044.750000000002 176.08999999999997 9047.660000000002 174.42999999999998 9049.500000000002C173.89999999999998 9050.090000000002 173.62999999999997 9050.270000000002 173.32999999999998 9050.270000000002C173.08999999999997 9050.270000000002 172.98 9050.070000000002 172.98 9049.540000000003L172.98 9044.850000000002C172.98 9044.190000000002 172.91 9044.000000000002 172.36999999999998 9044.000000000002L168.31999999999996 9044.000000000002C168.00999999999996 9044.000000000002 167.80999999999997 9044.180000000002 167.80999999999997 9044.420000000002C167.80999999999997 9045.040000000003 168.75999999999996 9045.180000000002 168.75999999999996 9046.860000000002L168.75999999999996 9050.310000000003C168.75999999999996 9051.000000000004 168.71999999999997 9051.270000000002 168.38999999999996 9051.270000000002C167.51999999999995 9051.270000000002 165.45999999999995 9048.280000000002 164.29999999999995 9044.890000000003C164.06999999999996 9044.190000000002 163.81999999999996 9044.000000000004 163.15999999999997 9044.000000000004L160.63999999999996 9044.000000000004C160.26999999999995 9044.000000000004 159.99999999999997 9044.250000000004 159.99999999999997 9044.620000000004C159.99999999999997 9045.290000000005 160.78999999999996 9048.420000000004 163.89999999999998 9052.600000000004C165.98 9055.420000000004 168.71999999999997 9056.950000000004 171.18999999999997 9056.950000000004C172.69999999999996 9056.950000000004 173.05999999999997 9056.700000000004 173.05999999999997 9056.060000000005L173.05999999999997 9053.900000000005C173.05999999999997 9053.360000000004 173.26999999999998 9053.130000000005 173.57999999999998 9053.130000000005C173.92999999999998 9053.130000000005 174.54 9053.240000000005 175.98 9054.650000000005C177.67 9056.270000000006 177.79 9056.950000000004 178.72 9056.950000000004L181.55 9056.950000000004C181.84 9056.950000000004 182.11 9056.810000000005 182.11 9056.330000000004C182.11 9055.690000000004 181.28 9054.550000000003 180.01000000000002 9053.200000000004C179.49 9052.510000000004 178.64000000000001 9051.760000000004 178.37000000000003 9051.410000000003C177.98000000000005 9051.000000000004 178.10000000000002 9050.770000000004 178.37000000000003 9050.350000000004 " fill="#ffffff" fill-opacity="1" transform="matrix(1,0,0,1,-160,-9044)"></path></svg>