<svg id="SvgjsSvg1033" xmlns="http://www.w3.org/2000/svg" version="1.1" xmlns:xlink="http://www.w3.org/1999/xlink" xmlns:svgjs="http://svgjs.com/svgjs" width="63" height="63" viewBox="0 0 63 63"><title>Fill 1</title><desc>Created with Avocode.</desc><defs id="SvgjsDefs1034"></defs><path id="SvgjsPath1035" d="M579 8220.5C579 8231.8 588.2 8241 599.5 8241L612 8241L612 8235.5C612 8216.98 597.33 8201.82 579 8201.03ZM615 8244L599.5 8244C586.54 8244 576 8233.46 576 8220.5L576 8198L577.5 8198C598.18 8198 615 8214.82 615 8235.5Z " fill="#011689" fill-opacity="1" transform="matrix(1,0,0,1,-576,-8181)"></path><path id="SvgjsPath1036" d="M614.63 8244L614.63 8241C626.37 8241 635.92 8231.43 635.92 8219.67L635.92 8199.03C623.6899999999999 8199.560000000001 613.55 8206.53 609.8299999999999 8217.09L606.9999999999999 8216.09C611.2899999999998 8203.89 623.2299999999999 8196 637.4199999999998 8196L638.9199999999998 8196L638.9199999999998 8219.67C638.9199999999998 8233.09 628.0199999999999 8244 614.6299999999999 8244 " fill="#011689" fill-opacity="1" transform="matrix(1,0,0,1,-576,-8181)"></path><path id="SvgjsPath1037" d="M595 8202.84L592 8202.75C592.34 8190.75 606.19 8181.9 606.78 8181.52L607.61 8181L608.42 8181.56C608.9499999999999 8181.92 621.36 8190.530000000001 622.9799999999999 8201.58L620.0199999999999 8202.01C618.7999999999998 8193.77 610.2499999999999 8186.68 607.5399999999998 8184.63C604.6599999999999 8186.67 595.2499999999999 8193.99 594.9999999999999 8202.84 " fill="#011689" fill-opacity="1" transform="matrix(1,0,0,1,-576,-8181)"></path><path id="SvgjsPath1038" d="M587 8200.92L584 8200.92L584 8182L594.84 8184.71C597.4100000000001 8185.47 599.61 8187.17 600.8000000000001 8189.26L598.2 8190.75C597.3900000000001 8189.33 595.8000000000001 8188.12 594.0500000000001 8187.6L587.0000000000001 8185.84Z " fill="#011689" fill-opacity="1" transform="matrix(1,0,0,1,-576,-8181)"></path><path id="SvgjsPath1039" d="M630.81 8198.93L627.81 8198.93L627.81 8185.860000000001L620.7099999999999 8187.68C619.0199999999999 8188.200000000001 617.43 8189.4400000000005 616.6199999999999 8190.900000000001L613.9999999999999 8189.4400000000005C615.1899999999999 8187.3 617.3899999999999 8185.56 619.8899999999999 8184.790000000001L630.8099999999998 8182.000000000001Z " fill="#011689" fill-opacity="1" transform="matrix(1,0,0,1,-576,-8181)"></path></svg>