<?xml version="1.0" encoding="utf-8"?>
<!-- Generator: Adobe Illustrator 17.0.1, SVG Export Plug-In . SVG Version: 6.00 Build 0)  -->
<!DOCTYPE svg PUBLIC "-//W3C//DTD SVG 1.1//EN" "http://www.w3.org/Graphics/SVG/1.1/DTD/svg11.dtd">
<svg version="1.1" id="SvgjsSvg1000" xmlns:svgjs="http://svgjs.com/svgjs"
	 xmlns="http://www.w3.org/2000/svg" xmlns:xlink="http://www.w3.org/1999/xlink" x="0px" y="0px" width="47px" height="47.161px"
	 viewBox="0 0 47 47.161" enable-background="new 0 0 47 47.161" xml:space="preserve">
<title>Stroke 1</title>
<desc>Created with Avocode.</desc>
<path id="SvgjsPath1007" fill="#FFFFFF" fill-opacity="0" stroke="#011689" stroke-width="3" stroke-miterlimit="50" stroke-dasharray="0" d="
	M28.5,45.661h-13c-7.73,0-14-6.27-14-14v-18h1c14.58,0,26,11.42,26,26V45.661z"/>
<path id="SvgjsPath1008" fill="#FFFFFF" fill-opacity="0" stroke="#011689" stroke-width="3" stroke-miterlimit="50" stroke-dasharray="0" d="
	M24.5,26.661c2.96-8.52,11.24-14,21-14l0,0v16.26c0,9.25-7.89,16.74-17,16.74H29"/>
<path id="SvgjsPath1009" fill="#FFFFFF" fill-opacity="0" stroke="#011689" stroke-width="3" stroke-miterlimit="50" stroke-dasharray="0" d="
	M13.5,16.661c0.23-8.51,10.05-15,10.05-15s8.85,6.36,9.95,14.25"/>
<path id="SvgjsPath1010" fill="#FFFFFF" fill-opacity="0" stroke="#011689" stroke-width="3" stroke-miterlimit="50" stroke-dasharray="0" d="
	M7.5,14.661v-12l7.06,1.71c1.63,0.48,3.14,1.57,3.94,2.94"/>
<path id="SvgjsPath1011" fill="#FFFFFF" fill-opacity="0" stroke="#011689" stroke-width="3" stroke-miterlimit="50" stroke-dasharray="0" d="
	M40.5,13.661v-11l-7.05,1.84c-1.64,0.51-3.15,1.68-3.95,3.15"/>
</svg>
