<svg id="SvgjsSvg1000" xmlns="http://www.w3.org/2000/svg" version="1.1" xmlns:xlink="http://www.w3.org/1999/xlink" xmlns:svgjs="http://svgjs.com/svgjs" width="47" height="47.160773293750026" viewBox="0 0 47 47.160773293750026"><title>Stroke 1</title><desc>Created with Avocode.</desc><defs id="SvgjsDefs1001"></defs><path id="SvgjsPath1007" d="M214 679L201 679C193.27 679 187 672.73 187 665L187 647L188 647C202.58 647 214 658.42 214 673Z " fill-opacity="0" fill="#ffffff" stroke-dasharray="0" stroke-linejoin="miter" stroke-linecap="butt" stroke-opacity="1" stroke="#cc003d" stroke-miterlimit="50" stroke-width="3" transform="matrix(1,0,0,1,-185.5,-633.33922670625)"></path><path id="SvgjsPath1008" d="M210 660C212.96 651.48 221.24 646 231 646L231 646L231 662.26C231 671.51 223.11 679 214 679L214.5 679 " fill-opacity="0" fill="#ffffff" stroke-dasharray="0" stroke-linejoin="miter" stroke-linecap="butt" stroke-opacity="1" stroke="#cc003d" stroke-miterlimit="50" stroke-width="3" transform="matrix(1,0,0,1,-185.5,-633.33922670625)"></path><path id="SvgjsPath1009" d="M199 650C199.23 641.49 209.05 635 209.05 635C209.05 635 217.9 641.36 219 649.25 " fill-opacity="0" fill="#ffffff" stroke-dasharray="0" stroke-linejoin="miter" stroke-linecap="butt" stroke-opacity="1" stroke="#cc003d" stroke-miterlimit="50" stroke-width="3" transform="matrix(1,0,0,1,-185.5,-633.33922670625)"></path><path id="SvgjsPath1010" d="M193 648L193 636L200.06 637.71C201.69 638.19 203.2 639.2800000000001 204 640.6500000000001 " fill-opacity="0" fill="#ffffff" stroke-dasharray="0" stroke-linejoin="miter" stroke-linecap="butt" stroke-opacity="1" stroke="#cc003d" stroke-miterlimit="50" stroke-width="3" transform="matrix(1,0,0,1,-185.5,-633.33922670625)"></path><path id="SvgjsPath1011" d="M226 647L226 636L218.95 637.84C217.31 638.35 215.79999999999998 639.52 215 640.99 " fill-opacity="0" fill="#ffffff" stroke-dasharray="0" stroke-linejoin="miter" stroke-linecap="butt" stroke-opacity="1" stroke="#cc003d" stroke-miterlimit="50" stroke-width="3" transform="matrix(1,0,0,1,-185.5,-633.33922670625)"></path></svg>