<svg id="SvgjsSvg1040" xmlns="http://www.w3.org/2000/svg" version="1.1" xmlns:xlink="http://www.w3.org/1999/xlink" xmlns:svgjs="http://svgjs.com/svgjs" width="63" height="63.79537453474131" viewBox="0 0 63 63.79537453474131"><title>Stroke 1</title><desc>Created with Avocode.</desc><defs id="SvgjsDefs1041"></defs><path id="SvgjsPath1042" d="M1280 8209.94C1280 8222.65 1273.28 8229 1265 8229C1256.72 8229 1250 8223.3 1250 8210.6C1250 8197.9 1265 8183 1265 8183C1265 8183 1280 8197.24 1280 8209.94Z " fill-opacity="0" fill="#ffffff" stroke-dasharray="0" stroke-linejoin="miter" stroke-linecap="butt" stroke-opacity="1" stroke="#011689" stroke-miterlimit="50" stroke-width="3" transform="matrix(1,0,0,1,-1248.5,-8181.204625465259)"></path><path id="SvgjsPath1043" d="M1263 8245L1266 8245L1266 8230L1263 8230Z " fill="#011689" fill-opacity="1" transform="matrix(1,0,0,1,-1248.5,-8181.204625465259)"></path><path id="SvgjsPath1044" d="M1310 8209.94C1310 8222.65 1303.28 8229 1295 8229C1286.72 8229 1280 8223.3 1280 8210.6C1280 8197.9 1295 8183 1295 8183C1295 8183 1310 8197.24 1310 8209.94Z " fill-opacity="0" fill="#ffffff" stroke-dasharray="0" stroke-linejoin="miter" stroke-linecap="butt" stroke-opacity="1" stroke="#011689" stroke-miterlimit="50" stroke-width="3" transform="matrix(1,0,0,1,-1248.5,-8181.204625465259)"></path><path id="SvgjsPath1045" d="M1293 8245L1296 8245L1296 8230L1293 8230Z " fill="#011689" fill-opacity="1" transform="matrix(1,0,0,1,-1248.5,-8181.204625465259)"></path></svg>