<svg id="SvgjsSvg1012" xmlns="http://www.w3.org/2000/svg" version="1.1" xmlns:xlink="http://www.w3.org/1999/xlink" xmlns:svgjs="http://svgjs.com/svgjs" width="63" height="63.79537453474131" viewBox="0 0 63 63.79537453474131"><title>Stroke 1</title><desc>Created with Avocode.</desc><defs id="SvgjsDefs1013"></defs><path id="SvgjsPath1014" d="M240 3501.94C240 3514.65 233.28 3521 225 3521C216.72 3521 210 3515.3 210 3502.6C210 3489.9 225 3475 225 3475C225 3475 240 3489.24 240 3501.94Z " fill-opacity="0" fill="#ffffff" stroke-dasharray="0" stroke-linejoin="miter" stroke-linecap="butt" stroke-opacity="1" stroke="#ffffff" stroke-miterlimit="50" stroke-width="3" transform="matrix(1,0,0,1,-208.5,-3473.2046254652587)"></path><path id="SvgjsPath1015" d="M223 3537L226 3537L226 3522L223 3522Z " fill="#ffffff" fill-opacity="1" transform="matrix(1,0,0,1,-208.5,-3473.2046254652587)"></path><path id="SvgjsPath1016" d="M270 3501.94C270 3514.65 263.28 3521 255 3521C246.72 3521 240 3515.3 240 3502.6C240 3489.9 255 3475 255 3475C255 3475 270 3489.24 270 3501.94Z " fill-opacity="0" fill="#ffffff" stroke-dasharray="0" stroke-linejoin="miter" stroke-linecap="butt" stroke-opacity="1" stroke="#ffffff" stroke-miterlimit="50" stroke-width="3" transform="matrix(1,0,0,1,-208.5,-3473.2046254652587)"></path><path id="SvgjsPath1017" d="M253 3537L256 3537L256 3522L253 3522Z " fill="#ffffff" fill-opacity="1" transform="matrix(1,0,0,1,-208.5,-3473.2046254652587)"></path></svg>