<svg xmlns="http://www.w3.org/2000/svg" width="39" height="26" viewBox="0 0 39 26"><path fill="#fff" d="M32.12 17.81a3.29 3.29 0 0 1-1.03 1.78l2.34 6.34h-2.09l-1.91-5.49h-1.17v5.49h-1.95V15.12h1.95v3.57h.79c1.04 0 1.33-.95 1.42-1.98l.12-1.59h1.91s-.22 2-.38 2.69zM10.07 5.7c.01 2.86.72 3.83 1.46 3.85.75-.02 1.46-.99 1.47-3.85-.01-2.92-.72-3.89-1.47-3.9-.74.01-1.45.98-1.46 3.9zm1.42 5.62c-1.29-.03-2.52-.81-3.05-3.02a10.2 10.2 0 0 1-.31-2.65h-.01l.01-.35c.03-1.54.29-2.65.69-3.44C9.46.52 10.47.01 11.51 0h.05c1.04.01 2.05.52 2.68 1.86.41.79.66 1.9.7 3.44v.35c0 .96-.1 1.9-.31 2.65-.53 2.21-1.76 2.99-3.05 3.02h-.03-.06zM2.61 24.26c.52 0 1.8-.11 1.8-1.95 0-2-1.16-1.94-2.15-1.94-.16 0-.32.04-.32.04v3.8s.48.05.67.05zm.23-5.6c3.05 0 3.51 2.43 3.51 3.6 0 .99-.46 3.67-3.4 3.67H0V15.12h5.43v1.8H1.94v1.76c.27-.02.57-.02.9-.02zm18.97-3.54h1.94v10.81h-1.94v-5.56h-2.67v5.56H17.2V15.12h1.94v3.45h2.67zm4.46-4.04v-9h-1.61V.28h5.2v1.8h-1.62v9zm-7.13-5.21c-.76 0-1.42-.24-1.95-.72a2.25 2.25 0 0 1-.82-1.79V.28h1.95v2.88c0 .25.07.44.21.58.21.2.53.3.97.3h1.06V.28h1.95v10.8h-1.95V5.87zm-17.2 5.21H0V.28h6.3v10.8H4.35v-9H1.94zm10.66 7.8c-.13-1.71-.39-1.98-1.81-1.98l-.34.02-.05 1.96zm-1.35-3.76c2.08 0 2.96 1 3.18 2.91l.74 7.9h-1.99l-.38-5.25h-2.43l-.19 5.25H8.26l.35-10.81zM33.73 4.04l.05-1.96h.37c1.41 0 1.65.25 1.78 1.96zm.86-3.76h-2.64l-.36 10.81h1.92l.19-5.25h2.43l.39 5.25h1.98s-.68-7.43-.74-7.9c-.22-1.91-1.1-2.91-3.17-2.91z"/></svg>