<svg xmlns="http://www.w3.org/2000/svg" width="58" height="16" viewBox="0 0 58 16"><path fill="#fff" d="M20.65 11.08c.31 0 .62.04.86.26.2.19.33.55.33.91 0 .3-.09.61-.25.83-.26.36-.54.43-.94.43h-1.28v-2.43zm-.29-4.01c.18 0 .51 0 .78.12.3.12.48.46.48.87 0 .28-.09.56-.24.72-.24.27-.52.29-.83.29h-1.21v-2zM17 5v10.51h4.23c1.97 0 3.25-1.18 3.25-3.01 0-.91-.3-1.57-.95-2.12-.24-.2-.51-.34-.79-.46.22-.1.42-.23.6-.39.49-.45.74-1.08.74-1.82 0-.77-.28-1.4-.87-1.94-.71-.64-1.53-.77-2.62-.77zM33.35 5H25v2.02h2.95v8.51h2.37V7.02h2.58L33.59 5zM37.55 10.98c.34 0 .65.08.85.22.3.21.45.55.45 1.02 0 .5-.14.74-.25.88-.21.26-.53.39-.97.39h-1.26v-2.51zM34 5v10.52h3.93c.89 0 1.73-.22 2.3-.61.58-.4 1.27-1.19 1.27-2.69 0-1.41-.67-2.16-1.07-2.49a3.96 3.96 0 0 0-2.58-.76h-1.48V7.02h3.98L41.04 5zM42.74 5.69l-.07.03-.01 2.25.29-.14a6.2 6.2 0 0 1 2.35-.82c.42-.02.79.11 1.06.35.21.21.33.48.33.77 0 .97-.67 1.45-1.48 1.95-1.98 1.19-3.21 2.43-3.21 4.93v.72h6.6V13.7h-4.09l.03-.1c.16-.67.59-1.17 1.41-1.7l1.03-.63a3.97 3.97 0 0 0 1.99-3.19V8c0-.81-.27-1.53-.79-2.05A3.48 3.48 0 0 0 45.62 5c-.93 0-2.06.27-2.88.69M53.23 5L49 11.63v1.85h4.69v2.06h1.97v-2.06h1.29l.68-2.02h-1.97V9.38h-1.97v2.08h-2.32c.17-.29 3.54-5.58 4.1-6.46zM9.75 5.26H1.76s.24.77.52 1.17h7.11s1.36 1.06 2.01 2.92H3.92a8.59 8.59 0 0 1-2.76-4.09c.06-.2.14-.4.21-.59h8.38c.65-.45 1.3-1.17 1.3-1.17H1.96l.38-.58h9.19c.24-.29.73-1.17.73-1.17h-8.9c.21-.2.44-.4.67-.58h8.5c.23-.56.4-1.17.4-1.17H3.7A9.62 9.62 0 0 0 0 5.26a9.66 9.66 0 0 0 3.69 5.26h9.21s-.16-2.8-3.15-5.26"/></svg>