<svg xmlns="http://www.w3.org/2000/svg" width="61" height="26" viewBox="0 0 61 26"><path fill="#fff" d="M30 19h1.27c.62 0 1.03.27 1.03.78a.7.7 0 0 1-.44.66v.01c.38.09.58.38.58.72 0 .56-.46.86-1.13.86H30zm1.17 1.28c.35 0 .52-.18.52-.46 0-.27-.17-.42-.54-.42h-.56v.88zm.05 1.34c.43 0 .63-.19.63-.47 0-.3-.23-.48-.64-.48h-.62v.95zM34.65 18c.4 0 .86.14 1.15.44l-.28.41c-.21-.2-.53-.35-.85-.35-.62 0-1.07.46-1.07 1.08 0 .62.45 1.09 1.09 1.09.34 0 .71-.16.95-.41l.23.43c-.28.29-.74.48-1.22.48-.98 0-1.65-.67-1.65-1.58 0-.9.68-1.59 1.65-1.59M38.87 19.42c0 .08-.03.4-.05.48h-2.31c.03.65.61.77 1.16.77.33 0 .66-.14.91-.35l.24.42c-.29.27-.76.43-1.19.43-.96 0-1.63-.68-1.63-1.58 0-.97.67-1.59 1.54-1.59s1.33.64 1.33 1.42zm-2.36.02h1.77c-.02-.52-.35-.99-.75-.99-.45 0-.93.48-1.02.99zM43.84 19v3.03h-.47V19.5h-1.78v2.53H41V19zM45.38 18.07v.27c0 .13-.02.23-.02.23h.01c.19-.37.58-.57 1.03-.57.83 0 1.35.65 1.35 1.59 0 .96-.58 1.58-1.39 1.58-.39 0-.74-.19-.95-.51h-.02s.03.11.03.26v1.38H45v-4.23zm1.77 1.52c0-.66-.35-1.08-.86-1.08-.47 0-.89.32-.89 1.09 0 .54.3 1.07.87 1.07.48 0 .88-.39.88-1.08zM51.31 19.58a1.6 1.6 0 0 1-1.65 1.59c-.92 0-1.66-.67-1.66-1.59S48.74 18 49.65 18c.92 0 1.66.66 1.66 1.58zm-.59 0c0-.63-.48-1.08-1.06-1.08-.58 0-1.06.45-1.06 1.08 0 .64.48 1.09 1.06 1.09.58 0 1.06-.45 1.06-1.09zM52.46 19v2.76h.99V19h.57v2.76h1.14V19h.56v2.76h.44v.93h-.44v-.47H52V19zM59.79 19.39c0 .14-.02.23 0 .47h-2.33c.16.51.62.87.93.93.55-.06.87-.2.93-.47l.47.47c-.34.29-.79.46-1.4.46-.74 0-1.39-.71-1.39-1.39 0-1.22.65-1.86 1.39-1.86.95 0 1.4.66 1.4 1.39zm-.47 0c-.01-.6-.76-.93-.93-.93-.55 0-.85.35-.93.93zM38 17.65h.5V17H38zM37 17.65h.5V17H37zM34.73 9.12c0-1.96-.83-3.09-2.2-3.09-1.35 0-2.22 1.13-2.22 3.09 0 1.92.87 3.09 2.22 3.09 1.37 0 2.2-1.17 2.2-3.09zm1.63 7.37c-.09.07-.19.06-.26-.02l-.68-.9c-.62-.82-1.42-1.34-2.89-1.34-2.78 0-4.53-1.97-4.53-5.11C28 5.97 29.75 4 32.53 4c2.78 0 4.51 1.97 4.51 5.12 0 1.6-.57 3.22-1.52 3.78-.17.1-.17.14 0 .19.83.3 1.21.65 1.65 1.21l.64.85c.07.09.05.18-.03.25zM41.3 13.74c0 .11-.07.18-.19.18h-1.93c-.11 0-.18-.07-.18-.18V4.18c0-.11.07-.18.18-.18h1.93c.12 0 .19.07.19.18v9.56M54.75 10.91a38.5 38.5 0 0 0-.65 2.84c-.02.11-.09.17-.2.17h-2.6c-.11 0-.18-.06-.2-.17-.15-.81-.31-1.55-.51-2.32l-.44-1.82c-.08-.36-.2-.95-.28-1.44-.03-.2-.2-.2-.23 0l-.28 1.44-.44 1.82c-.19.77-.34 1.51-.52 2.32-.01.11-.08.17-.19.17h-2.6c-.11 0-.18-.06-.2-.17-.18-.95-.4-1.87-.65-2.84L43.01 4.2c-.04-.12.03-.2.16-.2h1.96a.2.2 0 0 1 .21.15l.96 3.78c.25.95.45 2.17.53 3.08.01.18.23.2.26 0a24 24 0 0 1 .62-3.08l1.04-3.78a.2.2 0 0 1 .19-.15h1.62c.1 0 .17.06.2.15l1.05 3.78c.27.95.5 2.18.63 3.08.01.2.22.18.24 0 .07-.91.28-2.13.52-3.08l.97-3.78a.2.2 0 0 1 .21-.15h1.96c.13 0 .2.08.15.2l-1.74 6.71M60.3 13.74c0 .11-.07.18-.19.18h-1.93c-.11 0-.18-.07-.18-.18V4.18c0-.11.07-.18.18-.18h1.93c.12 0 .19.07.19.18v9.56M25.03 25.9c-2.7-2.35-4.97-3.02-7.21-3.11-1.2-.05-2.38.06-3.62.17l-.75.06-.33.03a12.05 12.05 0 0 1-7.25-1.45A11.3 11.3 0 0 1 0 11.6c0-2.08.52-4.04 1.56-5.83A11.62 11.62 0 0 1 11.64 0c2.16 0 4.17.51 5.99 1.52a11.27 11.27 0 0 1 5.9 10.02 12.19 12.19 0 0 1-.42 3.14l-.01-.01c-.21.66-.6 1.6-1.32 2.79-.08.13-.12.03-.13-.04a5.3 5.3 0 0 0-2.42-3.96l-.07-.05a7.11 7.11 0 0 0-1.79-.74c-.24-.06-.76-.03-.57-.22.08-.08 1.21-.09 2.51-.01h.07c.03-.27.04-.54.04-.82 0-2.21-.74-4-2.26-5.49a7.43 7.43 0 0 0-5.44-2.22c-2.19 0-3.96.73-5.42 2.22a7.42 7.42 0 0 0-2.19 5.44c0 2.16.74 3.93 2.25 5.42a7.3 7.3 0 0 0 5.36 2.21h.3v-.08c-.12-1.52-.15-2.78.17-2.27l.33.52a10.78 10.78 0 0 0 1.29 1.59c1.5 1.49 2.97 1.86 4.53 2.23l.1.03.77.19c1.86.49 3.87 1.28 6.21 4.14.24.29-.12.59-.39.35zm-4.76-9.53c.42.19.61.81.65 1.12.05.29.01.53-.09.64a.18.18 0 0 1-.15.07c-.18 0-.41-.2-.67-.61-.26-.4-.35-.86-.22-1.09.08-.15.25-.2.48-.13zm-3.15 2.12c-.31.37-.17 1.03.3 1.44.21.18.51.29.8.29.3 0 .55-.11.7-.31.28-.37.12-.88-.4-1.32a1.38 1.38 0 0 0-.85-.33.69.69 0 0 0-.55.23z"/></svg>