<svg xmlns="http://www.w3.org/2000/svg" width="60" height="27" viewBox="0 0 60 27"><path fill="#fff" d="M59.19 8.09c0 .3-.11.56-.32.78-.21.2-.47.31-.77.31-.31 0-.56-.11-.77-.31a1.07 1.07 0 0 1 0-1.55A1 1 0 0 1 58.1 7c.3 0 .56.1.77.32.21.22.32.47.32.77zm-.15 0a.9.9 0 0 0-.28-.67.87.87 0 0 0-.66-.28.9.9 0 0 0-.67.28.9.9 0 0 0-.28.67c0 .26.09.48.28.67a.9.9 0 0 0 .67.28c.26 0 .48-.09.66-.28a.9.9 0 0 0 .28-.67zm-.24.55h-.28l-.42-.45h-.21v.45h-.21V7.49h.4l.2.01.15.04.12.12c.02.03.04.08.04.15 0 .08-.03.14-.07.2a.5.5 0 0 1-.21.13zm-.45-.82l-.01-.08c-.01-.02-.03-.05-.06-.06a.2.2 0 0 0-.09-.02l-.11-.01h-.19v.39h.16l.14-.01.09-.04.06-.07.01-.1zM19.11 7.22c0 .78-.33 1.43-1.01 1.84.66.34 1.21.91 1.21 1.7 0 1.22-.72 2.13-1.86 2.54a4.84 4.84 0 0 1-4.45-.89l.57-.9c.2-.28.52-.28.79-.12.6.35 1.05.59 1.78.59.8 0 1.35-.27 1.35-1.15 0-.78-.8-1.01-1.45-1h-1.21v-1.5h1.05c.49 0 .84-.08 1.07-.24.24-.16.35-.4.35-.71 0-.7-.71-.86-1.28-.86-.6 0-1 .19-1.52.46-.31.16-.54.1-.72-.19l-.48-.9A4.27 4.27 0 0 1 16.04 5c.47 0 .89.05 1.27.16 1 .29 1.8.96 1.8 2.06M26.07 10.04c0 1.84-1.17 3.08-3.03 3.08-1.85 0-3.04-1.23-3.04-3.08C20 8.2 21.2 7 23.04 7s3.03 1.21 3.03 3.04zm-1.84.02c0-.84-.17-1.74-1.19-1.74-1.03 0-1.21.88-1.21 1.74 0 .85.18 1.74 1.21 1.74 1.02 0 1.19-.91 1.19-1.74zM32.11 7v5.94h-1.77V8.31h-1.26c-.08 1.15-.07 3.02-.81 3.95-.3.37-.66.63-1.13.71-.2.04-.49.06-.72.06-.11 0-.19 0-.3-.05-.11-.04-.11-.12-.11-.2v-1.06H26c.12 0 .24-.02.36-.05.37-.1.54-.36.7-.69.47-.97.34-2.91.39-3.98zM39.07 10.04c0 1.84-1.17 3.08-3.02 3.08-1.86 0-3.05-1.23-3.05-3.08C33 8.2 34.2 7 36.05 7c1.83 0 3.02 1.21 3.02 3.04zm-1.83.02c0-.84-.18-1.74-1.19-1.74-1.04 0-1.22.88-1.22 1.74 0 .85.18 1.74 1.22 1.74 1.01 0 1.19-.91 1.19-1.74zM39 7h5.55v1.27h-1.89v4.67h-1.77V8.27H39zM55.35 12.94h-1.68v-2.29c-.19 0-.41.01-.57.14-.09.08-.16.21-.22.32l-.56 1.24c-.28.48-.58.59-1.1.59H50l1.18-1.99c.2-.35.42-.51.81-.64-.8-.17-1.5-.65-1.5-1.54 0-.49.21-.91.58-1.22a2.97 2.97 0 0 1 1.9-.55h2.38zM53.02 9.6h.65V8.11h-.65c-.33 0-.62.14-.71.48-.07.27-.04.6.18.81.13.13.31.2.53.2zM4.75 16.64h.45c.21 0 .39-.04.54-.12.15-.08.28-.22.41-.42.69-.88 1.42-3.27 2.81-3.79 1.02-.39 1.91-.3 2.37-.3v1.68c.03.81-.78.56-1.34.97-.95.69-.97 2.47-2.09 2.86.37.1.67.27.93.5.25.23.49.55.71.95l2.66 4.6H9.68c-.53 0-.83-.34-1.08-.77l-1.97-3.51c-.25-.46-.53-.59-1.05-.59h-.83v4.87H2V12.01h2.75z"/><path fill="#fff" d="M19.81 19.42c0 .69-.1 1.31-.32 1.86-.68 1.76-2.23 2.61-4.07 2.61-1.83 0-3.42-.85-4.1-2.61a5.18 5.18 0 0 1-.32-1.86c0-2.64 1.71-4.42 4.42-4.42s4.39 1.8 4.39 4.42zm-2.66.02c0-1.21-.25-2.53-1.73-2.53-1.5 0-1.76 1.29-1.76 2.53 0 1.24.26 2.54 1.76 2.54 1.48 0 1.73-1.33 1.73-2.54zM21 26.52V15.17h1.6c.32 0 .53.14.63.43l.19.63A3.5 3.5 0 0 1 26.11 15c1.55 0 2.48 1.16 2.88 2.55a6.57 6.57 0 0 1-.03 3.65c-.51 1.57-1.71 2.72-3.42 2.72a2.8 2.8 0 0 1-1.96-.7v3.3zm2.58-8.73v3.65c.36.41.8.59 1.34.59 1.4 0 1.65-1.52 1.65-2.62 0-.94-.12-2.44-1.36-2.44-.75 0-1.17.26-1.63.82zM38.81 19.42c0 2.67-1.7 4.47-4.39 4.47-2.69 0-4.42-1.78-4.42-4.47 0-2.68 1.75-4.42 4.42-4.42s4.39 1.76 4.39 4.42zm-2.66.02c0-1.21-.25-2.53-1.73-2.53-1.5 0-1.76 1.29-1.76 2.53 0 1.24.26 2.54 1.76 2.54 1.48 0 1.73-1.33 1.73-2.54zM46.82 15v8.62h-2.58v-3.64h-2.66v3.64H39V15h2.58v3.14h2.66V15zM44.55 7.23c-.01.27-.16 1.53.87 1.3.84-.14 1.51-.28 1.81.05.13.14.2.3.21.61-.67.01-1.23.08-1.67.2-.7.19-1.28.48-1.62 1.16-.29.61-.16 1.71.36 2.18.57.5 1.61.52 2.28.22.31-.15.59-.35.85-.58l.13.33c.11.3.28.35.59.35h.81V9.22C49.17 7.9 48.14 7 46.85 7c-.91 0-1.63.13-2.3.23zm2.9 4.06a1.9 1.9 0 0 1-.52.39c-.28.13-.84.23-1.15-.01-.32-.23-.21-.86.15-1.04a4.54 4.54 0 0 1 1.52-.27zM2 11.1h9.32V10H2zM6.22 0l1.25 1.22-1.25 1.22L5 1.22zM8.1 8.88V4.21c.84.14 1.64.39 2.39.75L8.94 8.7c-.09.18-.26.18-.26.18H8.1zM7 3v6.86h2.27c.39 0 .53-.36.53-.36l1.64-4.01.47.32-1.71 4.05h1.19l1.83-4.4A9.83 9.83 0 0 0 7 3zM5.13 8.88V4.21c-.84.14-1.65.39-2.39.75L4.28 8.7c.09.18.27.18.27.18h.58zM6.23 3v6.86H3.96c-.39 0-.53-.36-.53-.36L1.78 5.49l-.46.32 1.71 4.05H1.84L0 5.46A9.84 9.84 0 0 1 6.23 3zM48.81 15.34c-.03.39-.24 2.22 1.26 1.88 1.22-.19 2.2-.4 2.64.08.19.21.29.43.31.88-.99.02-1.8.12-2.45.3-1.02.28-1.86.7-2.34 1.69-.43.89-.25 2.48.52 3.17.82.73 2.34.76 3.31.32.46-.21.86-.51 1.24-.83l.18.47c.17.44.42.51.86.51h1.18v-5.57c0-1.93-1.49-3.24-3.36-3.24-1.33 0-2.39.19-3.35.34zm4.21 5.91c-.26.25-.51.44-.76.56-.4.19-1.22.33-1.67-.01-.46-.33-.31-1.25.22-1.52a6.54 6.54 0 0 1 2.21-.38z"/></svg>