<svg xmlns="http://www.w3.org/2000/svg" width="75" height="23" viewBox="0 0 75 23"><path fill="#fff" d="M.96 11.38A10.38 10.38 0 0 0 11.38 21.8c2.76 0 5.41-1.1 7.37-3.05a10.46 10.46 0 0 0 0-14.74A10.37 10.37 0 0 0 11.38.96a10.34 10.34 0 0 0-7.37 3.05 10.36 10.36 0 0 0-3.05 7.37zM11.38 0a11.38 11.38 0 1 1 0 22.76 11.38 11.38 0 0 1 0-22.76z"/><path fill="#fff" d="M13.85 5.88c0 .77-.63 1.4-1.4 1.4a1.4 1.4 0 1 1 1.4-1.4zm-6.3 6.13v-1.8h12.54a9.07 9.07 0 1 0-.01 1.8zM28.3 11.21h4.32C32.47 9.4 31.37 8 29.45 8c-.7.01-1.38.16-2.01.45l-.29-.91A5.7 5.7 0 0 1 29.51 7c2.92 0 4.41 2.11 4.41 4.81 0 3.06-2 4.8-4.49 4.8a6.15 6.15 0 0 1-2.43-.47l.26-.96c.64.27 1.33.42 2.02.42 2.04 0 3.27-1.49 3.36-3.43H28.3z"/><path fill="#fff" d="M39.01 10v6.68h-1.22v-5.73H35.5v1.72c0 1.88-.17 3.13-1.05 3.7a2 2 0 0 1-1.33.42l-.12-.96c.24-.04.47-.13.66-.27.62-.46.69-1.4.69-2.9V10zM74.39 10v.95H72.3v5.73h-1.21v-5.73H69V10zM58.22 10v2.69h3.16V10h1.21v6.68h-1.21v-3.02h-3.16v3.02H57V10zM47.22 10v2.9h.27l2.52-2.9h1.47l-2.91 3.01c1.09.13 1.74.84 2.27 2.04.19.56.43 1.11.7 1.64h-1.27a10.6 10.6 0 0 1-.62-1.38c-.46-1.08-1.08-1.57-2.2-1.57h-.23v2.94H46V10zM44.72 11.85c.01-.78-.32-1.98-1.67-1.98-1.25 0-1.77 1.13-1.87 1.98zm-3.55.86c.02 1.63 1.06 2.31 2.28 2.31.63.02 1.26-.09 1.85-.34l.22.87c-.71.3-1.47.44-2.23.43-2.05 0-3.29-1.38-3.29-3.38 0-1.99 1.2-3.6 3.15-3.6 2.18 0 2.74 1.92 2.74 3.15.01.19 0 .38-.04.56z"/><path fill="#fff" d="M56.25 15.59a4.7 4.7 0 0 1-1.92.38c-2.02 0-3.33-1.37-3.33-3.41A3.42 3.42 0 0 1 54.59 9a3.8 3.8 0 0 1 1.69.36l-.28.92a3 3 0 0 0-1.41-.31c-1.53 0-2.36 1.14-2.36 2.52 0 1.55.99 2.5 2.32 2.5a3.5 3.5 0 0 0 1.49-.31zM67.72 11.85c.01-.78-.32-1.98-1.67-1.98-1.24 0-1.77 1.13-1.87 1.98zm-3.55.86c.03 1.63 1.06 2.31 2.28 2.31.63.02 1.26-.09 1.85-.34l.22.87c-.71.3-1.47.44-2.23.43-2.05 0-3.29-1.38-3.29-3.38 0-1.99 1.2-3.6 3.15-3.6 2.18 0 2.74 1.92 2.74 3.15.01.19-.01.38-.04.56z"/></svg>