<svg xmlns="http://www.w3.org/2000/svg" width="53" height="20" viewBox="0 0 53 20"><path fill="#fff" d="M48.03 4.38v-.03h-.01zm.94-.03l-1.91 9.01c-.39 1.89.97 1.85 1.56 1.85h1.19l.28-1.3h-.65c-.66 0-.55-.59-.5-.8l1.85-8.76h1.4l.24-1.27h-1.32l.66-3.04h-1.83l-.65 3.04h-.98l-.27 1.27zm-5.7 8.99a.58.58 0 0 1-.55.48.37.37 0 0 1-.34-.41l.02-.07.72-3.3c.1-.55.08-.77 1.12-1.3zm-1.28-6.61V6.7zm1.82-.03l.41-1.96a.61.61 0 0 1 .53-.39c.15 0 .41.08.34.39l-.46 2.15c-.19.93-1.07 1.21-1.8 1.57-.81.29-1.41.97-1.61 1.8l-.72 3.39a3.3 3.3 0 0 0-.09.77c0 .69.28.93.87.93a2.53 2.53 0 0 0 1.72-.74l-.13.61h1.8l2.27-10.58a1.22 1.22 0 0 0-1.19-1.56h-1.26c-1-.11-1.91.59-2.04 1.59L42 6.7zm-6.97 8.51h1.82L41.88 0h-1.82zm-2.9-6.83l1.48-7h.28c.26 0 .72.11.57.79l-1.26 5.48a.88.88 0 0 1-.89.74zm-3.64 6.87v-.01h-.05zm2.09-.01l1.15-5.43h1.19c1.91 0 2.27-1.42 2.46-2.33l1.07-5.24c.09-.37.13-.74.13-1.12 0-1.15-1.07-1.08-1.61-1.08h-3.26l-3.22 15.2zm-6.11 0l2.14-10.33a.6.6 0 0 1 .55-.43c.19 0 .34.16.33.35l-.01.08-.48 2.3h1.91l.57-2.67c.05-.23.09-.46.11-.7 0-.54-.24-.89-.85-.89-.64.03-1.25.25-1.76.63l.1-.49h-1.82l-2.59 12.12zm-4.63-6.69l.83-3.8a.46.46 0 0 1 .46-.37c.25 0 .45.13.41.37l-.83 3.8zm.36 2.44l-.56 2.59a.54.54 0 0 1-.55.36.3.3 0 0 1-.33-.27l.01-.09.82-3.8h2.7l1.07-4.91a1.33 1.33 0 0 0-.75-1.71c-.2-.07-.41-.1-.61-.08h-1.13a2.04 2.04 0 0 0-2.04 1.8l-1.82 8.59c-.06.29-.08.58-.07.87 0 .91.74.91 1.34.91h1.13a1.95 1.95 0 0 0 2.14-1.74l.01-.06.52-2.46zm-5.62-6.11a.63.63 0 0 1 .53-.4c.45 0 .36.3.34.4l-1.8 8.59a.5.5 0 0 1-.53.41.35.35 0 0 1-.35-.34l.01-.07zM17.46.04h-1.77l-3.22 15.21h1.83l.1-.49c.3.37.74.6 1.22.63 1.21 0 1.59-1.2 1.71-1.8l1.89-8.85c.09-.35.13-.71.13-1.07 0-.65-.52-.76-1.07-.76-.56.05-1.09.26-1.53.61L17.52 0zm-3.99 3.04h-1.82L9.42 13.49a.46.46 0 0 1-.5.41c-.19.01-.36-.13-.37-.31v-.1l2.23-10.41H8.95L6.81 13.35c-.07.32-.09.65-.09.98-.04.47.31.87.78.91h.11a2.36 2.36 0 0 0 1.64-.79l-.67 3.22c0 .1-.07.37-.49.37s-.44-.19-.38-.37l.19-.98H6.03l-.11.57c-.05.33-.07.66-.06 1 0 .82.85.87 1.34.87h1.08c1.71 0 2.03-1.55 2.14-2.25zM6.12 9.92l-.66 3.06v.08a2.3 2.3 0 0 1-2.41 2.17H1.57c-.81 0-1.57.11-1.57-1.07 0-.4.05-.79.13-1.17L2.4 2.25c.25-.94.47-2.23 2.4-2.23h1.47c.61 0 1.61 0 1.61 1.07-.01.38-.06.76-.15 1.13l-.57 2.65H5.01l.64-2.97v-.06a.44.44 0 0 0-.43-.44.74.74 0 0 0-.59.5L2.19 13.34l-.01.11c0 .21.18.38.4.37a.7.7 0 0 0 .63-.48l.74-3.45zM52.59 17v1.6H10.73l.37-1.6zM0 18.6h5.25L5.5 17H0z"/></svg>