<svg xmlns="http://www.w3.org/2000/svg" width="64" height="64" viewBox="0 0 64 64"><defs><clipPath id="a"><path fill="#fff" d="M640 1672a32 32 0 1 1 64 0 32 32 0 0 1-64 0z"/></clipPath></defs><path fill="none" stroke="#001837" stroke-miterlimit="50" stroke-width="2" d="M640 1672a32 32 0 1 1 64 0 32 32 0 0 1-64 0z" clip-path="url(&quot;#a&quot;)" transform="translate(-640 -1640)"/><path fill="none" stroke="#001837" stroke-linecap="round" stroke-linejoin="round" stroke-miterlimit="50" stroke-width="2" d="M35 32a7 7 0 1 0-13.99-.01A7 7 0 0 0 35 32z"/><path fill="none" stroke="#001837" stroke-linecap="round" stroke-linejoin="round" stroke-miterlimit="50" stroke-width="2" d="M32 37.8a6.53 6.53 0 0 0 2.5 1.06 7.33 7.33 0 0 0 2.82 0 7.23 7.23 0 0 0 2.51-1.06 6.47 6.47 0 0 0 1.89-1.89c.25-.37.47-.77.64-1.19a6.55 6.55 0 0 0 .55-2.72 6.61 6.61 0 0 0-.55-2.72 6.48 6.48 0 0 0-1.5-2.23 6.47 6.47 0 0 0-2.22-1.5 7.23 7.23 0 0 0-2.73-.55 7.33 7.33 0 0 0-2.72.55c-.42.18-.82.39-1.19.65"/></svg>