<svg id="SvgjsSvg1020" xmlns="http://www.w3.org/2000/svg" version="1.1" xmlns:xlink="http://www.w3.org/1999/xlink" xmlns:svgjs="http://svgjs.com/svgjs" width="24" height="16" viewBox="0 0 24 16"><title>Stroke 1</title><desc>Created with Avocode.</desc><defs id="SvgjsDefs1021"></defs><path id="SvgjsPath1022" d="M942 3540C942 3536.13 938.87 3533 935 3533C931.14 3533 928 3536.13 928 3540C928 3543.87 931.14 3547 935 3547C938.87 3547 942 3543.87 942 3540Z " fill-opacity="0" fill="#ffffff" stroke-dasharray="0" stroke-linejoin="round" stroke-linecap="round" stroke-opacity="1" stroke="#ffffff" stroke-miterlimit="50" stroke-width="2" transform="matrix(1,0,0,1,-927,-3532)"></path><path id="SvgjsPath1023" d="M939 3545.8C939.37 3546.0600000000004 939.77 3546.27 940.19 3546.4500000000003C940.61 3546.63 941.0500000000001 3546.76 941.5 3546.86C941.96 3546.9500000000003 942.43 3547 942.91 3547C943.4 3547 943.87 3546.95 944.3199999999999 3546.86C944.78 3546.76 945.2199999999999 3546.63 945.64 3546.4500000000003C946.06 3546.2700000000004 946.46 3546.0600000000004 946.83 3545.8C947.2 3545.55 947.5500000000001 3545.27 947.86 3544.9500000000003C948.1800000000001 3544.63 948.47 3544.2900000000004 948.72 3543.9100000000003C948.97 3543.5400000000004 949.19 3543.1400000000003 949.36 3542.7200000000003C949.54 3542.3100000000004 949.6800000000001 3541.8700000000003 949.77 3541.4100000000003C949.87 3540.9600000000005 949.91 3540.4800000000005 949.91 3540.0000000000005C949.91 3539.5200000000004 949.87 3539.0500000000006 949.77 3538.5900000000006C949.68 3538.1300000000006 949.54 3537.6900000000005 949.36 3537.2800000000007C949.19 3536.8600000000006 948.97 3536.4600000000005 948.72 3536.0900000000006C948.47 3535.7100000000005 948.1800000000001 3535.370000000001 947.86 3535.0500000000006C947.5500000000001 3534.7300000000005 947.2 3534.4500000000007 946.83 3534.2000000000007C946.46 3533.9400000000005 946.0600000000001 3533.730000000001 945.64 3533.5500000000006C945.22 3533.370000000001 944.78 3533.2400000000007 944.3199999999999 3533.140000000001C943.8699999999999 3533.0500000000006 943.4 3533.000000000001 942.91 3533.000000000001C942.43 3533.000000000001 941.9599999999999 3533.050000000001 941.5 3533.140000000001C941.05 3533.2400000000007 940.61 3533.370000000001 940.19 3533.5500000000006C939.7700000000001 3533.7300000000005 939.37 3533.9400000000005 939 3534.2000000000007 " fill-opacity="0" fill="#ffffff" stroke-dasharray="0" stroke-linejoin="round" stroke-linecap="round" stroke-opacity="1" stroke="#ffffff" stroke-miterlimit="50" stroke-width="2" transform="matrix(1,0,0,1,-927,-3532)"></path></svg>