<svg id="SvgjsSvg1024" xmlns="http://www.w3.org/2000/svg" version="1.1" xmlns:xlink="http://www.w3.org/1999/xlink" xmlns:svgjs="http://svgjs.com/svgjs" width="24" height="24" viewBox="0 0 24 24"><title>Stroke 1</title><desc>Created with Avocode.</desc><defs id="SvgjsDefs1025"></defs><path id="SvgjsPath1026" d="M950 3648C950 3654.08 945.08 3659 939 3659C932.93 3659 928 3654.08 928 3648C928 3641.93 932.93 3637 939 3637C945.08 3637 950 3641.93 950 3648Z " fill-opacity="0" fill="#ffffff" stroke-dasharray="0" stroke-linejoin="round" stroke-linecap="round" stroke-opacity="1" stroke="#ffffff" stroke-miterlimit="50" stroke-width="2" transform="matrix(1,0,0,1,-927,-3636)"></path><path id="SvgjsPath1027" d="M942.2 3652.66C942.2 3651.49 942.86 3651.87 943.25 3649.74C943.42 3648.85 944.21 3649.72 944.36 3647.7099999999996C944.36 3646.8999999999996 943.9300000000001 3646.6999999999994 943.9300000000001 3646.6999999999994C944.09 3645.8699999999994 944.45 3642.8199999999993 943.3900000000001 3641.5799999999995C942.6700000000001 3640.7399999999993 941.5800000000002 3640.7099999999996 941.3100000000001 3640.7199999999993C941.2900000000001 3640.709999999999 941.2600000000001 3640.6999999999994 941.24 3640.6999999999994C940.94 3640.189999999999 939.14 3639.5299999999993 936.75 3640.4999999999995C934.27 3641.4999999999995 934.31 3643.6699999999996 934.6 3645.4599999999996C934.7 3646.1199999999994 934.8000000000001 3646.6999999999994 934.8000000000001 3646.6999999999994C934.8000000000001 3646.6999999999994 934.3700000000001 3646.899999999999 934.3700000000001 3647.7099999999996C934.5200000000001 3649.72 935.3200000000002 3648.8499999999995 935.4800000000001 3649.74C935.8700000000001 3651.87 936.5400000000001 3651.49 936.5400000000001 3652.66C936.5400000000001 3654.5699999999997 935.85 3655.48 933.0000000000001 3656.5299999999997C934.8000000000001 3657.81 936.9900000000001 3658.5699999999997 939.3700000000001 3658.5699999999997C941.7400000000001 3658.5699999999997 943.9300000000001 3657.8099999999995 945.7300000000001 3656.5299999999997C942.8800000000001 3655.4799999999996 942.2000000000002 3654.5699999999997 942.2000000000002 3652.66Z " fill-opacity="0" fill="#ffffff" stroke-dasharray="0" stroke-linejoin="round" stroke-linecap="round" stroke-opacity="1" stroke="#ffffff" stroke-miterlimit="50" stroke-width="2" transform="matrix(1,0,0,1,-927,-3636)"></path></svg>