<svg id="SvgjsSvg1000" xmlns="http://www.w3.org/2000/svg" version="1.1" xmlns:xlink="http://www.w3.org/1999/xlink" xmlns:svgjs="http://svgjs.com/svgjs" width="95" height="93" viewBox="0 0 95 93"><title>Fill 1</title><desc>Created with Avocode.</desc><defs id="SvgjsDefs1001"></defs><path id="SvgjsPath1007" d="M184 1665C172.7 1665 163 1674.08 163 1685.25L163 1685.38C163 1696.75 172.7 1706 184 1706L232 1706C243.09 1706 252.47 1696.53 252.5 1685.31C252.47 1674.11 243.28 1665 232 1665L229.45 1665L229.48 1663.48C229.48 1662.9 229.48999999999998 1662.68 229.5 1662.53L229.5 1662.27C229.44 1651.08 220.27 1642 209 1642L207 1642C195.7 1642 186.5 1651.08 186.5 1662.25L186.5 1662.58C186.51 1662.6899999999998 186.52 1662.87 186.52 1663.48L186.55 1665ZM232 1709L184 1709C171.04 1709 160 1698.4 160 1685.38L160 1685.25C160 1672.6 170.52 1662.27 183.25 1662.01C183.38 1649.3 194.13 1639 207 1639L209 1639C221.83 1639 232.05 1649.29 232.25 1662.01C244.94 1662.27 255 1672.58 255 1685.25L255 1685.38C255 1698.41 244.92 1709 232 1709Z " fill="#011689" fill-opacity="1" transform="matrix(1,0,0,1,-160,-1639)"></path><path id="SvgjsPath1008" d="M207 1732L210 1732L210 1709L207 1709Z " fill="#011689" fill-opacity="1" transform="matrix(1,0,0,1,-160,-1639)"></path></svg>