<svg id="SvgjsSvg1009" xmlns="http://www.w3.org/2000/svg" version="1.1" xmlns:xlink="http://www.w3.org/1999/xlink" xmlns:svgjs="http://svgjs.com/svgjs" width="96" height="71" viewBox="0 0 96 71"><title>Fill 1</title><desc>Created with Avocode.</desc><defs id="SvgjsDefs1010"></defs><path id="SvgjsPath1011" d="M550 1653L640 1653L640 1650L550 1650C546.92 1650 544 1651.46 544 1653.96L544 1716.04C544 1718.54 546.92 1721 550 1721L640 1721L640 1718L550 1718C548.57 1718 547 1716.73 547 1716.04L547 1674L640 1674L640 1671L547 1671L547 1663L640 1663L640 1660L547 1660L547 1653.96C547 1653.27 548.57 1653 550 1653 " fill="#011689" fill-opacity="1" transform="matrix(1,0,0,1,-544,-1650)"></path><path id="SvgjsPath1012" d="M575.5 1707C574.01 1707 572.61 1706.51 571.44 1705.57L570.5 1704.82L569.56 1705.57C568.4 1706.51 566.9899999999999 1707 565.5 1707C561.92 1707 559 1704.08 559 1700.5C559 1696.92 561.92 1694 565.5 1694C566.99 1694 568.4 1694.5 569.56 1695.43L570.5 1696.18L571.44 1695.43C572.61 1694.5 574.0100000000001 1694 575.5 1694C579.08 1694 582 1696.92 582 1700.5C582 1704.08 579.08 1707 575.5 1707ZM565.5 1691C560.26 1691 556 1695.26 556 1700.5C556 1705.74 560.26 1710 565.5 1710C567.27 1710 569 1709.5 570.5 1708.57C572 1709.5 573.73 1710 575.5 1710C580.74 1710 585 1705.74 585 1700.5C585 1695.26 580.74 1691 575.5 1691C573.73 1691 572 1691.5 570.5 1692.43C569 1691.5 567.27 1691 565.5 1691Z " fill="#011689" fill-opacity="1" transform="matrix(1,0,0,1,-544,-1650)"></path></svg>