<svg id="SvgjsSvg1013" xmlns="http://www.w3.org/2000/svg" version="1.1" xmlns:xlink="http://www.w3.org/1999/xlink" xmlns:svgjs="http://svgjs.com/svgjs" width="95" height="91.25" viewBox="0 0 95 91.25"><title>Stroke 1</title><desc>Created with Avocode.</desc><defs id="SvgjsDefs1014"></defs><path id="SvgjsPath1015" d="M1021 1665.5C1021 1677.93 1000.41 1688 975 1688C949.6 1688 929 1677.93 929 1665.5C929 1653.07 949.6 1643 975 1643C1000.41 1643 1021 1653.07 1021 1665.5Z " fill-opacity="0" fill="#ffffff" stroke-dasharray="0" stroke-linejoin="miter" stroke-linecap="butt" stroke-opacity="1" stroke="#011689" stroke-miterlimit="50" stroke-width="3" transform="matrix(1,0,0,1,-927.5,-1641.5)"></path><path id="SvgjsPath1016" d="M1021 1686C1021 1693.18 1000.41 1699 975 1699C949.6 1699 929 1693.18 929 1686 " fill-opacity="0" fill="#ffffff" stroke-dasharray="0" stroke-linejoin="miter" stroke-linecap="butt" stroke-opacity="1" stroke="#011689" stroke-miterlimit="50" stroke-width="3" transform="matrix(1,0,0,1,-927.5,-1641.5)"></path><path id="SvgjsPath1017" d="M1021 1697C1021 1704.18 1000.41 1710 975 1710C949.6 1710 929 1704.18 929 1697 " fill-opacity="0" fill="#ffffff" stroke-dasharray="0" stroke-linejoin="miter" stroke-linecap="butt" stroke-opacity="1" stroke="#011689" stroke-miterlimit="50" stroke-width="3" transform="matrix(1,0,0,1,-927.5,-1641.5)"></path><path id="SvgjsPath1018" d="M1021 1708C1021 1715.18 1000.41 1721 975 1721C949.6 1721 929 1715.18 929 1708 " fill-opacity="0" fill="#ffffff" stroke-dasharray="0" stroke-linejoin="miter" stroke-linecap="butt" stroke-opacity="1" stroke="#011689" stroke-miterlimit="50" stroke-width="3" transform="matrix(1,0,0,1,-927.5,-1641.5)"></path><path id="SvgjsPath1019" d="M1021 1719C1021 1726.18 1000.41 1732 975 1732C949.6 1732 929 1726.18 929 1719 " fill-opacity="0" fill="#ffffff" stroke-dasharray="0" stroke-linejoin="miter" stroke-linecap="butt" stroke-opacity="1" stroke="#011689" stroke-miterlimit="50" stroke-width="3" transform="matrix(1,0,0,1,-927.5,-1641.5)"></path></svg>