<svg id="SvgjsSvg1000" xmlns="http://www.w3.org/2000/svg" version="1.1" xmlns:xlink="http://www.w3.org/1999/xlink" xmlns:svgjs="http://svgjs.com/svgjs" width="24" height="22" viewBox="0 0 24 22"><title>Fill 1</title><desc>Created with Avocode.</desc><defs id="SvgjsDefs1001"></defs><path id="SvgjsPath1007" d="M180 4399L204 4399L204 4382L180 4382ZM182 4384L202 4384L202 4397L182 4397Z " fill="#011689" fill-opacity="1" transform="matrix(1,0,0,1,-180,-4377)"></path><path id="SvgjsPath1008" d="M186 4382L188 4382L188 4377L186 4377Z " fill="#011689" fill-opacity="1" transform="matrix(1,0,0,1,-180,-4377)"></path><path id="SvgjsPath1009" d="M196 4382L198 4382L198 4377L196 4377Z " fill="#011689" fill-opacity="1" transform="matrix(1,0,0,1,-180,-4377)"></path><path id="SvgjsPath1010" d="M188 4379L196 4379L196 4377L188 4377Z " fill="#011689" fill-opacity="1" transform="matrix(1,0,0,1,-180,-4377)"></path></svg>