<svg id="SvgjsSvg1011" xmlns="http://www.w3.org/2000/svg" version="1.1" xmlns:xlink="http://www.w3.org/1999/xlink" xmlns:svgjs="http://svgjs.com/svgjs" width="24" height="16" viewBox="0 0 24 16"><title>Stroke 1</title><desc>Created with Avocode.</desc><defs id="SvgjsDefs1012"></defs><path id="SvgjsPath1013" d="M867 4388C867 4384.13 863.87 4381 860 4381C856.14 4381 853 4384.13 853 4388C853 4391.87 856.14 4395 860 4395C863.87 4395 867 4391.87 867 4388Z " fill-opacity="0" fill="#ffffff" stroke-dasharray="0" stroke-linejoin="round" stroke-linecap="round" stroke-opacity="1" stroke="#011689" stroke-miterlimit="50" stroke-width="2" transform="matrix(1,0,0,1,-852,-4380)"></path><path id="SvgjsPath1014" d="M864 4393.8C864.37 4394.06 864.77 4394.27 865.19 4394.45C865.61 4394.63 866.0500000000001 4394.76 866.5 4394.86C866.96 4394.95 867.43 4395 867.91 4395C868.4 4395 868.87 4394.95 869.3199999999999 4394.86C869.78 4394.759999999999 870.2199999999999 4394.63 870.64 4394.45C871.06 4394.2699999999995 871.46 4394.0599999999995 871.83 4393.8C872.2 4393.55 872.5500000000001 4393.27 872.86 4392.95C873.1800000000001 4392.63 873.47 4392.29 873.72 4391.91C873.97 4391.54 874.19 4391.139999999999 874.36 4390.72C874.54 4390.31 874.6800000000001 4389.87 874.77 4389.41C874.87 4388.96 874.91 4388.48 874.91 4388C874.91 4387.52 874.87 4387.05 874.77 4386.59C874.68 4386.13 874.54 4385.6900000000005 874.36 4385.27C874.19 4384.860000000001 873.97 4384.46 873.72 4384.09C873.47 4383.71 873.1800000000001 4383.37 872.86 4383.05C872.5500000000001 4382.7300000000005 872.2 4382.45 871.83 4382.2C871.46 4381.94 871.0600000000001 4381.73 870.64 4381.55C870.22 4381.37 869.78 4381.2300000000005 869.3199999999999 4381.14C868.8699999999999 4381.05 868.4 4381 867.91 4381C867.43 4381 866.9599999999999 4381.05 866.5 4381.14C866.05 4381.2300000000005 865.61 4381.37 865.19 4381.55C864.7700000000001 4381.7300000000005 864.37 4381.9400000000005 864 4382.2 " fill-opacity="0" fill="#ffffff" stroke-dasharray="0" stroke-linejoin="round" stroke-linecap="round" stroke-opacity="1" stroke="#011689" stroke-miterlimit="50" stroke-width="2" transform="matrix(1,0,0,1,-852,-4380)"></path></svg>