<svg id="SvgjsSvg1000" xmlns="http://www.w3.org/2000/svg" version="1.1" xmlns:xlink="http://www.w3.org/1999/xlink" xmlns:svgjs="http://svgjs.com/svgjs" width="63" height="63" viewBox="0 0 63 63"><title>Fill 1</title><desc>Created with Avocode.</desc><defs id="SvgjsDefs1001"></defs><path id="SvgjsPath1007" d="M356 2387.5C356 2398.8 365.2 2408 376.5 2408L389 2408L389 2402.5C389 2383.98 374.33 2368.82 356 2368.03ZM392 2411L376.5 2411C363.54 2411 353 2400.46 353 2387.5L353 2365L354.5 2365C375.18 2365 392 2381.82 392 2402.5Z " fill="#011689" fill-opacity="1" transform="matrix(1,0,0,1,-353,-2348)"></path><path id="SvgjsPath1008" d="M391.63 2411L391.63 2408C403.37 2408 412.92 2398.43 412.92 2386.67L412.92 2366.03C400.69 2366.5600000000004 390.55 2373.53 386.83000000000004 2384.09L384.00000000000006 2383.09C388.30000000000007 2370.8900000000003 400.2300000000001 2363 414.4200000000001 2363L415.9200000000001 2363L415.9200000000001 2386.67C415.9200000000001 2400.09 405.0200000000001 2411 391.63000000000005 2411 " fill="#011689" fill-opacity="1" transform="matrix(1,0,0,1,-353,-2348)"></path><path id="SvgjsPath1009" d="M372 2369.84L369 2369.75C369.34 2357.75 383.19 2348.9 383.78 2348.52L384.60999999999996 2348L385.41999999999996 2348.56C385.94999999999993 2348.92 398.35999999999996 2357.5299999999997 399.97999999999996 2368.58L397.02 2369.0099999999998C395.79999999999995 2360.77 387.25 2353.68 384.53999999999996 2351.6299999999997C381.65999999999997 2353.6699999999996 372.24999999999994 2360.99 371.99999999999994 2369.8399999999997 " fill="#011689" fill-opacity="1" transform="matrix(1,0,0,1,-353,-2348)"></path><path id="SvgjsPath1010" d="M364 2367.92L361 2367.92L361 2349L371.84 2351.71C374.40999999999997 2352.4700000000003 376.60999999999996 2354.17 377.79999999999995 2356.26L375.19999999999993 2357.75C374.38999999999993 2356.33 372.79999999999995 2355.12 371.04999999999995 2354.6L363.99999999999994 2352.8399999999997Z " fill="#011689" fill-opacity="1" transform="matrix(1,0,0,1,-353,-2348)"></path><path id="SvgjsPath1011" d="M407.81 2365.93L404.81 2365.93L404.81 2352.8599999999997L397.71 2354.68C396.02 2355.2 394.43 2356.44 393.62 2357.8999999999996L391 2356.4399999999996C392.19 2354.2999999999997 394.39 2352.5599999999995 396.89 2351.7899999999995L407.81 2348.9999999999995Z " fill="#011689" fill-opacity="1" transform="matrix(1,0,0,1,-353,-2348)"></path></svg>