<svg id="SvgjsSvg1012" xmlns="http://www.w3.org/2000/svg" version="1.1" xmlns:xlink="http://www.w3.org/1999/xlink" xmlns:svgjs="http://svgjs.com/svgjs" width="52" height="64" viewBox="0 0 52 64"><title>Fill 1</title><desc>Created with Avocode.</desc><defs id="SvgjsDefs1013"></defs><path id="SvgjsPath1014" d="M1030 2348L1030 2412L1082 2412L1082 2362L1071 2348ZM1033 2351L1069.54 2351L1079 2363.04L1079 2409L1033 2409Z " fill="#011689" fill-opacity="1" transform="matrix(1,0,0,1,-1030,-2348)"></path><path id="SvgjsPath1015" d="M1041 2375L1071 2375L1071 2372L1041 2372Z " fill="#011689" fill-opacity="1" transform="matrix(1,0,0,1,-1030,-2348)"></path><path id="SvgjsPath1016" d="M1041 2386L1071 2386L1071 2383L1041 2383Z " fill="#011689" fill-opacity="1" transform="matrix(1,0,0,1,-1030,-2348)"></path><path id="SvgjsPath1017" d="M1041 2397L1056 2397L1056 2394L1041 2394Z " fill="#011689" fill-opacity="1" transform="matrix(1,0,0,1,-1030,-2348)"></path></svg>