<svg id="SvgjsSvg1024" xmlns="http://www.w3.org/2000/svg" version="1.1" xmlns:xlink="http://www.w3.org/1999/xlink" xmlns:svgjs="http://svgjs.com/svgjs" width="63" height="63" viewBox="0 0 63 63"><title>Fill 1</title><desc>Created with Avocode.</desc><defs id="SvgjsDefs1025"></defs><path id="SvgjsPath1026" d="M1285.88 3620L1285.88 3623L1285.88 3654L1285.91 3654L1280.88 3656.42L1280.88 3636.14L1264.13 3626.27L1248 3635.7L1249.57 3638.2999999999997L1264.1 3629.7299999999996L1277.8799999999999 3637.8599999999997L1277.8799999999999 3679.9999999999995L1248.8799999999999 3679.9999999999995L1248.8799999999999 3682.9999999999995L1280.8799999999999 3682.9999999999995L1280.8799999999999 3659.8199999999997L1294.3799999999999 3652.7L1307.8799999999999 3659.8199999999997L1307.8799999999999 3681.9999999999995L1310.8799999999999 3681.9999999999995L1310.8799999999999 3658.0099999999998L1294.6299999999999 3649.2999999999997L1288.8799999999999 3652.4199999999996L1288.8799999999999 3622.9999999999995L1310.8799999999999 3622.9999999999995L1310.8799999999999 3619.9999999999995Z " fill="#011689" fill-opacity="1" transform="matrix(1,0,0,1,-1248,-3620)"></path><path id="SvgjsPath1027" d="M1256 3652L1259 3652L1259 3644L1256 3644Z " fill="#011689" fill-opacity="1" transform="matrix(1,0,0,1,-1248,-3620)"></path><path id="SvgjsPath1028" d="M1263 3652L1266 3652L1266 3644L1263 3644Z " fill="#011689" fill-opacity="1" transform="matrix(1,0,0,1,-1248,-3620)"></path><path id="SvgjsPath1029" d="M1270 3652L1273 3652L1273 3644L1270 3644Z " fill="#011689" fill-opacity="1" transform="matrix(1,0,0,1,-1248,-3620)"></path><path id="SvgjsPath1030" d="M1293 3644L1296 3644L1296 3636L1293 3636Z " fill="#011689" fill-opacity="1" transform="matrix(1,0,0,1,-1248,-3620)"></path><path id="SvgjsPath1031" d="M1300 3644L1303 3644L1303 3636L1300 3636Z " fill="#011689" fill-opacity="1" transform="matrix(1,0,0,1,-1248,-3620)"></path><path id="SvgjsPath1032" d="M1286 3680L1289 3680L1289 3672L1286 3672Z " fill="#011689" fill-opacity="1" transform="matrix(1,0,0,1,-1248,-3620)"></path><path id="SvgjsPath1033" d="M1293 3680L1296 3680L1296 3672L1293 3672Z " fill="#011689" fill-opacity="1" transform="matrix(1,0,0,1,-1248,-3620)"></path></svg>