<svg id="SvgjsSvg1040" xmlns="http://www.w3.org/2000/svg" version="1.1" xmlns:xlink="http://www.w3.org/1999/xlink" xmlns:svgjs="http://svgjs.com/svgjs" width="228" height="228" viewBox="0 0 228 228"><title>Combined Shape</title><desc>Created with Avocode.</desc><defs id="SvgjsDefs1041"><filter id="SvgjsFilter1043" width="200%" height="200%" x="-50%" y="-50%"><feMorphology id="SvgjsFeMorphology1044" operator="dilate" radius="10" result="SvgjsFeMorphology1044Out" in="SourceGraphic"></feMorphology><feOffset id="SvgjsFeOffset1045" dx="0" dy="20" result="SvgjsFeOffset1045Out" in="SvgjsFeMorphology1044Out"></feOffset><feGaussianBlur id="SvgjsFeGaussianBlur1046" stdDeviation="20 " result="SvgjsFeGaussianBlur1046Out" in="SvgjsFeOffset1045Out"></feGaussianBlur><feComposite id="SvgjsFeComposite1047" in="SvgjsFeGaussianBlur1046Out" in2="SourceAlpha" operator="out" result="SvgjsFeComposite1047Out"></feComposite></filter><clipPath id="SvgjsClipPath1051"><path id="SvgjsPath1050" d="M992 4769C992 4751.32689 1006.32689 4737 1024 4737C1041.67311 4737 1056 4751.32689 1056 4769C1056 4786.67311 1041.67311 4801 1024 4801C1006.32689 4801 992 4786.67311 992 4769Z " fill="#ffffff"></path></clipPath></defs><path id="SvgjsPath1042" d="M960 4833L960 4822C962.20914 4822 964 4820.20914 964 4818C964 4815.79086 962.20914 4814 960 4814L960 4808C962.20914 4808 964 4806.20914 964 4804C964 4801.79086 962.20914 4800 960 4800L960 4794C962.20914 4794 964 4792.20914 964 4790C964 4787.79086 962.20914 4786 960 4786L960 4780C962.20914 4780 964 4778.20914 964 4776C964 4773.79086 962.20914 4772 960 4772L960 4766C962.20914 4766 964 4764.20914 964 4762C964 4759.79086 962.20914 4758 960 4758L960 4752C962.20914 4752 964 4750.20914 964 4748C964 4745.79086 962.20914 4744 960 4744L960 4738C962.20914 4738 964 4736.20914 964 4734C964 4731.79086 962.20914 4730 960 4730L960 4724C962.20914 4724 964 4722.20914 964 4720C964 4717.79086 962.20914 4716 960 4716L960 4705L964 4705C964 4707.20914 965.79086 4709 968 4709C970.20914 4709 972 4707.20914 972 4705L978 4705C978 4707.20914 979.79086 4709 982 4709C984.20914 4709 986 4707.20914 986 4705L992 4705C992 4707.20914 993.79086 4709 996 4709C998.20914 4709 1000 4707.20914 1000 4705L1006 4705C1006 4707.20914 1007.79086 4709 1010 4709C1012.20914 4709 1014 4707.20914 1014 4705L1020 4705C1020 4707.20914 1021.79086 4709 1024 4709C1026.20914 4709 1028 4707.20914 1028 4705L1034 4705C1034 4707.20914 1035.79086 4709 1038 4709C1040.20914 4709 1042 4707.20914 1042 4705L1048 4705C1048 4707.20914 1049.79086 4709 1052 4709C1054.20914 4709 1056 4707.20914 1056 4705L1062 4705C1062 4707.20914 1063.79086 4709 1066 4709C1068.20914 4709 1070 4707.20914 1070 4705L1076 4705C1076 4707.20914 1077.79086 4709 1080 4709C1082.20914 4709 1084 4707.20914 1084 4705L1088 4705L1088 4716C1085.79086 4716 1084 4717.79086 1084 4720C1084 4722.20914 1085.79086 4724 1088 4724L1088 4730C1085.79086 4730 1084 4731.79086 1084 4734C1084 4736.20914 1085.79086 4738 1088 4738L1088 4744C1085.79086 4744 1084 4745.79086 1084 4748C1084 4750.20914 1085.79086 4752 1088 4752L1088 4758C1085.79086 4758 1084 4759.79086 1084 4762C1084 4764.20914 1085.79086 4766 1088 4766L1088 4772C1085.79086 4772 1084 4773.79086 1084 4776C1084 4778.20914 1085.79086 4780 1088 4780L1088 4786C1085.79086 4786 1084 4787.79086 1084 4790C1084 4792.20914 1085.79086 4794 1088 4794L1088 4800C1085.79086 4800 1084 4801.79086 1084 4804C1084 4806.20914 1085.79086 4808 1088 4808L1088 4814C1085.79086 4814 1084 4815.79086 1084 4818C1084 4820.20914 1085.79086 4822 1088 4822L1088 4833L1084 4833C1084 4830.79086 1082.20914 4829 1080 4829C1077.79086 4829 1076 4830.79086 1076 4833L1070 4833C1070 4830.79086 1068.20914 4829 1066 4829C1063.79086 4829 1062 4830.79086 1062 4833L1056 4833C1056 4830.79086 1054.20914 4829 1052 4829C1049.79086 4829 1048 4830.79086 1048 4833L1042 4833C1042 4830.79086 1040.20914 4829 1038 4829C1035.79086 4829 1034 4830.79086 1034 4833L1028 4833C1028 4830.79086 1026.20914 4829 1024 4829C1021.79086 4829 1020 4830.79086 1020 4833L1014 4833C1014 4830.79086 1012.20914 4829 1010 4829C1007.79086 4829 1006 4830.79086 1006 4833L1000 4833C1000 4830.79086 998.20914 4829 996 4829C993.79086 4829 992 4830.79086 992 4833L986 4833C986 4830.79086 984.20914 4829 982 4829C979.79086 4829 978 4830.79086 978 4833L972 4833C972 4830.79086 970.20914 4829 968 4829C965.79086 4829 964 4830.79086 964 4833Z " fill="#000000" fill-opacity="0.2" filter="url(#SvgjsFilter1043)" transform="matrix(1,0,0,1,-909.5,-4675)"></path><path id="SvgjsPath1048" d="M960 4833L960 4822C962.20914 4822 964 4820.20914 964 4818C964 4815.79086 962.20914 4814 960 4814L960 4808C962.20914 4808 964 4806.20914 964 4804C964 4801.79086 962.20914 4800 960 4800L960 4794C962.20914 4794 964 4792.20914 964 4790C964 4787.79086 962.20914 4786 960 4786L960 4780C962.20914 4780 964 4778.20914 964 4776C964 4773.79086 962.20914 4772 960 4772L960 4766C962.20914 4766 964 4764.20914 964 4762C964 4759.79086 962.20914 4758 960 4758L960 4752C962.20914 4752 964 4750.20914 964 4748C964 4745.79086 962.20914 4744 960 4744L960 4738C962.20914 4738 964 4736.20914 964 4734C964 4731.79086 962.20914 4730 960 4730L960 4724C962.20914 4724 964 4722.20914 964 4720C964 4717.79086 962.20914 4716 960 4716L960 4705L964 4705C964 4707.20914 965.79086 4709 968 4709C970.20914 4709 972 4707.20914 972 4705L978 4705C978 4707.20914 979.79086 4709 982 4709C984.20914 4709 986 4707.20914 986 4705L992 4705C992 4707.20914 993.79086 4709 996 4709C998.20914 4709 1000 4707.20914 1000 4705L1006 4705C1006 4707.20914 1007.79086 4709 1010 4709C1012.20914 4709 1014 4707.20914 1014 4705L1020 4705C1020 4707.20914 1021.79086 4709 1024 4709C1026.20914 4709 1028 4707.20914 1028 4705L1034 4705C1034 4707.20914 1035.79086 4709 1038 4709C1040.20914 4709 1042 4707.20914 1042 4705L1048 4705C1048 4707.20914 1049.79086 4709 1052 4709C1054.20914 4709 1056 4707.20914 1056 4705L1062 4705C1062 4707.20914 1063.79086 4709 1066 4709C1068.20914 4709 1070 4707.20914 1070 4705L1076 4705C1076 4707.20914 1077.79086 4709 1080 4709C1082.20914 4709 1084 4707.20914 1084 4705L1088 4705L1088 4716C1085.79086 4716 1084 4717.79086 1084 4720C1084 4722.20914 1085.79086 4724 1088 4724L1088 4730C1085.79086 4730 1084 4731.79086 1084 4734C1084 4736.20914 1085.79086 4738 1088 4738L1088 4744C1085.79086 4744 1084 4745.79086 1084 4748C1084 4750.20914 1085.79086 4752 1088 4752L1088 4758C1085.79086 4758 1084 4759.79086 1084 4762C1084 4764.20914 1085.79086 4766 1088 4766L1088 4772C1085.79086 4772 1084 4773.79086 1084 4776C1084 4778.20914 1085.79086 4780 1088 4780L1088 4786C1085.79086 4786 1084 4787.79086 1084 4790C1084 4792.20914 1085.79086 4794 1088 4794L1088 4800C1085.79086 4800 1084 4801.79086 1084 4804C1084 4806.20914 1085.79086 4808 1088 4808L1088 4814C1085.79086 4814 1084 4815.79086 1084 4818C1084 4820.20914 1085.79086 4822 1088 4822L1088 4833L1084 4833C1084 4830.79086 1082.20914 4829 1080 4829C1077.79086 4829 1076 4830.79086 1076 4833L1070 4833C1070 4830.79086 1068.20914 4829 1066 4829C1063.79086 4829 1062 4830.79086 1062 4833L1056 4833C1056 4830.79086 1054.20914 4829 1052 4829C1049.79086 4829 1048 4830.79086 1048 4833L1042 4833C1042 4830.79086 1040.20914 4829 1038 4829C1035.79086 4829 1034 4830.79086 1034 4833L1028 4833C1028 4830.79086 1026.20914 4829 1024 4829C1021.79086 4829 1020 4830.79086 1020 4833L1014 4833C1014 4830.79086 1012.20914 4829 1010 4829C1007.79086 4829 1006 4830.79086 1006 4833L1000 4833C1000 4830.79086 998.20914 4829 996 4829C993.79086 4829 992 4830.79086 992 4833L986 4833C986 4830.79086 984.20914 4829 982 4829C979.79086 4829 978 4830.79086 978 4833L972 4833C972 4830.79086 970.20914 4829 968 4829C965.79086 4829 964 4830.79086 964 4833Z " fill="#001e45" fill-opacity="1" transform="matrix(1,0,0,1,-909.5,-4675)"></path><path id="SvgjsPath1049" d="M992 4769C992 4751.32689 1006.32689 4737 1024 4737C1041.67311 4737 1056 4751.32689 1056 4769C1056 4786.67311 1041.67311 4801 1024 4801C1006.32689 4801 992 4786.67311 992 4769Z " fill-opacity="0" fill="#ffffff" stroke-dasharray="0" stroke-linejoin="miter" stroke-linecap="butt" stroke-opacity="1" stroke="#ffffff" stroke-miterlimit="50" stroke-width="6" clip-path="url(&quot;#SvgjsClipPath1051&quot;)" transform="matrix(1,0,0,1,-909.5,-4675)"></path></svg>