<svg id="SvgjsSvg1015" xmlns="http://www.w3.org/2000/svg" version="1.1" xmlns:xlink="http://www.w3.org/1999/xlink" xmlns:svgjs="http://svgjs.com/svgjs" width="64" height="64" viewBox="0 0 64 64"><title>Oval 6</title><desc>Created with Avocode.</desc><defs id="SvgjsDefs1016"><clipPath id="SvgjsClipPath1019"><path id="SvgjsPath1018" d="M576 4417C576 4399.32689 590.32689 4385 608 4385C625.67311 4385 640 4399.32689 640 4417C640 4434.67311 625.67311 4449 608 4449C590.32689 4449 576 4434.67311 576 4417Z " fill="#ffffff"></path></clipPath></defs><path id="SvgjsPath1017" d="M576 4417C576 4399.32689 590.32689 4385 608 4385C625.67311 4385 640 4399.32689 640 4417C640 4434.67311 625.67311 4449 608 4449C590.32689 4449 576 4434.67311 576 4417Z " fill-opacity="0" fill="#ffffff" stroke-dasharray="0" stroke-linejoin="miter" stroke-linecap="butt" stroke-opacity="1" stroke="#001689" stroke-miterlimit="50" stroke-width="6" clip-path="url(&quot;#SvgjsClipPath1019&quot;)" transform="matrix(1,0,0,1,-576,-4385)"></path></svg>