<svg id="SvgjsSvg1010" xmlns="http://www.w3.org/2000/svg" version="1.1" xmlns:xlink="http://www.w3.org/1999/xlink" xmlns:svgjs="http://svgjs.com/svgjs" width="64" height="64" viewBox="0 0 64 64"><title>Oval 6</title><desc>Created with Avocode.</desc><defs id="SvgjsDefs1011"><clipPath id="SvgjsClipPath1014"><path id="SvgjsPath1013" d="M192 3972C192 3954.32689 206.32689 3940 224 3940C241.67311 3940 256 3954.32689 256 3972C256 3989.67311 241.67311 4004 224 4004C206.32689 4004 192 3989.67311 192 3972Z " fill="#ffffff"></path></clipPath></defs><path id="SvgjsPath1012" d="M192 3972C192 3954.32689 206.32689 3940 224 3940C241.67311 3940 256 3954.32689 256 3972C256 3989.67311 241.67311 4004 224 4004C206.32689 4004 192 3989.67311 192 3972Z " fill-opacity="0" fill="#ffffff" stroke-dasharray="0" stroke-linejoin="miter" stroke-linecap="butt" stroke-opacity="1" stroke="#ffffff" stroke-miterlimit="50" stroke-width="6" clip-path="url(&quot;#SvgjsClipPath1014&quot;)" transform="matrix(1,0,0,1,-192,-3940)"></path></svg>