<svg id="SvgjsSvg1000" xmlns="http://www.w3.org/2000/svg" version="1.1" xmlns:xlink="http://www.w3.org/1999/xlink" xmlns:svgjs="http://svgjs.com/svgjs" width="91" height="95.81456090603751" viewBox="0 0 91 95.81456090603751"><title>Stroke 1</title><desc>Created with Avocode.</desc><defs id="SvgjsDefs1001"></defs><path id="SvgjsPath1007" d="M206 6916C206 6935.33 196.15 6945 184 6945C171.85 6945 162 6936.33 162 6917C162 6897.67 184 6875 184 6875C184 6875 206 6896.67 206 6916Z " fill-opacity="0" fill="#ffffff" stroke-dasharray="0" stroke-linejoin="miter" stroke-linecap="butt" stroke-opacity="1" stroke="#011689" stroke-miterlimit="50" stroke-width="3" transform="matrix(1,0,0,1,-160.5,-6873.1854390939625)"></path><path id="SvgjsPath1008" d="M183 6969L186 6969L186 6946L183 6946Z " fill="#011689" fill-opacity="1" transform="matrix(1,0,0,1,-160.5,-6873.1854390939625)"></path><path id="SvgjsPath1009" d="M250 6916C250 6935.33 240.15 6945 228 6945C215.85 6945 206 6936.33 206 6917C206 6897.67 228 6875 228 6875C228 6875 250 6896.67 250 6916Z " fill-opacity="0" fill="#ffffff" stroke-dasharray="0" stroke-linejoin="miter" stroke-linecap="butt" stroke-opacity="1" stroke="#011689" stroke-miterlimit="50" stroke-width="3" transform="matrix(1,0,0,1,-160.5,-6873.1854390939625)"></path><path id="SvgjsPath1010" d="M227 6969L230 6969L230 6946L227 6946Z " fill="#011689" fill-opacity="1" transform="matrix(1,0,0,1,-160.5,-6873.1854390939625)"></path></svg>