<svg id="SvgjsSvg1000" xmlns="http://www.w3.org/2000/svg" version="1.1" xmlns:xlink="http://www.w3.org/1999/xlink" xmlns:svgjs="http://svgjs.com/svgjs" width="90" height="95.81456090603751" viewBox="0 0 90 95.81456090603751"><title>Stroke 1</title><desc>Created with Avocode.</desc><defs id="SvgjsDefs1001"></defs><path id="SvgjsPath1007" d="M206 8577C206 8596.33 196.15 8606 184 8606C171.85 8606 162 8597.33 162 8578C162 8558.67 184 8536 184 8536C184 8536 206 8557.67 206 8577Z " fill-opacity="0" fill="#ffffff" stroke-dasharray="0" stroke-linejoin="miter" stroke-linecap="butt" stroke-opacity="1" stroke="#ffffff" stroke-miterlimit="50" stroke-width="3" transform="matrix(1,0,0,1,-160.5,-8534.185439093962)"></path><path id="SvgjsPath1008" d="M182 8630L185 8630L185 8607L182 8607Z " fill="#ffffff" fill-opacity="1" transform="matrix(1,0,0,1,-160.5,-8534.185439093962)"></path><path id="SvgjsPath1009" d="M249 8577C249 8596.33 239.15 8606 227 8606C214.85 8606 205 8597.33 205 8578C205 8558.67 227 8536 227 8536C227 8536 249 8557.67 249 8577Z " fill-opacity="0" fill="#ffffff" stroke-dasharray="0" stroke-linejoin="miter" stroke-linecap="butt" stroke-opacity="1" stroke="#ffffff" stroke-miterlimit="50" stroke-width="3" transform="matrix(1,0,0,1,-160.5,-8534.185439093962)"></path><path id="SvgjsPath1010" d="M226 8630L229 8630L229 8607L226 8607Z " fill="#ffffff" fill-opacity="1" transform="matrix(1,0,0,1,-160.5,-8534.185439093962)"></path></svg>