<svg id="SvgjsSvg1011" xmlns="http://www.w3.org/2000/svg" version="1.1" xmlns:xlink="http://www.w3.org/1999/xlink" xmlns:svgjs="http://svgjs.com/svgjs" width="95" height="95.14501518417364" viewBox="0 0 95 95.14501518417364"><title>Stroke 1</title><desc>Created with Avocode.</desc><defs id="SvgjsDefs1012"></defs><path id="SvgjsPath1013" d="M602 6970L586 6970C563.91 6970 546 6952.09 546 6930L546 6904L546 6904C576.93 6904 602 6929.07 602 6960Z " fill-opacity="0" fill="#ffffff" stroke-dasharray="0" stroke-linejoin="miter" stroke-linecap="butt" stroke-opacity="1" stroke="#011689" stroke-miterlimit="50" stroke-width="3" transform="matrix(1,0,0,1,-544.5,-6876.354984815826)"></path><path id="SvgjsPath1014" d="M593 6930.27C599.28 6912.47 616.85 6901 637.54 6901L637.54 6901L637.54 6935C637.54 6954.33 621.87 6970 602.54 6970L602.54 6970 " fill-opacity="0" fill="#ffffff" stroke-dasharray="0" stroke-linejoin="miter" stroke-linecap="butt" stroke-opacity="1" stroke="#011689" stroke-miterlimit="50" stroke-width="3" transform="matrix(1,0,0,1,-544.5,-6876.354984815826)"></path><path id="SvgjsPath1015" d="M570 6909.39C570.5 6892 591.99 6878 591.99 6878C591.99 6878 611.33 6890.59 613.74 6906.73 " fill-opacity="0" fill="#ffffff" stroke-dasharray="0" stroke-linejoin="miter" stroke-linecap="butt" stroke-opacity="1" stroke="#011689" stroke-miterlimit="50" stroke-width="3" transform="matrix(1,0,0,1,-544.5,-6876.354984815826)"></path><path id="SvgjsPath1016" d="M558 6905L558 6879L572.11 6882.52C575.38 6883.5 578.4 6885.740000000001 580 6888.56 " fill-opacity="0" fill="#ffffff" stroke-dasharray="0" stroke-linejoin="miter" stroke-linecap="butt" stroke-opacity="1" stroke="#011689" stroke-miterlimit="50" stroke-width="3" transform="matrix(1,0,0,1,-544.5,-6876.354984815826)"></path><path id="SvgjsPath1017" d="M626 6902L626 6879L611.89 6882.52C608.62 6883.5 605.6 6885.740000000001 604 6888.56 " fill-opacity="0" fill="#ffffff" stroke-dasharray="0" stroke-linejoin="miter" stroke-linecap="butt" stroke-opacity="1" stroke="#011689" stroke-miterlimit="50" stroke-width="3" transform="matrix(1,0,0,1,-544.5,-6876.354984815826)"></path></svg>