<svg id="SvgjsSvg1011" xmlns="http://www.w3.org/2000/svg" version="1.1" xmlns:xlink="http://www.w3.org/1999/xlink" xmlns:svgjs="http://svgjs.com/svgjs" width="96" height="95.14501518417455" viewBox="0 0 96 95.14501518417455"><title>Stroke 1</title><desc>Created with Avocode.</desc><defs id="SvgjsDefs1012"></defs><path id="SvgjsPath1013" d="M601 8631L585 8631C562.91 8631 545 8613.09 545 8591L545 8565L545 8565C575.93 8565 601 8590.07 601 8621Z " fill-opacity="0" fill="#ffffff" stroke-dasharray="0" stroke-linejoin="miter" stroke-linecap="butt" stroke-opacity="1" stroke="#ffffff" stroke-miterlimit="50" stroke-width="3" transform="matrix(1,0,0,1,-543.5,-8537.354984815825)"></path><path id="SvgjsPath1014" d="M593 8591.27C599.28 8573.470000000001 616.85 8562 637.54 8562L637.54 8562L637.54 8596C637.54 8615.33 621.87 8631 602.54 8631L602.54 8631 " fill-opacity="0" fill="#ffffff" stroke-dasharray="0" stroke-linejoin="miter" stroke-linecap="butt" stroke-opacity="1" stroke="#ffffff" stroke-miterlimit="50" stroke-width="3" transform="matrix(1,0,0,1,-543.5,-8537.354984815825)"></path><path id="SvgjsPath1015" d="M570 8570.39C570.5 8553 591.99 8539 591.99 8539C591.99 8539 611.33 8551.59 613.74 8567.73 " fill-opacity="0" fill="#ffffff" stroke-dasharray="0" stroke-linejoin="miter" stroke-linecap="butt" stroke-opacity="1" stroke="#ffffff" stroke-miterlimit="50" stroke-width="3" transform="matrix(1,0,0,1,-543.5,-8537.354984815825)"></path><path id="SvgjsPath1016" d="M557 8566L557 8540L571.11 8543.52C574.38 8544.5 577.4 8546.74 579 8549.560000000001 " fill-opacity="0" fill="#ffffff" stroke-dasharray="0" stroke-linejoin="miter" stroke-linecap="butt" stroke-opacity="1" stroke="#ffffff" stroke-miterlimit="50" stroke-width="3" transform="matrix(1,0,0,1,-543.5,-8537.354984815825)"></path><path id="SvgjsPath1017" d="M625 8563L625 8540L610.89 8543.52C607.62 8544.5 604.6 8546.74 603 8549.560000000001 " fill-opacity="0" fill="#ffffff" stroke-dasharray="0" stroke-linejoin="miter" stroke-linecap="butt" stroke-opacity="1" stroke="#ffffff" stroke-miterlimit="50" stroke-width="3" transform="matrix(1,0,0,1,-543.5,-8537.354984815825)"></path></svg>