<svg id="SvgjsSvg1018" xmlns="http://www.w3.org/2000/svg" version="1.1" xmlns:xlink="http://www.w3.org/1999/xlink" xmlns:svgjs="http://svgjs.com/svgjs" width="96" height="92" viewBox="0 0 96 92"><title>Fill 1</title><desc>Created with Avocode.</desc><defs id="SvgjsDefs1019"></defs><path id="SvgjsPath1020" d="M1024 6969.5L1021 6969.5L1021 6909.5C1021 6893.79 1008.22 6881 992.5 6881L986.5 6881C970.79 6881 958 6893.79 958 6909.5L955 6909.5C955 6892.13 969.13 6878 986.5 6878L992.5 6878C1009.87 6878 1024 6892.13 1024 6909.5Z " fill="#011689" fill-opacity="1" transform="matrix(1,0,0,1,-928,-6878)"></path><path id="SvgjsPath1021" d="M943 6925L967 6925L967 6910L943 6910ZM946 6913L964 6913L964 6922L946 6922Z " fill="#011689" fill-opacity="1" transform="matrix(1,0,0,1,-928,-6878)"></path><path id="SvgjsPath1022" d="M967 6922L943 6922L928 6937L983 6937ZM965.81 6925L975.41 6934L935.24 6934L944.24 6925Z " fill="#011689" fill-opacity="1" transform="matrix(1,0,0,1,-928,-6878)"></path><path id="SvgjsPath1023" d="M979 6934L932 6934L944 6970L967 6970ZM974.84 6937L964.84 6967L946.1600000000001 6967L936.1600000000001 6937Z " fill="#011689" fill-opacity="1" transform="matrix(1,0,0,1,-928,-6878)"></path></svg>