<svg id="SvgjsSvg1024" xmlns="http://www.w3.org/2000/svg" version="1.1" xmlns:xlink="http://www.w3.org/1999/xlink" xmlns:svgjs="http://svgjs.com/svgjs" width="95" height="92" viewBox="0 0 95 92"><title>Fill 1</title><desc>Created with Avocode.</desc><defs id="SvgjsDefs1025"></defs><path id="SvgjsPath1026" d="M1023 8630.5L1020 8630.5L1020 8570.5C1020 8554.79 1007.22 8542 991.5 8542L985.5 8542C969.79 8542 957 8554.79 957 8570.5L954 8570.5C954 8553.13 968.13 8539 985.5 8539L991.5 8539C1008.87 8539 1023 8553.13 1023 8570.5Z " fill="#ffffff" fill-opacity="1" transform="matrix(1,0,0,1,-928,-8539)"></path><path id="SvgjsPath1027" d="M943 8586L967 8586L967 8571L943 8571ZM946 8574L964 8574L964 8583L946 8583Z " fill="#ffffff" fill-opacity="1" transform="matrix(1,0,0,1,-928,-8539)"></path><path id="SvgjsPath1028" d="M967 8583L943 8583L928 8598L983 8598ZM965.81 8586L975.41 8595L935.24 8595L944.24 8586Z " fill="#ffffff" fill-opacity="1" transform="matrix(1,0,0,1,-928,-8539)"></path><path id="SvgjsPath1029" d="M979 8595L932 8595L944 8631L967 8631ZM974.84 8598L964.84 8628L946.1600000000001 8628L936.1600000000001 8598Z " fill="#ffffff" fill-opacity="1" transform="matrix(1,0,0,1,-928,-8539)"></path></svg>