<svg xmlns="http://www.w3.org/2000/svg" width="90.68" height="92.43" viewBox="0 0 90.68 92.43"><path fill="none" stroke="#fff" stroke-miterlimit="50" stroke-width="3" d="M35.71 17.88c1.1-9.08 9.9-16.17 9.9-16.17s8.78 7.08 9.88 16.16M55.54 69.71c.11.74.17 1.5.17 2.27 0 9.94-10 18-10 18s-10-8.06-10-18c0-.73.05-1.44.15-2.14M71.71 33.71c9.94 0 18 10 18 10s-8.06 10-18 10M19.71 33.71c-9.94 0-18 10-18 10s8.06 10 18 10"/><path fill="none" stroke="#fff" stroke-miterlimit="50" stroke-width="3" d="M22.45 36.97c8.21 8.22 23.13 6.61 23.13 6.61s1.61-14.92-6.6-23.13c-8.22-8.22-23.14-6.6-23.14-6.6s-1.6 14.91 6.61 23.12z"/><path fill="none" stroke="#fff" stroke-miterlimit="50" stroke-width="3" d="M52.45 20.45c8.21-8.22 23.13-6.6 23.13-6.6s1.61 14.91-6.6 23.12c-8.22 8.22-23.14 6.61-23.14 6.61s-1.6-14.92 6.61-23.13zM22.45 50.45c8.21-8.22 23.13-6.6 23.13-6.6s1.61 14.91-6.6 23.12c-8.22 8.22-23.14 6.61-23.14 6.61s-1.6-14.92 6.61-23.13z"/><path fill="none" stroke="#fff" stroke-miterlimit="50" stroke-width="3" d="M52.45 66.97c8.21 8.22 23.13 6.61 23.13 6.61s1.61-14.92-6.6-23.13c-8.22-8.22-23.14-6.6-23.14-6.6s-1.6 14.91 6.61 23.12z"/></svg>