<svg id="SvgjsSvg1026" xmlns="http://www.w3.org/2000/svg" version="1.1" xmlns:xlink="http://www.w3.org/1999/xlink" xmlns:svgjs="http://svgjs.com/svgjs" width="24" height="16.000000000000455" viewBox="0 0 24 16.000000000000455"><title>Stroke 1</title><desc>Created with Avocode.</desc><defs id="SvgjsDefs1027"></defs><path id="SvgjsPath1028" d="M559 1930C559 1926.13 555.87 1923 552 1923C548.14 1923 545 1926.13 545 1930C545 1933.87 548.14 1937 552 1937C555.87 1937 559 1933.87 559 1930Z " fill-opacity="0" fill="#ffffff" stroke-dasharray="0" stroke-linejoin="round" stroke-linecap="round" stroke-opacity="1" stroke="#ffffff" stroke-miterlimit="50" stroke-width="2" transform="matrix(1,0,0,1,-544,-1921.9999999999998)"></path><path id="SvgjsPath1029" d="M556 1935.8C556.37 1936.06 556.77 1936.27 557.19 1936.45C557.61 1936.63 558.0500000000001 1936.76 558.5 1936.8600000000001C558.96 1936.95 559.43 1937.0000000000002 559.91 1937.0000000000002C560.4 1937.0000000000002 560.87 1936.9500000000003 561.3199999999999 1936.8600000000001C561.78 1936.7600000000002 562.2199999999999 1936.63 562.64 1936.45C563.06 1936.27 563.46 1936.06 563.83 1935.8C564.2 1935.55 564.5500000000001 1935.27 564.86 1934.95C565.1800000000001 1934.63 565.47 1934.29 565.72 1933.91C565.97 1933.5400000000002 566.19 1933.14 566.36 1932.72C566.54 1932.31 566.6800000000001 1931.8700000000001 566.77 1931.41C566.87 1930.96 566.91 1930.48 566.91 1930C566.91 1929.52 566.87 1929.05 566.77 1928.59C566.68 1928.1299999999999 566.54 1927.6899999999998 566.36 1927.28C566.19 1926.86 565.97 1926.46 565.72 1926.09C565.47 1925.7099999999998 565.1800000000001 1925.37 564.86 1925.05C564.5500000000001 1924.73 564.2 1924.45 563.83 1924.2C563.46 1923.94 563.0600000000001 1923.73 562.64 1923.55C562.22 1923.37 561.78 1923.24 561.3199999999999 1923.1399999999999C560.8699999999999 1923.05 560.4 1922.9999999999998 559.91 1922.9999999999998C559.43 1922.9999999999998 558.9599999999999 1923.0499999999997 558.5 1923.1399999999999C558.05 1923.2399999999998 557.61 1923.37 557.19 1923.55C556.7700000000001 1923.73 556.37 1923.94 556 1924.2 " fill-opacity="0" fill="#ffffff" stroke-dasharray="0" stroke-linejoin="round" stroke-linecap="round" stroke-opacity="1" stroke="#ffffff" stroke-miterlimit="50" stroke-width="2" transform="matrix(1,0,0,1,-544,-1921.9999999999998)"></path></svg>