<svg id="SvgjsSvg1000" xmlns="http://www.w3.org/2000/svg" version="1.1" xmlns:xlink="http://www.w3.org/1999/xlink" xmlns:svgjs="http://svgjs.com/svgjs" width="96" height="96" viewBox="0 0 96 96"><title>Oval 6</title><desc>Created with Avocode.</desc><defs id="SvgjsDefs1001"><clipPath id="SvgjsClipPath1009"><path id="SvgjsPath1008" d="M160 1024C160 997.49033 181.49033 976 208 976C234.50967 976 256 997.49033 256 1024C256 1050.50967 234.50967 1072 208 1072C181.49033 1072 160 1050.50967 160 1024Z " fill="#ffffff"></path></clipPath></defs><path id="SvgjsPath1007" d="M160 1024C160 997.49033 181.49033 976 208 976C234.50967 976 256 997.49033 256 1024C256 1050.50967 234.50967 1072 208 1072C181.49033 1072 160 1050.50967 160 1024Z " fill-opacity="0" fill="#ffffff" stroke-dasharray="0" stroke-linejoin="miter" stroke-linecap="butt" stroke-opacity="1" stroke="#001689" stroke-miterlimit="50" stroke-width="6" clip-path="url(&quot;#SvgjsClipPath1009&quot;)" transform="matrix(1,0,0,1,-160,-976)"></path></svg>