<?xml version="1.0" encoding="utf-8"?>
<!-- Generator: Adobe Illustrator 17.0.1, SVG Export Plug-In . SVG Version: 6.00 Build 0)  -->
<!DOCTYPE svg PUBLIC "-//W3C//DTD SVG 1.1//EN" "http://www.w3.org/Graphics/SVG/1.1/DTD/svg11.dtd">
<svg version="1.1" id="SvgjsSvg1000" xmlns:svgjs="http://svgjs.com/svgjs"
	 xmlns="http://www.w3.org/2000/svg" xmlns:xlink="http://www.w3.org/1999/xlink" x="0px" y="0px" width="96px" height="96px"
	 viewBox="0 0 96 96" enable-background="new 0 0 96 96" xml:space="preserve">
<path id="SvgjsPath1013" fill="#FFFFFF" d="M0,96v-9c2.209,0,4-1.791,4-4s-1.791-4-4-4v-6c2.209,0,4-1.791,4-4s-1.791-4-4-4v-6
	c2.209,0,4-1.791,4-4s-1.791-4-4-4v-6c2.209,0,4-1.791,4-4s-1.791-4-4-4v-6c2.209,0,4-1.791,4-4s-1.791-4-4-4v-6
	c2.209,0,4-1.791,4-4S2.209,9,0,9V0h2c0,2.209,1.791,4,4,4s4-1.791,4-4h6c0,2.209,1.791,4,4,4s4-1.791,4-4h6c0,2.209,1.791,4,4,4
	s4-1.791,4-4h6c0,2.209,1.791,4,4,4s4-1.791,4-4h6c0,2.209,1.791,4,4,4s4-1.791,4-4h6c0,2.209,1.791,4,4,4s4-1.791,4-4h6
	c0,2.209,1.791,4,4,4s4-1.791,4-4h2v9c-2.209,0-4,1.791-4,4s1.791,4,4,4v6c-2.209,0-4,1.791-4,4s1.791,4,4,4v6c-2.209,0-4,1.791-4,4
	s1.791,4,4,4v6c-2.209,0-4,1.791-4,4s1.791,4,4,4v6c-2.209,0-4,1.791-4,4s1.791,4,4,4v6c-2.209,0-4,1.791-4,4s1.791,4,4,4v9h-2
	c0-2.209-1.791-4-4-4s-4,1.791-4,4h-6c0-2.209-1.791-4-4-4s-4,1.791-4,4h-6c0-2.209-1.791-4-4-4s-4,1.791-4,4h-6
	c0-2.209-1.791-4-4-4s-4,1.791-4,4h-6c0-2.209-1.791-4-4-4s-4,1.791-4,4h-6c0-2.209-1.791-4-4-4s-4,1.791-4,4h-6
	c0-2.209-1.791-4-4-4s-4,1.791-4,4H0z"/>
</svg>
