<?xml version="1.0" encoding="utf-8"?>
<!-- Generator: Adobe Illustrator 17.0.1, SVG Export Plug-In . SVG Version: 6.00 Build 0)  -->
<!DOCTYPE svg PUBLIC "-//W3C//DTD SVG 1.1//EN" "http://www.w3.org/Graphics/SVG/1.1/DTD/svg11.dtd">
<svg version="1.1" id="SvgjsSvg1024" xmlns:svgjs="http://svgjs.com/svgjs"
	 xmlns="http://www.w3.org/2000/svg" xmlns:xlink="http://www.w3.org/1999/xlink" x="0px" y="0px" width="128px" height="128px"
	 viewBox="358 37.5 128 128" enable-background="new 358 37.5 128 128" xml:space="preserve">
<filter  height="200%" width="200%" id="SvgjsFilter1027" y="-50%" x="-50%">
	<feMorphology  in="SourceGraphic" result="SvgjsFeMorphology1028Out" radius="10" operator="dilate" id="SvgjsFeMorphology1028">
		</feMorphology>
	<feOffset  dy="20" dx="0" in="SvgjsFeMorphology1028Out" result="SvgjsFeOffset1029Out" id="SvgjsFeOffset1029"></feOffset>
	<feGaussianBlur  stdDeviation="20 " in="SvgjsFeOffset1029Out" result="SvgjsFeGaussianBlur1030Out" id="SvgjsFeGaussianBlur1030">
		</feGaussianBlur>
	
		<feComposite  in2="SourceAlpha" in="SvgjsFeGaussianBlur1030Out" result="SvgjsFeComposite1031Out" operator="out" id="SvgjsFeComposite1031">
		</feComposite>
</filter>
<g id="SvgjsPath1026" filter="url(#SvgjsFilter1027)">
	<path opacity="0.2" fill="#011689" d="M358,165.5v-11c2.209,0,4-1.791,4-4s-1.791-4-4-4v-6c2.209,0,4-1.791,4-4s-1.791-4-4-4v-6
		c2.209,0,4-1.791,4-4s-1.791-4-4-4v-6c2.209,0,4-1.791,4-4s-1.791-4-4-4v-6c2.209,0,4-1.791,4-4s-1.791-4-4-4v-6
		c2.209,0,4-1.791,4-4s-1.791-4-4-4v-6c2.209,0,4-1.791,4-4s-1.791-4-4-4v-6c2.209,0,4-1.791,4-4s-1.791-4-4-4v-11h4
		c0,2.209,1.791,4,4,4s4-1.791,4-4h6c0,2.209,1.791,4,4,4s4-1.791,4-4h6c0,2.209,1.791,4,4,4s4-1.791,4-4h6c0,2.209,1.791,4,4,4
		s4-1.791,4-4h6c0,2.209,1.791,4,4,4s4-1.791,4-4h6c0,2.209,1.791,4,4,4s4-1.791,4-4h6c0,2.209,1.791,4,4,4s4-1.791,4-4h6
		c0,2.209,1.791,4,4,4s4-1.791,4-4h6c0,2.209,1.791,4,4,4s4-1.791,4-4h4v11c-2.209,0-4,1.791-4,4s1.791,4,4,4v6
		c-2.209,0-4,1.791-4,4s1.791,4,4,4v6c-2.209,0-4,1.791-4,4s1.791,4,4,4v6c-2.209,0-4,1.791-4,4s1.791,4,4,4v6c-2.209,0-4,1.791-4,4
		s1.791,4,4,4v6c-2.209,0-4,1.791-4,4s1.791,4,4,4v6c-2.209,0-4,1.791-4,4s1.791,4,4,4v6c-2.209,0-4,1.791-4,4s1.791,4,4,4v11h-4
		c0-2.209-1.791-4-4-4s-4,1.791-4,4h-6c0-2.209-1.791-4-4-4s-4,1.791-4,4h-6c0-2.209-1.791-4-4-4s-4,1.791-4,4h-6
		c0-2.209-1.791-4-4-4s-4,1.791-4,4h-6c0-2.209-1.791-4-4-4s-4,1.791-4,4h-6c0-2.209-1.791-4-4-4s-4,1.791-4,4h-6
		c0-2.209-1.791-4-4-4s-4,1.791-4,4h-6c0-2.209-1.791-4-4-4s-4,1.791-4,4h-6c0-2.209-1.791-4-4-4s-4,1.791-4,4H358z"/>
</g>
<g>
	<path id="SvgjsPath1032" fill="#FFFFFF" d="M358,165.5v-11c2.209,0,4-1.791,4-4s-1.791-4-4-4v-6c2.209,0,4-1.791,4-4s-1.791-4-4-4
		v-6c2.209,0,4-1.791,4-4s-1.791-4-4-4v-6c2.209,0,4-1.791,4-4s-1.791-4-4-4v-6c2.209,0,4-1.791,4-4s-1.791-4-4-4v-6
		c2.209,0,4-1.791,4-4s-1.791-4-4-4v-6c2.209,0,4-1.791,4-4s-1.791-4-4-4v-6c2.209,0,4-1.791,4-4s-1.791-4-4-4v-11h4
		c0,2.209,1.791,4,4,4s4-1.791,4-4h6c0,2.209,1.791,4,4,4s4-1.791,4-4h6c0,2.209,1.791,4,4,4s4-1.791,4-4h6c0,2.209,1.791,4,4,4
		s4-1.791,4-4h6c0,2.209,1.791,4,4,4s4-1.791,4-4h6c0,2.209,1.791,4,4,4s4-1.791,4-4h6c0,2.209,1.791,4,4,4s4-1.791,4-4h6
		c0,2.209,1.791,4,4,4s4-1.791,4-4h6c0,2.209,1.791,4,4,4s4-1.791,4-4h4v11c-2.209,0-4,1.791-4,4s1.791,4,4,4v6
		c-2.209,0-4,1.791-4,4s1.791,4,4,4v6c-2.209,0-4,1.791-4,4s1.791,4,4,4v6c-2.209,0-4,1.791-4,4s1.791,4,4,4v6c-2.209,0-4,1.791-4,4
		s1.791,4,4,4v6c-2.209,0-4,1.791-4,4s1.791,4,4,4v6c-2.209,0-4,1.791-4,4s1.791,4,4,4v6c-2.209,0-4,1.791-4,4s1.791,4,4,4v11h-4
		c0-2.209-1.791-4-4-4s-4,1.791-4,4h-6c0-2.209-1.791-4-4-4s-4,1.791-4,4h-6c0-2.209-1.791-4-4-4s-4,1.791-4,4h-6
		c0-2.209-1.791-4-4-4s-4,1.791-4,4h-6c0-2.209-1.791-4-4-4s-4,1.791-4,4h-6c0-2.209-1.791-4-4-4s-4,1.791-4,4h-6
		c0-2.209-1.791-4-4-4s-4,1.791-4,4h-6c0-2.209-1.791-4-4-4s-4,1.791-4,4h-6c0-2.209-1.791-4-4-4s-4,1.791-4,4H358z"/>
</g>
</svg>
