<svg id="SvgjsSvg1008" xmlns="http://www.w3.org/2000/svg" version="1.1" xmlns:xlink="http://www.w3.org/1999/xlink" xmlns:svgjs="http://svgjs.com/svgjs" width="12" height="16" viewBox="0 0 12 16"><title>Fill 1</title><desc>Created with Avocode.</desc><defs id="SvgjsDefs1009"></defs><path id="SvgjsPath1010" d="M1147 28L1155 28L1155 21L1147 21ZM1149 19L1153 19L1153 17.95C1152.98 16.88 1152.08 16 1151 16C1149.92 16 1149.03 16.88 1149 17.95ZM1157 19L1157 30L1145 30L1145 19L1147 19L1147 17.91C1147 15.75 1148.84 14 1151 14C1153.17 14 1154.96 15.76 1155 17.93L1155 19Z " fill="#001837" fill-opacity="1" transform="matrix(1,0,0,1,-1145,-14)"></path><path id="SvgjsPath1011" d="M1150 26L1152 26L1152 23L1150 23Z " fill="#001837" fill-opacity="1" transform="matrix(1,0,0,1,-1145,-14)"></path></svg>