<svg id="SvgjsSvg1012" xmlns="http://www.w3.org/2000/svg" version="1.1" xmlns:xlink="http://www.w3.org/1999/xlink" xmlns:svgjs="http://svgjs.com/svgjs" width="1320" height="257" viewBox="0 0 1320 257"><title>vector</title><desc>Created with Avocode.</desc><defs id="SvgjsDefs1013"><linearGradient id="SvgjsLinearGradient1015" gradientUnits="userSpaceOnUse" x1="720" y1="1801" x2="720" y2="2034"><stop id="SvgjsStop1016" stop-opacity="1" stop-color="#ffffff" offset="0"></stop><stop id="SvgjsStop1017" stop-opacity="0" stop-color="#ffffff" offset="1"></stop></linearGradient><linearGradient id="SvgjsLinearGradient1019" gradientUnits="userSpaceOnUse" x1="720" y1="1813" x2="720" y2="2046"><stop id="SvgjsStop1020" stop-opacity="1" stop-color="#ffffff" offset="0"></stop><stop id="SvgjsStop1021" stop-opacity="0" stop-color="#ffffff" offset="1"></stop></linearGradient><linearGradient id="SvgjsLinearGradient1023" gradientUnits="userSpaceOnUse" x1="720" y1="1825" x2="720" y2="2058"><stop id="SvgjsStop1024" stop-opacity="1" stop-color="#ffffff" offset="0"></stop><stop id="SvgjsStop1025" stop-opacity="0" stop-color="#ffffff" offset="0.99"></stop></linearGradient></defs><path id="SvgjsPath1014" d="M280 1951C360 1951 420 2011 500 2011C580 2011 640 1951 720 1951C800 1951 860 2011 940 2011C988.28 2011 1080 1801 1160 1801C1240 1801 1380 2034 1380 2034L60 2034C60 2034 200 1951 280 1951Z " fill="url(#SvgjsLinearGradient1015)" transform="matrix(1,0,0,1,-60,-1801)"></path><path id="SvgjsPath1018" d="M280 1963C360 1963 420 2023 500 2023C580 2023 640 1963 720 1963C800 1963 860 2023 940 2023C988.28 2023 1080 1813 1160 1813C1240 1813 1380 2046 1380 2046L60 2046C60 2046 200 1963 280 1963Z " fill="url(#SvgjsLinearGradient1019)" transform="matrix(1,0,0,1,-60,-1801)"></path><path id="SvgjsPath1022" d="M280 1975C360 1975 420 2035 500 2035C580 2035 640 1975 720 1975C800 1975 860 2035 940 2035C988.28 2035 1080 1825 1160 1825C1240 1825 1380 2058 1380 2058L60 2058C60 2058 200 1975 280 1975Z " fill="url(#SvgjsLinearGradient1023)" transform="matrix(1,0,0,1,-60,-1801)"></path></svg>