<svg id="SvgjsSvg1000" xmlns="http://www.w3.org/2000/svg" version="1.1" xmlns:xlink="http://www.w3.org/1999/xlink" xmlns:svgjs="http://svgjs.com/svgjs" width="156" height="128" viewBox="0 0 156 128"><title>Fill 1</title><desc>Created with Avocode.</desc><defs id="SvgjsDefs1001"></defs><path id="SvgjsPath1007" d="M597.8 2448.3L581.5699999999999 2471L574.2199999999999 2457.92C573.04 2459.71 569.4799999999999 2465.06 568.5799999999999 2466.42L570.2499999999999 2467.52L565.2799999999999 2469.48L565.2999999999998 2464.2400000000002L566.9399999999998 2465.3300000000004L573.4799999999998 2455.4600000000005L574.3899999999998 2454.0800000000004L581.7399999999998 2467.3800000000006C583.2699999999998 2465.2400000000007 595.3999999999997 2448.2600000000007 596.1999999999998 2447.140000000001L594.6399999999999 2446.0300000000007L599.5499999999998 2444.1600000000008L599.4499999999998 2449.4900000000007ZM544.33 2384.95C542.58 2383.56 540.47 2379.71 541.2 2374.0499999999997C542.58 2377.0899999999997 544.84 2380.22 551.0400000000001 2384.4399999999996C552.4200000000001 2385.3899999999994 553.94 2387.3499999999995 552.7800000000001 2390.1099999999997C551.6100000000001 2392.8799999999997 549.44 2396.7999999999997 550.7300000000001 2398.3299999999995C552.0500000000002 2399.8599999999997 556.7100000000002 2400.6499999999996 560.5000000000001 2399.1299999999997C560.5000000000001 2399.1299999999997 561.3000000000001 2401.5199999999995 562.6900000000002 2403.0499999999997C562.6900000000002 2403.0499999999997 562.0400000000002 2404.37 559.8500000000001 2403.7099999999996C559.8500000000001 2403.7099999999996 560.6500000000001 2405.6699999999996 559.5500000000002 2407.7799999999997C559.5500000000002 2407.7799999999997 557.0000000000002 2407.3399999999997 555.9100000000002 2405.0199999999995C555.9100000000002 2405.0199999999995 554.8900000000002 2406.8199999999997 552.8500000000003 2407.4899999999993C552.8500000000003 2407.4899999999993 551.1700000000003 2406.6199999999994 551.5500000000003 2403.2599999999993C551.5500000000003 2403.2599999999993 550.3000000000003 2406.249999999999 546.5200000000003 2406.749999999999C546.5200000000003 2406.749999999999 544.3300000000003 2403.999999999999 547.1700000000003 2400.289999999999C547.1700000000003 2400.289999999999 545.1300000000003 2402.109999999999 541.4300000000003 2401.229999999999C541.4300000000003 2401.229999999999 540.8400000000003 2399.349999999999 544.1800000000003 2396.729999999999C544.1800000000003 2396.729999999999 540.3900000000003 2396.579999999999 538.9400000000003 2393.379999999999C538.9400000000003 2393.379999999999 540.5400000000003 2391.4099999999994 544.4700000000003 2391.849999999999C544.4700000000003 2391.849999999999 540.8400000000003 2391.049999999999 540.0300000000002 2386.689999999999C540.0300000000002 2386.689999999999 542.6500000000002 2385.019999999999 546.8100000000002 2387.709999999999C546.8100000000002 2387.709999999999 546.0700000000002 2386.329999999999 544.3300000000002 2384.949999999999ZM604.97 2384.44C611.15 2380.2200000000003 613.4200000000001 2377.09 614.8000000000001 2374.05C615.5300000000001 2379.71 613.4200000000001 2383.5600000000004 611.6700000000001 2384.9500000000003C609.9200000000001 2386.3300000000004 609.2 2387.7100000000005 609.2 2387.7100000000005C613.34 2385.0200000000004 615.96 2386.6900000000005 615.96 2386.6900000000005C615.1600000000001 2391.0500000000006 611.5300000000001 2391.8500000000004 611.5300000000001 2391.8500000000004C615.46 2391.4100000000003 617.07 2393.3800000000006 617.07 2393.3800000000006C615.61 2396.5800000000004 611.8000000000001 2396.7300000000005 611.8000000000001 2396.7300000000005C615.1600000000001 2399.3500000000004 614.58 2401.2300000000005 614.58 2401.2300000000005C610.87 2402.1100000000006 608.83 2400.2900000000004 608.83 2400.2900000000004C611.6700000000001 2404.0000000000005 609.49 2406.7500000000005 609.49 2406.7500000000005C605.69 2406.2500000000005 604.46 2403.2600000000007 604.46 2403.2600000000007C604.83 2406.620000000001 603.1500000000001 2407.4900000000007 603.1500000000001 2407.4900000000007C601.1000000000001 2406.8200000000006 600.08 2405.020000000001 600.08 2405.020000000001C598.99 2407.340000000001 596.45 2407.780000000001 596.45 2407.780000000001C595.35 2405.670000000001 596.1600000000001 2403.710000000001 596.1600000000001 2403.710000000001C593.96 2404.370000000001 593.32 2403.050000000001 593.32 2403.050000000001C594.7 2401.520000000001 595.49 2399.130000000001 595.49 2399.130000000001C599.29 2400.650000000001 603.95 2399.860000000001 605.25 2398.330000000001C606.57 2396.8000000000006 604.38 2392.880000000001 603.22 2390.110000000001C602.0600000000001 2387.350000000001 603.58 2385.3900000000012 604.97 2384.440000000001ZM531.96 2378.48C525.22 2374.91 518.5400000000001 2367.52 515.83 2362.38C513.12 2357.23 514.25 2351.26 514.96 2348.07C518.0300000000001 2350.6600000000003 522.4300000000001 2355.76 524.35 2358.53C526.71 2361.9300000000003 529.75 2366.75 531.61 2370.67L531.62 2370.79C531.61 2371.2 531.59 2371.64 531.61 2372.11L531.6800000000001 2373.13C529.47 2370.32 526.83 2366.9300000000003 524.3000000000001 2363.79C522.57 2361.64 521.11 2360.35 519.4900000000001 2359.3C520.8400000000001 2363.27 523.3100000000002 2366.4500000000003 525.0400000000001 2368.03C526.7700000000001 2369.61 529.2900000000001 2372.28 531.7400000000001 2373.9100000000003L531.9700000000001 2374.7100000000005C532.1700000000002 2375.4500000000003 532.4600000000002 2376.2100000000005 532.8700000000001 2376.9200000000005C533.4300000000001 2377.9300000000007 534.1900000000002 2378.9200000000005 535.0700000000002 2379.8800000000006C534.3600000000001 2379.5200000000004 533.5500000000002 2379.140000000001 532.7200000000001 2378.7900000000004ZM620.93 2379.88C621.8199999999999 2378.92 622.56 2377.9300000000003 623.14 2376.92C623.55 2376.21 623.84 2375.4500000000003 624.02 2374.71L624.27 2373.91C626.72 2372.2799999999997 629.23 2369.6099999999997 630.96 2368.0299999999997C632.7 2366.45 635.1500000000001 2363.2699999999995 636.52 2359.2999999999997C634.9 2360.35 633.43 2361.64 631.6899999999999 2363.7899999999995C629.18 2366.9299999999994 626.52 2370.3199999999997 624.31 2373.1299999999997L624.39 2372.1099999999997C624.41 2371.64 624.4 2371.2 624.38 2370.7899999999995L624.38 2370.6699999999996C626.26 2366.7499999999995 629.28 2361.93 631.65 2358.5299999999997C633.5699999999999 2355.7599999999998 637.97 2350.66 641.04 2348.0699999999997C641.75 2351.2599999999998 642.86 2357.2299999999996 640.17 2362.3799999999997C637.4599999999999 2367.5199999999995 630.78 2374.91 624.04 2378.4799999999996L623.28 2378.7899999999995C622.4499999999999 2379.1399999999994 621.64 2379.5199999999995 620.93 2379.8799999999997ZM530.58 2383.38C521.46 2381.86 511.42 2374.9700000000003 508.32000000000005 2370.7000000000003C505.21000000000004 2366.4300000000003 506.09000000000003 2360.05 506.09000000000003 2360.05C509.1 2360.65 515.64 2366.29 517.34 2367.98C519.0400000000001 2369.67 524.15 2374.64 527.69 2377.41L528.7900000000001 2380.62C525.7600000000001 2378.18 522.1600000000001 2375.47 519.9200000000001 2373.7799999999997C518.19 2372.4799999999996 515.6 2370.6299999999997 513.0300000000001 2369.7599999999998C513.0300000000001 2369.7599999999998 515.4000000000001 2372.8399999999997 517.3100000000001 2374.35C519.5200000000001 2376.0899999999997 521.7600000000001 2377.6 523.6 2378.6C525.24 2379.5 526.08 2380.0099999999998 529.4 2381.61C529.63 2382.03 530.31 2383 530.5799999999999 2383.38ZM628.31 2377.41C631.8499999999999 2374.64 636.9699999999999 2369.67 638.66 2367.98C640.36 2366.29 646.89 2360.65 649.91 2360.05C649.91 2360.05 650.79 2366.4300000000003 647.68 2370.7000000000003C644.5799999999999 2374.9700000000003 634.54 2381.86 625.42 2383.38C625.6899999999999 2383 626.37 2382.03 626.5999999999999 2381.61C629.92 2380.01 630.7599999999999 2379.5 632.3899999999999 2378.6C634.2499999999999 2377.6 636.4899999999999 2376.0899999999997 638.6899999999998 2374.35C640.5999999999998 2372.8399999999997 642.9599999999998 2369.7599999999998 642.9599999999998 2369.7599999999998C640.3899999999998 2370.6299999999997 637.8099999999998 2372.4799999999996 636.0899999999998 2373.7799999999997C633.8399999999998 2375.47 630.2399999999998 2378.18 627.1999999999998 2380.62ZM656 2377.4C656 2377.4 654.49 2381.67 646.23 2385.1C640.12 2387.64 628.74 2389.0899999999997 622.97 2391.61C625.6600000000001 2390.33 626.14 2388.02 626.1600000000001 2387.9C629.4100000000001 2387.28 631.1300000000001 2387.07 635.1300000000001 2385.79C639.1700000000001 2384.5099999999998 641.6100000000001 2382.9 641.6100000000001 2382.9C639.8700000000001 2383.06 637.8200000000002 2383.2200000000003 635.0400000000001 2384C631.5100000000001 2384.98 629.7 2385.61 625.82 2387.09C624.86 2386.4500000000003 623.72 2386.1400000000003 622.6700000000001 2386.11C625.45 2384.8700000000003 633.4000000000001 2381.9100000000003 638.6100000000001 2380.32C643.0700000000002 2378.9500000000003 648.8500000000001 2377.21 656.0000000000001 2377.4ZM509.77 2385.1C501.51 2381.67 500 2377.4 500 2377.4C507.15 2377.21 512.93 2378.9500000000003 517.39 2380.32C522.6 2381.9100000000003 530.54 2384.8700000000003 533.3199999999999 2386.11C532.29 2386.1400000000003 531.14 2386.4500000000003 530.18 2387.09C526.3 2385.61 524.4899999999999 2384.98 520.9699999999999 2384C518.18 2383.22 516.1299999999999 2383.06 514.3899999999999 2382.9C514.3899999999999 2382.9 516.8299999999999 2384.51 520.8599999999999 2385.79C524.8599999999999 2387.07 526.5899999999999 2387.2799999999997 529.8299999999999 2387.9C529.8499999999999 2388.02 530.3399999999999 2390.33 533.02 2391.61C527.25 2389.09 515.88 2387.6400000000003 509.77 2385.1ZM543.36 2453.82C543.37 2454.4 542.41 2454.5 542.41 2454.5C541.4499999999999 2454.4 537.43 2454.4 537.43 2454.4C537.3599999999999 2453.94 537.14 2453.03 536.5699999999999 2452.42C533.8299999999999 2449.6800000000003 532.1899999999999 2446.34 531.8299999999999 2444.09C531.16 2439.9900000000002 533.03 2436.36 533.7099999999999 2434.4C534.2005899999999 2432.98711 534.26758 2432.0074400000003 534.15658 2430.28971C534.2610199999999 2431.52889 535.21934 2432.99514 537.05 2434.67C539.03 2436.4900000000002 540.8 2437.31 542.14 2437.09C542.14 2437.09 540.1 2437.46 538.9 2438.59C537.89 2439.53 536.47 2442.1000000000004 536.03 2444.9500000000003C537.1999999999999 2442.55 539.66 2440.9 542.51 2440.9C545.81 2440.9 548.6 2443.13 549.45 2446.1600000000003C549.26 2446.5600000000004 548.33 2448.7100000000005 548.08 2449.2000000000003C548.08 2449.2000000000003 548.1500000000001 2448.5000000000005 548.1500000000001 2448.0800000000004C548.1500000000001 2444.9800000000005 545.6300000000001 2442.4400000000005 542.5100000000001 2442.4400000000005C539.3900000000001 2442.4400000000005 536.8500000000001 2444.9800000000005 536.8500000000001 2448.0800000000004C536.8500000000001 2449.7100000000005 537.4800000000001 2451.1900000000005 538.5800000000002 2452.1500000000005C538.6400000000001 2452.2100000000005 538.7000000000002 2452.2600000000007 538.7800000000002 2452.3200000000006C539.8500000000003 2453.120000000001 541.8500000000003 2453.0700000000006 542.3300000000002 2453.0700000000006C542.8100000000002 2453.0700000000006 543.3400000000001 2453.2200000000007 543.3600000000001 2453.8200000000006ZM621.83096 2430.32767C621.72291 2432.02194 621.78304 2432.99755 622.27 2434.4C622.96 2436.36 624.8299999999999 2439.9900000000002 624.17 2444.09C623.8 2446.34 622.17 2449.6800000000003 619.4399999999999 2452.42C618.8499999999999 2453.03 618.63 2453.94 618.5699999999999 2454.4C618.5699999999999 2454.4 614.54 2454.4 613.5799999999999 2454.5C613.5799999999999 2454.5 612.6299999999999 2454.4 612.6399999999999 2453.82C612.6599999999999 2453.2200000000003 613.1899999999998 2453.07 613.6699999999998 2453.07C614.1399999999999 2453.07 616.1499999999999 2453.1200000000003 617.2199999999998 2452.32C617.2899999999998 2452.26 617.3399999999998 2452.21 617.4099999999999 2452.15C618.5099999999999 2451.19 619.1499999999999 2449.71 619.1499999999999 2448.08C619.1499999999999 2444.98 616.6099999999999 2442.44 613.4899999999999 2442.44C610.3699999999999 2442.44 607.8399999999999 2444.98 607.8399999999999 2448.08C607.8399999999999 2448.5 607.92 2449.2 607.92 2449.2C607.67 2448.71 606.7299999999999 2446.56 606.55 2446.16C607.38 2443.1299999999997 610.17 2440.8999999999996 613.49 2440.8999999999996C616.33 2440.8999999999996 618.8 2442.5499999999997 619.96 2444.95C619.52 2442.1 618.11 2439.5299999999997 617.1 2438.5899999999997C615.89 2437.4599999999996 613.85 2437.0899999999997 613.85 2437.0899999999997C615.19 2437.3099999999995 616.96 2436.49 618.94 2434.6699999999996C620.7520000000001 2433.0122199999996 621.71864 2431.5588 621.83096 2430.3276699999997ZM617.5 2451.3C617.28 2451.69 617.01 2452.17 615.87 2452.17C614.71 2452.17 612.51 2452.65 611.3 2453.51C610.06 2454.36 608.78 2454.65 607.01 2454.84C606.68 2453.4900000000002 606.33 2452.07 605.71 2450.77C604.52 2448.23 601.57 2441.48 595.4200000000001 2440.28C594.85 2440.17 596.08 2438.7400000000002 596.6500000000001 2438.82C597.19 2438.88 598.2900000000001 2439.59 598.7700000000001 2439.92C598.7700000000001 2439.92 598.7700000000001 2438.4700000000003 598.7900000000001 2438.21C598.8000000000001 2437.94 599.0300000000001 2437.86 599.2600000000001 2437.86C599.5000000000001 2437.8700000000003 600.9800000000001 2437.86 601.4500000000002 2438.3900000000003C602.8600000000001 2440.01 605.2200000000001 2444.36 606.5600000000002 2447.6000000000004C607.9000000000002 2450.8300000000004 608.8100000000002 2451.8300000000004 610.2200000000001 2451.3300000000004C611.6400000000001 2450.8300000000004 612.4900000000001 2449.2200000000003 614.9400000000002 2449.7100000000005C615.8000000000002 2449.8800000000006 616.7400000000001 2450.4500000000003 617.5000000000001 2451.3000000000006ZM550.28 2450.77C549.67 2452.07 549.31 2453.49 548.98 2454.84C547.22 2454.65 545.9300000000001 2454.36 544.7 2453.51C543.47 2452.65 541.2800000000001 2452.17 540.13 2452.17C538.98 2452.17 538.72 2451.69 538.51 2451.3C539.25 2450.4500000000003 540.2 2449.88 541.06 2449.71C543.51 2449.2200000000003 544.3599999999999 2450.83 545.77 2451.33C547.1899999999999 2451.83 548.1 2450.83 549.4399999999999 2447.6C550.77 2444.36 553.14 2440.0099999999998 554.53 2438.39C555.01 2437.8599999999997 556.49 2437.87 556.73 2437.8599999999997C556.97 2437.8599999999997 557.2 2437.9399999999996 557.21 2438.2099999999996C557.23 2438.47 557.23 2439.9199999999996 557.23 2439.9199999999996C557.71 2439.5899999999997 558.8000000000001 2438.8799999999997 559.36 2438.8199999999997C559.9 2438.74 561.15 2440.1699999999996 560.5600000000001 2440.2799999999997C554.4300000000001 2441.4799999999996 551.48 2448.2299999999996 550.2800000000001 2450.7699999999995ZM535.46 2406.11C533.39 2407.63 528.5300000000001 2412.4300000000003 524.36 2415.88C520.2 2419.31 515.15 2418.87 515.15 2418.87C517.05 2413.0899999999997 520.56 2410.25 522.98 2408.99C525.4 2407.74 532.88 2404.9199999999996 534.98 2404.12C534.89 2404.22 534.83 2404.3399999999997 534.75 2404.46L534.54 2404.85C532.03 2406.0099999999998 529.88 2406.69 527.01 2408.72C524.65 2410.3999999999996 523.38 2412.7099999999996 523.38 2412.7099999999996C529.34 2410.5499999999997 534.98 2405.5699999999997 534.98 2405.5699999999997C535.09 2405.7299999999996 535.25 2405.9199999999996 535.46 2406.1099999999997ZM633.02 2408.99C635.4399999999999 2410.25 638.9399999999999 2413.0899999999997 640.84 2418.87C640.84 2418.87 635.8000000000001 2419.31 631.63 2415.88C627.47 2412.4300000000003 622.61 2407.63 620.54 2406.11C620.75 2405.92 620.9 2405.73 621.03 2405.57C621.03 2405.57 626.66 2410.55 632.62 2412.71C632.62 2412.71 631.35 2410.4 629 2408.7200000000003C626.12 2406.69 623.98 2406.01 621.47 2404.8500000000004L621.25 2404.4600000000005C621.18 2404.3400000000006 621.11 2404.2200000000007 621.03 2404.1200000000003C623.12 2404.9200000000005 630.61 2407.7400000000002 633.02 2408.9900000000002ZM538.86 2410.86C536.6800000000001 2412.9900000000002 535.07 2415.04 531.85 2419.5C528.62 2423.97 523.51 2424.15 523.51 2424.15C524.01 2420.53 524.99 2417.67 527.73 2414.58C530.46 2411.5 533.96 2408.68 536.53 2406.8199999999997C537.18 2407.1099999999997 538.05 2407.3099999999995 539.14 2407.1699999999996C539.22 2407.1699999999996 539.31 2407.1599999999994 539.39 2407.1399999999994C539.05 2407.5899999999992 538.84 2408.0399999999995 538.73 2408.4599999999996C536.78 2409.5699999999997 531.13 2412.4299999999994 528.84 2417.0399999999995C528.84 2417.0399999999995 532.4200000000001 2415.9099999999994 538.58 2409.3499999999995C538.57 2409.8799999999997 538.6700000000001 2410.3099999999995 538.74 2410.5299999999993C538.76 2410.609999999999 538.8 2410.7399999999993 538.86 2410.859999999999ZM619.47 2406.82C622.0500000000001 2408.6800000000003 625.5400000000001 2411.5 628.27 2414.5800000000004C631.01 2417.6700000000005 632 2420.53 632.48 2424.1500000000005C632.48 2424.1500000000005 627.38 2423.9700000000007 624.15 2419.5000000000005C620.93 2415.0400000000004 619.31 2412.9900000000002 617.14 2410.8600000000006C617.1899999999999 2410.7400000000007 617.23 2410.6100000000006 617.26 2410.5300000000007C617.33 2410.310000000001 617.43 2409.8800000000006 617.41 2409.350000000001C623.5799999999999 2415.9100000000008 627.16 2417.040000000001 627.16 2417.040000000001C624.88 2412.4300000000007 619.2199999999999 2409.570000000001 617.27 2408.460000000001C617.15 2408.040000000001 616.9499999999999 2407.590000000001 616.61 2407.140000000001C616.69 2407.1600000000008 616.77 2407.170000000001 616.86 2407.170000000001C617.95 2407.310000000001 618.8100000000001 2407.110000000001 619.47 2406.820000000001ZM636.89 2402.95C639.64 2403.7999999999997 644.63 2405.7999999999997 647.58 2411.4399999999996C647.58 2411.4399999999996 643.25 2412.7799999999997 635.0500000000001 2408.9299999999994C626.85 2405.0799999999995 624.3000000000001 2404.2799999999993 622.73 2403.8699999999994C623.97 2403.7799999999993 624.86 2403.359999999999 625.32 2403.0699999999993C628.58 2404.5299999999993 632.96 2406.2399999999993 637.2900000000001 2406.359999999999C637.2900000000001 2406.359999999999 635.1500000000001 2404.849999999999 632.9000000000001 2403.9099999999994C630.46 2402.8899999999994 627.7800000000001 2401.9599999999996 625.7400000000001 2401.4399999999996C625.6600000000001 2401.2299999999996 625.5800000000002 2401.0499999999997 625.4900000000001 2400.8699999999994C627.9600000000002 2401.3699999999994 634.1300000000001 2402.109999999999 636.8900000000001 2402.9499999999994ZM533.27 2403.87C531.71 2404.2799999999997 529.14 2405.08 520.9499999999999 2408.93C512.7599999999999 2412.7799999999997 508.41999999999996 2411.44 508.41999999999996 2411.44C511.36999999999995 2405.8 516.36 2403.8 519.11 2402.9500000000003C521.87 2402.11 528.03 2401.3700000000003 530.5 2400.8700000000003C530.42 2401.05 530.34 2401.2300000000005 530.25 2401.4400000000005C528.21 2401.9600000000005 525.53 2402.8900000000003 523.1 2403.9100000000003C520.84 2404.8500000000004 518.71 2406.36 518.71 2406.36C523.0500000000001 2406.2400000000002 527.4200000000001 2404.53 530.69 2403.07C531.1400000000001 2403.36 532.0300000000001 2403.78 533.2700000000001 2403.8700000000003ZM556.53 2449.49L556.4499999999999 2444.16L561.3399999999999 2446.0299999999997L559.79 2447.14C560.29 2447.85 565.25 2454.7799999999997 569.26 2460.3799999999997L568.09 2462.1499999999996L558.19 2448.2999999999997ZM527.82 2394.74C523.98 2394.7 518.71 2395.6 512.22 2394.18C505.74 2392.7799999999997 500.07000000000005 2388.79 500.07000000000005 2388.79C502.39000000000004 2388.19 506.89000000000004 2387.83 513.11 2388.24C521.61 2388.79 527.25 2390.7799999999997 531.37 2392.02C530.76 2392.25 530.27 2392.49 529.85 2392.73C520.6800000000001 2390.12 514.15 2391.47 514.15 2391.47C516.8299999999999 2392.37 524.31 2393.5299999999997 528.81 2393.5099999999998C528.3599999999999 2393.93 528.0699999999999 2394.3599999999997 527.8199999999999 2394.74ZM642.88 2388.24C649.11 2387.83 653.61 2388.1899999999996 655.93 2388.79C655.93 2388.79 650.27 2392.7799999999997 643.78 2394.18C637.29 2395.6 632.02 2394.7 628.18 2394.74C627.92 2394.3599999999997 627.63 2393.93 627.18 2393.5099999999998C631.6899999999999 2393.5299999999997 639.18 2392.37 641.8599999999999 2391.47C641.8599999999999 2391.47 635.3199999999999 2390.12 626.1399999999999 2392.73C625.7299999999999 2392.4900000000002 625.2399999999999 2392.25 624.6399999999999 2392.02C628.7399999999999 2390.78 634.3899999999999 2388.79 642.8799999999999 2388.24ZM582.08 2448.01C583.2 2449.05 585.9300000000001 2451.7700000000004 587.39 2453.1200000000003C587.39 2453.1200000000003 583.23 2452.1000000000004 580.9 2449.9900000000002C580.9 2449.9900000000002 579.24 2450.9500000000003 578.03 2450.9500000000003L577.97 2450.9500000000003C576.75 2450.9500000000003 575.09 2449.9900000000002 575.09 2449.9900000000002C572.76 2452.1000000000004 568.61 2453.1200000000003 568.61 2453.1200000000003C570.0600000000001 2451.7700000000004 572.79 2449.05 573.91 2448.01C575.04 2446.9900000000002 577.6 2443.38 577.99 2442.2400000000002L578.01 2442.2400000000002C578.41 2443.38 580.96 2446.9900000000002 582.08 2448.01ZM539.82 2421.46C537.59 2425.45 532.1400000000001 2427.15 532.1400000000001 2427.15C531.5900000000001 2420.4 537.45 2414.1800000000003 540.2300000000001 2411.4100000000003L540.3200000000002 2411.4C541.1700000000002 2411.4100000000003 541.9200000000002 2411.28 542.5800000000002 2411.04C542.3800000000001 2411.39 542.2300000000001 2411.71 542.1300000000001 2411.98C534.8900000000001 2418.72 535.5200000000001 2422.05 535.5200000000001 2422.05C537.9800000000001 2420.6200000000003 540.7200000000001 2416.51 542.1000000000001 2414L542.5900000000001 2414.08C543.1800000000002 2414.18 543.7900000000002 2414.18 544.3900000000001 2414.1C543.45 2414.99 542.07 2417.49 539.82 2421.46ZM615.77 2411.41C618.55 2414.18 624.41 2420.3999999999996 623.85 2427.1499999999996C623.85 2427.1499999999996 618.41 2425.45 616.1800000000001 2421.4599999999996C613.9300000000001 2417.49 612.5600000000001 2414.99 611.61 2414.0999999999995C612.21 2414.1799999999994 612.8100000000001 2414.1799999999994 613.4 2414.0799999999995L613.9 2413.9999999999995C615.28 2416.5099999999998 618.02 2420.6199999999994 620.48 2422.0499999999997C620.48 2422.0499999999997 621.11 2418.72 613.87 2411.9799999999996C613.77 2411.7099999999996 613.62 2411.3899999999994 613.42 2411.0399999999995C614.0699999999999 2411.2799999999993 614.8299999999999 2411.4099999999994 615.68 2411.3999999999996ZM515.4 2401.85C507.28999999999996 2402.42 502.95 2400.95 502.95 2400.95C505.78 2399.22 510.28999999999996 2397.46 513.34 2396.8799999999997C516.4 2396.2899999999995 524.4100000000001 2396.3499999999995 527.9200000000001 2395.8699999999994C527.95 2395.9099999999994 528.3800000000001 2396.2599999999993 529.07 2396.6699999999996C526.12 2396.9399999999996 519.82 2397.2299999999996 516.58 2398.8799999999997C516.58 2398.8799999999997 522.57 2399.6699999999996 530.47 2397.39C531.26 2397.7599999999998 531.88 2397.95 532.9300000000001 2398.06C532.36 2398.43 531.82 2398.89 531.33 2399.52C528.45 2400.36 523.5200000000001 2401.2599999999998 515.4000000000001 2401.85ZM628.08 2395.87C631.59 2396.35 639.6 2396.29 642.6600000000001 2396.88C645.71 2397.46 650.22 2399.2200000000003 653.0400000000001 2400.9500000000003C653.0400000000001 2400.9500000000003 648.72 2402.42 640.6 2401.8500000000004C632.47 2401.26 627.5600000000001 2400.3600000000006 624.6700000000001 2399.5200000000004C624.19 2398.8900000000003 623.6400000000001 2398.4300000000003 623.07 2398.0600000000004C624.12 2397.9500000000003 624.73 2397.76 625.5400000000001 2397.3900000000003C633.4300000000001 2399.6700000000005 639.4200000000001 2398.88 639.4200000000001 2398.88C636.1700000000001 2397.23 629.8800000000001 2396.94 626.9300000000001 2396.67C627.61 2396.26 628.0400000000001 2395.91 628.08 2395.87ZM622.45 2376.52C620.82 2379.38 617.5 2382.38 613.34 2384.35C614.1800000000001 2383.2799999999997 614.83 2381.79 615.3100000000001 2380.04C615.71 2378.61 616.61 2375.08 617.1400000000001 2374.16C617.6800000000001 2373.24 619.5900000000001 2370.04 623.3300000000002 2369.04C623.3300000000002 2369.04 624.3300000000002 2373.22 622.4500000000002 2376.52ZM542.65 2384.35C538.51 2382.38 535.17 2379.38 533.56 2376.52C531.67 2373.22 532.67 2369.04 532.67 2369.04C536.41 2370.04 538.3299999999999 2373.24 538.86 2374.16C539.39 2375.08 540.29 2378.6099999999997 540.6800000000001 2380.04C541.1600000000001 2381.79 541.82 2383.2799999999997 542.6500000000001 2384.35ZM547.1 2425.02C545.59 2427.5 542.82 2428.78 542.82 2428.78C540.23 2424.1600000000003 543.36 2417.9900000000002 546 2413.6800000000003C546.31 2413.5600000000004 546.64 2413.4100000000003 546.98 2413.2400000000002C546.0600000000001 2416.55 544.3000000000001 2420.4900000000002 545.03 2423.5200000000004C547.3 2420.8000000000006 547.99 2412.6300000000006 547.99 2412.6300000000006C548.3 2412.4200000000005 548.62 2412.1900000000005 548.95 2411.9400000000005C549.0600000000001 2411.8300000000004 549.19 2411.7300000000005 549.3100000000001 2411.6100000000006C549.3100000000001 2411.9000000000005 549.33 2412.2200000000007 549.36 2412.5200000000004C549.02 2417.4400000000005 548.64 2422.5000000000005 547.1 2425.0200000000004ZM613.17 2428.78C613.17 2428.78 610.41 2427.5 608.9 2425.02C607.37 2422.5 606.97 2417.44 606.65 2412.52C606.67 2412.22 606.68 2411.9 606.68 2411.61C606.81 2411.73 606.93 2411.83 607.0699999999999 2411.94C607.3699999999999 2412.19 607.6999999999999 2412.42 608.01 2412.63C608.01 2412.63 608.6899999999999 2420.8 610.98 2423.52C611.7 2420.49 609.95 2416.55 609.03 2413.24C609.35 2413.41 609.68 2413.56 610 2413.68C612.63 2417.99 615.77 2424.16 613.17 2428.7799999999997ZM563.21 2395.97C561.74 2395.97 560.26 2394.74 559.77 2393.3399999999997C559.26 2391.9399999999996 559.43 2389.7599999999998 560.38 2388.99C560.38 2388.99 561.26 2391.72 563.15 2391.8199999999997C565.29 2391.9399999999996 568.04 2389.5499999999997 570.79 2384.95C570.79 2384.95 570.17 2389.5 567.49 2392.8799999999997C565.67 2395.1699999999996 564.19 2395.97 563.21 2395.97ZM595.62 2388.99C596.57 2389.7599999999998 596.73 2391.9399999999996 596.24 2393.3399999999997C595.74 2394.74 594.25 2395.97 592.78 2395.97C591.81 2395.97 590.3199999999999 2395.1699999999996 588.51 2392.8799999999997C585.83 2389.4999999999995 585.22 2384.95 585.22 2384.95C587.97 2389.5499999999997 590.72 2391.9399999999996 592.85 2391.8199999999997C594.74 2391.72 595.62 2388.99 595.62 2388.99ZM563.04 2369.43C563.04 2369.43 558.99 2369.02 558.68 2363.1299999999997C558.68 2363.1299999999997 561.38 2364.1299999999997 564.0899999999999 2363.9999999999995C566.78 2363.8599999999997 571.7699999999999 2363.8099999999995 573.3699999999999 2363.0199999999995C573.3699999999999 2363.0199999999995 573.1099999999999 2364.0399999999995 571.8299999999999 2364.6199999999994C571.8299999999999 2364.6199999999994 572.5099999999999 2364.6199999999994 573.16 2365.1999999999994C573.16 2365.1999999999994 572.78 2366.0399999999995 571.63 2366.4699999999993C571.63 2366.4699999999993 573.6899999999999 2368.609999999999 575.9 2368.459999999999C575.9 2368.459999999999 574.88 2369.7199999999993 572.62 2369.2399999999993C570.36 2368.7499999999995 569.64 2367.4899999999993 569.26 2366.9999999999995C569.26 2366.9999999999995 569.55 2368.2099999999996 569.41 2368.6899999999996C569.41 2368.6899999999996 568.42 2368.6299999999997 567.65 2367.6599999999994C567.65 2367.6599999999994 568.2099999999999 2368.629999999999 568.3299999999999 2369.4499999999994C568.3299999999999 2369.4499999999994 567.6999999999999 2369.5299999999993 566.5899999999999 2368.8699999999994C566.5899999999999 2368.8699999999994 566.8199999999999 2369.4699999999993 566.8699999999999 2370.1699999999996C566.8699999999999 2370.1699999999996 564.2599999999999 2369.3299999999995 562.9899999999999 2368.1499999999996C562.9899999999999 2368.1499999999996 562.9799999999999 2368.9599999999996 563.0399999999998 2369.43ZM583.38 2369.24C581.11 2369.72 580.11 2368.4599999999996 580.11 2368.4599999999996C582.3100000000001 2368.6099999999997 584.37 2366.47 584.37 2366.47C583.22 2366.04 582.84 2365.2 582.84 2365.2C583.5 2364.62 584.1700000000001 2364.62 584.1700000000001 2364.62C582.8900000000001 2364.04 582.6200000000001 2363.02 582.6200000000001 2363.02C584.2300000000001 2363.81 589.2100000000002 2363.86 591.9200000000001 2364C594.6200000000001 2364.13 597.3100000000001 2363.13 597.3100000000001 2363.13C597.0000000000001 2369.02 592.96 2369.4300000000003 592.96 2369.4300000000003C593.0300000000001 2368.9600000000005 593.01 2368.15 593.01 2368.15C591.74 2369.33 589.14 2370.17 589.14 2370.17C589.17 2369.4700000000003 589.4 2368.87 589.4 2368.87C588.29 2369.5299999999997 587.67 2369.45 587.67 2369.45C587.79 2368.6299999999997 588.3499999999999 2367.66 588.3499999999999 2367.66C587.5799999999999 2368.6299999999997 586.5799999999999 2368.69 586.5799999999999 2368.69C586.4499999999999 2368.21 586.7399999999999 2367 586.7399999999999 2367C586.3599999999999 2367.49 585.6399999999999 2368.75 583.3799999999999 2369.24ZM578 2440.47C577.82 2440.81 577.58 2441.14 577.26 2441.4399999999996C575.53 2443.0799999999995 574.43 2442.9199999999996 573.48 2442.5799999999995C573.48 2442.5799999999995 576.32 2441.6199999999994 576.1700000000001 2439.0999999999995C576.0000000000001 2436.5899999999992 574.57 2435.0799999999995 574.32 2433.7699999999995C574.0400000000001 2432.3299999999995 574.1400000000001 2430.9499999999994 575.2600000000001 2429.2899999999995C576.1700000000001 2432.3899999999994 577.1600000000001 2434.6599999999994 577.94 2436.1999999999994C577.97 2436.2399999999993 577.98 2436.2899999999995 578 2436.3299999999995C578.02 2436.2899999999995 578.03 2436.2399999999993 578.06 2436.1999999999994C578.8399999999999 2434.6599999999994 579.8299999999999 2432.3899999999994 580.7399999999999 2429.2899999999995C581.8599999999999 2430.9499999999994 581.9599999999999 2432.3299999999995 581.6699999999998 2433.7699999999995C581.4299999999998 2435.0799999999995 579.9899999999999 2436.5899999999997 579.8299999999998 2439.0999999999995C579.6799999999998 2441.6199999999994 582.5199999999999 2442.5799999999995 582.5199999999999 2442.5799999999995C581.5599999999998 2442.9199999999996 580.4599999999999 2443.0799999999995 578.7399999999999 2441.4399999999996C578.4199999999998 2441.1399999999994 578.18 2440.8099999999995 577.9999999999999 2440.47ZM568.21 2443.07C570.21 2441.71 573.2 2439.6000000000004 572.98 2436.4C572.98 2436.4 572.45 2436.51 571.49 2437.71C570.53 2438.91 568.4300000000001 2442.37 565.16 2442.4C565.16 2442.4 565.65 2440.77 567.0899999999999 2439.84C568.54 2438.9100000000003 570.3699999999999 2437.71 571.1999999999999 2436.26C572.04 2434.8300000000004 572.91 2434.1600000000003 573.4899999999999 2433.8900000000003C573.6299999999999 2434.9500000000003 574.1399999999999 2435.9200000000005 574.6999999999999 2436.9400000000005C574.6999999999999 2436.9400000000005 572.8299999999999 2445.5400000000004 566.0799999999999 2446.2100000000005C566.0799999999999 2446.2100000000005 566.2099999999999 2444.4300000000003 568.2099999999999 2443.0700000000006ZM584.49 2437.71C583.54 2436.51 583 2436.4 583 2436.4C582.79 2439.6 585.78 2441.71 587.79 2443.07C589.78 2444.4300000000003 589.93 2446.21 589.93 2446.21C583.17 2445.54 581.3 2436.94 581.3 2436.94C581.8499999999999 2435.92 582.3599999999999 2434.9500000000003 582.49 2433.89C583.09 2434.16 583.96 2434.83 584.79 2436.2599999999998C585.62 2437.7099999999996 587.4599999999999 2438.91 588.91 2439.8399999999997C590.35 2440.7699999999995 590.8299999999999 2442.3999999999996 590.8299999999999 2442.3999999999996C587.5799999999999 2442.3699999999994 585.4699999999999 2438.91 584.4899999999999 2437.7099999999996ZM575.11 2444.1C572.09 2448.71 568.74 2451.62 565.29 2453.49L564.38 2452.2C567.57 2450.49 570.7 2447.87 573.52 2443.71C573.5799999999999 2443.59 573.71 2443.38 573.77 2443.31C573.77 2443.31 574.8299999999999 2443.57 575.65 2443.2ZM590.69 2453.48C587.2600000000001 2451.61 583.9100000000001 2448.71 580.87 2444.1L580.33 2443.2C581.1600000000001 2443.5699999999997 582.22 2443.31 582.22 2443.31C582.28 2443.38 582.4100000000001 2443.59 582.47 2443.71C585.2900000000001 2447.86 588.4200000000001 2450.4900000000002 591.61 2452.2ZM623.56 2384.37C621.5999999999999 2386.14 620.2199999999999 2386.81 616.8499999999999 2386.31L616.3999999999999 2386.02C616.3299999999998 2385.98 615.5599999999998 2385.5 614.2299999999999 2385.4C615.3499999999999 2384.57 617.9999999999999 2382.35 619.8899999999999 2381.28C621.9399999999998 2380.13 625.3399999999999 2378.61 627.0899999999999 2378.3900000000003C627.0899999999999 2378.3900000000003 625.4599999999999 2382.6400000000003 623.56 2384.3700000000003ZM592.78 2403.69C593.05 2404.03 593.77 2404.71 595.11 2404.68C595.09 2404.8999999999996 595.08 2405.1499999999996 595.08 2405.41C595.08 2406.21 595.22 2407.16 595.74 2408.14L596.01 2408.66L596.58 2408.56C596.6500000000001 2408.54 597.3100000000001 2408.42 598.1600000000001 2408C597.3900000000001 2409 596.6500000000001 2409.73 596.0600000000001 2412.64C595.2 2416.94 594.4200000000001 2417.06 594.4200000000001 2417.06C593.83 2415.5 592.6100000000001 2412.7 591.1700000000001 2409.95C589.71 2407.2 590.9200000000001 2404.9199999999996 590.9200000000001 2404.9199999999996C591.7400000000001 2404.4999999999995 592.1 2404.2499999999995 592.58 2403.7799999999997L592.71 2403.6C592.73 2403.64 592.75 2403.66 592.7800000000001 2403.69ZM539.14 2386.31C535.77 2386.81 534.4 2386.14 532.43 2384.37C530.54 2382.64 528.92 2378.39 528.92 2378.39C530.65 2378.6099999999997 534.05 2380.1299999999997 536.12 2381.2799999999997C537.98 2382.35 540.65 2384.5699999999997 541.76 2385.3999999999996C540.4399999999999 2385.4999999999995 539.66 2385.9799999999996 539.6 2386.0199999999995ZM560.26 2408.14C560.78 2407.16 560.93 2406.21 560.93 2405.41C560.93 2405.1499999999996 560.91 2404.8999999999996 560.89 2404.68C562.23 2404.71 562.9499999999999 2404.0299999999997 563.23 2403.69C563.24 2403.66 563.27 2403.64 563.28 2403.6L563.43 2403.7799999999997C563.89 2404.2499999999995 564.25 2404.4999999999995 565.0799999999999 2404.9199999999996C565.0799999999999 2404.9199999999996 566.28 2407.2 564.8299999999999 2409.95C563.3799999999999 2412.7 562.16 2415.5 561.5799999999999 2417.06C561.5799999999999 2417.06 560.8 2416.94 559.9399999999999 2412.64C559.3499999999999 2409.73 558.6099999999999 2409 557.8399999999999 2408C558.68 2408.42 559.3599999999999 2408.54 559.42 2408.56L560 2408.66ZM600.86 2407.11C601.07 2408.56 601.13 2410.67 600.94 2412.19C600.6800000000001 2414.13 600.1300000000001 2416.02 598.5100000000001 2417.91C596.8700000000001 2419.83 594.6400000000001 2419.5499999999997 594.6400000000001 2419.5499999999997C595.1400000000001 2418.72 595.9700000000001 2416.2899999999995 596.2600000000001 2415.14C596.5400000000001 2413.97 597.1000000000001 2411.94 597.6200000000001 2410.45C598.3200000000002 2408.6899999999996 599.7200000000001 2406.9399999999996 600.1400000000001 2406.4199999999996C600.3500000000001 2406.6299999999997 600.5800000000002 2406.8599999999997 600.8600000000001 2407.1099999999997ZM555.13 2407.11C555.41 2406.86 555.66 2406.63 555.85 2406.42C556.27 2406.94 557.6800000000001 2408.69 558.38 2410.4500000000003C558.9 2411.94 559.46 2413.9700000000003 559.74 2415.1400000000003C560.02 2416.2900000000004 560.85 2418.7200000000003 561.35 2419.55C561.35 2419.55 559.13 2419.8300000000004 557.49 2417.9100000000003C555.87 2416.0200000000004 555.33 2414.13 555.07 2412.1900000000005C554.86 2410.6700000000005 554.94 2408.5600000000004 555.13 2407.1100000000006ZM618.4 2434.09C616.3299999999999 2435.9900000000002 614.17 2437.03 613.05 2435.81C611.8399999999999 2434.49 613.15 2432.54 615.2199999999999 2430.64C617.3 2428.74 619.3499999999999 2427.6 620.56 2428.92C621.77 2430.23 620.4699999999999 2432.1800000000003 618.4 2434.09ZM537.59 2434.09C535.52 2432.1800000000003 534.21 2430.23 535.44 2428.92C536.6400000000001 2427.6 538.69 2428.7400000000002 540.7600000000001 2430.64C542.8400000000001 2432.54 544.1400000000001 2434.49 542.94 2435.81C541.82 2437.0299999999997 539.6800000000001 2435.99 537.59 2434.09ZM625.17 2402.21C625.17 2402.21 623.63 2403.52 620.8299999999999 2402.96C618.4599999999999 2402.46 616.4 2401.45 615.2199999999999 2399.7400000000002C614.8499999999999 2399.19 614.5799999999999 2398.3500000000004 613.81 2397.4900000000002C615.54 2397.19 617.0899999999999 2397.1600000000003 619.0999999999999 2397.5600000000004C621.4999999999999 2398.01 623.9399999999999 2398.5700000000006 625.17 2402.2100000000005ZM530.83 2402.21C532.0500000000001 2398.57 534.5 2398.01 536.9000000000001 2397.56C538.9100000000001 2397.16 540.4700000000001 2397.19 542.1800000000001 2397.49C541.4100000000001 2398.35 541.1500000000001 2399.1899999999996 540.7900000000001 2399.74C539.6 2401.45 537.5400000000001 2402.4599999999996 535.1600000000001 2402.9599999999996C532.3600000000001 2403.5199999999995 530.83 2402.2099999999996 530.83 2402.2099999999996ZM568.81 2431.01C570.6899999999999 2430.4500000000003 573.56 2428.2000000000003 574.7299999999999 2426.09C574.7299999999999 2426.59 574.3499999999999 2429.44 573.55 2430.86C572.4 2432.85 570.7299999999999 2434.32 569.26 2434.32C567.91 2434.32 567.61 2433.5 566.95 2433.19C566.95 2433.19 567.2900000000001 2431.46 568.8100000000001 2431.01ZM587.17 2431.01C588.6999999999999 2431.46 589.04 2433.19 589.04 2433.19C588.38 2433.5 588.0899999999999 2434.32 586.73 2434.32C585.26 2434.32 583.59 2432.8500000000004 582.45 2430.86C581.63 2429.44 581.26 2426.59 581.26 2426.09C582.43 2428.2000000000003 585.31 2430.4500000000003 587.17 2431.01ZM604.51 2417.35C604.85 2416.92 605.51 2416.0099999999998 605.85 2415.36C606.09 2418.4300000000003 606.9 2426.51 604.19 2429.04C604.19 2429.04 602.33 2427.69 601.6700000000001 2415.89C602.07 2416.5499999999997 602.7600000000001 2417.2599999999998 603.09 2417.65C603.09 2417.65 602.64 2421.38 603.99 2424.02C603.99 2424.02 605.33 2423.0099999999998 604.51 2417.35ZM554.32 2415.89C553.6700000000001 2427.69 551.8100000000001 2429.04 551.8100000000001 2429.04C549.1 2426.5099999999998 549.9100000000001 2418.43 550.1500000000001 2415.36C550.5000000000001 2416.01 551.1600000000001 2416.92 551.5000000000001 2417.35C550.6600000000001 2423.0099999999998 552.0100000000001 2424.02 552.0100000000001 2424.02C553.3500000000001 2421.38 552.9000000000001 2417.65 552.9000000000001 2417.65C553.2400000000001 2417.26 553.9300000000001 2416.55 554.32 2415.89ZM581.78 2457.92C581.37 2458.6800000000003 580.53 2460.1800000000003 579.6 2461.83L578.44 2459.7599999999998L581.6 2454.08L582.52 2455.46L585.76 2460.37L584.53 2462.08C583.4399999999999 2460.43 582.3399999999999 2458.77 581.78 2457.92ZM596.46 2420.15C596.95 2420.02 597.48 2419.78 598.01 2419.44C598.01 2419.44 597.35 2421.7000000000003 597.76 2423.9700000000003C597.76 2423.9700000000003 598.8 2423.2200000000003 599.55 2417.8900000000003C600.1099999999999 2417.1700000000005 600.51 2416.4300000000003 600.8299999999999 2415.7300000000005C600.18 2421.0200000000004 599.9399999999999 2424.5900000000006 597.0799999999999 2428.0100000000007C597.0799999999999 2428.0100000000007 595.3499999999999 2425.7200000000007 596.4599999999999 2420.1500000000005ZM556.45 2417.89C557.21 2423.22 558.23 2423.97 558.23 2423.97C558.65 2421.7 558 2419.4399999999996 558 2419.4399999999996C558.51 2419.7799999999997 559.06 2420.0199999999995 559.53 2420.1499999999996C560.65 2425.72 558.92 2428.0099999999998 558.92 2428.0099999999998C556.06 2424.5899999999997 555.8299999999999 2421.02 555.18 2415.7299999999996C555.4799999999999 2416.4299999999994 555.89 2417.1699999999996 556.4499999999999 2417.8899999999994ZM624.35 2392.77C626.48 2393.56 627.03 2394.47 627.58 2395.2599999999998C627.58 2395.2599999999998 625.23 2397.2299999999996 622.5200000000001 2397.29C619.82 2397.38 617.32 2396.6 616.2300000000001 2395.8C616.8400000000001 2395.26 617.3900000000001 2394.59 617.7900000000001 2393.71L617.9900000000001 2393.26C620.0700000000002 2392.4100000000003 622.2400000000001 2391.98 624.3500000000001 2392.7700000000004ZM528.43 2395.26C528.9599999999999 2394.4700000000003 529.52 2393.5600000000004 531.64 2392.7700000000004C533.77 2391.9800000000005 535.93 2392.4100000000003 538.01 2393.26L538.21 2393.71C538.6 2394.59 539.1700000000001 2395.26 539.76 2395.8C538.68 2396.6000000000004 536.18 2397.38 533.47 2397.29C530.78 2397.23 528.4300000000001 2395.2599999999998 528.4300000000001 2395.2599999999998ZM580.24 2426.63C580.14 2429.87 578.1 2432.92 578 2433.9100000000003C577.89 2432.9200000000005 575.86 2429.8700000000003 575.76 2426.63C575.71 2425.01 577.16 2422.4900000000002 577.97 2421.52L578.02 2421.52C578.84 2422.49 580.29 2425.0099999999998 580.24 2426.63ZM550.08 2406.2C550.2700000000001 2406.72 550.57 2407.4199999999996 550.36 2408.4199999999996C550.13 2409.4199999999996 549.44 2410.5199999999995 548.45 2411.3199999999997C546.94 2412.5099999999998 544.94 2413.64 542.72 2413.2999999999997C542.72 2413.2999999999997 542.21 2411.6299999999997 546.62 2407.5499999999997C548.11 2407.35 549.23 2406.8199999999997 550.08 2406.2ZM607.57 2411.32C606.5600000000001 2410.52 605.87 2409.42 605.6500000000001 2408.42C605.4300000000001 2407.42 605.7300000000001 2406.7200000000003 605.9100000000001 2406.2000000000003C606.7700000000001 2406.82 607.8900000000001 2407.3500000000004 609.3800000000001 2407.55C613.7900000000001 2411.63 613.2800000000001 2413.3 613.2800000000001 2413.3C611.07 2413.6400000000003 609.0600000000001 2412.51 607.57 2411.32ZM615.61 2391.53C615.24 2391.4 614.85 2391.27 614.39 2391.1800000000003C615.31 2390.3700000000003 616.22 2389.1400000000003 616.66 2387.3C617.62 2387.51 619.89 2387.51 620.89 2387.15C621.89 2386.76 623.85 2386.75 625.37 2387.75C625.37 2387.75 624.88 2390.43 621.4 2391.35C618.13 2392.2 616.93 2391.98 615.61 2391.5299999999997ZM530.63 2387.75C532.16 2386.75 534.11 2386.76 535.12 2387.15C536.12 2387.51 538.38 2387.51 539.35 2387.3C539.78 2389.1400000000003 540.69 2390.3700000000003 541.6 2391.1800000000003C541.15 2391.2700000000004 540.75 2391.4 540.39 2391.53C539.06 2391.98 537.86 2392.2000000000003 534.59 2391.3500000000004C531.13 2390.4300000000003 530.63 2387.7500000000005 530.63 2387.7500000000005ZM574.25 2467.38C574.75 2466.51 575.62 2464.9500000000003 576.43 2463.4900000000002L577.54 2465.4700000000003L574.42 2471.0000000000005L570.31 2465.2500000000005L571.4699999999999 2463.4900000000002C572.8299999999999 2465.3900000000003 573.8699999999999 2466.8500000000004 574.2499999999999 2467.38ZM603.19 2370.08C603.19 2370.08 600.6400000000001 2367.89 597.5500000000001 2370.0699999999997C597.5500000000001 2370.0699999999997 596.83 2369.6099999999997 595.22 2369.24C595.22 2369.24 596.1700000000001 2368.0899999999997 597.24 2367.6099999999997C598.19 2367.18 600.17 2366.5999999999995 600.74 2364.8099999999995C601.63 2364.5999999999995 603.52 2364.3799999999997 604.35 2365.6099999999997C605.2 2366.8299999999995 604.87 2369.14 603.19 2370.0799999999995ZM555.26 2364.81C555.83 2366.6 557.8 2367.18 558.76 2367.61C559.83 2368.09 560.78 2369.2400000000002 560.78 2369.2400000000002C559.16 2369.61 558.4399999999999 2370.07 558.4399999999999 2370.07C555.3499999999999 2367.8900000000003 552.8 2370.0800000000004 552.8 2370.0800000000004C551.13 2369.1400000000003 550.81 2366.8300000000004 551.65 2365.6100000000006C552.48 2364.3800000000006 554.37 2364.6000000000004 555.26 2364.8100000000004ZM588.32 2407.63C587.5500000000001 2409.15 586.47 2410.21 585.88 2410.75C585.88 2410.75 584.59 2408.49 584.2 2407.5C583.76 2406.36 583.8100000000001 2405.24 584.01 2404.82C584.4399999999999 2403.84 585.97 2402.4100000000003 586.64 2401.1800000000003C586.8 2401.78 588.91 2404.6900000000005 589.27 2405.0600000000004C589.27 2405.0600000000004 589.1 2406.1100000000006 588.3199999999999 2407.6300000000006ZM566.73 2405.06C567.09 2404.69 569.2 2401.7799999999997 569.35 2401.18C570.03 2402.41 571.5500000000001 2403.8399999999997 572 2404.8199999999997C572.18 2405.24 572.23 2406.3599999999997 571.8 2407.4999999999995C571.41 2408.4899999999993 570.1099999999999 2410.7499999999995 570.1099999999999 2410.7499999999995C569.5299999999999 2410.2099999999996 568.4499999999999 2409.1499999999996 567.6699999999998 2407.6299999999997C566.8799999999999 2406.1099999999997 566.7299999999998 2405.0599999999995 566.7299999999998 2405.0599999999995ZM564.35 2374.16C563.64 2373.58 562.23 2373.17 562.23 2373.17C562.64 2373.04 563.5 2372.84 563.82 2372.82C565.6700000000001 2373.96 566.33 2374.86 566.71 2375.4C567.23 2376.13 568.36 2376.83 568.36 2376.83C568.15 2377.21 567.38 2379.79 567.57 2381.0299999999997L567.44 2381.0499999999997C567.12 2380.4599999999996 566.07 2378.5199999999995 565.72 2376.72C565.48 2375.4199999999996 564.96 2374.66 564.35 2374.16ZM592.18 2372.82C592.51 2372.84 593.3499999999999 2373.04 593.77 2373.17C593.77 2373.17 592.35 2373.58 591.65 2374.16C591.05 2374.66 590.52 2375.42 590.28 2376.72C589.9399999999999 2378.52 588.87 2380.4599999999996 588.55 2381.0499999999997L588.43 2381.0299999999997C588.63 2379.79 587.8499999999999 2377.2099999999996 587.65 2376.83C587.65 2376.83 588.77 2376.13 589.28 2375.4C589.66 2374.86 590.3299999999999 2373.96 592.18 2372.82ZM620.55 2404.85C620.55 2404.85 619.55 2406.69 616.9599999999999 2406.39C614.3599999999999 2406.08 612.3899999999999 2404.8599999999997 611.0099999999999 2403.12C610.9499999999999 2402.8599999999997 610.8399999999999 2402.37 610.7099999999999 2402.0299999999997C611.7499999999999 2402.2999999999997 613.1099999999999 2402.3999999999996 614.7699999999999 2402.0099999999998L615.2199999999999 2401.8999999999996L615.3499999999999 2401.47C617.3499999999999 2403.1 619.7299999999999 2403.37 620.55 2404.85ZM539.05 2406.39C536.4399999999999 2406.69 535.4499999999999 2404.85 535.4499999999999 2404.85C536.27 2403.37 538.64 2403.1 540.65 2401.47L540.79 2401.8999999999996L541.24 2402.0099999999998C542.89 2402.3999999999996 544.24 2402.2999999999997 545.28 2402.0299999999997C545.16 2402.37 545.04 2402.8599999999997 544.99 2403.12C543.59 2404.8599999999997 541.65 2406.08 539.05 2406.39ZM553.43 2455.49C555.88 2455.12 558.4599999999999 2454.6099999999997 561.06 2453.68L561.9899999999999 2455C559.1599999999999 2456.07 556.3499999999999 2456.61 553.6599999999999 2457.01C552.0499999999998 2457.26 550.4699999999998 2457.3500000000004 548.9499999999998 2457.3C548.9499999999998 2456.9100000000003 548.6499999999999 2456.5600000000004 548.6499999999999 2456.5600000000004C548.7999999999998 2456.3200000000006 548.7999999999998 2455.9900000000002 548.7699999999999 2455.7500000000005C550.2699999999999 2455.8200000000006 551.8299999999998 2455.7300000000005 553.4299999999998 2455.4900000000002ZM607.22 2455.75C607.2 2455.99 607.2 2456.32 607.34 2456.56C607.34 2456.56 607.0500000000001 2456.91 607.0500000000001 2457.2999999999997C605.5200000000001 2457.35 603.95 2457.2599999999998 602.33 2457.0099999999998C599.6600000000001 2456.6099999999997 596.83 2456.0699999999997 594 2454.99L594.94 2453.68C597.5300000000001 2454.6099999999997 600.12 2455.12 602.5600000000001 2455.49C604.1700000000001 2455.7299999999996 605.73 2455.8199999999997 607.22 2455.75ZM584.23 2394.1C584.23 2394.1 585.87 2396.27 586.3100000000001 2398.31C586.74 2400.35 584.57 2401.57 583.5600000000001 2403.41C583.3000000000001 2402.67 582.46 2400.67 581.49 2399.98C581.49 2399.98 580.26 2396.34 584.23 2394.1ZM569.69 2398.31C570.12 2396.27 571.7600000000001 2394.1 571.7600000000001 2394.1C575.7400000000001 2396.3399999999997 574.5000000000001 2399.98 574.5000000000001 2399.98C573.5400000000001 2400.67 572.7000000000002 2402.67 572.4300000000001 2403.41C571.4200000000001 2401.5699999999997 569.2600000000001 2400.35 569.69 2398.31ZM576.69 2419.82C576.84 2421.1800000000003 576.3800000000001 2422.2000000000003 575.7800000000001 2423.4C575.2400000000001 2424.4700000000003 573.84 2426.05 573.84 2426.05C573.64 2424.7400000000002 572.22 2423.3100000000004 572.14 2421.1800000000003C572.0699999999999 2419.4600000000005 574.76 2416.2300000000005 574.76 2416.2300000000005C576.17 2417.5900000000006 576.52 2418.4500000000003 576.6899999999999 2419.8200000000006ZM583.87 2421.18C583.79 2423.31 582.35 2424.74 582.17 2426.0499999999997C582.17 2426.0499999999997 580.75 2424.47 580.2199999999999 2423.3999999999996C579.6199999999999 2422.2 579.16 2421.18 579.3299999999999 2419.8199999999997C579.4799999999999 2418.45 579.8299999999999 2417.5899999999997 581.2499999999999 2416.2299999999996C581.2499999999999 2416.2299999999996 583.9299999999998 2419.4599999999996 583.8699999999999 2421.1799999999994ZM579.67 2381.22C579.9699999999999 2379.9599999999996 581.62 2376.7599999999998 581.62 2376.7599999999998C582.35 2379.08 583.23 2381.3399999999997 583.45 2382.06C583.6700000000001 2382.75 583.87 2384.43 583.75 2385.14C583.62 2385.8399999999997 582.61 2387.19 582.61 2387.19C581.72 2385.61 580.77 2384.79 580.21 2384.04C579.6500000000001 2383.29 579.38 2382.46 579.6700000000001 2381.22ZM572.55 2382.06C572.76 2381.34 573.64 2379.08 574.37 2376.7599999999998C574.37 2376.7599999999998 576.03 2379.9599999999996 576.33 2381.22C576.62 2382.4599999999996 576.35 2383.29 575.7800000000001 2384.04C575.2300000000001 2384.79 574.2800000000001 2385.61 573.3900000000001 2387.19C573.3900000000001 2387.19 572.3700000000001 2385.84 572.2500000000001 2385.14C572.1400000000001 2384.43 572.3300000000002 2382.75 572.5500000000001 2382.06ZM603.62 2417.11C603.09 2416.51 602.14 2415.54 601.67 2413.94C601.3 2412.64 601.49 2411.04 601.5999999999999 2410.03C601.6899999999999 2409.27 601.81 2408.84 602.1399999999999 2407.94C602.3799999999999 2408.06 602.6299999999999 2408.16 602.8999999999999 2408.25L603.2199999999999 2408.35L603.5199999999999 2408.2C603.5599999999998 2408.18 603.9499999999998 2407.95 604.3599999999999 2407.3999999999996C604.7799999999999 2407.8699999999994 605.2499999999999 2408.6899999999996 605.55 2409.5799999999995C606.0799999999999 2411.2199999999993 605.93 2412.8299999999995 605.49 2414.1999999999994C605.08 2415.5199999999995 603.62 2417.109999999999 603.62 2417.109999999999ZM553.86 2407.94C554.19 2408.84 554.32 2409.27 554.4 2410.03C554.5 2411.0400000000004 554.6999999999999 2412.6400000000003 554.3199999999999 2413.94C553.8599999999999 2415.54 552.9 2416.51 552.3799999999999 2417.11C552.3799999999999 2417.11 550.9199999999998 2415.52 550.5099999999999 2414.2000000000003C550.0699999999998 2412.8300000000004 549.9199999999998 2411.2200000000003 550.4599999999999 2409.5800000000004C550.7499999999999 2408.6900000000005 551.2099999999999 2407.8700000000003 551.6299999999999 2407.4000000000005C552.0499999999998 2407.9500000000007 552.4399999999998 2408.1800000000007 552.4799999999999 2408.2000000000007L552.7799999999999 2408.350000000001L553.0899999999998 2408.250000000001C553.3699999999998 2408.1600000000008 553.6299999999998 2408.060000000001 553.8599999999998 2407.940000000001ZM584.56 2385.7C584.8399999999999 2386.97 585.1199999999999 2388.46 585.8299999999999 2390.0699999999997C586.4399999999999 2391.4399999999996 587.8499999999999 2393.3799999999997 587.8499999999999 2393.3799999999997C587.3499999999999 2394.5499999999997 586.4399999999999 2395.8399999999997 586.4399999999999 2395.8399999999997C585.9699999999999 2394.95 584.9499999999999 2392.97 584.28 2391.2C583.76 2389.7999999999997 583.6 2389.0299999999997 583.67 2388.08C583.74 2387.11 584.26 2386.11 584.56 2385.7ZM568.15 2393.38C568.15 2393.38 569.56 2391.44 570.17 2390.07C570.87 2388.46 571.16 2386.9700000000003 571.4399999999999 2385.7000000000003C571.7399999999999 2386.11 572.2499999999999 2387.11 572.3299999999999 2388.0800000000004C572.4 2389.03 572.2399999999999 2389.8 571.7099999999999 2391.2000000000003C571.06 2392.9700000000003 570.03 2394.9500000000003 569.56 2395.84C569.56 2395.84 568.65 2394.55 568.15 2393.38ZM548.53 2362.07C548.64 2361.27 548.74 2359.9700000000003 548.25 2358.9700000000003C547.84 2358.13 546.97 2356.63 547.08 2355.15C547.8100000000001 2354.7000000000003 549.0600000000001 2354.28 549.0600000000001 2354.28C548.95 2355.57 549.3000000000001 2356.73 549.9200000000001 2357.9700000000003C550.58 2359.2400000000002 550.9000000000001 2361.36 550.3600000000001 2362.82C549.9100000000001 2364 549.5600000000002 2365.69 549.5300000000001 2366.21C548.6200000000001 2364.86 548.34 2363.42 548.5300000000001 2362.07ZM606.07 2357.97C606.7 2356.73 607.0500000000001 2355.5699999999997 606.94 2354.2799999999997C606.94 2354.2799999999997 608.19 2354.7 608.9100000000001 2355.1499999999996C609.0300000000001 2356.6299999999997 608.1700000000001 2358.1299999999997 607.7600000000001 2358.97C607.2600000000001 2359.97 607.3600000000001 2361.27 607.4700000000001 2362.0699999999997C607.6600000000002 2363.4199999999996 607.3700000000001 2364.8599999999997 606.4700000000001 2366.2099999999996C606.4400000000002 2365.6899999999996 606.0900000000001 2363.9999999999995 605.6500000000001 2362.8199999999997C605.1100000000001 2361.3599999999997 605.4200000000001 2359.24 606.07 2357.97ZM582.83 2407.22C582.4300000000001 2409.2799999999997 580.1600000000001 2411.0699999999997 580.1600000000001 2411.0699999999997C579.8600000000001 2410.1299999999997 578.6200000000001 2408.3999999999996 578.59 2405.58C578.57 2404.5099999999998 580.49 2402.7799999999997 581.02 2401.4C582.8 2402.98 583.04 2406.15 582.8299999999999 2407.2200000000003ZM575.84 2411.07C575.84 2411.07 573.57 2409.28 573.1700000000001 2407.2200000000003C572.96 2406.15 573.2 2402.9800000000005 574.98 2401.4C575.51 2402.78 577.4200000000001 2404.51 577.41 2405.58C577.38 2408.4 576.14 2410.13 575.8399999999999 2411.0699999999997ZM594.76 2433.76C593.64 2433.32 593.08 2432.15 591.89 2430.9700000000003C593.24 2431.46 596.26 2431.94 597.54 2432.3100000000004C598.8199999999999 2432.6900000000005 599.74 2433.3400000000006 600.9599999999999 2434.6700000000005C600.9599999999999 2434.6700000000005 599.0799999999999 2435.1900000000005 598.0999999999999 2435.5000000000005C598.0999999999999 2435.5000000000005 596.5099999999999 2434.4200000000005 594.7599999999999 2433.7600000000007ZM557.91 2435.5C556.91 2435.19 555.04 2434.67 555.04 2434.67C556.25 2433.34 557.18 2432.69 558.4499999999999 2432.31C559.7199999999999 2431.94 562.7599999999999 2431.46 564.1099999999999 2430.97C562.9099999999999 2432.1499999999996 562.3599999999999 2433.3199999999997 561.2199999999999 2433.7599999999998C559.4899999999999 2434.4199999999996 557.91 2435.4999999999995 557.91 2435.4999999999995ZM570.61 2411.51C571.07 2410.6400000000003 572.07 2409.71 572.51 2408.8100000000004C572.98 2409.7500000000005 574.38 2411.2900000000004 574.6 2412.51C574.77 2413.46 574.62 2414.2400000000002 574.36 2414.9100000000003C574.09 2415.55 573.26 2416.8500000000004 572.7 2417.82C572.7 2417.82 570.7700000000001 2416.01 570.35 2414.7200000000003C570.03 2413.7500000000005 570.15 2412.3700000000003 570.61 2411.51ZM583.3 2417.82C582.75 2416.8500000000004 581.9 2415.55 581.63 2414.9100000000003C581.39 2414.2400000000002 581.22 2413.4600000000005 581.4 2412.51C581.62 2411.2900000000004 583.02 2409.75 583.48 2408.8100000000004C583.9200000000001 2409.7100000000005 584.9200000000001 2410.6400000000003 585.38 2411.51C585.84 2412.3700000000003 585.97 2413.75 585.64 2414.7200000000003C585.22 2416.01 583.3 2417.82 583.3 2417.82ZM553.48 2356.89C553.83 2356.19 554.95 2354.5699999999997 555.23 2353.89C555.49 2353.2799999999997 555.63 2352.77 555.54 2352.43C556.27 2353.1699999999996 556.91 2353.95 556.89 2354.64C556.88 2355.3399999999997 556.06 2357.12 555.63 2357.79C555.2 2358.47 554.56 2359.35 554.64 2360.43C554.67 2360.96 555.05 2361.5099999999998 555.49 2361.96C555.49 2361.96 553.07 2361.39 552.77 2359.89C552.51 2358.56 553.09 2357.6299999999997 553.48 2356.89ZM601.35 2360.43C601.4300000000001 2359.35 600.8100000000001 2358.47 600.37 2357.79C599.94 2357.12 599.12 2355.34 599.11 2354.64C599.1 2353.95 599.72 2353.17 600.46 2352.43C600.37 2352.77 600.51 2353.2799999999997 600.77 2353.89C601.05 2354.5699999999997 602.17 2356.19 602.53 2356.89C602.92 2357.6299999999997 603.49 2358.56 603.22 2359.89C602.9300000000001 2361.39 600.51 2361.96 600.51 2361.96C600.9399999999999 2361.51 601.3199999999999 2360.96 601.35 2360.43ZM614.87 2406.62C617.46 2408.3599999999997 616.41 2410.54 616.41 2410.54C612.5 2411.07 610.63 2407.87 610.11 2407.2599999999998C610.17 2407.18 610.88 2406.2499999999995 611.0500000000001 2404.7799999999997C612.2600000000001 2405.2099999999996 613.1 2405.4399999999996 614.8700000000001 2406.62ZM592.81 2440.24C592.4 2440.45 590.56 2441.2 589.3499999999999 2438.72C589.3499999999999 2438.72 591.3999999999999 2439.3999999999996 591.9599999999999 2438.41C592.5199999999999 2437.42 591.6199999999999 2435.99 591.06 2435.5699999999997C590.3199999999999 2435.0199999999995 589.01 2434.66 588.1999999999999 2434.7899999999995C588.1999999999999 2434.7899999999995 588.8399999999999 2434.1799999999994 589.5999999999999 2433.7899999999995C589.7799999999999 2433.8799999999997 590.0999999999999 2434.0299999999993 590.8 2434.0499999999997C590.8 2434.0499999999997 593.4599999999999 2435.89 593.77 2437.7299999999996C594.05 2439.2999999999997 593.21 2440.0499999999997 592.81 2440.24ZM545.88 2407.26C545.36 2407.8700000000003 543.49 2411.07 539.6 2410.5400000000004C539.6 2410.5400000000004 538.5400000000001 2408.3600000000006 541.14 2406.6200000000003C542.89 2405.4400000000005 543.73 2405.2100000000005 544.9399999999999 2404.78C545.13 2406.25 545.8299999999999 2407.1800000000003 545.88 2407.26ZM563.18 2440.24C562.78 2440.0499999999997 561.9599999999999 2439.2999999999997 562.2199999999999 2437.7299999999996C562.5299999999999 2435.8899999999994 565.18 2434.0499999999997 565.18 2434.0499999999997C565.89 2434.0299999999997 566.1999999999999 2433.8799999999997 566.38 2433.7899999999995C567.15 2434.1799999999994 567.78 2434.7899999999995 567.78 2434.7899999999995C566.99 2434.6599999999994 565.67 2435.0199999999995 564.9399999999999 2435.5699999999997C564.38 2435.99 563.4699999999999 2437.4199999999996 564.03 2438.41C564.5899999999999 2439.3999999999996 566.65 2438.72 566.65 2438.72C565.4399999999999 2441.2 563.5799999999999 2440.45 563.18 2440.24ZM566.76 2389.01C565.86 2389.57 563.71 2389.71 562.9 2387.69C562.9 2387.69 566.81 2387.9900000000002 568.5799999999999 2383.04C568.8 2383.86 568.8799999999999 2385.11 568.5799999999999 2386.29C568.3599999999999 2387.19 567.81 2388.35 566.7599999999999 2389.0099999999998ZM587.42 2383.04C589.1899999999999 2387.99 593.0999999999999 2387.69 593.0999999999999 2387.69C592.2799999999999 2389.71 590.1499999999999 2389.57 589.2399999999999 2389.01C588.1899999999999 2388.3500000000004 587.6399999999999 2387.19 587.4199999999998 2386.2900000000004C587.1299999999999 2385.1100000000006 587.1899999999998 2383.8600000000006 587.4199999999998 2383.0400000000004ZM577.99 2404.25C577.72 2403.04 575.2 2400.71 575.4300000000001 2399.44C575.7800000000001 2397.54 577.0200000000001 2397.94 578.0000000000001 2397.14L578.0200000000001 2397.14C578.9900000000001 2397.94 580.2100000000002 2397.54 580.5600000000001 2399.44C580.8000000000001 2400.71 578.2700000000001 2403.04 578.0000000000001 2404.25ZM565.22 2396.41C565.9200000000001 2396.0699999999997 566.82 2395.02 567.46 2394.23C567.99 2395.3 568.96 2396.87 568.96 2396.87C568.9000000000001 2397.5 568.9200000000001 2398.6 568.73 2399.94C568.52 2401.27 566.78 2403.54 566.78 2403.54C566.3399999999999 2402.34 565.3199999999999 2400.71 565.11 2399.11C564.98 2398.03 565.22 2396.4100000000003 565.22 2396.4100000000003ZM588.55 2394.23C589.18 2395.02 590.0799999999999 2396.07 590.78 2396.41C590.78 2396.41 591.01 2398.0299999999997 590.89 2399.1099999999997C590.68 2400.7099999999996 589.65 2402.3399999999997 589.22 2403.5399999999995C589.22 2403.5399999999995 587.48 2401.2699999999995 587.27 2399.9399999999996C587.06 2398.5999999999995 587.11 2397.4999999999995 587.04 2396.8699999999994C587.04 2396.8699999999994 588 2395.2999999999993 588.55 2394.2299999999996ZM596.47 2438.03C595.6700000000001 2438.2000000000003 595.1700000000001 2438.59 594.71 2439.92C594.4200000000001 2439.59 594.0600000000001 2439.2200000000003 594.33 2438.4700000000003C594.5300000000001 2437.9100000000003 595.64 2437.3100000000004 596.3000000000001 2437.0000000000005C597.3900000000001 2436.4800000000005 600.4100000000001 2435.6700000000005 601.4000000000001 2435.3800000000006C601.4000000000001 2435.3800000000006 601.8900000000001 2435.9400000000005 602.1500000000001 2436.5600000000004C602.2600000000001 2436.7900000000004 602.1000000000001 2437.0400000000004 601.69 2437.1100000000006C600.84 2437.2600000000007 598.82 2436.8800000000006 598.32 2437.1900000000005C597.7900000000001 2437.5400000000004 597.98 2438.0000000000005 597.98 2438.4700000000007C597.98 2438.4700000000007 597.0600000000001 2437.9000000000005 596.47 2438.0300000000007ZM553.85 2436.56C554.11 2435.94 554.6 2435.38 554.6 2435.38C555.59 2435.67 558.61 2436.48 559.7 2437C560.36 2437.31 561.46 2437.91 561.6500000000001 2438.47C561.94 2439.22 561.57 2439.5899999999997 561.2800000000001 2439.9199999999996C560.82 2438.5899999999997 560.33 2438.2 559.5200000000001 2438.0299999999997C558.94 2437.8999999999996 558.0100000000001 2438.47 558.0100000000001 2438.47C558.0100000000001 2438 558.2000000000002 2437.54 557.6800000000001 2437.1899999999996C557.1800000000001 2436.8799999999997 555.1600000000001 2437.2599999999998 554.3100000000001 2437.1099999999997C553.8900000000001 2437.0399999999995 553.74 2436.7899999999995 553.85 2436.5599999999995ZM578.01 2374.28C578.45 2374.48 580.24 2375.42 580.36 2376.76C580.48 2378.1000000000004 578.1 2380.57 578.02 2381.6000000000004L577.97 2381.6000000000004C577.9 2380.57 575.51 2378.1000000000004 575.64 2376.76C575.77 2375.42 577.55 2374.48 577.99 2374.28ZM576.34 2395.14C575.84 2394.37 575.38 2392.97 575.64 2391.97C575.98 2390.73 576.63 2390.24 577.05 2389.47C577.38 2389.77 577.5899999999999 2390.0099999999998 578 2390.24L578.02 2390.24C578.42 2390.0099999999998 578.62 2389.77 578.9499999999999 2389.47C579.3599999999999 2390.24 580.03 2390.73 580.3599999999999 2391.97C580.6199999999999 2392.97 580.1499999999999 2394.37 579.6599999999999 2395.14C579.0199999999999 2396.1 578.5499999999998 2396.2999999999997 577.9999999999999 2396.5699999999997C577.4499999999999 2396.2999999999997 576.9699999999999 2396.1 576.3399999999999 2395.14ZM563.08 2371.8C563.08 2371.8 558.9200000000001 2371.76 557.87 2375.3500000000004C557.87 2375.3500000000004 556.42 2373.1500000000005 557.48 2371.7200000000003C558.61 2370.17 559.65 2369.9800000000005 561.13 2369.6400000000003C561.13 2369.6400000000003 562.25 2371.1400000000003 563.08 2371.8ZM598.13 2375.35C597.08 2371.7599999999998 592.93 2371.7999999999997 592.93 2371.7999999999997C593.75 2371.14 594.87 2369.64 594.87 2369.64C596.35 2369.98 597.39 2370.17 598.52 2371.72C599.5799999999999 2373.1499999999996 598.13 2375.35 598.13 2375.35ZM571.2 2374.36C571.2 2374.36 571.26 2375.02 570.6800000000001 2376.03C570.6800000000001 2376.03 569.9200000000001 2374.26 568.5500000000001 2372.84C567.7800000000001 2372.05 567.2900000000001 2371.6400000000003 565.69 2370.53C565.69 2370.53 567.0400000000001 2370.9300000000003 567.49 2371.0400000000004C567.49 2371.0400000000004 567.5 2370.2700000000004 567.48 2369.8900000000003C567.88 2369.9900000000002 568.38 2370.13 568.8100000000001 2370.1700000000005C568.8100000000001 2370.1700000000005 570.1500000000001 2373.1500000000005 571.2 2374.3600000000006ZM582.55 2356.7C581.7299999999999 2356.27 581.3 2356.18 580.5699999999999 2356.04C580.8299999999999 2354.16 581.52 2349.62 582.2499999999999 2349.05C582.6199999999999 2348.77 583.1299999999999 2348.8 583.6899999999999 2348.9700000000003C584.2499999999999 2349.15 584.8499999999999 2349.53 584.8699999999999 2350.0200000000004C584.9099999999999 2350.8500000000004 583.9699999999999 2353.3400000000006 582.5499999999998 2356.7000000000003ZM575.42 2356.04C574.7099999999999 2356.18 574.28 2356.27 573.4399999999999 2356.7C572.04 2353.3399999999997 571.0899999999999 2350.85 571.1199999999999 2350.02C571.1499999999999 2349.53 571.7499999999999 2349.15 572.3199999999999 2348.97C572.8699999999999 2348.7999999999997 573.3699999999999 2348.77 573.7499999999999 2349.0499999999997C574.4899999999999 2349.62 575.1699999999998 2354.16 575.4199999999998 2356.0399999999995ZM587.19 2370.17C587.6300000000001 2370.13 588.1300000000001 2369.9900000000002 588.5300000000001 2369.89C588.4900000000001 2370.27 588.5100000000001 2371.04 588.5100000000001 2371.04C588.9600000000002 2370.93 590.3000000000001 2370.5299999999997 590.3000000000001 2370.5299999999997C588.7 2371.64 588.21 2372.0499999999997 587.44 2372.8399999999997C586.08 2374.2599999999998 585.32 2376.0299999999997 585.32 2376.0299999999997C584.74 2375.0199999999995 584.8000000000001 2374.3599999999997 584.8000000000001 2374.3599999999997C585.84 2373.1499999999996 587.19 2370.1699999999996 587.19 2370.1699999999996ZM561.7 2430.75C562.0500000000001 2430.22 563.62 2428.61 564.38 2427.99C565.12 2427.3999999999996 567.63 2425.7999999999997 567.63 2425.7999999999997C567.51 2427.0399999999995 568.07 2427.83 568.36 2428.2699999999995C567.76 2428.6099999999997 566.66 2429.3199999999997 565.0600000000001 2429.8399999999997C563.6 2430.3299999999995 561.7 2430.7499999999995 561.7 2430.7499999999995ZM594.29 2430.75C594.29 2430.75 592.39 2430.33 590.93 2429.84C589.3399999999999 2429.32 588.2399999999999 2428.61 587.64 2428.27C587.92 2427.83 588.49 2427.04 588.36 2425.8C588.36 2425.8 590.86 2427.4 591.62 2427.9900000000002C592.37 2428.61 593.94 2430.2200000000003 594.29 2430.7500000000005ZM588.93 2408.54C589.31 2409.35 589.87 2410.49 590.1999999999999 2411.37C590.5099999999999 2412.24 590.4399999999999 2413.63 590.16 2414.46C589.91 2415.3 588.35 2417.32 588.35 2417.32C588.15 2416.6200000000003 587.58 2415.9500000000003 587.08 2414.81C586.5400000000001 2413.5 586.64 2412.79 586.97 2411.67C587.24 2410.71 588.4300000000001 2409.64 588.9300000000001 2408.54ZM569.69 2369.26C571.86 2370.09 573.0400000000001 2372.07 573.48 2373.3900000000003C574.03 2375.09 572.94 2377.5000000000005 572.94 2377.5000000000005C573.0100000000001 2376.8700000000003 572.5400000000001 2375.0000000000005 571.8100000000001 2373.8400000000006C571.0000000000001 2372.5800000000004 570.1700000000001 2370.9700000000007 569.69 2369.2600000000007ZM567.65 2417.32C567.65 2417.32 566.09 2415.3 565.8299999999999 2414.46C565.5699999999999 2413.63 565.4799999999999 2412.2400000000002 565.81 2411.37C566.1199999999999 2410.49 566.6899999999999 2409.35 567.0799999999999 2408.54C567.5699999999999 2409.64 568.7599999999999 2410.71 569.04 2411.67C569.3499999999999 2412.79 569.4599999999999 2413.5 568.91 2414.81C568.43 2415.95 567.85 2416.62 567.65 2417.32ZM582.53 2373.39C582.9599999999999 2372.0699999999997 584.13 2370.0899999999997 586.31 2369.2599999999998C585.8199999999999 2370.97 585 2372.58 584.1899999999999 2373.8399999999997C583.4499999999999 2374.9999999999995 582.9899999999999 2376.87 583.0699999999999 2377.4999999999995C583.0699999999999 2377.4999999999995 581.9699999999999 2375.0899999999997 582.53 2373.3899999999994ZM580.78 2386.97C581.14 2387.37 583.0699999999999 2389.68 583.3299999999999 2390.3599999999997C583.5899999999999 2391.0299999999997 584.04 2392.3099999999995 583.4399999999999 2393.2C582.8399999999999 2394.0899999999997 581.4599999999999 2395.5 580.26 2396.1C580.26 2396.1 581.56 2394.0699999999997 581.43 2392.4C581.3399999999999 2391.33 580.51 2390.39 580.3599999999999 2389.7400000000002C580.2099999999999 2389.09 580.31 2387.9900000000002 580.7799999999999 2386.9700000000003ZM572.67 2390.36C572.93 2389.6800000000003 574.86 2387.3700000000003 575.2199999999999 2386.9700000000003C575.6899999999999 2387.9900000000002 575.8 2389.09 575.6399999999999 2389.7400000000002C575.4799999999999 2390.3900000000003 574.6499999999999 2391.3300000000004 574.5699999999998 2392.4C574.4299999999998 2394.07 575.7399999999998 2396.1 575.7399999999998 2396.1C574.5399999999997 2395.5 573.1599999999997 2394.0899999999997 572.5599999999998 2393.2C571.9599999999998 2392.31 572.4099999999999 2391.0299999999997 572.6699999999998 2390.3599999999997ZM567.83 2375.27C567.83 2375.27 566.7800000000001 2373.81 565.62 2373.15C564.7 2372.63 563.04 2371.1800000000003 562.16 2369.89C562.6 2370.0099999999998 564.74 2370.68 565.77 2371.43C567.0799999999999 2372.3599999999997 567.98 2373.43 567.8299999999999 2375.27ZM590.21 2371.43C591.26 2370.68 593.4100000000001 2370.0099999999998 593.83 2369.89C592.96 2371.18 591.3000000000001 2372.6299999999997 590.38 2373.15C589.22 2373.81 588.16 2375.27 588.16 2375.27C588.03 2373.43 588.92 2372.36 590.2099999999999 2371.43ZM590.69 2464.24L590.72 2469.4799999999996L585.75 2467.5199999999995L587.41 2466.4199999999996C587.24 2466.1599999999994 586.98 2465.7499999999995 586.65 2465.2699999999995L587.89 2463.5599999999995L589.05 2465.3299999999995ZM592.75 2433.08C592.75 2433.08 590.96 2433.54 589.83 2433.0299999999997C589.83 2433.0299999999997 589.4200000000001 2431.33 588.1500000000001 2430.5699999999997C587.8700000000001 2430.3999999999996 586.9800000000001 2430.14 586.1600000000001 2429.72C586.4800000000001 2429.48 586.7400000000001 2429.3199999999997 587.1200000000001 2428.8799999999997C587.1200000000001 2428.8799999999997 588.5700000000002 2429.41 589.7600000000001 2430.2099999999996C590.9500000000002 2431.0099999999998 592.1100000000001 2432.3799999999997 592.7500000000001 2433.0799999999995ZM563.24 2433.08C563.87 2432.38 565.04 2431.0099999999998 566.23 2430.21C567.4300000000001 2429.41 568.87 2428.88 568.87 2428.88C569.24 2429.32 569.52 2429.48 569.83 2429.7200000000003C569.01 2430.1400000000003 568.12 2430.4 567.84 2430.57C566.57 2431.3300000000004 566.1600000000001 2433.03 566.1600000000001 2433.03C565.0300000000001 2433.5400000000004 563.2400000000001 2433.0800000000004 563.2400000000001 2433.0800000000004ZM567.69 2420.52C567.45 2419.53 567.6700000000001 2417.9 569.8100000000001 2415.91C570.24 2416.5299999999997 571.4300000000001 2418.6499999999996 571.1 2419.8999999999996C570.76 2421.16 569.44 2422.93 568.99 2423.6899999999996C568.99 2423.6899999999996 567.9300000000001 2421.5199999999995 567.69 2420.5199999999995ZM586.18 2415.91C588.3199999999999 2417.8999999999996 588.55 2419.5299999999997 588.31 2420.52C588.0699999999999 2421.52 587.01 2423.69 587.01 2423.69C586.5699999999999 2422.93 585.25 2421.16 584.9 2419.9C584.5699999999999 2418.65 585.75 2416.53 586.18 2415.9100000000003ZM585.7 2429.07C583.87 2427.78 583.59 2426.5800000000004 583.8000000000001 2425.5800000000004C583.9200000000001 2425.05 584.8000000000001 2423.3 585.1 2422.3600000000006C585.5600000000001 2423.1500000000005 586.62 2424.3800000000006 587.08 2424.9000000000005C587.5400000000001 2425.4200000000005 587.7900000000001 2426.1400000000003 587.35 2427.1600000000008C586.88 2428.2400000000007 585.7 2429.0700000000006 585.7 2429.0700000000006ZM570.29 2429.07C570.29 2429.07 569.11 2428.2400000000002 568.64 2427.1600000000003C568.21 2426.1400000000003 568.46 2425.4200000000005 568.91 2424.9C569.37 2424.38 570.4499999999999 2423.15 570.9 2422.36C571.1899999999999 2423.3 572.0699999999999 2425.05 572.1899999999999 2425.58C572.4 2426.58 572.1199999999999 2427.7799999999997 570.29 2429.0699999999997ZM579.99 2359.2C580.87 2359.0699999999997 583.09 2359.3199999999997 584.45 2360.29C585.8100000000001 2361.2599999999998 586.25 2362.06 586.72 2362.92C586.72 2362.92 584.28 2363.1 582.11 2361.85C581.08 2361.23 580.2 2359.8399999999997 579.99 2359.2ZM573.89 2361.85C571.71 2363.1 569.28 2362.92 569.28 2362.92C569.75 2362.06 570.1899999999999 2361.26 571.55 2360.29C572.91 2359.32 575.13 2359.07 576 2359.2C575.81 2359.8399999999997 574.92 2361.23 573.89 2361.85ZM572.18 2381.08C571.67 2382.83 570.52 2383.58 569.81 2385.0699999999997C569.81 2385.0699999999997 569.26 2382.3799999999997 569.3699999999999 2380.3199999999997C569.4999999999999 2378.24 570.2599999999999 2377.4399999999996 571.1799999999998 2376.7C571.5999999999998 2377.64 572.6999999999998 2379.33 572.1799999999998 2381.08ZM586.62 2380.32C586.75 2382.38 586.18 2385.07 586.18 2385.07C585.4899999999999 2383.5800000000004 584.3299999999999 2382.8300000000004 583.81 2381.0800000000004C583.31 2379.3300000000004 584.41 2377.6400000000003 584.81 2376.7000000000003C585.75 2377.44 586.5 2378.2400000000002 586.6199999999999 2380.32ZM577.99 2389.14C577.23 2388.49 576.55 2387.5099999999998 576.35 2386.95C576.13 2386.3799999999997 576.07 2385.54 576.58 2384.8999999999996C577.1800000000001 2384.1299999999997 577.9200000000001 2383.2799999999997 577.98 2382.5799999999995L578.02 2382.5799999999995C578.06 2383.2799999999993 578.8199999999999 2384.1299999999997 579.42 2384.8999999999996C579.92 2385.5399999999995 579.86 2386.3799999999997 579.66 2386.95C579.4399999999999 2387.5099999999998 578.77 2388.49 578.02 2389.14ZM579.97 2355.97C579.61 2355.93 579.25 2355.91 578.88 2355.8999999999996C579.1 2354.0899999999997 579.72 2351.0899999999997 580.09 2349.91C580.46 2348.72 580.9200000000001 2347.8599999999997 581.71 2347.6499999999996C581.71 2347.6499999999996 581.1 2349.3099999999995 580.77 2351.0099999999998C580.4399999999999 2352.72 580.1899999999999 2354.35 579.97 2355.97ZM576.03 2355.97C575.81 2354.35 575.56 2352.72 575.23 2351.0099999999998C574.9 2349.31 574.29 2347.6499999999996 574.29 2347.6499999999996C575.0699999999999 2347.8599999999997 575.54 2348.72 575.91 2349.91C576.27 2351.0899999999997 576.9 2354.0899999999997 577.12 2355.8999999999996C576.75 2355.91 576.38 2355.93 576.03 2355.97ZM579.62 2349.11C579.62 2350.25 578.21 2352.86 578.03 2354.08L577.97 2354.08C577.7900000000001 2352.86 576.37 2350.25 576.37 2349.11C576.37 2348.21 577.09 2347.4900000000002 578 2347.4900000000002C578.9 2347.4900000000002 579.62 2348.21 579.62 2349.11ZM574.86 2370.36C575.86 2371.02 576.8100000000001 2372.46 577.1800000000001 2374.1800000000003C577.1800000000001 2374.1800000000003 575.5000000000001 2373.8900000000003 574.6700000000001 2373.0600000000004C573.84 2372.2400000000002 572.8100000000001 2371.0000000000005 572.4200000000001 2369.8200000000006C572.4200000000001 2369.8200000000006 574.09 2369.850000000001 574.8600000000001 2370.3600000000006ZM581.33 2373.06C580.5 2373.89 578.82 2374.18 578.82 2374.18C579.1800000000001 2372.46 580.1400000000001 2371.02 581.1400000000001 2370.3599999999997C581.9100000000001 2369.8499999999995 583.57 2369.8199999999997 583.57 2369.8199999999997C583.19 2370.9999999999995 582.1700000000001 2372.24 581.33 2373.0599999999995ZM564.27 2400.28C564 2401 563.67 2401.42 562.87 2402.02C562.38 2401.27 560.79 2398.52 560.77 2396.53C560.77 2396.53 562.73 2397.57 564.37 2396.8C564.37 2396.8 564.58 2399.4 564.27 2400.28ZM591.63 2396.8C593.27 2397.57 595.23 2396.53 595.23 2396.53C595.22 2398.52 593.62 2401.27 593.12 2402.02C592.33 2401.42 591.99 2401 591.74 2400.28C591.42 2399.4 591.63 2396.8 591.63 2396.8ZM604.92 2354.73C604.0899999999999 2354.52 602.99 2353.66 602.0999999999999 2352.94C601.2099999999999 2352.2200000000003 600.6199999999999 2352.28 600.6199999999999 2352.28C600.9399999999999 2352.03 601.5899999999999 2351.5600000000004 602.6399999999999 2351.77C604.3099999999998 2352.1 606.2799999999999 2354.02 606.2799999999999 2354.02C606.3699999999999 2354.21 606.3699999999999 2354.68 606.3299999999998 2354.86C605.9399999999998 2354.8900000000003 605.7499999999998 2354.96 604.9199999999998 2354.73ZM551.07 2354.73C550.25 2354.96 550.07 2354.89 549.6700000000001 2354.86C549.6200000000001 2354.6800000000003 549.6200000000001 2354.21 549.71 2354.02C549.71 2354.02 551.7 2352.1 553.36 2351.77C554.41 2351.56 555.0500000000001 2352.03 555.37 2352.28C555.37 2352.28 554.79 2352.2200000000003 553.9 2352.94C553 2353.66 551.9 2354.52 551.0699999999999 2354.73ZM542.64 2454.96C543.36 2455.08 543.1999999999999 2455.66 542.8199999999999 2456.07C542.4499999999999 2456.4700000000003 540.1299999999999 2457.7200000000003 539.7199999999999 2457.8700000000003C539.31 2458.0200000000004 538.5699999999999 2458.3 538.2599999999999 2457.82C537.7599999999999 2457.03 537.3999999999999 2456.48 537.5099999999999 2455.96C537.6299999999999 2455.41 538.7599999999999 2455.2200000000003 539.7499999999999 2455.05C540.6599999999999 2454.9300000000003 542.1699999999998 2454.88 542.6399999999999 2454.96ZM616.24 2455.05C617.23 2455.2200000000003 618.36 2455.4100000000003 618.48 2455.96C618.59 2456.48 618.24 2457.03 617.74 2457.82C617.41 2458.3 616.6800000000001 2458.02 616.28 2457.8700000000003C615.87 2457.7200000000003 613.54 2456.4700000000003 613.16 2456.07C612.8 2455.6600000000003 612.64 2455.0800000000004 613.35 2454.96C613.83 2454.88 615.34 2454.93 616.24 2455.05ZM612.47 2456.34C613.1 2456.57 615.39 2457.92 615.5500000000001 2458.56C615.7 2459.19 615.3800000000001 2459.5 615.0300000000001 2459.64C614.6800000000001 2459.7799999999997 614.2400000000001 2459.91 613.9200000000001 2459.95C613.3600000000001 2459.99 612.8000000000001 2459.66 612.5000000000001 2459.31C612.2100000000002 2458.94 611.1500000000001 2457.65 610.9800000000001 2457.35C610.8300000000002 2457.0699999999997 610.7600000000001 2456.64 610.9800000000001 2456.49C611.2300000000001 2456.33 611.8400000000001 2456.0899999999997 612.4700000000001 2456.3399999999997ZM545 2456.49C545.24 2456.64 545.16 2457.0699999999997 545 2457.35C544.86 2457.65 543.79 2458.94 543.49 2459.31C543.2 2459.66 542.64 2459.99 542.07 2459.95C541.75 2459.91 541.32 2459.7799999999997 540.97 2459.64C540.61 2459.5 540.2900000000001 2459.19 540.45 2458.56C540.6 2457.92 542.8900000000001 2456.57 543.5200000000001 2456.34C544.1500000000001 2456.09 544.7600000000001 2456.33 545.0000000000001 2456.4900000000002ZM561.9 2436.21C561.64 2436.68 561.14 2436.87 561.14 2436.87C559.99 2436.15 558.81 2435.79 558.59 2435.72C559.61 2435.06 560.48 2434.62 561.1700000000001 2434.35C561.8700000000001 2434.06 562.85 2433.81 562.85 2433.81C563.32 2433.96 564.13 2434.0299999999997 564.13 2434.0299999999997C563.17 2434.24 562.14 2435.7599999999998 561.9 2436.2099999999996ZM594.86 2436.87C594.86 2436.87 594.35 2436.68 594.1 2436.21C593.86 2435.76 592.82 2434.2400000000002 591.87 2434.03C591.87 2434.03 592.68 2433.96 593.14 2433.8100000000004C593.14 2433.8100000000004 594.12 2434.0600000000004 594.83 2434.3500000000004C595.5200000000001 2434.6200000000003 596.39 2435.0600000000004 597.4100000000001 2435.7200000000003C597.1800000000001 2435.7900000000004 596.0100000000001 2436.15 594.8600000000001 2436.8700000000003ZM561.53 2354.19L560.17 2354.19L560.17 2353.26L561.53 2353.26L561.53 2351.7700000000004L562.61 2351.7700000000004L562.61 2353.26L563.95 2353.26L563.95 2354.19L562.61 2354.19L562.61 2355.93L561.53 2355.93ZM577.45 2345.41L576.11 2345.41L576.11 2344.48L577.45 2344.48L577.45 2343L578.5400000000001 2343L578.5400000000001 2344.48L579.8900000000001 2344.48L579.8900000000001 2345.41L578.5400000000001 2345.41L578.5400000000001 2347.16L577.45 2347.16ZM593.39 2354.19L592.05 2354.19L592.05 2353.26L593.39 2353.26L593.39 2351.7700000000004L594.47 2351.7700000000004L594.47 2353.26L595.82 2353.26L595.82 2354.19L594.47 2354.19L594.47 2355.93L593.39 2355.93ZM573.75 2357.59C573.75 2357.08 575.65 2356.6800000000003 578 2356.6800000000003C580.35 2356.6800000000003 582.25 2357.0800000000004 582.25 2357.59C582.25 2358.08 580.35 2358.4900000000002 578 2358.4900000000002C575.65 2358.4900000000002 573.75 2358.0800000000004 573.75 2357.59ZM591.84 2361.47C591.61 2361.14 589.89 2358.5699999999997 589.73 2358.0299999999997C589.57 2357.5199999999995 589.98 2357.12 590.36 2357.0899999999997C590.75 2357.0699999999997 591.53 2357.12 592.0600000000001 2357.6099999999997C592.61 2358.1299999999997 592.96 2360.45 593.1600000000001 2361.3499999999995C592.1600000000001 2361.4299999999994 592.2400000000001 2361.3999999999996 591.84 2361.4699999999993ZM562.84 2361.35C563.0400000000001 2360.45 563.39 2358.13 563.94 2357.61C564.46 2357.1200000000003 565.25 2357.07 565.6300000000001 2357.09C566.0200000000001 2357.1200000000003 566.4300000000001 2357.52 566.2700000000001 2358.03C566.1000000000001 2358.57 564.3800000000001 2361.1400000000003 564.1500000000001 2361.4700000000003C563.7600000000001 2361.4 563.8400000000001 2361.4300000000003 562.8400000000001 2361.3500000000004ZM578.02 2451.79C578.9399999999999 2451.79 579.81 2451.43 580.3 2451.22C579.81 2452.2599999999998 578.88 2453.85 578 2454.5099999999998L577.99 2454.5099999999998C577.1 2453.85 576.1800000000001 2452.2599999999998 575.69 2451.22C576.1800000000001 2451.43 577.0500000000001 2451.79 577.97 2451.79ZM560 2361.47C559.78 2361.14 558.05 2358.5699999999997 557.9 2358.0299999999997C557.74 2357.5199999999995 558.14 2357.12 558.54 2357.0899999999997C558.92 2357.0699999999997 559.6999999999999 2357.12 560.2199999999999 2357.6099999999997C560.7799999999999 2358.1299999999997 561.1299999999999 2360.45 561.3199999999999 2361.3499999999995C560.3299999999999 2361.4299999999994 560.41 2361.3999999999996 559.9999999999999 2361.4699999999993ZM594.69 2361.35C594.87 2360.45 595.22 2358.13 595.7800000000001 2357.61C596.3000000000001 2357.1200000000003 597.08 2357.07 597.4700000000001 2357.09C597.8600000000001 2357.1200000000003 598.2700000000001 2357.52 598.1000000000001 2358.03C597.9400000000002 2358.57 596.2200000000001 2361.1400000000003 595.9900000000001 2361.4700000000003C595.5900000000001 2361.4 595.6700000000001 2361.4300000000003 594.6900000000002 2361.3500000000004ZM608.08 2456.98C608.69 2456.55 609.6600000000001 2456.75 610.71 2457.91C611.0400000000001 2458.2799999999997 611.97 2459.3999999999996 612.08 2459.5899999999997C612.19 2459.7699999999995 612.0200000000001 2460.0599999999995 611.73 2460.0199999999995C611.44 2459.9899999999993 609.87 2459.8299999999995 608.96 2459.2199999999993C608.0500000000001 2458.5999999999995 607.45 2457.399999999999 608.08 2456.9799999999996ZM545.29 2457.91C546.3299999999999 2456.75 547.3 2456.5499999999997 547.92 2456.98C548.55 2457.4 547.9399999999999 2458.6 547.04 2459.22C546.13 2459.83 544.55 2459.99 544.27 2460.02C543.97 2460.06 543.81 2459.77 543.92 2459.59C544.03 2459.4 544.9499999999999 2458.28 545.29 2457.9100000000003ZM595.2 2357.2C595.2 2357.8399999999997 594.2 2359.3799999999997 593.9300000000001 2360.06L593.9000000000001 2360.06C593.6400000000001 2359.38 592.6400000000001 2357.84 592.6400000000001 2357.2C592.6400000000001 2356.5699999999997 593.4100000000001 2356.3799999999997 593.8100000000001 2356.3799999999997L594.0300000000001 2356.3799999999997C594.4200000000001 2356.3799999999997 595.2 2356.5699999999997 595.2 2357.2ZM563.35 2357.2C563.35 2357.8399999999997 562.36 2359.3799999999997 562.09 2360.06L562.0600000000001 2360.06C561.8000000000001 2359.38 560.8000000000001 2357.84 560.8000000000001 2357.2C560.8000000000001 2356.5699999999997 561.58 2356.3799999999997 561.97 2356.3799999999997L562.19 2356.3799999999997C562.58 2356.3799999999997 563.35 2356.5699999999997 563.35 2357.2ZM563.33 2402.58C563.64 2402.2999999999997 564.4200000000001 2401.58 564.75 2401.2C564.75 2401.2 566.05 2403.5699999999997 566.27 2404.27C566.27 2404.27 565.62 2404.44 564.9 2403.92C564.1899999999999 2403.4 564.03 2403.26 563.3299999999999 2402.58ZM592.67 2402.58C591.9599999999999 2403.2599999999998 591.81 2403.4 591.0899999999999 2403.92C590.3799999999999 2404.44 589.7299999999999 2404.27 589.7299999999999 2404.27C589.9499999999999 2403.57 591.2599999999999 2401.2 591.2599999999999 2401.2C591.5699999999998 2401.58 592.3499999999999 2402.2999999999997 592.6699999999998 2402.58ZM590.21 2365.41C590.21 2365.41 593.72 2365.43 593.86 2367.16C594.42 2366.79 594.75 2366.19 594.89 2365.3999999999996C594.89 2365.3999999999996 592.36 2365.5099999999998 590.21 2365.2299999999996ZM544.05 2454.5C544.3 2454.11 545.5 2454.4 545.8 2454.48C547.76 2454.9900000000002 548.2299999999999 2455.79 547.9 2456.28C547.54 2456.75 545.8 2456.3900000000003 544.88 2455.96C543.95 2455.52 543.72 2454.9900000000002 544.05 2454.5ZM610.2 2454.48C610.5 2454.4 611.69 2454.11 611.95 2454.5C612.26 2454.99 612.0400000000001 2455.52 611.11 2455.96C610.2 2456.39 608.45 2456.75 608.1 2456.28C607.76 2455.7900000000004 608.24 2454.9900000000002 610.2 2454.48ZM565.77 2365.23C563.64 2365.51 561.12 2365.4 561.12 2365.4C561.24 2366.19 561.58 2366.79 562.14 2367.1600000000003C562.28 2365.4300000000003 565.77 2365.4100000000003 565.77 2365.4100000000003ZM608.27 2361.96C608.17 2361.23 608.15 2360.62 608.23 2360.11C609.2 2360.48 609.85 2360.7200000000003 611.19 2362.86C611.19 2362.86 609.0600000000001 2361.55 608.33 2362.82C608.32 2362.52 608.3000000000001 2362.2400000000002 608.2700000000001 2361.96ZM547.68 2362.82C546.9399999999999 2361.55 544.81 2362.86 544.81 2362.86C546.15 2360.7200000000003 546.8 2360.48 547.77 2360.11C547.84 2360.6200000000003 547.84 2361.23 547.73 2361.96C547.69 2362.2400000000002 547.6800000000001 2362.52 547.6800000000001 2362.82ZM556.95 2364.75C556.5500000000001 2363.75 556.46 2363.05 558.0500000000001 2363.54C558.1600000000001 2364.81 558.48 2366.07 558.9300000000001 2366.96C558.9300000000001 2366.96 557.34 2365.76 556.95 2364.75ZM597.07 2366.96C597.5100000000001 2366.07 597.84 2364.81 597.94 2363.54C599.5400000000001 2363.05 599.44 2363.75 599.0500000000001 2364.75C598.6600000000001 2365.76 597.07 2366.96 597.07 2366.96ZM574.71 2359.96C572.19 2360.32 571.5500000000001 2362 571.5500000000001 2362C573.11 2361.63 574.71 2359.96 574.71 2359.96ZM581.3 2359.96C581.3 2359.96 582.89 2361.63 584.4499999999999 2362C584.4499999999999 2362 583.81 2360.32 581.3 2359.96ZM593.93 2362.96C592.42 2362.96 591.1899999999999 2362.7400000000002 591.1899999999999 2362.4700000000003C591.1899999999999 2362.19 592.42 2361.9700000000003 593.93 2361.9700000000003C595.4499999999999 2361.9700000000003 596.67 2362.19 596.67 2362.4700000000003C596.67 2362.7400000000002 595.4499999999999 2362.96 593.93 2362.96ZM562.06 2362.96C560.55 2362.96 559.3299999999999 2362.7400000000002 559.3299999999999 2362.4700000000003C559.3299999999999 2362.19 560.55 2361.9700000000003 562.06 2361.9700000000003C563.5799999999999 2361.9700000000003 564.8 2362.19 564.8 2362.4700000000003C564.8 2362.7400000000002 563.5799999999999 2362.96 562.06 2362.96ZM578 2360.41C577.54 2360.41 577.16 2360.0299999999997 577.16 2359.5699999999997C577.16 2359.1099999999997 577.54 2358.74 578 2358.74C578.46 2358.74 578.83 2359.1099999999997 578.83 2359.5699999999997C578.83 2360.0299999999997 578.46 2360.41 578 2360.41ZM600.46 2367.72C600.46 2368.0899999999997 600.77 2368.39 601.13 2368.39C601.49 2368.39 601.8 2368.0899999999997 601.8 2367.72C601.8 2367.35 601.49 2367.06 601.13 2367.06C600.77 2367.06 600.46 2367.35 600.46 2367.72ZM554.86 2368.39C555.23 2368.39 555.54 2368.0899999999997 555.54 2367.72C555.54 2367.35 555.23 2367.06 554.86 2367.06C554.5 2367.06 554.21 2367.35 554.21 2367.72C554.21 2368.0899999999997 554.5 2368.39 554.86 2368.39ZM621.83096 2430.32767C621.83385 2430.2823000000003 621.83687 2430.23642 621.84 2430.19C621.83819 2430.23558 621.83518 2430.28147 621.83096 2430.32767ZM534.15658 2430.28971C534.1537599999999 2430.25631 534.15157 2430.22307 534.15 2430.19C534.15226 2430.2235100000003 534.15445 2430.25675 534.15658 2430.28971ZM578.02 2418.44C578.22 2417.65 579.43 2416.69 579.93 2415.3C580.2399999999999 2414.48 580.2199999999999 2413.52 579.9 2412.8700000000003C579.52 2412.1000000000004 578.15 2410.2300000000005 578 2409.6900000000005C577.83 2410.2300000000005 576.48 2412.1000000000004 576.09 2412.8700000000003C575.77 2413.5200000000004 575.76 2414.4800000000005 576.0500000000001 2415.3C576.5600000000001 2416.69 577.7800000000001 2417.65 577.98 2418.44Z " fill="#011689" fill-opacity="1" transform="matrix(1,0,0,1,-500,-2343)"></path></svg>