<svg id="SvgjsSvg1043" xmlns="http://www.w3.org/2000/svg" version="1.1" xmlns:xlink="http://www.w3.org/1999/xlink" xmlns:svgjs="http://svgjs.com/svgjs" width="100" height="48" viewBox="0 0 100 48"><title>Rectangle 2</title><desc>Created with Avocode.</desc><defs id="SvgjsDefs1044"></defs><path id="SvgjsPath1045" d="M160 117L160 69L208 69L208 117Z " fill="#011689" fill-opacity="1" transform="matrix(1,0,0,1,-160,-69)"></path><path id="SvgjsPath1046" d="M188.21 102.48L184.36 107.76L182.62 104.72C182.34 105.14 181.49 106.38 181.28 106.7L181.67 106.95L180.5 107.41L180.5 106.19L180.89 106.44L182.44 104.14999999999999L182.66 103.83L184.4 106.92C184.76000000000002 106.42 187.64000000000001 102.47 187.83 102.21000000000001L187.46 101.96000000000001L188.63 101.52000000000001L188.60999999999999 102.76ZM175.52 87.75C175.11 87.43 174.60000000000002 86.54 174.78 85.22C175.11 85.92999999999999 175.64000000000001 86.65 177.11 87.64C177.44000000000003 87.85 177.8 88.31 177.53 88.95C177.25 89.60000000000001 176.73 90.51 177.04 90.86C177.35 91.22 178.45999999999998 91.4 179.35999999999999 91.05C179.35999999999999 91.05 179.54999999999998 91.61 179.88 91.96C179.88 91.96 179.72 92.27 179.21 92.11999999999999C179.21 92.11999999999999 179.39000000000001 92.57 179.13 93.05999999999999C179.13 93.05999999999999 178.53 92.96 178.26999999999998 92.41999999999999C178.26999999999998 92.41999999999999 178.02999999999997 92.83999999999999 177.54 92.98999999999998C177.54 92.98999999999998 177.15 92.78999999999998 177.23 92.00999999999998C177.23 92.00999999999998 176.94 92.70999999999998 176.04 92.81999999999998C176.04 92.81999999999998 175.51999999999998 92.17999999999998 176.2 91.31999999999998C176.2 91.31999999999998 175.70999999999998 91.73999999999998 174.82999999999998 91.53999999999998C174.82999999999998 91.53999999999998 174.69 91.09999999999998 175.48999999999998 90.48999999999998C175.48999999999998 90.48999999999998 174.58999999999997 90.45999999999998 174.23999999999998 89.70999999999998C174.23999999999998 89.70999999999998 174.61999999999998 89.25999999999998 175.55999999999997 89.35999999999999C175.55999999999997 89.35999999999999 174.68999999999997 89.16999999999999 174.49999999999997 88.15999999999998C174.49999999999997 88.15999999999998 175.11999999999998 87.76999999999998 176.10999999999999 88.38999999999999C176.10999999999999 88.38999999999999 175.92999999999998 88.07 175.51999999999998 87.74999999999999ZM189.92 87.64C191.38 86.65 191.92 85.93 192.25 85.22C192.42 86.53999999999999 191.92 87.42999999999999 191.5 87.75C191.09 88.07 190.92 88.39 190.92 88.39C191.89999999999998 87.77 192.51999999999998 88.16 192.51999999999998 88.16C192.32999999999998 89.17 191.46999999999997 89.36 191.46999999999997 89.36C192.39999999999998 89.26 192.78999999999996 89.71 192.78999999999996 89.71C192.43999999999997 90.46 191.53999999999996 90.49 191.53999999999996 90.49C192.32999999999996 91.1 192.19999999999996 91.53999999999999 192.19999999999996 91.53999999999999C191.30999999999997 91.74 190.82999999999996 91.32 190.82999999999996 91.32C191.50999999999996 92.17999999999999 190.98999999999995 92.82 190.98999999999995 92.82C190.08999999999995 92.71 189.78999999999996 92.00999999999999 189.78999999999996 92.00999999999999C189.87999999999997 92.78999999999999 189.47999999999996 92.99 189.47999999999996 92.99C188.99999999999997 92.83999999999999 188.74999999999997 92.42 188.74999999999997 92.42C188.49999999999997 92.96000000000001 187.88999999999996 93.06 187.88999999999996 93.06C187.62999999999997 92.57000000000001 187.81999999999996 92.12 187.81999999999996 92.12C187.29999999999995 92.27000000000001 187.14999999999998 91.96000000000001 187.14999999999998 91.96000000000001C187.48 91.61000000000001 187.67 91.05000000000001 187.67 91.05000000000001C188.57 91.4 189.67 91.22000000000001 189.98 90.86000000000001C190.29999999999998 90.51000000000002 189.76999999999998 89.60000000000001 189.5 88.95000000000002C189.22 88.31000000000002 189.59 87.85000000000002 189.92 87.64000000000001ZM193.7 86.57C193.91 86.35 194.08999999999997 86.11999999999999 194.23 85.88999999999999C194.32 85.71999999999998 194.39 85.53999999999999 194.44 85.36999999999999L194.5 85.18999999999998C195.08 84.80999999999999 195.67 84.18999999999998 196.08 83.81999999999998C196.5 83.44999999999997 197.08 82.70999999999998 197.4 81.78999999999998C197.02 82.02999999999997 196.67000000000002 82.32999999999998 196.26000000000002 82.82999999999998C195.66000000000003 83.55999999999999 195.03000000000003 84.34999999999998 194.51000000000002 85.00999999999999L194.52 84.77C194.53 84.66 194.53 84.56 194.52 84.46L194.52 84.42999999999999C194.97 83.52 195.69 82.39999999999999 196.25 81.61C196.7 80.97 197.75 79.78 198.48 79.17999999999999C198.64999999999998 79.91999999999999 198.91 81.30999999999999 198.26999999999998 82.50999999999999C197.63 83.69999999999999 196.04 85.41999999999999 194.43999999999997 86.24999999999999L194.25999999999996 86.31999999999998C194.05999999999997 86.39999999999998 193.86999999999998 86.48999999999998 193.69999999999996 86.56999999999998ZM172.59 86.25C170.99 85.42 169.4 83.7 168.76 82.51C168.10999999999999 81.31 168.38 79.92 168.54999999999998 79.18C169.27999999999997 79.78 170.32 80.97000000000001 170.77999999999997 81.61000000000001C171.33999999999997 82.40000000000002 172.05999999999997 83.52000000000001 172.49999999999997 84.43L172.50999999999996 84.46000000000001C172.49999999999997 84.56 172.49999999999997 84.66000000000001 172.49999999999997 84.77000000000001L172.51999999999998 85.01C171.98999999999998 84.35000000000001 171.36999999999998 83.56 170.76999999999998 82.83C170.35999999999999 82.33 170.01 82.03 169.63 81.78999999999999C169.95 82.71 170.53 83.44999999999999 170.94 83.82C171.35 84.19 171.95 84.80999999999999 172.53 85.19L172.59 85.37C172.63 85.54 172.70000000000002 85.72 172.8 85.89C172.94 86.12 173.11 86.35 173.32000000000002 86.57000000000001C173.16000000000003 86.49000000000001 172.96 86.4 172.77 86.32000000000001ZM172.26 87.39C170.09 87.04 167.70999999999998 85.43 166.97 84.44C166.24 83.45 166.45 81.97 166.45 81.97C167.16 82.1 168.70999999999998 83.41 169.10999999999999 83.81C169.51999999999998 84.2 170.73 85.36 171.57 86L171.82999999999998 86.75C171.10999999999999 86.18 170.26 85.55 169.73 85.16C169.32 84.85 168.7 84.42 168.09 84.22C168.09 84.22 168.66 84.94 169.11 85.28999999999999C169.63000000000002 85.69 170.17000000000002 86.03999999999999 170.60000000000002 86.27999999999999C170.99 86.48999999999998 171.19000000000003 86.59999999999998 171.98000000000002 86.97999999999999C172.03000000000003 87.07 172.19000000000003 87.29999999999998 172.26000000000002 87.38999999999999ZM195.45 86C196.29999999999998 85.36 197.51 84.2 197.91 83.81C198.31 83.41 199.87 82.10000000000001 200.57999999999998 81.97C200.57999999999998 81.97 200.79 83.45 200.04999999999998 84.44C199.32 85.42999999999999 196.92999999999998 87.03999999999999 194.76999999999998 87.39C194.82999999999998 87.3 194.99999999999997 87.07000000000001 195.04999999999998 86.98C195.83999999999997 86.60000000000001 196.04 86.49000000000001 196.42 86.28C196.85999999999999 86.04 197.39999999999998 85.69 197.92 85.29C198.36999999999998 84.94000000000001 198.92999999999998 84.22000000000001 198.92999999999998 84.22000000000001C198.31999999999996 84.42000000000002 197.70999999999998 84.85000000000001 197.29999999999998 85.16000000000001C196.76999999999998 85.55000000000001 195.91 86.18 195.18999999999997 86.75000000000001ZM202.03 86C202.03 86 201.67 86.99 199.71 87.79C198.26000000000002 88.38000000000001 195.56 88.72000000000001 194.19 89.30000000000001C194.82999999999998 89.01 194.94 88.47000000000001 194.95 88.44000000000001C195.72 88.30000000000001 196.11999999999998 88.25000000000001 197.07 87.95000000000002C198.03 87.65000000000002 198.60999999999999 87.28000000000002 198.60999999999999 87.28000000000002C198.2 87.31000000000002 197.70999999999998 87.35000000000001 197.04999999999998 87.53000000000002C196.20999999999998 87.76000000000002 195.79 87.91000000000001 194.85999999999999 88.25000000000001C194.64 88.10000000000001 194.36999999999998 88.03000000000002 194.11999999999998 88.02000000000001C194.77999999999997 87.74000000000001 196.65999999999997 87.05000000000001 197.89999999999998 86.68C198.95999999999998 86.36000000000001 200.32999999999998 85.95 202.02999999999997 86ZM167.32 87.79C165.35999999999999 86.99000000000001 165 86 165 86C166.7 85.95 168.07 86.36 169.13 86.68C170.35999999999999 87.05000000000001 172.25 87.74000000000001 172.91 88.02000000000001C172.66 88.03000000000002 172.39 88.10000000000001 172.16 88.25000000000001C171.24 87.91000000000001 170.81 87.76000000000002 169.98 87.53000000000002C169.31 87.35000000000001 168.82999999999998 87.31000000000002 168.41 87.28000000000002C168.41 87.28000000000002 169 87.65000000000002 169.95 87.95000000000002C170.89999999999998 88.25000000000001 171.31 88.30000000000001 172.07999999999998 88.44000000000001C172.08999999999997 88.47000000000001 172.2 89.01 172.83999999999997 89.30000000000001C171.46999999999997 88.72000000000001 168.76999999999998 88.38000000000001 167.31999999999996 87.79ZM175.29 103.77C175.29 103.89999999999999 175.07 103.92 175.07 103.92C174.84 103.9 173.88 103.9 173.88 103.9C173.87 103.79 173.82 103.58000000000001 173.68 103.44000000000001C173.03 102.80000000000001 172.64000000000001 102.03000000000002 172.56 101.50000000000001C172.4 100.55000000000001 172.84 99.71000000000001 173 99.25000000000001C173.11844 98.92428000000001 173.12972 98.68624000000001 173.11076 98.28586000000001C173.12842 98.57273 173.35799 98.91726000000001 173.79 99.31000000000002C174.26 99.74000000000002 174.69 99.93000000000002 175 99.88000000000001C175 99.88000000000001 174.52 99.96000000000001 174.23 100.23C173.98999999999998 100.44 173.66 101.04 173.54999999999998 101.7C173.82999999999998 101.15 174.41 100.76 175.08999999999997 100.76C175.86999999999998 100.76 176.53999999999996 101.28 176.73999999999998 101.99000000000001C176.68999999999997 102.08000000000001 176.46999999999997 102.58000000000001 176.40999999999997 102.69000000000001C176.40999999999997 102.69000000000001 176.42999999999998 102.53000000000002 176.42999999999998 102.43C176.42999999999998 101.71000000000001 175.82999999999998 101.12 175.08999999999997 101.12C174.34999999999997 101.12 173.74999999999997 101.71000000000001 173.74999999999997 102.43C173.74999999999997 102.81 173.89999999999998 103.15 174.15999999999997 103.38000000000001C174.16999999999996 103.39000000000001 174.18999999999997 103.4 174.19999999999996 103.42000000000002C174.45999999999995 103.60000000000002 174.92999999999995 103.59000000000002 175.04999999999995 103.59000000000002C175.15999999999997 103.59000000000002 175.28999999999996 103.63000000000002 175.28999999999996 103.77000000000002ZM193.91698 98.31274C193.89084 98.69703000000001 193.90422999999998 98.93163 194.01999999999998 99.25C194.18999999999997 99.71 194.63 100.55 194.46999999999997 101.5C194.37999999999997 102.03 193.99999999999997 102.8 193.34999999999997 103.44C193.20999999999998 103.58 193.15999999999997 103.78999999999999 193.13999999999996 103.89999999999999C193.13999999999996 103.89999999999999 192.18999999999997 103.89999999999999 191.95999999999995 103.91999999999999C191.95999999999995 103.91999999999999 191.72999999999996 103.89999999999999 191.73999999999995 103.76999999999998C191.73999999999995 103.62999999999998 191.85999999999996 103.58999999999997 191.97999999999996 103.58999999999997C192.08999999999997 103.58999999999997 192.56999999999996 103.59999999999998 192.81999999999996 103.41999999999997C192.83999999999997 103.39999999999998 192.84999999999997 103.38999999999997 192.86999999999998 103.37999999999997C193.12999999999997 103.14999999999996 193.27999999999997 102.80999999999997 193.27999999999997 102.42999999999996C193.27999999999997 101.70999999999997 192.67999999999998 101.11999999999996 191.93999999999997 101.11999999999996C191.19999999999996 101.11999999999996 190.59999999999997 101.70999999999997 190.59999999999997 102.42999999999996C190.59999999999997 102.52999999999996 190.61999999999998 102.68999999999997 190.61999999999998 102.68999999999997C190.55999999999997 102.57999999999997 190.32999999999998 102.07999999999997 190.28999999999996 101.98999999999997C190.48999999999995 101.27999999999997 191.14999999999998 100.75999999999996 191.93999999999997 100.75999999999996C192.60999999999996 100.75999999999996 193.19999999999996 101.14999999999996 193.46999999999997 101.69999999999996C193.36999999999998 101.03999999999996 193.02999999999997 100.43999999999996 192.78999999999996 100.22999999999996C192.50999999999996 99.95999999999997 192.01999999999995 99.87999999999997 192.01999999999995 99.87999999999997C192.33999999999995 99.92999999999996 192.75999999999996 99.73999999999997 193.22999999999996 99.30999999999997C193.65810999999997 98.92945999999998 193.88709999999998 98.59416999999998 193.91697999999997 98.31273999999998ZM192.89 103.18C192.83999999999997 103.27000000000001 192.76999999999998 103.38000000000001 192.5 103.38000000000001C192.23 103.38000000000001 191.71 103.49000000000001 191.42 103.69000000000001C191.11999999999998 103.89000000000001 190.82 103.96000000000001 190.39999999999998 104.00000000000001C190.31999999999996 103.69000000000001 190.23999999999998 103.36000000000001 190.08999999999997 103.06000000000002C189.80999999999997 102.47000000000001 189.10999999999999 100.90000000000002 187.64999999999998 100.62000000000002C187.51 100.59000000000002 187.80999999999997 100.26000000000002 187.93999999999997 100.28000000000002C188.06999999999996 100.29000000000002 188.32999999999996 100.46000000000002 188.43999999999997 100.54000000000002C188.43999999999997 100.54000000000002 188.43999999999997 100.20000000000002 188.44999999999996 100.14000000000001C188.44999999999996 100.07000000000002 188.49999999999997 100.06000000000002 188.55999999999997 100.06000000000002C188.61999999999998 100.06000000000002 188.96999999999997 100.06000000000002 189.07999999999998 100.18000000000002C189.41 100.56000000000002 189.96999999999997 101.57000000000002 190.29 102.32000000000002C190.60999999999999 103.07000000000002 190.82999999999998 103.30000000000003 191.16 103.19000000000003C191.5 103.07000000000002 191.7 102.70000000000003 192.28 102.81000000000003C192.49 102.85000000000004 192.71 102.98000000000003 192.89000000000001 103.18000000000004ZM176.93 103.06C176.79000000000002 103.36 176.70000000000002 103.69 176.63 104C176.21 103.96 175.9 103.89 175.60999999999999 103.69C175.32 103.49 174.79999999999998 103.38 174.52999999999997 103.38C174.24999999999997 103.38 174.18999999999997 103.27 174.14 103.17999999999999C174.32 102.97999999999999 174.54 102.85 174.73999999999998 102.80999999999999C175.32999999999998 102.69999999999999 175.52999999999997 103.07 175.85999999999999 103.18999999999998C176.2 103.29999999999998 176.42 103.06999999999998 176.73 102.31999999999998C177.04999999999998 101.56999999999998 177.60999999999999 100.55999999999997 177.94 100.17999999999998C178.06 100.05999999999997 178.41 100.05999999999997 178.46 100.05999999999997C178.52 100.05999999999997 178.58 100.06999999999998 178.58 100.13999999999997C178.58 100.19999999999997 178.58 100.53999999999998 178.58 100.53999999999998C178.70000000000002 100.45999999999998 178.96 100.28999999999998 179.09 100.27999999999997C179.22 100.25999999999998 179.51 100.58999999999997 179.38 100.61999999999998C177.92 100.89999999999998 177.22 102.46999999999997 176.93 103.05999999999997ZM173.42 92.67C172.92 93.03 171.76999999999998 94.14 170.78 94.94C169.79 95.74 168.6 95.64 168.6 95.64C169.04999999999998 94.3 169.88 93.64 170.45 93.34C171.03 93.05 172.79999999999998 92.4 173.29999999999998 92.21000000000001C173.27999999999997 92.23 173.26999999999998 92.26 173.24999999999997 92.29L173.19999999999996 92.38000000000001C172.59999999999997 92.65 172.08999999999995 92.81000000000002 171.40999999999997 93.28000000000002C170.84999999999997 93.67000000000002 170.54999999999995 94.21000000000002 170.54999999999995 94.21000000000002C171.95999999999995 93.71000000000002 173.29999999999995 92.55000000000003 173.29999999999995 92.55000000000003C173.32999999999996 92.58000000000003 173.36999999999995 92.63000000000002 173.41999999999996 92.67000000000003ZM196.57 93.34C197.15 93.64 197.98 94.3 198.43 95.64C198.43 95.64 197.23000000000002 95.74 196.24 94.94C195.26000000000002 94.14 194.10000000000002 93.03 193.61 92.67C193.66000000000003 92.63 193.70000000000002 92.58 193.73000000000002 92.55C193.73000000000002 92.55 195.06000000000003 93.71 196.48000000000002 94.21C196.48000000000002 94.21 196.18 93.66999999999999 195.62 93.27999999999999C194.93 92.80999999999999 194.43 92.64999999999999 193.83 92.37999999999998L193.78 92.28999999999998C193.76 92.25999999999998 193.75 92.22999999999998 193.73 92.20999999999998C194.22 92.39999999999998 196 93.04999999999998 196.57 93.33999999999997ZM174.22 93.78C173.71 94.27 173.32 94.75 172.56 95.79C171.79 96.83000000000001 170.58 96.87 170.58 96.87C170.70000000000002 96.03 170.93 95.36 171.58 94.64C172.23000000000002 93.93 173.06 93.27 173.67000000000002 92.84C173.83 92.91 174.03000000000003 92.95 174.29000000000002 92.92C174.31000000000003 92.92 174.33 92.92 174.35000000000002 92.91C174.27 93.02 174.22000000000003 93.11999999999999 174.19000000000003 93.22C173.73000000000002 93.48 172.39000000000001 94.14 171.85000000000002 95.21C171.85000000000002 95.21 172.69000000000003 94.94999999999999 174.16000000000003 93.42999999999999C174.15000000000003 93.55 174.18000000000004 93.64999999999999 174.19000000000003 93.69999999999999C174.20000000000002 93.71999999999998 174.21000000000004 93.74999999999999 174.22000000000003 93.77999999999999ZM193.36 92.84C193.97000000000003 93.27000000000001 194.8 93.93 195.45000000000002 94.64C196.10000000000002 95.36 196.33 96.03 196.45000000000002 96.87C196.45000000000002 96.87 195.23000000000002 96.83 194.47000000000003 95.79C193.70000000000002 94.75 193.32000000000002 94.27000000000001 192.80000000000004 93.78C192.82000000000005 93.75 192.83000000000004 93.72 192.83000000000004 93.7C192.85000000000005 93.65 192.87000000000003 93.55 192.87000000000003 93.43C194.33000000000004 94.95 195.18000000000004 95.21000000000001 195.18000000000004 95.21000000000001C194.64000000000004 94.14000000000001 193.30000000000004 93.48 192.84000000000003 93.22000000000001C192.81000000000003 93.12000000000002 192.76000000000002 93.02000000000001 192.68000000000004 92.91000000000001C192.70000000000005 92.92000000000002 192.72000000000003 92.92000000000002 192.74000000000004 92.92000000000002C193.00000000000003 92.95000000000002 193.20000000000005 92.91000000000001 193.36000000000004 92.84000000000002ZM172.9 92.15C172.53 92.25 171.92000000000002 92.43 169.97 93.33000000000001C168.03 94.22000000000001 167 93.91000000000001 167 93.91000000000001C167.7 92.60000000000001 168.88 92.14000000000001 169.54 91.94000000000001C170.19 91.74000000000001 171.65 91.57000000000001 172.23999999999998 91.45000000000002C172.21999999999997 91.50000000000001 172.2 91.54000000000002 172.17999999999998 91.59000000000002C171.7 91.71000000000002 171.05999999999997 91.93000000000002 170.48 92.16000000000001C169.95 92.38000000000001 169.44 92.73 169.44 92.73C170.47 92.7 171.51 92.31 172.28 91.97C172.39000000000001 92.03 172.6 92.13 172.9 92.15ZM197.49 91.94C198.14000000000001 92.14 199.33 92.6 200.03 93.91C200.03 93.91 199 94.22 197.05 93.33C195.11 92.42999999999999 194.5 92.25 194.13000000000002 92.14999999999999C194.42000000000002 92.13 194.64000000000001 92.02999999999999 194.74000000000004 91.96999999999998C195.52000000000004 92.30999999999999 196.56000000000003 92.69999999999999 197.59000000000003 92.72999999999999C197.59000000000003 92.72999999999999 197.08000000000004 92.38 196.54000000000002 92.16C195.96 91.92999999999999 195.33 91.71 194.84000000000003 91.59C194.83000000000004 91.54 194.81000000000003 91.5 194.79000000000002 91.45C195.37000000000003 91.57000000000001 196.84000000000003 91.74000000000001 197.49 91.94ZM178.42 102.76L178.39999999999998 101.52000000000001L179.55999999999997 101.96000000000001L179.18999999999997 102.21000000000001C179.30999999999997 102.38000000000001 180.48999999999998 103.99000000000001 181.43999999999997 105.29L181.15999999999997 105.7L178.80999999999997 102.48ZM198.91 88.52C200.39 88.42 201.46 88.50999999999999 202.01 88.64999999999999C202.01 88.64999999999999 200.67 89.57 199.13 89.89999999999999C197.59 90.22999999999999 196.34 90.02 195.42 90.02999999999999C195.35999999999999 89.93999999999998 195.29 89.83999999999999 195.19 89.73999999999998C196.26 89.74999999999999 198.03 89.47999999999998 198.67 89.26999999999998C198.67 89.26999999999998 197.11999999999998 88.95999999999998 194.94 89.55999999999999C194.84 89.50999999999999 194.73 89.44999999999999 194.57999999999998 89.39999999999999C195.55999999999997 89.10999999999999 196.89999999999998 88.64999999999999 198.91 88.52ZM171.6 90.03C170.69 90.02 169.44 90.23 167.9 89.9C166.36 89.57000000000001 165.02 88.65 165.02 88.65C165.57000000000002 88.51 166.63000000000002 88.42 168.11 88.52000000000001C170.13000000000002 88.65 171.47000000000003 89.11000000000001 172.44000000000003 89.4C172.30000000000004 89.45 172.18000000000004 89.51 172.09000000000003 89.56C169.91000000000003 88.96000000000001 168.36000000000004 89.27 168.36000000000004 89.27C168.99000000000004 89.47999999999999 170.77000000000004 89.75 171.84000000000003 89.74C171.73000000000002 89.83999999999999 171.66000000000003 89.94 171.60000000000002 90.03ZM184.48 102.42C184.75 102.66 185.39999999999998 103.29 185.73999999999998 103.60000000000001C185.73999999999998 103.60000000000001 184.76 103.37 184.2 102.87C184.2 102.87 183.81 103.10000000000001 183.51999999999998 103.10000000000001L183.51 103.10000000000001C183.22 103.10000000000001 182.82 102.87 182.82 102.87C182.26999999999998 103.37 181.29 103.60000000000001 181.29 103.60000000000001C181.63 103.29 182.28 102.66000000000001 182.54 102.42C182.81 102.18 183.42 101.34 183.51 101.07000000000001L183.51999999999998 101.07000000000001C183.60999999999999 101.34 184.21999999999997 102.18 184.48 102.42ZM174.45 96.24C173.92 97.17 172.63 97.55999999999999 172.63 97.55999999999999C172.5 95.99999999999999 173.89 94.54999999999998 174.54999999999998 93.90999999999998L174.57 93.89999999999998C174.76999999999998 93.90999999999998 174.95 93.87999999999998 175.10999999999999 93.81999999999998C175.05999999999997 93.89999999999998 175.01999999999998 93.96999999999998 174.99999999999997 94.03999999999998C173.27999999999997 95.60999999999997 173.42999999999998 96.37999999999998 173.42999999999998 96.37999999999998C174.01999999999998 96.04999999999998 174.67 95.08999999999997 174.98999999999998 94.50999999999998L175.10999999999999 94.52999999999997C175.24999999999997 94.54999999999997 175.39 94.54999999999997 175.54 94.52999999999997C175.31 94.73999999999997 174.98 95.31999999999998 174.45 96.23999999999997ZM192.48 93.91C193.14 94.55 194.53 96 194.39999999999998 97.56C194.39999999999998 97.56 193.09999999999997 97.17 192.57999999999998 96.24000000000001C192.04 95.32000000000001 191.71999999999997 94.74000000000001 191.48999999999998 94.53000000000002C191.62999999999997 94.55000000000001 191.77999999999997 94.55000000000001 191.92 94.53000000000002L192.04 94.51000000000002C192.35999999999999 95.09000000000002 193.01 96.05000000000003 193.6 96.38000000000002C193.6 96.38000000000002 193.75 95.61000000000003 192.03 94.04000000000002C192 93.97000000000003 191.97 93.90000000000002 191.92 93.82000000000002C192.07999999999998 93.88000000000002 192.26 93.91000000000003 192.45999999999998 93.90000000000002ZM195.4 90.29C196.23000000000002 90.41000000000001 198.14000000000001 90.39 198.86 90.53C199.59 90.66 200.66000000000003 91.07000000000001 201.33 91.47C201.33 91.47 200.3 91.82 198.37 91.67999999999999C196.44 91.55 195.28 91.33999999999999 194.59 91.13999999999999C194.48 90.99999999999999 194.35 90.88999999999999 194.21 90.79999999999998C194.46 90.77999999999999 194.61 90.72999999999999 194.8 90.64999999999998C196.67000000000002 91.17999999999998 198.09 90.98999999999998 198.09 90.98999999999998C197.32 90.60999999999999 195.83 90.53999999999998 195.13 90.47999999999998C195.29 90.37999999999998 195.39 90.29999999999997 195.4 90.28999999999998ZM168.66 91.68C166.73 91.82000000000001 165.7 91.47000000000001 165.7 91.47000000000001C166.36999999999998 91.07000000000001 167.44 90.66000000000001 168.17 90.53000000000002C168.89 90.39000000000001 170.79 90.41000000000001 171.63 90.29000000000002C171.63 90.30000000000003 171.74 90.38000000000002 171.9 90.48000000000002C171.20000000000002 90.54000000000002 169.71 90.61000000000001 168.94 90.99000000000002C168.94 90.99000000000002 170.35999999999999 91.18000000000002 172.23 90.65000000000002C172.42 90.73000000000002 172.57 90.78000000000002 172.82 90.80000000000003C172.68 90.89000000000003 172.54999999999998 91.00000000000003 172.44 91.14000000000003C171.75 91.34000000000003 170.57999999999998 91.55000000000003 168.66 91.68000000000004ZM194.06 85.79C193.68 86.46000000000001 192.89000000000001 87.16000000000001 191.9 87.61C192.1 87.37 192.26000000000002 87.02 192.37 86.61C192.46 86.28 192.68 85.46 192.8 85.25C192.93 85.03 193.39000000000001 84.29 194.27 84.06C194.27 84.06 194.51000000000002 85.03 194.06 85.79ZM175.12 87.61C174.14000000000001 87.16 173.35 86.46 172.96 85.79C172.52 85.03 172.75 84.06 172.75 84.06C173.64 84.29 174.1 85.03 174.22 85.25C174.35 85.46 174.56 86.28 174.66 86.61C174.77 87.02 174.93 87.37 175.12 87.61ZM191.86 97.94C191.86 97.94 191.21 97.64999999999999 190.85000000000002 97.07C190.48000000000002 96.47999999999999 190.39000000000001 95.30999999999999 190.31000000000003 94.16C190.32000000000002 94.09 190.32000000000002 94.02 190.32000000000002 93.95C190.35000000000002 93.98 190.38000000000002 94 190.41000000000003 94.03C190.48000000000002 94.09 190.56000000000003 94.14 190.64000000000001 94.19C190.64000000000001 94.19 190.8 96.09 191.34 96.72C191.51 96.02 191.1 95.1 190.88 94.33C190.96 94.37 191.03 94.41 191.10999999999999 94.42999999999999C191.73 95.42999999999999 192.48 96.86999999999999 191.85999999999999 97.94ZM176.18 97.07C175.82 97.64999999999999 175.16 97.94 175.16 97.94C174.54999999999998 96.87 175.29 95.42999999999999 175.92 94.42999999999999C175.98999999999998 94.41 176.07 94.36999999999999 176.14999999999998 94.33C175.92999999999998 95.1 175.51 96.02 175.68999999999997 96.72C176.22999999999996 96.09 176.38999999999996 94.19 176.38999999999996 94.19C176.46999999999997 94.14 176.53999999999996 94.09 176.61999999999995 94.03C176.63999999999996 94 176.67999999999995 93.98 176.69999999999996 93.95C176.69999999999996 94.02 176.70999999999995 94.09 176.70999999999995 94.16C176.63999999999996 95.31 176.53999999999996 96.47999999999999 176.17999999999995 97.07ZM180 90.32C179.65 90.32 179.3 90.02999999999999 179.19 89.69999999999999C179.07 89.38 179.10999999999999 88.86999999999999 179.32999999999998 88.68999999999998C179.32999999999998 88.68999999999998 179.54 89.32999999999998 179.98999999999998 89.34999999999998C180.49999999999997 89.37999999999998 181.14999999999998 88.81999999999998 181.79999999999998 87.74999999999999C181.79999999999998 87.74999999999999 181.66 88.80999999999999 181.01999999999998 89.59999999999998C180.58999999999997 90.12999999999998 180.23999999999998 90.31999999999998 179.99999999999997 90.31999999999998ZM187.7 88.69C187.92 88.87 187.95999999999998 89.38 187.83999999999997 89.7C187.71999999999997 90.03 187.36999999999998 90.32000000000001 187.01999999999998 90.32000000000001C186.79 90.32000000000001 186.43999999999997 90.13000000000001 186.01 89.60000000000001C185.37 88.81 185.23 87.75000000000001 185.23 87.75000000000001C185.88 88.82000000000001 186.53 89.38000000000001 187.04 89.35000000000001C187.48999999999998 89.33000000000001 187.7 88.69000000000001 187.7 88.69000000000001ZM184.79 84.1C184.25 84.21 184.01 83.91999999999999 184.01 83.91999999999999C184.54 83.94999999999999 185.01999999999998 83.46 185.01999999999998 83.46C184.74999999999997 83.36 184.65999999999997 83.16 184.65999999999997 83.16C184.81999999999996 83.03 184.97999999999996 83.03 184.97999999999996 83.03C184.66999999999996 82.89 184.60999999999996 82.66 184.60999999999996 82.66C184.98999999999995 82.84 186.16999999999996 82.85 186.81999999999996 82.88C187.45999999999995 82.91 188.09999999999997 82.67999999999999 188.09999999999997 82.67999999999999C188.01999999999995 84.05 187.06999999999996 84.14999999999999 187.06999999999996 84.14999999999999C187.07999999999996 84.03999999999999 187.07999999999996 83.85 187.07999999999996 83.85C186.76999999999995 84.11999999999999 186.15999999999997 84.32 186.15999999999997 84.32C186.16999999999996 84.14999999999999 186.21999999999997 84.00999999999999 186.21999999999997 84.00999999999999C185.95999999999998 84.16999999999999 185.80999999999997 84.14999999999999 185.80999999999997 84.14999999999999C185.83999999999997 83.96 185.96999999999997 83.72999999999999 185.96999999999997 83.72999999999999C185.78999999999996 83.96 185.54999999999998 83.96999999999998 185.54999999999998 83.96999999999998C185.51999999999998 83.85999999999999 185.58999999999997 83.57999999999998 185.58999999999997 83.57999999999998C185.49999999999997 83.68999999999998 185.32999999999998 83.98999999999998 184.78999999999996 84.09999999999998ZM179.96 84.15C179.96 84.15 179 84.05000000000001 178.93 82.68C178.93 82.68 179.57 82.91000000000001 180.21 82.88000000000001C180.85 82.85000000000001 182.03 82.84 182.42000000000002 82.66000000000001C182.42000000000002 82.66000000000001 182.35000000000002 82.89000000000001 182.05 83.03000000000002C182.05 83.03000000000002 182.21 83.03000000000002 182.37 83.16000000000001C182.37 83.16000000000001 182.27 83.36000000000001 182 83.46000000000001C182 83.46000000000001 182.49 83.95 183.01 83.92C183.01 83.92 182.76999999999998 84.21000000000001 182.23999999999998 84.10000000000001C181.7 83.99000000000001 181.52999999999997 83.69000000000001 181.43999999999997 83.58000000000001C181.43999999999997 83.58000000000001 181.50999999999996 83.86000000000001 181.46999999999997 83.97000000000001C181.46999999999997 83.97000000000001 181.23999999999998 83.96000000000001 181.05999999999997 83.73000000000002C181.05999999999997 83.73000000000002 181.18999999999997 83.96000000000002 181.21999999999997 84.15000000000002C181.21999999999997 84.15000000000002 181.06999999999996 84.17000000000002 180.80999999999997 84.01000000000002C180.80999999999997 84.01000000000002 180.85999999999999 84.15000000000002 180.86999999999998 84.32000000000002C180.86999999999998 84.32000000000002 180.24999999999997 84.12000000000002 179.95 83.85000000000002C179.95 83.85000000000002 179.95 84.04000000000002 179.95999999999998 84.15000000000002ZM183.51 100.66C183.47 100.74 183.41 100.82 183.34 100.89C182.93 101.27 182.67000000000002 101.23 182.44 101.15C182.44 101.15 183.12 100.93 183.07999999999998 100.34C183.04 99.76 182.7 99.41 182.64 99.10000000000001C182.57 98.77000000000001 182.6 98.45 182.85999999999999 98.06C183.07999999999998 98.78 183.30999999999997 99.31 183.49999999999997 99.67C183.50999999999996 99.68 183.50999999999996 99.69 183.50999999999996 99.7C183.51999999999995 99.69 183.51999999999995 99.68 183.52999999999997 99.67C183.70999999999998 99.31 183.94999999999996 98.78 184.16999999999996 98.06C184.42999999999995 98.45 184.44999999999996 98.77 184.38999999999996 99.10000000000001C184.32999999999996 99.41000000000001 183.98999999999995 99.76 183.94999999999996 100.34C183.90999999999997 100.93 184.58999999999995 101.15 184.58999999999995 101.15C184.35999999999996 101.23 184.09999999999994 101.27000000000001 183.68999999999994 100.89C183.60999999999993 100.82000000000001 183.55999999999995 100.74 183.50999999999993 100.66ZM185.06 100.02C184.83 99.74 184.7 99.72 184.7 99.72C184.64999999999998 100.46 185.35999999999999 100.95 185.83999999999997 101.27C186.30999999999997 101.58 186.33999999999997 102 186.33999999999997 102C184.73999999999998 101.84 184.29999999999998 99.84 184.29999999999998 99.84C184.42999999999998 99.60000000000001 184.54999999999998 99.38000000000001 184.57999999999998 99.13000000000001C184.71999999999997 99.2 184.92999999999998 99.35000000000001 185.11999999999998 99.68C185.31999999999996 100.02000000000001 185.75999999999996 100.30000000000001 186.09999999999997 100.52000000000001C186.44999999999996 100.73 186.55999999999997 101.11000000000001 186.55999999999997 101.11000000000001C185.78999999999996 101.10000000000001 185.28999999999996 100.30000000000001 185.05999999999997 100.02000000000001ZM181.19 101.27C181.66 100.95 182.37 100.46 182.32 99.72C182.32 99.72 182.2 99.74 181.97 100.02C181.74 100.3 181.24 101.1 180.47 101.11C180.47 101.11 180.58 100.73 180.92 100.52C181.26999999999998 100.3 181.7 100.02 181.89999999999998 99.67999999999999C182.09999999999997 99.35 182.30999999999997 99.19999999999999 182.43999999999997 99.13C182.47999999999996 99.38 182.59999999999997 99.6 182.72999999999996 99.83999999999999C182.72999999999996 99.83999999999999 182.28999999999996 101.83999999999999 180.67999999999995 101.99999999999999C180.67999999999995 101.99999999999999 180.70999999999995 101.57999999999998 181.18999999999994 101.26999999999998ZM182.83 101.51C182.11 102.58 181.32000000000002 103.25 180.5 103.69000000000001L180.28 103.39000000000001C181.04 102.99000000000001 181.78 102.38000000000001 182.45 101.42000000000002C182.45999999999998 101.39000000000001 182.5 101.34000000000002 182.51 101.32000000000002C182.51 101.32000000000002 182.76 101.38000000000002 182.95999999999998 101.30000000000003ZM186.53 103.69C185.71 103.25 184.92 102.58 184.2 101.50999999999999L184.07 101.3C184.26 101.38 184.51999999999998 101.32 184.51999999999998 101.32C184.52999999999997 101.33999999999999 184.55999999999997 101.38999999999999 184.57999999999998 101.41999999999999C185.24999999999997 102.37999999999998 185.98999999999998 102.98999999999998 186.73999999999998 103.38999999999999ZM194.33 87.62C193.86 88.03 193.54000000000002 88.19 192.73000000000002 88.07000000000001L192.63000000000002 88.00000000000001C192.61 87.99000000000001 192.43000000000004 87.88000000000001 192.11 87.86000000000001C192.38000000000002 87.67000000000002 193.01000000000002 87.15000000000002 193.46 86.90000000000002C193.94 86.63000000000002 194.75 86.28000000000002 195.17000000000002 86.23000000000002C195.17000000000002 86.23000000000002 194.78000000000003 87.22000000000001 194.33 87.62000000000002ZM187.02 92.11C187.09 92.19 187.26000000000002 92.35 187.58 92.34C187.57000000000002 92.39 187.57000000000002 92.45 187.57000000000002 92.51C187.57000000000002 92.7 187.60000000000002 92.92 187.72000000000003 93.15L187.79000000000002 93.27000000000001L187.92000000000002 93.24000000000001C187.94000000000003 93.24000000000001 188.10000000000002 93.21000000000001 188.3 93.11000000000001C188.12 93.35000000000001 187.94 93.52000000000001 187.8 94.19000000000001C187.60000000000002 95.19000000000001 187.41000000000003 95.22000000000001 187.41000000000003 95.22000000000001C187.27000000000004 94.86000000000001 186.98000000000002 94.21000000000001 186.64000000000001 93.57000000000001C186.29000000000002 92.93 186.58 92.4 186.58 92.4C186.78 92.30000000000001 186.86 92.24000000000001 186.97 92.13000000000001L187.01 92.09C187.01 92.10000000000001 187.01 92.10000000000001 187.01999999999998 92.11ZM174.29 88.07C173.48999999999998 88.19 173.17 88.02999999999999 172.7 87.61999999999999C172.25 87.21999999999998 171.85999999999999 86.22999999999999 171.85999999999999 86.22999999999999C172.26999999999998 86.27999999999999 173.07999999999998 86.63 173.57 86.89999999999999C174.01999999999998 87.14999999999999 174.65 87.66999999999999 174.91 87.85999999999999C174.6 87.87999999999998 174.41 87.98999999999998 174.4 87.99999999999999ZM179.3 93.15C179.43 92.92 179.46 92.7 179.46 92.51C179.46 92.45 179.46 92.39 179.45000000000002 92.34C179.77 92.35000000000001 179.94000000000003 92.19 180.01000000000002 92.11C180.01000000000002 92.1 180.02 92.1 180.02 92.09L180.06 92.13000000000001C180.16 92.24000000000001 180.25 92.30000000000001 180.45 92.4C180.45 92.4 180.73 92.93 180.39 93.57000000000001C180.04 94.21000000000001 179.75 94.86000000000001 179.61999999999998 95.22000000000001C179.61999999999998 95.22000000000001 179.42999999999998 95.19000000000001 179.23 94.19000000000001C179.09 93.52000000000001 178.91 93.35000000000001 178.73 93.11000000000001C178.92999999999998 93.21000000000001 179.09 93.24000000000001 179.1 93.24000000000001L179.23999999999998 93.27000000000001ZM188.94 92.91C188.99 93.24 189 93.72999999999999 188.96 94.09C188.9 94.54 188.77 94.98 188.38 95.42C187.99 95.86 187.46 95.8 187.46 95.8C187.58 95.61 187.78 95.03999999999999 187.85 94.77C187.91 94.5 188.04999999999998 94.03 188.17 93.67999999999999C188.33999999999997 93.27 188.67 92.86999999999999 188.76999999999998 92.74C188.82 92.78999999999999 188.86999999999998 92.85 188.93999999999997 92.91ZM178.09 92.91C178.15 92.85 178.21 92.78999999999999 178.26 92.74C178.35999999999999 92.86999999999999 178.69 93.27 178.85999999999999 93.67999999999999C178.98 94.02999999999999 179.10999999999999 94.49999999999999 179.17999999999998 94.77C179.24999999999997 95.03999999999999 179.43999999999997 95.61 179.55999999999997 95.8C179.55999999999997 95.8 179.03999999999996 95.86 178.64 95.42C178.26 94.98 178.13 94.54 178.07 94.09C178.01999999999998 93.73 178.04 93.24000000000001 178.09 92.91ZM173.92 99.18C173.42999999999998 98.74000000000001 173.11999999999998 98.28 173.41 97.98C173.7 97.67 174.18 97.94 174.67 98.38000000000001C175.17 98.82000000000001 175.48 99.27000000000001 175.19 99.58000000000001C174.93 99.86000000000001 174.42 99.62000000000002 173.92 99.18ZM193.1 99.18C192.60999999999999 99.62 192.1 99.86000000000001 191.82999999999998 99.58000000000001C191.54999999999998 99.27000000000001 191.85999999999999 98.82000000000001 192.35 98.38000000000001C192.84 97.94000000000001 193.32999999999998 97.67000000000002 193.60999999999999 97.98C193.89999999999998 98.28 193.58999999999997 98.74000000000001 193.1 99.18ZM194.71 91.77C194.71 91.77 194.34 92.07 193.68 91.94C193.12 91.83 192.63 91.59 192.35 91.19C192.26 91.07 192.2 90.87 192.01 90.67C192.42 90.60000000000001 192.79 90.59 193.26999999999998 90.69C193.83999999999997 90.78999999999999 194.42 90.92 194.70999999999998 91.77ZM172.32 91.77C172.60999999999999 90.92 173.19 90.78999999999999 173.76 90.69C174.23999999999998 90.59 174.6 90.6 175.01 90.67C174.82999999999998 90.87 174.76999999999998 91.07000000000001 174.67999999999998 91.19C174.39999999999998 91.59 173.90999999999997 91.83 173.34999999999997 91.94C172.67999999999998 92.07 172.31999999999996 91.77 172.31999999999996 91.77ZM181.33 98.46C181.78 98.33 182.46 97.80999999999999 182.74 97.32C182.74 97.44 182.65 98.1 182.46 98.42999999999999C182.19 98.88999999999999 181.79000000000002 99.22999999999999 181.44 99.22999999999999C181.12 99.22999999999999 181.05 99.03999999999999 180.89 98.96999999999998C180.89 98.96999999999998 180.97 98.56999999999998 181.32999999999998 98.45999999999998ZM185.69 98.46C186.05 98.57 186.14 98.97 186.14 98.97C185.98 99.03999999999999 185.91 99.23 185.58999999999997 99.23C185.23999999999998 99.23 184.83999999999997 98.89 184.56999999999996 98.43C184.37999999999997 98.10000000000001 184.28999999999996 97.44000000000001 184.28999999999996 97.32000000000001C184.55999999999997 97.81 185.24999999999997 98.33000000000001 185.68999999999997 98.46000000000001ZM189.81 95.29C189.89000000000001 95.19000000000001 190.04 94.97000000000001 190.12 94.82000000000001C190.18 95.54 190.37 97.42 189.73000000000002 98.01C189.73000000000002 98.01 189.29000000000002 97.69000000000001 189.13000000000002 94.95C189.23000000000002 95.10000000000001 189.39000000000001 95.26 189.47000000000003 95.36C189.47000000000003 95.36 189.36 96.22 189.68000000000004 96.84C189.68000000000004 96.84 190.00000000000003 96.60000000000001 189.81000000000003 95.29ZM177.89 94.95C177.73999999999998 97.69 177.29999999999998 98.01 177.29999999999998 98.01C176.64999999999998 97.42 176.85 95.54 176.89999999999998 94.82000000000001C176.98999999999998 94.97000000000001 177.14 95.19000000000001 177.21999999999997 95.29C177.02999999999997 96.60000000000001 177.33999999999997 96.84 177.33999999999997 96.84C177.65999999999997 96.22 177.55999999999997 95.36 177.55999999999997 95.36C177.64 95.26 177.79999999999998 95.1 177.89 94.95ZM184.41 104.72C184.31 104.9 184.10999999999999 105.24 183.89 105.63L183.61999999999998 105.14999999999999L184.36999999999998 103.83L184.58999999999997 104.14999999999999L185.35999999999999 105.28999999999999L185.05999999999997 105.69C184.79999999999998 105.3 184.53999999999996 104.92 184.40999999999997 104.72ZM187.9 95.94C188.01000000000002 95.91 188.14000000000001 95.85 188.26000000000002 95.77C188.26000000000002 95.77 188.11 96.3 188.20000000000002 96.83C188.20000000000002 96.83 188.45000000000002 96.64999999999999 188.63000000000002 95.41C188.76000000000002 95.24 188.86 95.07 188.93000000000004 94.91C188.78000000000003 96.14 188.72000000000003 96.97 188.04000000000005 97.77C188.04000000000005 97.77 187.63000000000005 97.22999999999999 187.90000000000006 95.94ZM178.4 95.41C178.58 96.64999999999999 178.82 96.83 178.82 96.83C178.92 96.3 178.76999999999998 95.77 178.76999999999998 95.77C178.89 95.85 179.01999999999998 95.91 179.13 95.94C179.39 97.23 178.99 97.77 178.99 97.77C178.3 96.97 178.25 96.14 178.10000000000002 94.91C178.17000000000002 95.07 178.27 95.24 178.40000000000003 95.41ZM171.75 90.15C171.87 89.97 172.01 89.76 172.51 89.57000000000001C173.01999999999998 89.39 173.53 89.49000000000001 174.01999999999998 89.69000000000001L174.07 89.79C174.16 90 174.29999999999998 90.15 174.44 90.28C174.18 90.46000000000001 173.59 90.64 172.95 90.62C172.31 90.61 171.75 90.15 171.75 90.15ZM194.51 89.57C195.01999999999998 89.75999999999999 195.14999999999998 89.97 195.28 90.14999999999999C195.28 90.14999999999999 194.72 90.60999999999999 194.08 90.61999999999999C193.44000000000003 90.63999999999999 192.85000000000002 90.46 192.59 90.27999999999999C192.73 90.14999999999999 192.86 89.99999999999999 192.96 89.78999999999999L193 89.69C193.5 89.49 194.01 89.39 194.51 89.57ZM192.44 89.28C192.35 89.25 192.26 89.22 192.15 89.2C192.37 89.01 192.58 88.73 192.69 88.3C192.92 88.35 193.46 88.35 193.69 88.25999999999999C193.93 88.16999999999999 194.4 88.16999999999999 194.76 88.39999999999999C194.76 88.39999999999999 194.64 89.02999999999999 193.82 89.24C193.04 89.44 192.75 89.39 192.44 89.28ZM190.53 93.88C190.29 93.69999999999999 190.13 93.44 190.08 93.21C190.02 92.97999999999999 190.10000000000002 92.82 190.14000000000001 92.69C190.34 92.84 190.61 92.96 190.96 93.00999999999999C192.01000000000002 93.96 191.89000000000001 94.33999999999999 191.89000000000001 94.33999999999999C191.36 94.41999999999999 190.89000000000001 94.15999999999998 190.53 93.88ZM184.04 97.45C184.01999999999998 98.2 183.54 98.91 183.51 99.14C183.48999999999998 98.91 183 98.2 182.98 97.45C182.97 97.07000000000001 183.31 96.48 183.51 96.26L183.51999999999998 96.26C183.70999999999998 96.48 184.05999999999997 97.07000000000001 184.04 97.45ZM176.89 92.69C176.92999999999998 92.82 177 92.98 176.95 93.21C176.89999999999998 93.44 176.73 93.69999999999999 176.5 93.88C176.14 94.16 175.67 94.42 175.14 94.33999999999999C175.14 94.33999999999999 175.01999999999998 93.96 176.07 93.00999999999999C176.42 92.96 176.69 92.83999999999999 176.89 92.69ZM172.27 88.4C172.63000000000002 88.17 173.10000000000002 88.17 173.34 88.26C173.57 88.35000000000001 174.11 88.35000000000001 174.34 88.30000000000001C174.44 88.73000000000002 174.66 89.01 174.87 89.20000000000002C174.77 89.22000000000001 174.67000000000002 89.25000000000001 174.59 89.28000000000002C174.27 89.39000000000001 173.99 89.44000000000001 173.21 89.24000000000001C172.39000000000001 89.03000000000002 172.27 88.4 172.27 88.4ZM182.62 106.92C182.74 106.72 182.95000000000002 106.35000000000001 183.14000000000001 106.02L183.4 106.47999999999999L182.66 107.75999999999999L181.69 106.41999999999999L181.96 106.01999999999998C182.29000000000002 106.45999999999998 182.53 106.78999999999998 182.62 106.91999999999999ZM178.12 83.07C178.25 83.49 178.72 83.61999999999999 178.95000000000002 83.72C179.20000000000002 83.83 179.43 84.1 179.43 84.1C179.04000000000002 84.19 178.87 84.28999999999999 178.87 84.28999999999999C178.14000000000001 83.78999999999999 177.53 84.3 177.53 84.3C177.14000000000001 84.08 177.06 83.53999999999999 177.26 83.25999999999999C177.45999999999998 82.96999999999998 177.89999999999998 83.02 178.12 83.07ZM189.49 84.3C189.49 84.3 188.89000000000001 83.78999999999999 188.15 84.28999999999999C188.15 84.28999999999999 187.98000000000002 84.19 187.6 84.1C187.6 84.1 187.82999999999998 83.83 188.07999999999998 83.72C188.30999999999997 83.62 188.77999999999997 83.49 188.91 83.07C189.12 83.02 189.57 82.97 189.77 83.25999999999999C189.97 83.53999999999999 189.89000000000001 84.07999999999998 189.49 84.3ZM185.96 93.03C185.78 93.38 185.52 93.63 185.38 93.75C185.38 93.75 185.07999999999998 93.23 184.99 93C184.88 92.73 184.89000000000001 92.47 184.94 92.37C185.04 92.14 185.4 91.81 185.57 91.53C185.6 91.67 186.1 92.34 186.19 92.43C186.19 92.43 186.15 92.67 185.96 93.03ZM180.84 92.43C180.92000000000002 92.34 181.42000000000002 91.67 181.46 91.53C181.62 91.81 181.98000000000002 92.14 182.09 92.37C182.13 92.47 182.14000000000001 92.73 182.04 93C181.95 93.23 181.64 93.75 181.64 93.75C181.5 93.63 181.25 93.38 181.05999999999997 93.03C180.86999999999998 92.67 180.83999999999997 92.43 180.83999999999997 92.43ZM180.27 85.25C180.11 85.11 179.77 85.01 179.77 85.01C179.87 84.98 180.07000000000002 84.94000000000001 180.15 84.93C180.59 85.2 180.74 85.41000000000001 180.83 85.53C180.96 85.7 181.23000000000002 85.87 181.23000000000002 85.87C181.18 85.95 180.99 86.55000000000001 181.04000000000002 86.84L181.01000000000002 86.85000000000001C180.93 86.71000000000001 180.68 86.26 180.60000000000002 85.84C180.54000000000002 85.54 180.42000000000002 85.36 180.27 85.25ZM186.88 84.93C186.96 84.94000000000001 187.16 84.98 187.26 85.01C187.26 85.01 186.92 85.11 186.75 85.25C186.61 85.36 186.48 85.54 186.43 85.84C186.35 86.26 186.09 86.71000000000001 186.02 86.85000000000001L185.99 86.84C186.04000000000002 86.55 185.85000000000002 85.95 185.8 85.87C185.8 85.87 186.07000000000002 85.7 186.19 85.53C186.28 85.41 186.44 85.2 186.88 84.93ZM174.27 92.74C173.65 92.80999999999999 173.41 92.38 173.41 92.38C173.60999999999999 92.03999999999999 174.17 91.97 174.65 91.58999999999999L174.68 91.69999999999999L174.79000000000002 91.71999999999998C175.18 91.80999999999999 175.50000000000003 91.78999999999998 175.75000000000003 91.72999999999999C175.72000000000003 91.79999999999998 175.69000000000003 91.91999999999999 175.68000000000004 91.97999999999999C175.35000000000002 92.38 174.89000000000004 92.66999999999999 174.27000000000004 92.74ZM190.45 104.21C190.44 104.27 190.44 104.35 190.48 104.39999999999999C190.48 104.39999999999999 190.41 104.49 190.41 104.58C190.04999999999998 104.59 189.67 104.57 189.29 104.51C188.66 104.41000000000001 187.98 104.29 187.31 104.04L187.53 103.73C188.15 103.95 188.76 104.07000000000001 189.34 104.15C189.72 104.21000000000001 190.1 104.23 190.45000000000002 104.21000000000001ZM193.61 92.38C193.61 92.38 193.38000000000002 92.81 192.76000000000002 92.74C192.14000000000001 92.67 191.68 92.38 191.35000000000002 91.97999999999999C191.34000000000003 91.91999999999999 191.31000000000003 91.79999999999998 191.28000000000003 91.72999999999999C191.52000000000004 91.78999999999999 191.85000000000002 91.80999999999999 192.24000000000004 91.71999999999998L192.35000000000005 91.69999999999999L192.38000000000005 91.58999999999999C192.85000000000005 91.96999999999998 193.42000000000004 92.03999999999999 193.61000000000004 92.38ZM177.68 104.15C178.26000000000002 104.07000000000001 178.88 103.95 179.49 103.73L179.71 104.04C179.04000000000002 104.29 178.37 104.41000000000001 177.74 104.51C177.35000000000002 104.57000000000001 176.98000000000002 104.59 176.62 104.58C176.62 104.49 176.55 104.39999999999999 176.55 104.39999999999999C176.58 104.35 176.58 104.27 176.58 104.21C176.93 104.22999999999999 177.3 104.21 177.68 104.14999999999999ZM184.99 89.88C184.99 89.88 185.38 90.39 185.49 90.86C185.59 91.34 185.07000000000002 91.62 184.83 92.04C184.77 91.87 184.57000000000002 91.41000000000001 184.34 91.25C184.34 91.25 184.05 90.4 184.99 89.88ZM181.54 90.86C181.64 90.39 182.03 89.88 182.03 89.88C182.98 90.39999999999999 182.68 91.25 182.68 91.25C182.45000000000002 91.41 182.25 91.87 182.19 92.04C181.95 91.62 181.44 91.34 181.54 90.86ZM183.2 95.86C183.23999999999998 96.17999999999999 183.13 96.42 182.98999999999998 96.69C182.85999999999999 96.94 182.52999999999997 97.31 182.52999999999997 97.31C182.47999999999996 97 182.14 96.67 182.11999999999998 96.18C182.10999999999999 95.78 182.73999999999998 95.03 182.73999999999998 95.03C183.07999999999998 95.34 183.15999999999997 95.54 183.2 95.86ZM184.91 96.18C184.89 96.67 184.54999999999998 97 184.5 97.31C184.5 97.31 184.17 96.94 184.04 96.69C183.9 96.42 183.79 96.17999999999999 183.82999999999998 95.86C183.85999999999999 95.54 183.95 95.34 184.27999999999997 95.03C184.27999999999997 95.03 184.91999999999996 95.78 184.90999999999997 96.18ZM183.91 86.89C183.98 86.59 184.37 85.85 184.37 85.85C184.55 86.39 184.76 86.91 184.81 87.08C184.86 87.24 184.91 87.63 184.88 87.8C184.85 87.96 184.60999999999999 88.27 184.60999999999999 88.27C184.39999999999998 87.91 184.17 87.72 184.04 87.53999999999999C183.91 87.36999999999999 183.84 87.16999999999999 183.91 86.88999999999999ZM182.22 87.08C182.27 86.91 182.48 86.39 182.65 85.85C182.65 85.85 183.05 86.58999999999999 183.12 86.89C183.19 87.17 183.12 87.37 182.99 87.54C182.86 87.72000000000001 182.63 87.91000000000001 182.42000000000002 88.27000000000001C182.42000000000002 88.27000000000001 182.18 87.96000000000001 182.15 87.80000000000001C182.12 87.63000000000001 182.17000000000002 87.24000000000001 182.22 87.08000000000001ZM189.59 95.23C189.47 95.09 189.24 94.87 189.13 94.5C189.04 94.19 189.09 93.82 189.12 93.59C189.14000000000001 93.41 189.16 93.31 189.24 93.10000000000001C189.3 93.13000000000001 189.36 93.15 189.42000000000002 93.17L189.50000000000003 93.19L189.57000000000002 93.16C189.58 93.14999999999999 189.67000000000002 93.1 189.77 92.97C189.87 93.08 189.98000000000002 93.27 190.05 93.48C190.18 93.86 190.14000000000001 94.24000000000001 190.04000000000002 94.56C189.94000000000003 94.86 189.59000000000003 95.23 189.59000000000003 95.23ZM177.78 93.1C177.86 93.30999999999999 177.89000000000001 93.41 177.91 93.58999999999999C177.94 93.82 177.98 94.18999999999998 177.89 94.49999999999999C177.77999999999997 94.86999999999999 177.55999999999997 95.08999999999999 177.42999999999998 95.22999999999999C177.42999999999998 95.22999999999999 177.08999999999997 94.85999999999999 176.98999999999998 94.55999999999999C176.87999999999997 94.24 176.85 93.85999999999999 176.98 93.47999999999999C177.04999999999998 93.27 177.16 93.07999999999998 177.26 92.96999999999998C177.35 93.09999999999998 177.45 93.14999999999999 177.45999999999998 93.15999999999998L177.52999999999997 93.18999999999998L177.59999999999997 93.16999999999999C177.66999999999996 93.14999999999999 177.72999999999996 93.12999999999998 177.77999999999997 93.1ZM185.07 87.93C185.14 88.22000000000001 185.2 88.57000000000001 185.37 88.94000000000001C185.52 89.26 185.85 89.71000000000001 185.85 89.71000000000001C185.73 89.98 185.51999999999998 90.28 185.51999999999998 90.28C185.39999999999998 90.08 185.15999999999997 89.62 185.01 89.21000000000001C184.88 88.88000000000001 184.84 88.7 184.85999999999999 88.48C184.88 88.26 184.99999999999997 88.02000000000001 185.07 87.93ZM176.52 82.43C176.54000000000002 82.25 176.57000000000002 81.95 176.45000000000002 81.71000000000001C176.35000000000002 81.52000000000001 176.15 81.17 176.18 80.83000000000001C176.35 80.72000000000001 176.64000000000001 80.62000000000002 176.64000000000001 80.62000000000002C176.62 80.92000000000002 176.70000000000002 81.19000000000001 176.85000000000002 81.48000000000002C177.01000000000002 81.78000000000002 177.08 82.27000000000002 176.95000000000002 82.61000000000001C176.85000000000002 82.88000000000001 176.76000000000002 83.27000000000001 176.76000000000002 83.40000000000002C176.54000000000002 83.08000000000003 176.47000000000003 82.75000000000001 176.52 82.43000000000002ZM190.18 81.48C190.33 81.19 190.41 80.92 190.38 80.62C190.38 80.62 190.68 80.72 190.85 80.83C190.88 81.17 190.67 81.52 190.57999999999998 81.71C190.45999999999998 81.94999999999999 190.48 82.25 190.51 82.42999999999999C190.54999999999998 82.74999999999999 190.48 83.08 190.26999999999998 83.39999999999999C190.26 83.27 190.17999999999998 82.88 190.07999999999998 82.60999999999999C189.95 82.26999999999998 190.01999999999998 81.77999999999999 190.17999999999998 81.47999999999999ZM181.18 89.71C181.18 89.71 181.51000000000002 89.25999999999999 181.66 88.94C181.82 88.57 181.89 88.22 181.96 87.92999999999999C182.03 88.02 182.15 88.25999999999999 182.17000000000002 88.47999999999999C182.18 88.69999999999999 182.15 88.88 182.02 89.21C181.87 89.61999999999999 181.62 90.08 181.51000000000002 90.27999999999999C181.51000000000002 90.27999999999999 181.29000000000002 89.97999999999999 181.18 89.71ZM184.66 92.93C184.56 93.41000000000001 184.03 93.83000000000001 184.03 93.83000000000001C183.95 93.61000000000001 183.66 93.21000000000001 183.65 92.55000000000001C183.65 92.30000000000001 184.1 91.9 184.23000000000002 91.58000000000001C184.65 91.95000000000002 184.71 92.68 184.66000000000003 92.93ZM178.74 99.51C178.51000000000002 99.44000000000001 178.06 99.31 178.06 99.31C178.35 99 178.57 98.85000000000001 178.87 98.77C179.17000000000002 98.67999999999999 179.9 98.57 180.22 98.45C179.93 98.73 179.8 99 179.53 99.10000000000001C179.12 99.26 178.74 99.51 178.74 99.51ZM183 93.83C183 93.83 182.46 93.41 182.37 92.92999999999999C182.32 92.67999999999999 182.37 91.94999999999999 182.8 91.58C182.92000000000002 91.89999999999999 183.38000000000002 92.3 183.37 92.55C183.37 93.21 183.07 93.61 183 93.83ZM187.49 99.1C187.23000000000002 99 187.09 98.72999999999999 186.81 98.44999999999999C187.13 98.57 187.85 98.67999999999999 188.15 98.76999999999998C188.45000000000002 98.84999999999998 188.67000000000002 98.99999999999999 188.96 99.30999999999999C188.96 99.30999999999999 188.52 99.43999999999998 188.28 99.50999999999999C188.28 99.50999999999999 187.91 99.25999999999999 187.49 99.1ZM181.76 93.93C181.87 93.73 182.10999999999999 93.51 182.20999999999998 93.30000000000001C182.32 93.52000000000001 182.64999999999998 93.88000000000001 182.70999999999998 94.16000000000001C182.74999999999997 94.38000000000001 182.70999999999998 94.56000000000002 182.64999999999998 94.72000000000001C182.58999999999997 94.87000000000002 182.39 95.17000000000002 182.24999999999997 95.40000000000002C182.24999999999997 95.40000000000002 181.79999999999998 94.98000000000002 181.69999999999996 94.68000000000002C181.61999999999995 94.45000000000002 181.64999999999995 94.13000000000002 181.75999999999996 93.93000000000002ZM184.77 95.4C184.64000000000001 95.17 184.44 94.87 184.38000000000002 94.72C184.32000000000002 94.56 184.28000000000003 94.38 184.32000000000002 94.16C184.37000000000003 93.88 184.71 93.52 184.81000000000003 93.3C184.92000000000004 93.50999999999999 185.16000000000003 93.73 185.26000000000002 93.92999999999999C185.38000000000002 94.13 185.4 94.44999999999999 185.33 94.67999999999999C185.23000000000002 94.97999999999999 184.77 95.39999999999999 184.77 95.39999999999999ZM189.06 82.05C189.08 81.8 188.93 81.6 188.82 81.44C188.72 81.28 188.53 80.87 188.51999999999998 80.71C188.51999999999998 80.55 188.67 80.36 188.85 80.19C188.82 80.27 188.85999999999999 80.39 188.92 80.53C188.98 80.69 189.25 81.07000000000001 189.33999999999997 81.23C189.42999999999998 81.4 189.55999999999997 81.62 189.49999999999997 81.93C189.42999999999998 82.28 188.85999999999999 82.41000000000001 188.85999999999999 82.41000000000001C188.95999999999998 82.30000000000001 189.04999999999998 82.18 189.05999999999997 82.05000000000001ZM177.69 81.23C177.78 81.07000000000001 178.04 80.69 178.10999999999999 80.53C178.17 80.39 178.2 80.27 178.17999999999998 80.19C178.35999999999999 80.36 178.51 80.55 178.49999999999997 80.71C178.49999999999997 80.86999999999999 178.29999999999998 81.27999999999999 178.19999999999996 81.44C178.09999999999997 81.6 177.94999999999996 81.8 177.96999999999997 82.05C177.97999999999996 82.17999999999999 178.06999999999996 82.3 178.16999999999996 82.41C178.16999999999996 82.41 177.59999999999997 82.28 177.51999999999995 81.92999999999999C177.45999999999995 81.61999999999999 177.59999999999997 81.39999999999999 177.68999999999994 81.22999999999999ZM192.27 92.79C192.88000000000002 93.2 192.63000000000002 93.7 192.63000000000002 93.7C191.70000000000002 93.83 191.26000000000002 93.08 191.13000000000002 92.94C191.15000000000003 92.92 191.32000000000002 92.71 191.36 92.36C191.65 92.46 191.84 92.52 192.27 92.79ZM187.03 100.61C186.93 100.66 186.49 100.83 186.21 100.26C186.21 100.26 186.69 100.41000000000001 186.83 100.18C186.96 99.95 186.75 99.62 186.61 99.52000000000001C186.44000000000003 99.4 186.13000000000002 99.31000000000002 185.93 99.34C185.93 99.34 186.09 99.2 186.27 99.11C186.31 99.13 186.38000000000002 99.17 186.55 99.17C186.55 99.17 187.18 99.60000000000001 187.26000000000002 100.03C187.32000000000002 100.39 187.12000000000003 100.56 187.03000000000003 100.61ZM175.89 92.94C175.76999999999998 93.08 175.32 93.83 174.39999999999998 93.7C174.39999999999998 93.7 174.14999999999998 93.2 174.76 92.79C175.17999999999998 92.52000000000001 175.38 92.46000000000001 175.67 92.36C175.70999999999998 92.71 175.88 92.92 175.89 92.94ZM180 100.61C179.9 100.56 179.71 100.39 179.77 100.03C179.84 99.6 180.47 99.17 180.47 99.17C180.64 99.17 180.71 99.13 180.76 99.11C180.94 99.2 181.09 99.34 181.09 99.34C180.9 99.31 180.59 99.4 180.41 99.52000000000001C180.28 99.62 180.07 99.95000000000002 180.2 100.18C180.32999999999998 100.41000000000001 180.82 100.26 180.82 100.26C180.53 100.83 180.09 100.66000000000001 180 100.61ZM185.75 87.31C186.17 88.46000000000001 187.1 88.39 187.1 88.39C186.9 88.86 186.4 88.83 186.18 88.7C185.93 88.54 185.8 88.27 185.75 88.06C185.68 87.79 185.69 87.5 185.75 87.31ZM180.85 88.7C180.63 88.83 180.12 88.86 179.93 88.39C179.93 88.39 180.86 88.46 181.28 87.31C181.33 87.5 181.35 87.79 181.28 88.06C181.23 88.27 181.1 88.54 180.85 88.7ZM183.51 92.24C183.45 91.96 182.85 91.42 182.89999999999998 91.11999999999999C182.98999999999998 90.67999999999999 183.27999999999997 90.77 183.51 90.58999999999999L183.51999999999998 90.58999999999999C183.74999999999997 90.77 184.04 90.67999999999999 184.11999999999998 91.11999999999999C184.17999999999998 91.41999999999999 183.57999999999998 91.96 183.50999999999996 92.24ZM180.48 90.42C180.64999999999998 90.34 180.85999999999999 90.09 181.01 89.91C181.14 90.16 181.37 90.52 181.37 90.52C181.35 90.67 181.36 90.92999999999999 181.31 91.24C181.26 91.55 180.85 92.08 180.85 92.08C180.75 91.8 180.5 91.42 180.45 91.05C180.42 90.78999999999999 180.48 90.42 180.48 90.42ZM187.9 100.09C187.71 100.13000000000001 187.59 100.22 187.48000000000002 100.54C187.41000000000003 100.46000000000001 187.32000000000002 100.37 187.39000000000001 100.2C187.44000000000003 100.07000000000001 187.70000000000002 99.93 187.86 99.86C188.12 99.73 188.83 99.55 189.07000000000002 99.48C189.07000000000002 99.48 189.18000000000004 99.61 189.25000000000003 99.75C189.27000000000004 99.81 189.23000000000002 99.86 189.14000000000001 99.88C188.93 99.92 188.45000000000002 99.83 188.34 99.89999999999999C188.21 99.97999999999999 188.26 100.08999999999999 188.26 100.19999999999999C188.26 100.19999999999999 188.04 100.07 187.89999999999998 100.08999999999999ZM177.78 99.75C177.84 99.61 177.96 99.48 177.96 99.48C178.19 99.55 178.91 99.73 179.17000000000002 99.86C179.33 99.92999999999999 179.59 100.07 179.63000000000002 100.2C179.70000000000002 100.37 179.61 100.46000000000001 179.54000000000002 100.54C179.43 100.22000000000001 179.32000000000002 100.13000000000001 179.13000000000002 100.09C178.99000000000004 100.07000000000001 178.77 100.2 178.77 100.2C178.77 100.09 178.81 99.98 178.69 99.9C178.57 99.83000000000001 178.09 99.92 177.89 99.88000000000001C177.79 99.86000000000001 177.75 99.81000000000002 177.77999999999997 99.75000000000001ZM186.02 89.91C186.17000000000002 90.09 186.38000000000002 90.34 186.55 90.42C186.55 90.42 186.60000000000002 90.79 186.57000000000002 91.05C186.52 91.42 186.28000000000003 91.8 186.18000000000004 92.08C186.18000000000004 92.08 185.76000000000005 91.55 185.71000000000004 91.24C185.66000000000003 90.92999999999999 185.68000000000004 90.67 185.66000000000003 90.52C185.66000000000003 90.52 185.89000000000001 90.16 186.02000000000004 89.91ZM183.52 85.27C183.62 85.32 184.04000000000002 85.53999999999999 184.07000000000002 85.85C184.10000000000002 86.16 183.54000000000002 86.74 183.52 86.97999999999999L183.51000000000002 86.97999999999999C183.49 86.74 182.92000000000002 86.16 182.95000000000002 85.85C182.98000000000002 85.53999999999999 183.41000000000003 85.32 183.51000000000002 85.27ZM183.12 90.12C183 89.94 182.89000000000001 89.62 182.95000000000002 89.39C183.03000000000003 89.1 183.19000000000003 88.98 183.29000000000002 88.8C183.37000000000003 88.88 183.42000000000002 88.92999999999999 183.51000000000002 88.98L183.52 88.98C183.61 88.93 183.66 88.88000000000001 183.74 88.8C183.84 88.98 183.99 89.1 184.07000000000002 89.39C184.14000000000001 89.62 184.02 89.94 183.91000000000003 90.12C183.75000000000003 90.35000000000001 183.64000000000001 90.39 183.51000000000002 90.45C183.38000000000002 90.39 183.27 90.35000000000001 183.12000000000003 90.12ZM179.97 84.7C179.97 84.7 178.98 84.69 178.73 85.52C178.73 85.52 178.39 85.00999999999999 178.64 84.67999999999999C178.91 84.32 179.16 84.27 179.51 84.19C179.51 84.19 179.78 84.53999999999999 179.97 84.7ZM188.29 85.52C188.04 84.69 187.06 84.7 187.06 84.7C187.25 84.54 187.52 84.19 187.52 84.19C187.87 84.27 188.12 84.32 188.38000000000002 84.67999999999999C188.64000000000001 85.00999999999999 188.29000000000002 85.52 188.29000000000002 85.52ZM181.9 85.29C181.9 85.29 181.91 85.45 181.78 85.68C181.78 85.68 181.59 85.27000000000001 181.27 84.94000000000001C181.09 84.76 180.97 84.66000000000001 180.59 84.4C180.59 84.4 180.91 84.49000000000001 181.02 84.52000000000001C181.02 84.52000000000001 181.02 84.34 181.02 84.25000000000001C181.11 84.28000000000002 181.23000000000002 84.31000000000002 181.33 84.32000000000001C181.33 84.32000000000001 181.65 85.01 181.9 85.29ZM185.69 84.32C185.8 84.30999999999999 185.92 84.27999999999999 186.01 84.25C186 84.34 186.01 84.52 186.01 84.52C186.10999999999999 84.49 186.42999999999998 84.39999999999999 186.42999999999998 84.39999999999999C186.04999999999998 84.66 185.93999999999997 84.75999999999999 185.74999999999997 84.94C185.42999999999998 85.27 185.24999999999997 85.67999999999999 185.24999999999997 85.67999999999999C185.10999999999999 85.44999999999999 185.12999999999997 85.28999999999999 185.12999999999997 85.28999999999999C185.37999999999997 85.00999999999999 185.68999999999997 84.32 185.68999999999997 84.32ZM184.59 81.18C184.4 81.09 184.3 81.06 184.12 81.03C184.18 80.59 184.35 79.54 184.52 79.41C184.61 79.34 184.73000000000002 79.35 184.87 79.39C185 79.43 185.14000000000001 79.52 185.14000000000001 79.63C185.15 79.83 184.93 80.39999999999999 184.59 81.17999999999999ZM182.9 81.03C182.73000000000002 81.06 182.63 81.09 182.43 81.18C182.1 80.4 181.87 79.83000000000001 181.88 79.63000000000001C181.89 79.52000000000001 182.03 79.43 182.16 79.39000000000001C182.29999999999998 79.35000000000001 182.42 79.34000000000002 182.5 79.41000000000001C182.68 79.54 182.84 80.59000000000002 182.9 81.03000000000002ZM187.38 98.4C187.38 98.4 186.93 98.30000000000001 186.57999999999998 98.19000000000001C186.2 98.07000000000001 185.94 97.9 185.79999999999998 97.82000000000001C185.86999999999998 97.72000000000001 185.99999999999997 97.54 185.96999999999997 97.25000000000001C185.96999999999997 97.25000000000001 186.56999999999996 97.62000000000002 186.74999999999997 97.76000000000002C186.92999999999998 97.90000000000002 187.29999999999998 98.28000000000002 187.37999999999997 98.40000000000002ZM179.65 98.4C179.73000000000002 98.28 180.1 97.9 180.28 97.76C180.46 97.62 181.05 97.25 181.05 97.25C181.02 97.54 181.16000000000003 97.72 181.23000000000002 97.82C181.08 97.89999999999999 180.82000000000002 98.07 180.44000000000003 98.19C180.10000000000002 98.3 179.65000000000003 98.39999999999999 179.65000000000003 98.39999999999999ZM181.06 95.28C181.06 95.28 180.69 94.81 180.62 94.61C180.56 94.42 180.54 94.1 180.62 93.9C180.69 93.69000000000001 180.83 93.43 180.92000000000002 93.24000000000001C181.04000000000002 93.49000000000001 181.32000000000002 93.74000000000001 181.39000000000001 93.97000000000001C181.46 94.23000000000002 181.49 94.39000000000001 181.36 94.70000000000002C181.24 94.96000000000002 181.10000000000002 95.12000000000002 181.06 95.28000000000002ZM181.54 84.1C182.06 84.3 182.34 84.75999999999999 182.44 85.05999999999999C182.57 85.46 182.31 86.01999999999998 182.31 86.01999999999998C182.33 85.86999999999998 182.22 85.43999999999998 182.04 85.16999999999999C181.85 84.87999999999998 181.66 84.49999999999999 181.54 84.1ZM184.59 85.06C184.69 84.76 184.97 84.3 185.49 84.10000000000001C185.37 84.50000000000001 185.17000000000002 84.88000000000001 184.98000000000002 85.17C184.81000000000003 85.44 184.70000000000002 85.87 184.72000000000003 86.02C184.72000000000003 86.02 184.46000000000004 85.46 184.59000000000003 85.06ZM186.11 93.24C186.20000000000002 93.42999999999999 186.33 93.69 186.41000000000003 93.89999999999999C186.48000000000002 94.1 186.47000000000003 94.41999999999999 186.40000000000003 94.60999999999999C186.34000000000003 94.80999999999999 185.97000000000003 95.27999999999999 185.97000000000003 95.27999999999999C185.92000000000002 95.11999999999999 185.79000000000002 94.96 185.67000000000002 94.69999999999999C185.54000000000002 94.38999999999999 185.57000000000002 94.22999999999999 185.64000000000001 93.96999999999998C185.71 93.73999999999998 185.99 93.48999999999998 186.11 93.23999999999998ZM182.25 89.01C182.31 88.85000000000001 182.77 88.32000000000001 182.85 88.22C182.97 88.46 182.98999999999998 88.72 182.95 88.87C182.92 89.02000000000001 182.72 89.24000000000001 182.7 89.49000000000001C182.67 89.87 182.98 90.35000000000001 182.98 90.35000000000001C182.69 90.21000000000001 182.36999999999998 89.88000000000001 182.22 89.67C182.08 89.47 182.19 89.17 182.25 89.01ZM184.17 88.22C184.26 88.32 184.72 88.85 184.78 89.01C184.84 89.17 184.95 89.47 184.8 89.67C184.66000000000003 89.88 184.34 90.21000000000001 184.05 90.35000000000001C184.05 90.35000000000001 184.36 89.87 184.33 89.49000000000001C184.31 89.24000000000001 184.11 89.02000000000001 184.07000000000002 88.87C184.04000000000002 88.72 184.06000000000003 88.46000000000001 184.17000000000002 88.22ZM181.1 85.5C181.1 85.5 180.85 85.16 180.57999999999998 85.01C180.35999999999999 84.89 179.95999999999998 84.55000000000001 179.74999999999997 84.25C179.85999999999999 84.28 180.36999999999998 84.44 180.60999999999999 84.61C180.92 84.83 181.13 85.08 181.1 85.5ZM186.41 84.61C186.66 84.44 187.17 84.28 187.27 84.25C187.07000000000002 84.55 186.67000000000002 84.89 186.45000000000002 85.01C186.18 85.16000000000001 185.93 85.5 185.93 85.5C185.89000000000001 85.08 186.11 84.83 186.41 84.61ZM186.53 106.19L186.53 107.41L185.35 106.95L185.75 106.7C185.71 106.63000000000001 185.65 106.54 185.57 106.43L185.85999999999999 106.03L186.14 106.44ZM180.01 98.94C180.16 98.78 180.44 98.46 180.72 98.28C181 98.09 181.35 97.97 181.35 97.97C181.43 98.07 181.5 98.11 181.57 98.16C181.38 98.25999999999999 181.17 98.32 181.1 98.36C180.79999999999998 98.54 180.7 98.92999999999999 180.7 98.92999999999999C180.42999999999998 99.05 180.01 98.94 180.01 98.94ZM187.01 98.94C187.01 98.94 186.59 99.05 186.32 98.92999999999999C186.32 98.92999999999999 186.22 98.53999999999999 185.92 98.36C185.85999999999999 98.32 185.64999999999998 98.26 185.45 98.16C185.53 98.11 185.58999999999997 98.07 185.67999999999998 97.97C185.67999999999998 97.97 186.01999999999998 98.09 186.30999999999997 98.28C186.58999999999997 98.46000000000001 186.85999999999999 98.78 187.00999999999996 98.94ZM185.46 94.95C185.96 95.41 186.02 95.79 185.96 96.02C185.9 96.25999999999999 185.65 96.75999999999999 185.65 96.75999999999999C185.55 96.57999999999998 185.23000000000002 96.16999999999999 185.15 95.88C185.07 95.58999999999999 185.35 95.1 185.46 94.94999999999999ZM181.07 96.02C181.01 95.78999999999999 181.06 95.41 181.57 94.95C181.67 95.10000000000001 181.95 95.59 181.87 95.88000000000001C181.8 96.17000000000002 181.48000000000002 96.58000000000001 181.37 96.76C181.37 96.76 181.12 96.26 181.07 96.02000000000001ZM185.34 98.01C184.91 97.71000000000001 184.84 97.43 184.89000000000001 97.2C184.92000000000002 97.08 185.13000000000002 96.67 185.20000000000002 96.45C185.31000000000003 96.64 185.56000000000003 96.92 185.67000000000002 97.04C185.78000000000003 97.16000000000001 185.84 97.33000000000001 185.73000000000002 97.57000000000001C185.62 97.82000000000001 185.34000000000003 98.01 185.34000000000003 98.01ZM181.68 98.01C181.68 98.01 181.4 97.82000000000001 181.29000000000002 97.57000000000001C181.19000000000003 97.33000000000001 181.25000000000003 97.16000000000001 181.36 97.04C181.47000000000003 96.92 181.72000000000003 96.64 181.83 96.45C181.9 96.67 182.11 97.08 182.13000000000002 97.2C182.19000000000003 97.43 182.12000000000003 97.71000000000001 181.68000000000004 98.01ZM182.54 82.38C182.01999999999998 82.67 181.44 82.63 181.44 82.63C181.56 82.42999999999999 181.66 82.25 181.98 82.02C182.31 81.78999999999999 182.82999999999998 81.74 183.04 81.77C182.98999999999998 81.92 182.78 82.24 182.54 82.38ZM183.99 81.77C184.20000000000002 81.74 184.72 81.78999999999999 185.05 82.02C185.37 82.25 185.47 82.42999999999999 185.58 82.63C185.58 82.63 185.01000000000002 82.67 184.49 82.38C184.25 82.24 184.03 81.92 183.99 81.77ZM185.56 86.68C185.59 87.16000000000001 185.46 87.78 185.46 87.78C185.29000000000002 87.44 185.02 87.26 184.89000000000001 86.85C184.77 86.44999999999999 185.04000000000002 86.05999999999999 185.13000000000002 85.83C185.35000000000002 86.01 185.53000000000003 86.19 185.56000000000003 86.67999999999999ZM182.13 86.85C182.01 87.25999999999999 181.74 87.44 181.57 87.78C181.57 87.78 181.44 87.16 181.47 86.68C181.5 86.19000000000001 181.68 86.01 181.9 85.83000000000001C181.99 86.06000000000002 182.25 86.45000000000002 182.13 86.85000000000001ZM183.05 81.02C182.99 80.64 182.93 80.25999999999999 182.86 79.86C182.78 79.47 182.63000000000002 79.08 182.63000000000002 79.08C182.82000000000002 79.13 182.93000000000004 79.33 183.02 79.61C183.10000000000002 79.88 183.25 80.58 183.31 81C183.22 81 183.13 81.01 183.05 81.02ZM183.51 88.73C183.32999999999998 88.58 183.17 88.35000000000001 183.12 88.22C183.07 88.09 183.06 87.89 183.18 87.74C183.32 87.55999999999999 183.5 87.36999999999999 183.51000000000002 87.19999999999999L183.52 87.19999999999999C183.53 87.36999999999999 183.71 87.55999999999999 183.85000000000002 87.74C183.97000000000003 87.89 183.96000000000004 88.08999999999999 183.91000000000003 88.22C183.86 88.35 183.70000000000002 88.58 183.52000000000004 88.73ZM183.98 81.02C183.89999999999998 81.00999999999999 183.81 81 183.72 81C183.78 80.58 183.92 79.88 184.01 79.61C184.1 79.33 184.20999999999998 79.13 184.39 79.08C184.39 79.08 184.25 79.47 184.17 79.86C184.08999999999997 80.26 184.03 80.64 183.98 81.02ZM183.9 79.42C183.9 79.69 183.56 80.29 183.52 80.58L183.51000000000002 80.58C183.46 80.28999999999999 183.13000000000002 79.69 183.13000000000002 79.42C183.13000000000002 79.21000000000001 183.3 79.04 183.51000000000002 79.04C183.73000000000002 79.04 183.9 79.21000000000001 183.9 79.42ZM182.77 84.36C183.01000000000002 84.51 183.23000000000002 84.85 183.32000000000002 85.25C183.32000000000002 85.25 182.92000000000002 85.18 182.72000000000003 84.99C182.53000000000003 84.8 182.28000000000003 84.50999999999999 182.19000000000003 84.24C182.19000000000003 84.24 182.58 84.24 182.77000000000004 84.36ZM184.3 84.99C184.11 85.17999999999999 183.71 85.25 183.71 85.25C183.79000000000002 84.85 184.02 84.51 184.26000000000002 84.36C184.44000000000003 84.24 184.84000000000003 84.24 184.84000000000003 84.24C184.74000000000004 84.50999999999999 184.50000000000003 84.8 184.30000000000004 84.99ZM180.26 91.32C180.19 91.47999999999999 180.10999999999999 91.58 179.92 91.72C179.80999999999997 91.55 179.42999999999998 90.91 179.42 90.45C179.42 90.45 179.89 90.69 180.28 90.51C180.28 90.51 180.33 91.11 180.26 91.32000000000001ZM186.75 90.51C187.14 90.69000000000001 187.6 90.45 187.6 90.45C187.6 90.91 187.22 91.55 187.1 91.72C186.91 91.58 186.82999999999998 91.48 186.76999999999998 91.32C186.7 91.11 186.74999999999997 90.50999999999999 186.74999999999997 90.50999999999999ZM189.9 80.73C189.71 80.68 189.44 80.48 189.23000000000002 80.31C189.02 80.14 188.88000000000002 80.16 188.88000000000002 80.16C188.96000000000004 80.1 189.11 79.99 189.36 80.03999999999999C189.76000000000002 80.11999999999999 190.23000000000002 80.55999999999999 190.23000000000002 80.55999999999999C190.25000000000003 80.60999999999999 190.25000000000003 80.71999999999998 190.24 80.75999999999999C190.14000000000001 80.77 190.10000000000002 80.77999999999999 189.9 80.72999999999999ZM177.12 80.73C176.93 80.78 176.88 80.77000000000001 176.79 80.76C176.78 80.72 176.78 80.61 176.79999999999998 80.56C176.79999999999998 80.56 177.26999999999998 80.12 177.67 80.04C177.91 79.99000000000001 178.07 80.10000000000001 178.14 80.16000000000001C178.14 80.16000000000001 178 80.14000000000001 177.79 80.31000000000002C177.57999999999998 80.48000000000002 177.32 80.68000000000002 177.12 80.73000000000002ZM175.12 104.03C175.29 104.06 175.25 104.19 175.16 104.29C175.07999999999998 104.38000000000001 174.52 104.67 174.43 104.71000000000001C174.33 104.74000000000001 174.15 104.81 174.08 104.7C173.96 104.51 173.88000000000002 104.39 173.9 104.26C173.93 104.14 174.20000000000002 104.09 174.44 104.05000000000001C174.65 104.02000000000001 175.01 104.01 175.12 104.03000000000002ZM192.59 104.05C192.83 104.09 193.09 104.14 193.12 104.25999999999999C193.15 104.38999999999999 193.06 104.50999999999999 192.95000000000002 104.69999999999999C192.87 104.80999999999999 192.69000000000003 104.74 192.60000000000002 104.71C192.50000000000003 104.66999999999999 191.95000000000002 104.38 191.86 104.28999999999999C191.77 104.19 191.74 104.05999999999999 191.9 104.02999999999999C192.02 104.00999999999999 192.38 104.01999999999998 192.59 104.04999999999998ZM175.68 104.39C175.74 104.42 175.72 104.52 175.68 104.59C175.65 104.66 175.39000000000001 104.96000000000001 175.32 105.04C175.25 105.13000000000001 175.12 105.2 174.98 105.19000000000001C174.91 105.18 174.81 105.15 174.72 105.12000000000002C174.64 105.09000000000002 174.56 105.01000000000002 174.6 104.87000000000002C174.64 104.72000000000001 175.18 104.41000000000003 175.32999999999998 104.35000000000002C175.48 104.30000000000003 175.61999999999998 104.35000000000002 175.67999999999998 104.39000000000003ZM191.7 104.35C191.83999999999997 104.41 192.39 104.72 192.42999999999998 104.86999999999999C192.45999999999998 105.00999999999999 192.39 105.08999999999999 192.29999999999998 105.11999999999999C192.21999999999997 105.14999999999999 192.11999999999998 105.17999999999999 192.04 105.18999999999998C191.91 105.19999999999999 191.76999999999998 105.12999999999998 191.7 105.03999999999998C191.63 104.95999999999998 191.38 104.65999999999998 191.33999999999997 104.58999999999997C191.30999999999997 104.51999999999998 191.28999999999996 104.41999999999997 191.33999999999997 104.38999999999997C191.39999999999998 104.34999999999997 191.54999999999998 104.29999999999997 191.7 104.34999999999997ZM179.69 99.67C179.63 99.78 179.51 99.83 179.51 99.83C179.23999999999998 99.66 178.95999999999998 99.57 178.91 99.56C179.15 99.4 179.35 99.3 179.52 99.24000000000001C179.69 99.17000000000002 179.92000000000002 99.11000000000001 179.92000000000002 99.11000000000001C180.03000000000003 99.15000000000002 180.22000000000003 99.17000000000002 180.22000000000003 99.17000000000002C179.99000000000004 99.21000000000002 179.75000000000003 99.57000000000002 179.69000000000003 99.67000000000002ZM187.51 99.83C187.51 99.83 187.39 99.78 187.32999999999998 99.67C187.27999999999997 99.57000000000001 187.02999999999997 99.21000000000001 186.80999999999997 99.17C186.80999999999997 99.17 186.99999999999997 99.15 187.10999999999999 99.11C187.10999999999999 99.11 187.33999999999997 99.17 187.51 99.24C187.67 99.3 187.88 99.39999999999999 188.12 99.55999999999999C188.07 99.57 187.79 99.65999999999998 187.51 99.82999999999998ZM179.6 80.6L179.28 80.6L179.28 80.38L179.6 80.38L179.6 80.03999999999999L179.85999999999999 80.03999999999999L179.85999999999999 80.38L180.17999999999998 80.38L180.17999999999998 80.6L179.85999999999999 80.6L179.85999999999999 81.00999999999999L179.6 81.00999999999999ZM187.17 80.6L186.85 80.6L186.85 80.38L187.17 80.38L187.17 80.03999999999999L187.42 80.03999999999999L187.42 80.38L187.73999999999998 80.38L187.73999999999998 80.6L187.42 80.6L187.42 81.00999999999999L187.17 81.00999999999999ZM183.38 78.56L183.07 78.56L183.07 78.34L183.38 78.34L183.38 78L183.64 78L183.64 78.34L183.95999999999998 78.34L183.95999999999998 78.56L183.64 78.56L183.64 78.97L183.38 78.97ZM182.5 81.39C182.5 81.27 182.96 81.18 183.51 81.18C184.07 81.18 184.51999999999998 81.27000000000001 184.51999999999998 81.39C184.51999999999998 81.51 184.07 81.6 183.51 81.6C182.95999999999998 81.6 182.5 81.50999999999999 182.5 81.39ZM183.52 103.29C183.74 103.29 183.94 103.21000000000001 184.06 103.16000000000001C183.94 103.4 183.72 103.77000000000001 183.51 103.93C183.29999999999998 103.77000000000001 183.07999999999998 103.4 182.97 103.16000000000001C183.08 103.21000000000001 183.29 103.29 183.51 103.29ZM187.47 82.27C187.52 82.06 187.6 81.52 187.73 81.39999999999999C187.85999999999999 81.27999999999999 188.04 81.27 188.13 81.27999999999999C188.23 81.27999999999999 188.32999999999998 81.36999999999999 188.28 81.49999999999999C188.25 81.61999999999999 187.84 82.21999999999998 187.78 82.28999999999999C187.69 82.27999999999999 187.71 82.27999999999999 187.47 82.27ZM179.92 82.27C179.95999999999998 82.06 180.04999999999998 81.52 180.17999999999998 81.39999999999999C180.29999999999998 81.27999999999999 180.48999999999998 81.27 180.57999999999998 81.27999999999999C180.67 81.27999999999999 180.76999999999998 81.36999999999999 180.73 81.49999999999999C180.69 81.61999999999999 180.28 82.21999999999998 180.23 82.28999999999999C180.13 82.27999999999999 180.14999999999998 82.27999999999999 179.92 82.27ZM179.24 82.29C179.19 82.22000000000001 178.78 81.62 178.74 81.5C178.70000000000002 81.37 178.8 81.28 178.89000000000001 81.28C178.99 81.27 179.17000000000002 81.28 179.29000000000002 81.4C179.43 81.52000000000001 179.51000000000002 82.06 179.55 82.27000000000001C179.32000000000002 82.28000000000002 179.34 82.28000000000002 179.24 82.29ZM186.8 82.29C186.74 82.22000000000001 186.34 81.62 186.3 81.5C186.26000000000002 81.37 186.36 81.28 186.45000000000002 81.28C186.54000000000002 81.27 186.72000000000003 81.28 186.85000000000002 81.4C186.98000000000002 81.52000000000001 187.07000000000002 82.06 187.11 82.27000000000001C186.87 82.28000000000002 186.89000000000001 82.28000000000002 186.8 82.29ZM190.65 104.5C190.8 104.4 191.03 104.45 191.28 104.72C191.35 104.8 191.58 105.06 191.6 105.11C191.63 105.15 191.59 105.22 191.51999999999998 105.21C191.45 105.19999999999999 191.07999999999998 105.16 190.85999999999999 105.02C190.64999999999998 104.88 190.49999999999997 104.6 190.64999999999998 104.5ZM175.75 104.72C176 104.45 176.23 104.4 176.37 104.5C176.52 104.6 176.38 104.88 176.16 105.02C175.95 105.16 175.57 105.2 175.51 105.21C175.44 105.22 175.39999999999998 105.14999999999999 175.42 105.11C175.45 105.06 175.67 104.8 175.75 104.72ZM180.04 81.3C180.04 81.45 179.79999999999998 81.81 179.73999999999998 81.97L179.73 81.97C179.67 81.81 179.42999999999998 81.45 179.42999999999998 81.3C179.42999999999998 81.16 179.61999999999998 81.11 179.70999999999998 81.11L179.76 81.11C179.85 81.11 180.04 81.16 180.04 81.3ZM187.59 81.3C187.59 81.45 187.36 81.81 187.29 81.97C187.23 81.81 186.98999999999998 81.45 186.98999999999998 81.3C186.98999999999998 81.16 187.17 81.11 187.26999999999998 81.11L187.32 81.11C187.41 81.11 187.59 81.16 187.59 81.3ZM187 91.85C186.83 92.00999999999999 186.79 92.03999999999999 186.62 92.16C186.45000000000002 92.28999999999999 186.3 92.25 186.3 92.25C186.35000000000002 92.08 186.66000000000003 91.53 186.66000000000003 91.53C186.73000000000002 91.62 186.92000000000002 91.79 187.00000000000003 91.85ZM180.03 91.85C180.11 91.78999999999999 180.29 91.61999999999999 180.37 91.53C180.37 91.53 180.68 92.08 180.73000000000002 92.25C180.73000000000002 92.25 180.58 92.29 180.41000000000003 92.16C180.24000000000004 92.03999999999999 180.20000000000002 92.00999999999999 180.03000000000003 91.85ZM186.41 83.21C186.41 83.21 187.25 83.22 187.28 83.61999999999999C187.41 83.52999999999999 187.49 83.38999999999999 187.52 83.21C187.52 83.21 186.92000000000002 83.22999999999999 186.41 83.16999999999999ZM175.46 103.92C175.51000000000002 103.83 175.8 103.9 175.87 103.92C176.33 104.04 176.45000000000002 104.22 176.37 104.34C176.28 104.45 175.87 104.36 175.65 104.26C175.43 104.16000000000001 175.38 104.04 175.46 103.92ZM191.16 103.92C191.23 103.9 191.51 103.83 191.57 103.92C191.65 104.04 191.59 104.16 191.37 104.26C191.16 104.36 190.74 104.45 190.66 104.34C190.57999999999998 104.22 190.69 104.04 191.16 103.92ZM180.61 83.17C180.10000000000002 83.23 179.51000000000002 83.21000000000001 179.51000000000002 83.21000000000001C179.54000000000002 83.39000000000001 179.62000000000003 83.53 179.75000000000003 83.62C179.78000000000003 83.22 180.61000000000004 83.21000000000001 180.61000000000004 83.21000000000001ZM190.7 82.41C190.67 82.24 190.67 82.1 190.69 81.97999999999999C190.92 82.05999999999999 191.07 82.11999999999999 191.39 82.61999999999999C191.39 82.61999999999999 190.89 82.30999999999999 190.70999999999998 82.60999999999999C190.70999999999998 82.53999999999999 190.7 82.46999999999998 190.7 82.40999999999998ZM176.32 82.61C176.14 82.31 175.64 82.62 175.64 82.62C175.95 82.12 176.10999999999999 82.06 176.33999999999997 81.98C176.35999999999999 82.10000000000001 176.34999999999997 82.24000000000001 176.32999999999998 82.41000000000001C176.32 82.47000000000001 176.32 82.54 176.32 82.61000000000001ZM178.52 83.06C178.42000000000002 82.82000000000001 178.4 82.66 178.78 82.77C178.8 83.07 178.88 83.36 178.99 83.57C178.99 83.57 178.61 83.28999999999999 178.52 83.05999999999999ZM188.04 83.57C188.14 83.36 188.22 83.07 188.25 82.77C188.63 82.66 188.6 82.82 188.51 83.06C188.42 83.29 188.04 83.57000000000001 188.04 83.57000000000001ZM184.3 81.94C184.3 81.94 184.67000000000002 82.33 185.05 82.42C185.05 82.42 184.89000000000001 82.03 184.3 81.94ZM182.73 81.94C182.13 82.03 181.98 82.42 181.98 82.42C182.35 82.33 182.73 81.94 182.73 81.94ZM187.29 82.64C186.94 82.64 186.65 82.59 186.65 82.53C186.65 82.46000000000001 186.94 82.41 187.29 82.41C187.65 82.41 187.95 82.46 187.95 82.53C187.95 82.59 187.64999999999998 82.64 187.29 82.64ZM179.73 82.64C179.36999999999998 82.64 179.07999999999998 82.59 179.07999999999998 82.53C179.07999999999998 82.46000000000001 179.36999999999998 82.41 179.73 82.41C180.09 82.41 180.38 82.46 180.38 82.53C180.38 82.59 180.09 82.64 179.73 82.64ZM183.51 82.05C183.39999999999998 82.05 183.31 81.96 183.31 81.85C183.31 81.75 183.4 81.66 183.51 81.66C183.62 81.66 183.70999999999998 81.75 183.70999999999998 81.85C183.70999999999998 81.96 183.61999999999998 82.05 183.51 82.05ZM178.02 83.9C178.11 83.9 178.18 83.83000000000001 178.18 83.75C178.18 83.66 178.11 83.59 178.02 83.59C177.94 83.59 177.87 83.66 177.87 83.75C177.87 83.83 177.94 83.9 178.02 83.9ZM188.85 83.75C188.85 83.83 188.92 83.9 189 83.9C189.09 83.9 189.16 83.83000000000001 189.16 83.75C189.16 83.66 189.09 83.59 189 83.59C188.92 83.59 188.85 83.66 188.85 83.75ZM193.91698 98.31274C193.91794 98.29870000000001 193.91894 98.28445 193.92 98.27000000000001C193.91950999999997 98.28411000000001 193.91851 98.29835000000001 193.91698 98.31274ZM173.11076 98.28586C173.11043 98.28055 173.11017999999999 98.27527 173.10999999999999 98.27C173.11025999999998 98.27532 173.11050999999998 98.28059999999999 173.11076 98.28586ZM183.52 95.54C183.57000000000002 95.36 183.85000000000002 95.13000000000001 183.97 94.81C184.04 94.62 184.04 94.4 183.96 94.25C183.87 94.07 183.55 93.63 183.51000000000002 93.51C183.47000000000003 93.63000000000001 183.15 94.07000000000001 183.06000000000003 94.25C182.98000000000002 94.4 182.98000000000002 94.62 183.05000000000004 94.81C183.17000000000004 95.13 183.46000000000004 95.36 183.51000000000005 95.54Z " fill="#ffffff" fill-opacity="1" transform="matrix(1,0,0,1,-160,-69)"></path><path id="SvgjsPath1047" d="M212 117L212 69L260 69L260 117Z " fill="#cc003d" fill-opacity="1" transform="matrix(1,0,0,1,-160,-69)"></path><path id="SvgjsPath1048" d="M228.94 91.74C227.82999999999998 91.72 226.76 91.05 226.3 89.14C226.12 88.5 226.03 87.69 226.03 86.86L226.04 86.56C226.06 85.23 226.29 84.28 226.64 83.60000000000001C227.19 82.45 228.05999999999997 82.01 228.95999999999998 82.00000000000001L228.98 82.00000000000001C228.98999999999998 82.00000000000001 228.98999999999998 82.00000000000001 229 82.00000000000001C229.9 82.01000000000002 230.78 82.45000000000002 231.33 83.60000000000001C231.68 84.28000000000002 231.9 85.23 231.93 86.56L231.93 86.86C231.93 87.69 231.84 88.5 231.66 89.14C231.2 91.05 230.13 91.72 229.02 91.74C229.01000000000002 91.74 229 91.74 229 91.74C228.99 91.74 228.99 91.74 228.98 91.74L228.97 91.74C228.96 91.74 228.95 91.74 228.94 91.74ZM246.8 97.33C246.65 97.94 246.33 98.55 245.91000000000003 98.87L247.93000000000004 104.32000000000001L246.12000000000003 104.32000000000001L244.47000000000003 99.60000000000001C244.34000000000003 99.60000000000001 243.45000000000002 99.60000000000001 243.45000000000002 99.60000000000001L243.45000000000002 104.32000000000001L241.77 104.32000000000001L241.77 95.02000000000001L243.45000000000002 95.02000000000001C243.45000000000002 95.02000000000001 243.45000000000002 98.02000000000001 243.45000000000002 98.09L244.14000000000001 98.09C245.04000000000002 98.09 245.3 97.27000000000001 245.37 96.38000000000001C245.42000000000002 95.78000000000002 245.46 95.19000000000001 245.47 95.02000000000001L247.13 95.02000000000001C247.13 95.02000000000001 246.94 96.74000000000001 246.79999999999998 97.33000000000001ZM228.74 95.02C230.54000000000002 95.02 231.3 95.86999999999999 231.49 97.52C231.54000000000002 97.92999999999999 232.13 104.32 232.13 104.32L230.41 104.32C230.41 104.32 230.09 99.99 230.07999999999998 99.8C229.89999999999998 99.8 228.14999999999998 99.8 227.96999999999997 99.8C227.95999999999998 100 227.80999999999997 104.32 227.80999999999997 104.32L226.14999999999998 104.32L226.45999999999998 95.02ZM237.87 95.02L239.55 95.02L239.55 104.32L237.87 104.32L237.87 99.52999999999999L235.56 99.52999999999999L235.56 104.32L233.88 104.32L233.88 95.02L235.56 95.02L235.56 97.99L237.87 97.99ZM221.46 98.06C224.1 98.06 224.49 100.16 224.49 101.16C224.49 102.00999999999999 224.10000000000002 104.32 221.55 104.32L219 104.32L219 95.02L223.7 95.02L223.7 96.56L220.67999999999998 96.56L220.67999999999998 98.08C220.90999999999997 98.07 221.17 98.06 221.45999999999998 98.06ZM220.68 91.54L219 91.54L219 82.24000000000001L224.45 82.24000000000001L224.45 91.54L222.76999999999998 91.54L222.76999999999998 83.79L220.67999999999998 83.79ZM235.56 87.05C234.9 87.05 234.34 86.84 233.87 86.44C233.4 86.03 233.17000000000002 85.50999999999999 233.17000000000002 84.89999999999999L233.17000000000002 82.24L234.85000000000002 82.24L234.85000000000002 84.72C234.85000000000002 84.94 234.91000000000003 85.1 235.04000000000002 85.22C235.22000000000003 85.39 235.50000000000003 85.48 235.88000000000002 85.48L236.79000000000002 85.48L236.79000000000002 82.24000000000001L238.48000000000002 82.24000000000001L238.48000000000002 91.54L236.79000000000002 91.54L236.79000000000002 87.05000000000001ZM241.74 91.54L241.74 83.79L240.34 83.79L240.34 82.24000000000001L244.84 82.24000000000001L244.84 83.79L243.44 83.79L243.44 91.54ZM227.71 86.91C227.73000000000002 89.36999999999999 228.34 90.21 228.98000000000002 90.22C229.63000000000002 90.21 230.24 89.37 230.25000000000003 86.91C230.24000000000004 84.39 229.63000000000002 83.56 228.98000000000002 83.55C228.34000000000003 83.56 227.73000000000002 84.39 227.71 86.91ZM221.26 102.88C221.70999999999998 102.88 222.82 102.78 222.82 101.21C222.82 99.47999999999999 221.81 99.53999999999999 220.95999999999998 99.53999999999999C220.80999999999997 99.53999999999999 220.67999999999998 99.57 220.67999999999998 99.57L220.67999999999998 102.83999999999999C220.67999999999998 102.83999999999999 221.08999999999997 102.88 221.26 102.88ZM229.9 98.25C229.79 96.78 229.57 96.54 228.34 96.54L228.04 96.56C228.04 96.74000000000001 228.01 98.07000000000001 228 98.25ZM248.2 85.48C248.2 85.29 248.23 83.97 248.23999999999998 83.79L248.54999999999998 83.79C249.77999999999997 83.79 249.98 84.01 250.1 85.48ZM248.93 82.24L246.65 82.24L246.34 91.53999999999999L248 91.53999999999999C248 91.53999999999999 248.16 87.22999999999999 248.17 87.02999999999999C248.35 87.02999999999999 250.1 87.02999999999999 250.26999999999998 87.02999999999999C250.29 87.21 250.6 91.53999999999999 250.6 91.53999999999999L252.32 91.53999999999999C252.32 91.53999999999999 251.73 85.14999999999999 251.68 84.74C251.49 83.1 250.73000000000002 82.24 248.93 82.24Z " fill="#ffffff" fill-opacity="1" transform="matrix(1,0,0,1,-160,-69)"></path></svg>