<svg xmlns="http://www.w3.org/2000/svg" width="35" height="64" viewBox="0 0 35 64"><path fill="#011689" d="M25.75 56.84c-4.75-1.69-7.41-3.06-11.11-6.68a27.16 27.16 0 0 1-7.52-13.34 35.49 35.49 0 0 1 1.19-19.53 31.36 31.36 0 0 1 8.71-12.42 7.44 7.44 0 0 0 3.27-1.19C21.82 2.6 22.54.26 22.54.26s-.58 0-1.66.33c-2.02.64-3.99 1.79-4.05 4.19A31.47 31.47 0 0 0 5.81 26.56C5.07 36.99 8.8 47.13 17.23 53.49a30.99 30.99 0 0 0 8.37 4.41c1.43.54 4.58 1.8 5.75 3.24a8.66 8.66 0 0 1 1.53 2.62c.15.5 1.7.14 1.55-.37-1.16-3.84-4.93-5.21-8.68-6.55zm-5.2-49.79s-1.98-.47-3.92.15-2.95 2.6-2.95 2.6 1.15.68 2.97.18c1.82-.51 3.05-2.1 3.3-2.34zm-3.19 5.31s-2.01-.5-4 .13a5.8 5.8 0 0 0-3.04 2.64s1.17.7 3.04.2c1.86-.51 3.13-2.13 3.38-2.37l.62-.6zm-7.32 6.96c-1.83 1-2.47 3.18-2.47 3.18s1.28.46 3.01-.39c1.74-.86 2.68-2.69 2.87-2.98l.5-.71s-2.08-.1-3.91.9zm.78 5.78l.16-.85s-1.94.75-3.21 2.4c-1.28 1.66-.98 3.91-.98 3.91s1.36-.09 2.6-1.58c1.24-1.48 1.36-3.54 1.43-3.88zm-.17 6.78l-.08-.87s-1.65 1.28-2.4 3.23a5.9 5.9 0 0 0 .18 4.02s1.28-.48 2.04-2.26c.77-1.78.3-3.78.26-4.12zm2.69 11.22c.28-1.92-.7-3.73-.82-4.05l-.3-.81s-1.26 1.66-1.48 3.74a5.86 5.86 0 0 0 1.22 3.84s1.1-.8 1.38-2.72zm4.48 5.47c-.23-1.92-1.65-3.42-1.85-3.7l-.5-.7s-.79 1.93-.46 3.99c.34 2.06 2.18 3.39 2.18 3.39s.86-1.06.63-2.98zm3.53 4.68a5.86 5.86 0 0 0 3.19 2.28s.52-1.35-.46-3.02c-.97-1.67-2.86-2.48-3.16-2.66l-.74-.44s.05 2.08 1.17 3.84zM13.95 1l-.13-1s-1.86 1.55-2.65 3.85c-.79 2.3.24 4.56.24 4.56s1.59-.5 2.41-2.6c.81-2.1.19-4.41.13-4.81zm-5.6 5.97l-.34-.94s-1.49 1.91-1.77 4.33a6.82 6.82 0 0 0 1.21 4.4s1.46-.83 1.8-3.06c.35-2.23-.76-4.35-.9-4.73zM5.99 19.1c-.22-2.24-1.83-4.02-2.06-4.35l-.56-.83s-.96 2.22-.63 4.63a6.84 6.84 0 0 0 2.28 3.96s1.19-1.17.97-3.41zM4.3 27.73c-.98-2.03-3.1-3.14-3.43-3.38l-.82-.58s-.14 2.42 1 4.57a6.86 6.86 0 0 0 3.5 2.93s.73-1.51-.25-3.54zm-3.35 6.2L0 33.59s.53 2.37 2.21 4.13a6.76 6.76 0 0 0 4.15 1.86s.29-1.65-1.2-3.33c-1.49-1.69-3.83-2.18-4.21-2.32zm7.38 10.64c-1.78-1.37-4.17-1.42-4.57-1.48l-.99-.15s.96 2.23 2.94 3.63c1.98 1.41 4.44 1.05 4.44 1.05s-.03-1.68-1.82-3.05zm.11 7.31l-.98.24s1.75 1.68 4.12 2.21c2.36.53 4.49-.75 4.49-.75s-.67-1.53-2.84-2.11c-2.18-.58-4.4.31-4.79.41zm11.6 5.3a4.27 4.27 0 0 1 3.23 1.44s-1.79 1.71-4.22 1.71c-2.43 0-4.5-1.26-4.5-1.26l.9-.45c.36-.18 2.34-1.53 4.59-1.44z"/></svg>