<?xml version="1.0" encoding="utf-8"?>
<!-- Generator: Adobe Illustrator 17.0.1, SVG Export Plug-In . SVG Version: 6.00 Build 0)  -->
<!DOCTYPE svg PUBLIC "-//W3C//DTD SVG 1.1//EN" "http://www.w3.org/Graphics/SVG/1.1/DTD/svg11.dtd">
<svg version="1.1" id="Слой_1" xmlns="http://www.w3.org/2000/svg" xmlns:xlink="http://www.w3.org/1999/xlink" x="0px" y="0px"
	 width="35px" height="64px" viewBox="0 0 35 64" enable-background="new 0 0 35 64" xml:space="preserve">
<path fill="#011689" d="M0.01,63.39c-0.15,0.51,1.4,0.87,1.55,0.37c0,0,0.36-1.18,1.53-2.62c1.17-1.44,4.32-2.7,5.75-3.24
	c2.999-1.033,5.822-2.52,8.37-4.41c8.43-6.36,12.16-16.5,11.42-26.93c-0.594-8.447-4.566-16.298-11.02-21.78
	c-0.06-2.4-2.03-3.55-4.05-4.19c-1.08-0.33-1.66-0.33-1.66-0.33s0.72,2.34,2.25,3.42c0.981,0.65,2.101,1.057,3.27,1.19
	c3.876,3.365,6.867,7.63,8.71,12.42c2.219,6.27,2.631,13.037,1.19,19.53c-1.175,5.076-3.786,9.707-7.52,13.34
	c-3.7,3.62-6.36,4.99-11.11,6.68C4.94,58.18,1.17,59.55,0.01,63.39z M14.49,7.64c0.25,0.24,1.48,1.83,3.3,2.34
	c1.82,0.5,2.97-0.18,2.97-0.18s-1.01-1.98-2.95-2.6s-3.92-0.15-3.92-0.15L14.49,7.64z M17.7,12.96c0.25,0.24,1.52,1.86,3.38,2.37
	c1.87,0.5,3.04-0.2,3.04-0.2c-0.666-1.215-1.744-2.151-3.04-2.64c-1.99-0.63-4-0.13-4-0.13L17.7,12.96z M20.49,18.42l0.5,0.71
	c0.19,0.29,1.13,2.12,2.87,2.98c1.73,0.85,3.01,0.39,3.01,0.39s-0.64-2.18-2.47-3.18C22.57,18.32,20.49,18.42,20.49,18.42z
	 M25.05,28.98c1.24,1.49,2.6,1.58,2.6,1.58s0.3-2.25-0.98-3.91c-1.27-1.65-3.21-2.4-3.21-2.4l0.16,0.85
	C23.69,25.44,23.81,27.5,25.05,28.98z M24.05,36c0.76,1.78,2.04,2.26,2.04,2.26c0.529-1.278,0.593-2.7,0.18-4.02
	c-0.75-1.95-2.4-3.23-2.4-3.23l-0.08,0.87C23.75,32.22,23.28,34.22,24.05,36z M22.48,45.82c0.848-1.096,1.28-2.456,1.22-3.84
	c-0.22-2.08-1.48-3.74-1.48-3.74l-0.3,0.81c-0.12,0.32-1.1,2.13-0.82,4.05C21.38,45.02,22.48,45.82,22.48,45.82z M17.25,51.55
	c0,0,1.84-1.33,2.18-3.39c0.33-2.06-0.46-3.99-0.46-3.99l-0.5,0.7c-0.2,0.28-1.62,1.78-1.85,3.7S17.25,51.55,17.25,51.55z
	 M14.26,49.41l-0.74,0.44c-0.3,0.18-2.19,0.99-3.16,2.66c-0.98,1.67-0.46,3.02-0.46,3.02c1.294-0.371,2.42-1.176,3.19-2.28
	C14.21,51.49,14.26,49.41,14.26,49.41z M20.62,5.81c0.82,2.1,2.41,2.6,2.41,2.6s1.03-2.26,0.24-4.56C22.48,1.55,20.62,0,20.62,0
	l-0.13,1C20.43,1.4,19.81,3.71,20.62,5.81z M25.19,11.7c0.34,2.23,1.8,3.06,1.8,3.06c0.897-1.284,1.324-2.838,1.21-4.4
	c-0.28-2.42-1.77-4.33-1.77-4.33l-0.34,0.94C25.95,7.35,24.84,9.47,25.19,11.7z M29.42,22.51c1.191-1.02,1.996-2.418,2.28-3.96
	c0.33-2.41-0.63-4.63-0.63-4.63l-0.56,0.83c-0.23,0.33-1.84,2.11-2.06,4.35C28.23,21.34,29.42,22.51,29.42,22.51z M29.89,31.27
	c1.467-0.549,2.702-1.582,3.5-2.93c1.14-2.15,1-4.57,1-4.57l-0.82,0.58c-0.33,0.24-2.45,1.35-3.43,3.38S29.89,31.27,29.89,31.27z
	 M29.28,36.25c-1.49,1.68-1.2,3.33-1.2,3.33c1.557-0.122,3.023-0.779,4.15-1.86c1.68-1.76,2.21-4.13,2.21-4.13l-0.95,0.34
	C33.11,34.07,30.77,34.56,29.28,36.25z M24.29,47.62c0,0,2.46,0.36,4.44-1.05c1.98-1.4,2.94-3.63,2.94-3.63l-0.99,0.15
	c-0.4,0.06-2.79,0.11-4.57,1.48C24.32,45.94,24.29,47.62,24.29,47.62z M21.21,51.47c-2.17,0.58-2.84,2.11-2.84,2.11
	s2.13,1.28,4.49,0.75c2.37-0.53,4.12-2.21,4.12-2.21L26,51.88C25.61,51.78,23.39,50.89,21.21,51.47z M18.99,58.62l0.9,0.45
	c0,0-2.07,1.26-4.5,1.26s-4.22-1.71-4.22-1.71c0.818-0.924,1.996-1.449,3.23-1.44C16.65,57.09,18.63,58.44,18.99,58.62z"/>
</svg>
