<?xml version="1.0" encoding="utf-8"?>
<!-- Generator: Adobe Illustrator 17.0.1, SVG Export Plug-In . SVG Version: 6.00 Build 0)  -->
<!DOCTYPE svg PUBLIC "-//W3C//DTD SVG 1.1//EN" "http://www.w3.org/Graphics/SVG/1.1/DTD/svg11.dtd">
<svg version="1.1" id="Слой_1" xmlns="http://www.w3.org/2000/svg" xmlns:xlink="http://www.w3.org/1999/xlink" x="0px" y="0px"
	 width="128px" height="128px" viewBox="-214 43.5 128 128" enable-background="new -214 43.5 128 128" xml:space="preserve">
<filter  width="200%" height="200%" id="a" y="-50%" x="-50%">
	<feMorphology  result="SvgjsFeMorphology1016Out" radius="10" operator="dilate" in="SourceGraphic"></feMorphology>
	<feOffset  dy="20" result="SvgjsFeOffset1017Out" in="SvgjsFeMorphology1016Out"></feOffset>
	<feGaussianBlur  stdDeviation="20" result="SvgjsFeGaussianBlur1018Out" in="SvgjsFeOffset1017Out"></feGaussianBlur>
	<feComposite  in2="SourceAlpha" result="SvgjsFeComposite1019Out" operator="out" in="SvgjsFeGaussianBlur1018Out"></feComposite>
</filter>
<g filter="url(#a)">
	<path opacity="0.1" fill="#001837" d="M-214,43.5l128,0.98v3.02c-2.209,0-4,1.791-4,4s1.791,4,4,4v6c-2.209,0-4,1.791-4,4
		s1.791,4,4,4v6c-2.209,0-4,1.791-4,4s1.791,4,4,4v6c-2.209,0-4,1.791-4,4s1.791,4,4,4v6c-2.209,0-4,1.791-4,4s1.791,4,4,4v6
		c-2.209,0-4,1.791-4,4s1.791,4,4,4v6c-2.209,0-4,1.791-4,4s1.791,4,4,4v6c-2.209,0-4,1.791-4,4s1.791,4,4,4v6c-2.209,0-4,1.791-4,4
		s1.791,4,4,4v4h-128V43.5z"/>
</g>
<path fill="#FFFFFF" d="M-214,43.5l128,0.98v3.02c-2.209,0-4,1.791-4,4s1.791,4,4,4v6c-2.209,0-4,1.791-4,4c0,2.209,1.791,4,4,4v6
	c-2.209,0-4,1.791-4,4s1.791,4,4,4v6c-2.209,0-4,1.791-4,4s1.791,4,4,4v6c-2.209,0-4,1.791-4,4s1.791,4,4,4v6c-2.209,0-4,1.791-4,4
	s1.791,4,4,4v6c-2.209,0-4,1.791-4,4s1.791,4,4,4v6c-2.209,0-4,1.791-4,4s1.791,4,4,4v6c-2.209,0-4,1.791-4,4s1.791,4,4,4v4h-128
	V43.5z"/>
<path fill="#011689" d="M-128.61,116.03c-0.232,1.147-0.832,2.186-1.71,2.96l3.89,10.5h-3.47l-3.18-9.09h-1.95v9.1h-3.24v-17.92
	h3.24v5.92h1.32c1.72,0,2.22-1.58,2.36-3.29c0.1-1.16,0.17-2.29,0.19-2.63h3.18C-127.98,111.58-128.33,114.9-128.61,116.03z
	 M-165.27,95.95c0.03,4.74,1.2,6.36,2.44,6.38c1.24-0.02,2.42-1.64,2.44-6.38c-0.02-4.85-1.2-6.44-2.44-6.47
	C-164.07,89.51-165.24,91.1-165.27,95.95z M-162.9,105.27c-2.14-0.04-4.19-1.34-5.08-5.01c-0.358-1.435-0.529-2.911-0.51-4.39v-0.58
	c0.06-2.56,0.49-4.4,1.16-5.7c1.05-2.23,2.73-3.07,4.46-3.09h0.08c1.73,0.02,3.41,0.86,4.47,3.09c0.67,1.3,1.1,3.14,1.15,5.7
	l0.01,0.58c0,1.6-0.18,3.14-0.52,4.39c-0.88,3.67-2.93,4.97-5.07,5.01C-162.75,105.27-162.9,105.27-162.9,105.27z M-177.67,126.73
	c0.88,0,3.01-0.19,3.01-3.23c0-3.31-1.94-3.22-3.58-3.22c-0.27,0-0.53,0.06-0.53,0.06v6.31
	C-178.77,126.65-177.98,126.73-177.67,126.73z M-177.27,117.44c5.07,0,5.82,4.04,5.82,5.98c0,1.64-0.76,6.07-5.65,6.07h-4.9v-17.91
	h9.03v2.98h-5.8v2.92C-178.32,117.45-177.83,117.44-177.27,117.44z M-145.75,111.58h3.22v17.92h-3.22v-9.22h-4.44v9.22h-3.22v-17.92
	h3.22v5.72h4.44V111.58z M-138.32,104.88V89.94h-2.69v-2.98h8.64v2.98h-2.68v14.94L-138.32,104.88z M-150.19,96.23
	c-1.26,0-2.35-0.4-3.24-1.18c-0.876-0.736-1.376-1.826-1.36-2.97v-5.12h3.24v4.79c0,0.41,0.12,0.72,0.36,0.95
	c0.34,0.34,0.88,0.5,1.61,0.5h1.76v-6.24h3.23v17.92h-3.23v-8.65L-150.19,96.23z M-178.77,104.88H-182V86.96h10.47v17.92h-3.24
	V89.94h-4L-178.77,104.88z M-161.06,117.82c-0.21-2.84-0.64-3.3-3-3.3l-0.57,0.04l-0.08,3.26H-161.06z M-163.29,111.58
	c3.45,0,4.91,1.65,5.28,4.82c0.09,0.79,1.22,13.1,1.22,13.1h-3.3c0,0-0.6-8.34-0.64-8.7l-4.04-0.01l-0.31,8.71h-3.2l0.6-17.92
	H-163.29z M-125.92,93.2l0.08-3.25h0.6c2.36,0,2.75,0.42,2.97,3.25H-125.92z M-124.51,86.96h-4.38l-0.6,17.92h3.2l0.31-8.7h4.04
	c0.04,0.36,0.64,8.7,0.64,8.7h3.3c0,0-1.14-12.3-1.23-13.09C-119.6,88.62-121.06,86.96-124.51,86.96L-124.51,86.96z"/>
</svg>
